<svg width="16" height="16" viewBox="0 0 16 16" fill="none" xmlns="http://www.w3.org/2000/svg">
<g id="close">
<path id="Vector" d="M8.94233 8.00017L13.8043 3.13817C14.065 2.8775 14.065 2.4555 13.8043 2.1955C13.5437 1.93483 13.1217 1.93483 12.8617 2.1955L7.99967 7.0575L3.13767 2.1955C2.877 1.93483 2.455 1.93483 2.195 2.1955C1.935 2.45617 1.935 2.87817 2.195 3.13817L7.057 8.00017L2.195 12.8622C1.935 13.1228 1.935 13.5448 2.195 13.8048C2.325 13.9348 2.49567 14.0002 2.66633 14.0002C2.837 14.0002 3.00767 13.9348 3.13767 13.8048L7.99967 8.94283L12.8617 13.8048C12.9917 13.9348 13.1623 14.0002 13.333 14.0002C13.5037 14.0002 13.6743 13.9348 13.8043 13.8048C14.065 13.5442 14.065 13.1222 13.8043 12.8622L8.94233 8.00017Z" fill="#5F5F5F"/>
</g>
</svg>
