<svg width="11" height="14" viewBox="0 0 11 14" fill="none" xmlns="http://www.w3.org/2000/svg">
<g id="delete" clip-path="url(#clip0_4404_64113)">
<path id="Vector" d="M7.01999 4.32186L0.652188 2.85872C0.463643 2.81531 0.389408 2.69856 0.429482 2.50847C0.569412 1.85238 0.662042 1.07197 1.48093 0.986137C1.63006 0.970352 1.88758 1.00554 2.2535 1.0917C2.70745 1.19957 3.16239 1.3035 3.61831 1.40347C3.65313 1.41136 3.67415 1.39755 3.68138 1.36203C3.84397 0.566829 4.41256 0.33399 5.14867 0.501713C5.52839 0.588535 5.90778 0.674369 6.28684 0.759217C6.77955 0.869717 7.10507 0.99107 7.26339 1.12328C7.57347 1.38111 7.67365 1.75997 7.56394 2.25985C7.55672 2.29405 7.56986 2.3151 7.60336 2.32299C8.15717 2.45256 8.71032 2.57753 9.26281 2.6979C10.3803 2.94159 10.2285 3.90057 9.97724 4.74708C9.92929 4.9102 9.81465 4.96973 9.63333 4.92566C9.59786 4.91711 9.57848 4.93092 9.57519 4.9671C9.34592 7.3685 9.11763 9.76924 8.89032 12.1693C8.85616 12.5317 8.69389 12.7866 8.40352 12.9339C8.24191 13.0162 7.97027 13.0573 7.58858 13.0573C5.81416 13.0566 4.04007 13.0569 2.26631 13.0583C1.90367 13.0583 1.63498 12.9224 1.46023 12.6508C1.36235 12.4982 1.29534 12.2325 1.25921 11.8536C1.0273 9.43445 0.798687 7.03305 0.573354 4.64941C0.569923 4.61288 0.57415 4.57604 0.585765 4.54125C0.597379 4.50645 0.616126 4.47447 0.640802 4.44735C0.665479 4.42023 0.695542 4.39856 0.729066 4.38375C0.762589 4.36894 0.798833 4.3613 0.835476 4.36132L7.01605 4.36033C7.02057 4.35989 7.02481 4.35789 7.02803 4.35468C7.03126 4.35147 7.03327 4.34724 7.03373 4.34271C7.0342 4.33818 7.03308 4.33363 7.03058 4.32983C7.02807 4.32603 7.02433 4.32321 7.01999 4.32186ZM4.19084 1.53962L7.02295 2.18881C7.03509 2.19147 7.0478 2.18923 7.05831 2.18259C7.06882 2.17594 7.07629 2.16542 7.07911 2.15329L7.10572 2.03885C7.12256 1.96567 7.12465 1.88984 7.11187 1.8157C7.09909 1.74157 7.07169 1.67058 7.03123 1.6068C6.99078 1.54302 6.93807 1.4877 6.87611 1.44401C6.81415 1.40032 6.74417 1.36911 6.67017 1.35217L4.87177 0.939767C4.79778 0.922747 4.72121 0.920324 4.64643 0.932638C4.57166 0.944953 4.50014 0.971763 4.43598 1.01153C4.37182 1.0513 4.31628 1.10325 4.27252 1.16441C4.22877 1.22557 4.19766 1.29474 4.18099 1.36795L4.15537 1.4824C4.15391 1.48849 4.15367 1.49481 4.15466 1.501C4.15566 1.50718 4.15787 1.5131 4.16117 1.51843C4.16447 1.52375 4.16879 1.52836 4.17388 1.532C4.17898 1.53564 4.18474 1.53823 4.19084 1.53962ZM0.98329 2.43152L9.52296 4.38895C9.53275 4.39102 9.54297 4.3892 9.55143 4.38385C9.5599 4.37851 9.56595 4.37007 9.56829 4.36033L9.66979 3.91932C9.68756 3.84172 9.68886 3.76114 9.67361 3.68219C9.65836 3.60324 9.62686 3.52746 9.58092 3.4592C9.53498 3.39094 9.47549 3.33152 9.40585 3.28435C9.33622 3.23718 9.25781 3.20318 9.17511 3.1843L1.81991 1.4972C1.73728 1.47819 1.65194 1.47464 1.56879 1.48677C1.48563 1.49889 1.40627 1.52645 1.33526 1.56786C1.26425 1.60927 1.20297 1.66373 1.15492 1.72812C1.10687 1.79252 1.07299 1.86558 1.05523 1.94315L0.954713 2.38515C0.953541 2.39007 0.953351 2.39518 0.954154 2.40017C0.954957 2.40517 0.956736 2.40996 0.959391 2.41427C0.962046 2.41858 0.965523 2.42232 0.969624 2.42528C0.973725 2.42824 0.978369 2.43036 0.98329 2.43152ZM8.371 12.2532C8.38471 12.2212 8.39336 12.1875 8.39663 12.1535L9.08741 4.8862C9.08938 4.86515 9.07985 4.85462 9.05883 4.85462H1.13012C1.12472 4.85461 1.11938 4.8557 1.11444 4.85783C1.1095 4.85997 1.10507 4.86309 1.10144 4.867C1.09782 4.87091 1.09508 4.87552 1.0934 4.88052C1.09171 4.88553 1.09113 4.89082 1.09169 4.89606L1.78148 12.1447C1.79228 12.2599 1.84564 12.3669 1.93112 12.4449C2.0166 12.5228 2.12805 12.566 2.24365 12.5659C4.11595 12.5659 6.01223 12.5594 7.93249 12.5462C8.14271 12.5449 8.28889 12.4472 8.371 12.2532Z" fill="#4B41D9"/>
<path id="Vector_2" d="M4.1901 1.53927C4.184 1.53788 4.17824 1.53529 4.17315 1.53165C4.16805 1.52801 4.16373 1.5234 4.16043 1.51808C4.15713 1.51275 4.15492 1.50683 4.15392 1.50065C4.15293 1.49446 4.15317 1.48814 4.15463 1.48205L4.18025 1.3676C4.19692 1.29439 4.22803 1.22522 4.27178 1.16406C4.31554 1.1029 4.37109 1.05095 4.43525 1.01118C4.49941 0.971412 4.57092 0.944603 4.6457 0.932288C4.72047 0.919974 4.79704 0.922396 4.87103 0.939417L6.66943 1.35182C6.74343 1.36876 6.81341 1.39997 6.87537 1.44366C6.93733 1.48735 6.99004 1.54267 7.03049 1.60645C7.07095 1.67023 7.09835 1.74122 7.11113 1.81535C7.12391 1.88949 7.12182 1.96532 7.10498 2.0385L7.07838 2.15294C7.07555 2.16507 7.06808 2.17559 7.05757 2.18224C7.04706 2.18888 7.03435 2.19112 7.02221 2.18846L4.1901 1.53927Z" fill="white"/>
<path id="Vector_3" d="M0.982749 2.43105C0.977828 2.42989 0.973184 2.42776 0.969083 2.42481C0.964982 2.42185 0.961504 2.4181 0.95885 2.4138C0.956195 2.40949 0.954416 2.4047 0.953613 2.3997C0.95281 2.39471 0.953 2.3896 0.954171 2.38468L1.05468 1.94267C1.07245 1.86511 1.10633 1.79205 1.15438 1.72765C1.20243 1.66326 1.26371 1.6088 1.33472 1.56739C1.40573 1.52598 1.48509 1.49842 1.56824 1.4863C1.6514 1.47417 1.73674 1.47772 1.81937 1.49673L9.17457 3.18383C9.25727 3.20271 9.33568 3.23671 9.40531 3.28388C9.47495 3.33105 9.53443 3.39046 9.58038 3.45873C9.62632 3.52699 9.65782 3.60277 9.67307 3.68172C9.68832 3.76067 9.68702 3.84125 9.66925 3.91885L9.56775 4.35986C9.5654 4.3696 9.55935 4.37804 9.55089 4.38338C9.54242 4.38873 9.53221 4.39055 9.52242 4.38847L0.982749 2.43105Z" fill="white"/>
<path id="Vector_4" d="M8.37034 12.2528C8.28822 12.4468 8.14205 12.5445 7.93183 12.5458C6.01157 12.559 4.11529 12.5656 2.24298 12.5656C2.12738 12.5656 2.01594 12.5224 1.93046 12.4445C1.84498 12.3666 1.79162 12.2595 1.78082 12.1443L1.09102 4.89569C1.09047 4.89045 1.09105 4.88515 1.09273 4.88015C1.09441 4.87514 1.09716 4.87053 1.10078 4.86662C1.10441 4.86271 1.10884 4.85959 1.11378 4.85746C1.11872 4.85533 1.12406 4.85423 1.12946 4.85425H9.05817C9.07919 4.85425 9.08872 4.86477 9.08674 4.88582L8.39596 12.1532C8.3927 12.1872 8.38405 12.2208 8.37034 12.2528ZM3.19663 5.61347C3.19347 5.54892 3.16484 5.48826 3.11701 5.44485C3.06919 5.40143 3.0061 5.37882 2.94163 5.38197L2.93572 5.38226C2.87125 5.38542 2.81067 5.41409 2.7673 5.46197C2.72394 5.50985 2.70135 5.57301 2.70451 5.63756L3.00595 11.8083C3.0091 11.8729 3.03774 11.9335 3.08556 11.9769C3.13338 12.0204 3.19647 12.043 3.26094 12.0398L3.26685 12.0395C3.33132 12.0364 3.39191 12.0077 3.43527 11.9598C3.47863 11.9119 3.50122 11.8488 3.49807 11.7842L3.19663 5.61347ZM5.33721 5.6238C5.33721 5.55917 5.31157 5.49719 5.26592 5.45149C5.22027 5.40578 5.15836 5.38011 5.09381 5.38011H5.0879C5.02334 5.38011 4.96144 5.40578 4.91579 5.45149C4.87014 5.49719 4.8445 5.55917 4.8445 5.6238V11.798C4.8445 11.8626 4.87014 11.9246 4.91579 11.9703C4.96144 12.016 5.02334 12.0417 5.0879 12.0417H5.09381C5.15836 12.0417 5.22027 12.016 5.26592 11.9703C5.31157 11.9246 5.33721 11.8626 5.33721 11.798V5.6238ZM7.47233 5.63658C7.47548 5.57202 7.45289 5.50886 7.40953 5.46098C7.36617 5.4131 7.30558 5.38443 7.24111 5.38127L7.2352 5.38099C7.17073 5.37783 7.10764 5.40045 7.05982 5.44386C7.012 5.48728 6.98336 5.54793 6.98021 5.61249L6.67867 11.7852C6.67551 11.8498 6.6981 11.9129 6.74146 11.9608C6.78483 12.0087 6.84541 12.0374 6.90989 12.0405L6.91579 12.0408C6.98027 12.044 7.04335 12.0213 7.09117 11.9779C7.139 11.9345 7.16763 11.8739 7.17079 11.8093L7.47233 5.63658Z" fill="white"/>
<path id="Vector_5" d="M2.94237 5.38185L2.93647 5.38214C2.8022 5.38871 2.69868 5.50302 2.70525 5.63744L3.00669 11.8082C3.01325 11.9426 3.12742 12.0463 3.26169 12.0397L3.26759 12.0394C3.40186 12.0328 3.50538 11.9185 3.49881 11.7841L3.19737 5.61335C3.19081 5.47892 3.07664 5.37527 2.94237 5.38185Z" fill="#4B41D9"/>
<path id="Vector_6" d="M5.09404 5.38013H5.08813C4.9537 5.38013 4.84473 5.48923 4.84473 5.62382V11.798C4.84473 11.9326 4.9537 12.0417 5.08813 12.0417H5.09404C5.22846 12.0417 5.33744 11.9326 5.33744 11.798V5.62382C5.33744 5.48923 5.22846 5.38013 5.09404 5.38013Z" fill="#4B41D9"/>
<path id="Vector_7" d="M7.2412 5.38109L7.2353 5.3808C7.10103 5.37423 6.98686 5.47787 6.9803 5.6123L6.67876 11.785C6.6722 11.9195 6.77572 12.0338 6.90998 12.0403L6.91589 12.0406C7.05015 12.0472 7.16432 11.9436 7.17089 11.8091L7.47242 5.6364C7.47899 5.50197 7.37547 5.38766 7.2412 5.38109Z" fill="#4B41D9"/>
</g>
<defs>
<clipPath id="clip0_4404_64113">
<rect width="9.65714" height="12.6286" fill="white" transform="translate(0.467773 0.428467)"/>
</clipPath>
</defs>
</svg>
