<svg xmlns="http://www.w3.org/2000/svg" width="24" height="24" viewBox="0 0 24 24">
  <g id="Group_40595" data-name="Group 40595" transform="translate(-18377 515)">
    <rect id="Rectangle_17606" data-name="Rectangle 17606" width="24" height="24" transform="translate(18377 -515)" fill="none"/>
    <path id="Icon_material-delete-forever" data-name="Icon material-delete-forever" d="M8.581,21.8a2.169,2.169,0,0,0,2.163,2.163H19.4A2.169,2.169,0,0,0,21.559,21.8V8.826H8.581Zm2.66-7.7,1.525-1.525,2.3,2.293,2.293-2.293L18.888,14.1,16.6,16.4l2.293,2.293-1.525,1.525L15.07,17.921l-2.293,2.293-1.525-1.525L13.545,16.4Zm7.614-8.522L17.774,4.5H12.367L11.285,5.581H7.5V7.744H22.641V5.581Z" transform="translate(18373.5 -517.5)" fill="#f43b3b"/>
  </g>
</svg>
