<svg width="55" height="45" viewBox="0 0 55 45" fill="none" xmlns="http://www.w3.org/2000/svg">
<g id="download" clip-path="url(#clip0_4404_64148)">
<path id="Vector" d="M5.51709 15.0777C5.64099 15.0078 5.74591 14.9087 5.8227 14.789C5.89949 14.6692 5.94581 14.5325 5.95762 14.3908C6.09341 12.815 6.36657 11.3008 6.77709 9.84818C8.11762 5.11607 12.1629 1.35976 16.8666 0.189759C22.6597 -1.25024 29.0403 1.08502 32.2187 6.05397C32.3398 6.2447 32.5206 6.39047 32.7335 6.46912C32.9464 6.54778 33.1797 6.55503 33.3981 6.48976C34.8145 6.06344 36.3445 5.54239 37.8318 5.71292C42.4455 6.23397 46.1166 8.81555 47.836 13.0219C48.1613 13.8177 48.5766 14.435 49.0818 14.874C49.8634 15.5466 50.8108 16.0724 51.5213 16.8161C54.9176 20.3687 55.6045 25.7592 52.9802 29.9987C51.5924 32.2392 48.4566 34.6598 45.6855 34.6834C41.956 34.7119 37.4355 34.704 32.1239 34.6598C31.7292 34.6566 31.5192 34.4592 31.4939 34.0677L31.3945 32.5708C31.3692 32.195 31.5445 32.0087 31.9203 32.0119C36.3192 32.0277 40.3329 32.0071 43.9613 31.9503C48.8024 31.8745 52.8476 27.1992 51.4171 22.3582C50.6971 19.9203 49.0913 18.1708 46.5997 17.1098C46.0597 16.8824 45.6808 16.3234 45.5624 15.7645C44.7524 11.8377 41.7018 8.91502 37.7371 8.79186C35.5171 8.72239 33.7155 9.21029 32.3324 10.2555C32.2304 10.3327 32.1124 10.3861 31.9872 10.4118C31.862 10.4374 31.7327 10.4347 31.609 10.4037C31.4853 10.3728 31.3702 10.3145 31.2724 10.2331C31.1746 10.1517 31.0965 10.0493 31.0439 9.93344C28.8366 5.11134 24.436 2.18397 19.1166 2.78081C13.1245 3.4487 9.05078 8.65923 8.97025 14.604C8.96394 15.0208 9.02867 15.4266 9.16446 15.8213C9.24158 16.0449 9.22717 16.2899 9.12435 16.5035C9.02152 16.7172 8.83855 16.8822 8.61499 16.9629C5.67499 18.0208 3.8592 20.015 3.16762 22.9455C2.75078 24.7045 3.09815 26.4634 4.20973 28.2224C5.67815 30.5434 7.81446 31.7734 10.6187 31.9124C13.5997 32.064 17.6103 32.0877 22.6503 31.9834C23.0481 31.9771 23.2487 32.1713 23.2518 32.5661L23.2613 34.0866C23.2613 34.4687 23.0703 34.6629 22.6881 34.6692C18.6145 34.7071 14.416 34.7103 10.0929 34.6787C2.95446 34.6266 -1.69238 27.0571 0.770778 20.6671C1.72762 18.1819 3.30973 16.3187 5.51709 15.0777Z" fill="#4B41D9"/>
<path id="Vector_2" d="M19.9389 29.3026L17.9258 27.5831C17.9058 27.566 17.8896 27.545 17.8781 27.5213C17.8667 27.4976 17.8604 27.4718 17.8595 27.4455C17.8586 27.4192 17.8632 27.393 17.873 27.3686C17.8828 27.3442 17.8975 27.322 17.9163 27.3036L27.1768 17.83C27.1945 17.8121 27.2155 17.7978 27.2387 17.7881C27.2618 17.7784 27.2867 17.7734 27.3118 17.7734C27.337 17.7734 27.3618 17.7784 27.385 17.7881C27.4082 17.7978 27.4292 17.8121 27.4468 17.83L36.7358 27.1142C36.7697 27.1488 36.7892 27.195 36.79 27.2435C36.7909 27.292 36.7732 27.3389 36.7405 27.3747L34.9689 29.2694C34.9516 29.2877 34.9309 29.3022 34.9079 29.3124C34.8849 29.3225 34.8601 29.3279 34.8349 29.3283C34.8098 29.3288 34.7848 29.3242 34.7615 29.3149C34.7381 29.3056 34.7169 29.2918 34.6989 29.2742L29.3274 23.8221C29.3011 23.7945 29.2672 23.7754 29.23 23.7674C29.1928 23.7593 29.154 23.7627 29.1187 23.777C29.0835 23.7913 29.0533 23.8159 29.0322 23.8476C29.0111 23.8793 29.0001 23.9166 29.0005 23.9547L29.0479 44.7352C29.0479 44.7609 29.0427 44.7864 29.0326 44.81C29.0225 44.8336 29.0077 44.8549 28.9891 44.8727C28.9705 44.8904 28.9485 44.9041 28.9244 44.9131C28.9003 44.922 28.8746 44.926 28.8489 44.9247L25.931 44.7873C25.8825 44.7849 25.8367 44.7639 25.8032 44.7286C25.7696 44.6933 25.751 44.6465 25.751 44.5979L25.7132 23.9879C25.7136 23.9498 25.7025 23.9125 25.6814 23.8808C25.6604 23.8491 25.6302 23.8245 25.5949 23.8101C25.5597 23.7958 25.5209 23.7925 25.4837 23.8005C25.4465 23.8086 25.4125 23.8276 25.3863 23.8552L20.1995 29.2931C20.1655 29.3277 20.1196 29.348 20.0711 29.3498C20.0226 29.3515 19.9753 29.3347 19.9389 29.3026Z" fill="#4B41D9"/>
</g>
<defs>
<clipPath id="clip0_4404_64148">
<rect width="54.4737" height="45" fill="white" transform="translate(0.262695)"/>
</clipPath>
</defs>
</svg>
