<svg xmlns="http://www.w3.org/2000/svg" width="24" height="24" viewBox="0 0 24 24">
  <g id="Group_40596" data-name="Group 40596" transform="translate(-18323 515)">
    <rect id="Rectangle_17605" data-name="Rectangle 17605" width="24" height="24" transform="translate(18323 -515)" fill="none"/>
    <path id="Icon_awesome-edit" data-name="Icon awesome-edit" d="M12.937,2.677l2.9,2.9a.314.314,0,0,1,0,.443L8.817,13.037l-2.982.331a.625.625,0,0,1-.691-.691L5.475,9.7l7.018-7.018A.314.314,0,0,1,12.937,2.677Zm5.206-.736L16.574.373a1.257,1.257,0,0,0-1.774,0L13.663,1.511a.314.314,0,0,0,0,.443l2.9,2.9a.314.314,0,0,0,.443,0l1.138-1.138a1.257,1.257,0,0,0,0-1.774Zm-5.8,9.187V14.4H2.057V4.117H9.441A.4.4,0,0,0,9.714,4L11,2.719a.386.386,0,0,0-.273-.659H1.542A1.543,1.543,0,0,0,0,3.6V14.913a1.543,1.543,0,0,0,1.542,1.542H12.853A1.543,1.543,0,0,0,14.4,14.913V9.843a.386.386,0,0,0-.659-.273l-1.285,1.285A.4.4,0,0,0,12.339,11.128Z" transform="translate(18325.746 -511.231)" fill="#135ddf"/>
  </g>
</svg>
