<svg xmlns="http://www.w3.org/2000/svg" width="20.728" height="16.583" viewBox="0 0 20.728 16.583">
  <path id="Icon_awesome-eye-slash" data-name="Icon awesome-eye-slash" d="M10.364,12.955A4.646,4.646,0,0,1,5.736,8.644l-3.4-2.626a10.8,10.8,0,0,0-1.189,1.8,1.048,1.048,0,0,0,0,.945,10.388,10.388,0,0,0,9.215,5.746,10.06,10.06,0,0,0,2.523-.339l-1.681-1.3a4.668,4.668,0,0,1-.842.085Zm10.164,1.882-3.58-2.767a10.728,10.728,0,0,0,2.631-3.306,1.048,1.048,0,0,0,0-.945,10.388,10.388,0,0,0-9.215-5.746A9.98,9.98,0,0,0,5.593,3.294L1.472.109A.518.518,0,0,0,.745.2l-.636.818A.518.518,0,0,0,.2,1.746L19.256,16.473a.518.518,0,0,0,.727-.091l.636-.818A.518.518,0,0,0,20.528,14.837Zm-5.95-4.6L13.3,9.254A3.069,3.069,0,0,0,9.544,5.3a1.543,1.543,0,0,1,.3.914,1.511,1.511,0,0,1-.05.324L7.412,4.7a4.609,4.609,0,0,1,2.952-1.072,4.661,4.661,0,0,1,4.664,4.664,4.553,4.553,0,0,1-.45,1.947Z" transform="translate(0 0)" opacity="0.505"/>
</svg>
