<svg width="20" height="21" viewBox="0 0 20 21" fill="none" xmlns="http://www.w3.org/2000/svg">
<g id="filetype-pdf">
<path id="Union" fill-rule="evenodd" clip-rule="evenodd" d="M17.5018 6.46265V18.3376C17.5018 19.7184 16.3825 20.8376 15.0018 20.8376H13.7525V19.5876H15.0018C15.6922 19.5876 16.2518 19.028 16.2518 18.3376V6.46265H13.7518C12.7163 6.46265 11.8768 5.62318 11.8768 4.58765V2.08765H5.00181C4.31145 2.08765 3.75181 2.64729 3.75181 3.33765V14.5877H2.50181V3.33765C2.50181 1.95693 3.62109 0.837646 5.00181 0.837646H11.8768L17.5018 6.46265ZM1.99951 15.6501H0V20.6489H0.98877V18.9717H1.99219C2.35107 18.9717 2.65625 18.8996 2.90771 18.7556C3.16162 18.6091 3.35449 18.4114 3.48633 18.1623C3.62061 17.9109 3.68774 17.6289 3.68774 17.3164C3.68774 17.0039 3.62183 16.7219 3.48999 16.4704C3.35815 16.219 3.1665 16.02 2.91504 15.8735C2.66602 15.7246 2.36084 15.6501 1.99951 15.6501ZM2.68066 17.3164C2.68066 17.5019 2.64526 17.6606 2.57446 17.7925C2.5061 17.9219 2.40723 18.0219 2.27783 18.0927C2.14844 18.1611 1.99219 18.1953 1.80908 18.1953H0.985107V16.4375H1.80908C2.08252 16.4375 2.29614 16.5132 2.44995 16.6645C2.60376 16.8159 2.68066 17.0332 2.68066 17.3164ZM4.20264 15.6501V20.6489H6.02637C6.5293 20.6489 6.94556 20.55 7.27515 20.3523C7.60718 20.1545 7.85498 19.8677 8.01855 19.4917C8.18213 19.1157 8.26392 18.664 8.26392 18.1367C8.26392 17.6118 8.18213 17.1638 8.01855 16.7927C7.85742 16.4216 7.61206 16.1384 7.28247 15.9431C6.95288 15.7478 6.53418 15.6501 6.02637 15.6501H4.20264ZM5.19141 16.4558H5.89453C6.20459 16.4558 6.4585 16.5193 6.65625 16.6462C6.85645 16.7732 7.00415 16.9624 7.09937 17.2138C7.19702 17.4653 7.24585 17.779 7.24585 18.155C7.24585 18.4382 7.21777 18.6848 7.16162 18.8948C7.10791 19.1047 7.02612 19.2805 6.91626 19.4221C6.80884 19.5613 6.66968 19.6662 6.49878 19.737C6.32788 19.8054 6.12646 19.8396 5.89453 19.8396H5.19141V16.4558ZM9.87012 18.6604V20.6489H8.88135V15.6501H12.0674V16.4668H9.87012V17.862H11.877V18.6604H9.87012Z" fill="#354360"/>
</g>
</svg>
