<svg width="33" height="32" viewBox="0 0 33 32" fill="none" xmlns="http://www.w3.org/2000/svg">
<g id="file-text">
<path id="Vector" d="M18.9408 2.6665H8.27409C7.56684 2.6665 6.88857 2.94746 6.38847 3.44755C5.88837 3.94765 5.60742 4.62593 5.60742 5.33317V26.6665C5.60742 27.3737 5.88837 28.052 6.38847 28.5521C6.88857 29.0522 7.56684 29.3332 8.27409 29.3332H24.2741C24.9813 29.3332 25.6596 29.0522 26.1597 28.5521C26.6598 28.052 26.9408 27.3737 26.9408 26.6665V10.6665L18.9408 2.6665Z" stroke="white" stroke-width="2" stroke-linecap="round" stroke-linejoin="round"/>
<path id="Vector_2" d="M18.9414 2.6665V10.6665H26.9414" stroke="white" stroke-width="2" stroke-linecap="round" stroke-linejoin="round"/>
<path id="Vector_3" d="M21.6081 17.3335H10.9414" stroke="white" stroke-width="2" stroke-linecap="round" stroke-linejoin="round"/>
<path id="Vector_4" d="M21.6081 22.6665H10.9414" stroke="white" stroke-width="2" stroke-linecap="round" stroke-linejoin="round"/>
<path id="Vector_5" d="M13.6081 12H12.2747H10.9414" stroke="white" stroke-width="2" stroke-linecap="round" stroke-linejoin="round"/>
</g>
</svg>
