<svg xmlns="http://www.w3.org/2000/svg" width="22.236" height="22.595" viewBox="0 0 22.236 22.595">
  <path id="Icon_awesome-power-off" data-name="Icon awesome-power-off" d="M18.136,2.425a11.117,11.117,0,1,1-12.92,0,1.079,1.079,0,0,1,1.569.345l.708,1.26a1.076,1.076,0,0,1-.3,1.39,7.531,7.531,0,1,0,8.962,0,1.07,1.07,0,0,1-.291-1.385l.708-1.26a1.075,1.075,0,0,1,1.56-.35Zm-4.662,9.41V1.076A1.073,1.073,0,0,0,12.4,0H10.963A1.073,1.073,0,0,0,9.887,1.076v10.76a1.073,1.073,0,0,0,1.076,1.076H12.4A1.073,1.073,0,0,0,13.474,11.835Z" transform="translate(-0.562)" fill="#777"/>
</svg>
