<svg xmlns="http://www.w3.org/2000/svg" width="50" height="50" viewBox="0 0 50 50">
  <g id="Group_40612" data-name="Group 40612" transform="translate(-1541 -21)">
    <rect id="Rectangle_17596" data-name="Rectangle 17596" width="50" height="50" transform="translate(1541 21)" fill="#e8ebf2" opacity="0.788"/>
    <g id="Icon_ionic-ios-notifications" data-name="Icon ionic-ios-notifications" transform="translate(1549.615 30.032)">
      <path id="Path_18494" data-name="Path 18494" d="M17.5,31.525c1.871,0,2.894-1.324,2.894-3.189H14.6C14.6,30.2,15.627,31.525,17.5,31.525Z" transform="translate(-1.131 -3.519)" fill="#02b0b0"/>
      <path id="Path_18495" data-name="Path 18495" d="M25.767,21.76c-.927-1.222-2.75-1.938-2.75-7.408,0-5.614-2.479-7.871-4.79-8.412-.217-.054-.373-.126-.373-.355V5.411a1.468,1.468,0,1,0-2.937,0v.175c0,.223-.156.3-.373.355-2.317.548-4.79,2.8-4.79,8.412,0,5.47-1.823,6.18-2.75,7.408a1.194,1.194,0,0,0,.957,1.914H24.816A1.2,1.2,0,0,0,25.767,21.76Z" fill="#02b0b0"/>
    </g>
  </g>
</svg>
