<svg width="33" height="32" viewBox="0 0 33 32" fill="none" xmlns="http://www.w3.org/2000/svg">
<g id="RocketLaunch">
<path id="Vector" d="M13.3843 23.2424C13.3356 23.4361 12.1168 27.9999 5.41307 27.9999C5.14786 27.9999 4.8935 27.8945 4.70597 27.707C4.51843 27.5195 4.41307 27.2651 4.41307 26.9999C4.41307 20.2961 8.97682 19.0774 9.17057 19.0286C9.428 18.9643 9.70043 19.0049 9.92794 19.1415C10.1554 19.278 10.3194 19.4993 10.3837 19.7568C10.448 20.0142 10.4074 20.2866 10.2709 20.5141C10.1343 20.7416 9.913 20.9056 9.65557 20.9699C9.54307 21.0011 6.85307 21.7874 6.46057 25.9524C10.6256 25.5599 11.4131 22.8749 11.4456 22.7499C11.5119 22.4928 11.6776 22.2726 11.9063 22.1377C12.1349 22.0028 12.4079 21.9642 12.6649 22.0305C12.922 22.0968 13.1423 22.2625 13.2772 22.4912C13.4121 22.7199 13.4506 22.9928 13.3843 23.2499V23.2424ZM25.0093 14.8174L24.4131 15.4136V22.7049C24.4146 22.9685 24.3636 23.2299 24.2632 23.4736C24.1627 23.7174 24.0148 23.9388 23.8281 24.1249L19.5381 28.4124C19.3531 28.5987 19.133 28.7466 18.8906 28.8474C18.6481 28.9482 18.3881 29.0001 18.1256 28.9999C17.9089 28.9998 17.6936 28.9648 17.4881 28.8961C17.1352 28.7794 16.822 28.5663 16.5839 28.2809C16.3457 27.9955 16.1922 27.6492 16.1406 27.2811L15.4693 22.4699L9.94307 16.9436L5.13432 16.2724C4.76575 16.2207 4.41892 16.0672 4.13283 15.8291C3.84675 15.5911 3.63276 15.2779 3.51495 14.9249C3.39714 14.5718 3.38018 14.1929 3.46597 13.8308C3.55176 13.4686 3.73691 13.1376 4.00057 12.8749L8.28807 8.5849C8.47417 8.39813 8.69555 8.25023 8.93933 8.14979C9.18311 8.04936 9.44442 7.99841 9.70807 7.9999H16.9993L17.5956 7.40365C20.9306 4.0699 24.9493 3.92615 26.5218 4.0199C27.0094 4.04953 27.4693 4.25658 27.8147 4.602C28.1601 4.94741 28.3672 5.4073 28.3968 5.8949C28.4881 7.46365 28.3443 11.4824 25.0106 14.8174H25.0093ZM5.41307 14.2924L10.0568 14.9399L14.9993 9.9999H9.70807L5.41307 14.2924ZM11.8281 15.9999L16.4131 20.5849L23.5943 13.4036C24.5621 12.4424 25.3129 11.2851 25.7963 10.0096C26.2797 8.73408 26.4844 7.36987 26.3968 6.00865C25.0363 5.92428 23.6735 6.13118 22.3993 6.61554C21.1251 7.0999 19.969 7.85057 19.0081 8.8174L11.8281 15.9999ZM22.4131 17.4136L17.4718 22.3549L18.1218 26.9999L22.4131 22.7049V17.4136Z" fill="white"/>
</g>
</svg>
