<svg width="28" height="29" viewBox="0 0 28 29" fill="none" xmlns="http://www.w3.org/2000/svg">
<g id="Pasted-20231019-104315 1" clip-path="url(#clip0_4523_106052)">
<path id="Vector" d="M4.24407 0.314453H23.8218C26.0636 0.497246 27.7657 2.17872 27.916 4.42864V15.5047C27.8156 16.1745 27.1756 16.6367 26.5323 16.4382C26.1826 16.3304 25.9486 16.1221 25.8304 15.8133C25.774 15.6661 25.7458 15.4009 25.7458 15.0176C25.7465 11.6915 25.7467 8.36527 25.7463 5.03885C25.7463 4.60167 25.7197 4.28418 25.6666 4.08638C25.4057 3.11438 24.5351 2.4841 23.536 2.4841C17.2983 2.4841 11.0605 2.4841 4.82282 2.4841C4.45109 2.4841 4.18983 2.49946 4.03904 2.5302C3.25038 2.69075 2.60002 3.31127 2.39337 4.07824C2.34057 4.27532 2.31417 4.58901 2.31417 5.01932C2.31454 11.2527 2.31436 17.4861 2.31363 23.7195C2.31363 24.9464 3.28021 25.913 4.49738 25.9135C8.15684 25.9157 11.8165 25.9164 15.4763 25.9157C15.7067 25.9153 15.8876 25.9388 16.0193 25.9862C17.1225 26.3805 16.9088 27.8933 15.7643 28.0859H4.25004C2.00771 27.9058 0.30183 26.2346 0.144531 23.9842V4.40857C0.322442 2.17329 2.00175 0.475007 4.24407 0.314453Z" fill="#4B41D9"/>
<path id="Vector_2" d="M8.06349 6.49419C9.02031 6.77679 9.08106 8.18217 8.15136 8.5342C7.81615 8.66058 7.28025 8.61231 6.86422 8.61393C6.61074 8.61502 6.41818 8.59188 6.28656 8.5445C5.31998 8.1979 5.34168 6.85218 6.29524 6.50938C6.61363 6.39493 7.07576 6.44483 7.43484 6.44375C7.73642 6.44266 7.94597 6.45948 8.06349 6.49419Z" fill="#4B41D9"/>
<path id="Vector_3" d="M21.4254 6.44531H12.0591C11.4728 6.44531 10.9976 6.92056 10.9976 7.50681V7.5502C10.9976 8.13645 11.4728 8.6117 12.0591 8.6117H21.4254C22.0117 8.6117 22.4869 8.13645 22.4869 7.5502V7.50681C22.4869 6.92056 22.0117 6.44531 21.4254 6.44531Z" fill="#4B41D9"/>
<path id="Vector_4" d="M8.06349 13.0032C9.02031 13.2858 9.08106 14.6912 8.15136 15.0432C7.81615 15.1696 7.28025 15.1213 6.86422 15.123C6.61074 15.1241 6.41818 15.1009 6.28656 15.0535C5.31998 14.7069 5.34168 13.3612 6.29524 13.0184C6.61363 12.904 7.07576 12.9539 7.43484 12.9528C7.73642 12.9517 7.94597 12.9685 8.06349 13.0032Z" fill="#4B41D9"/>
<path id="Vector_5" d="M21.4254 12.9543H12.0591C11.4728 12.9543 10.9976 13.4296 10.9976 14.0158V14.0592C10.9976 14.6455 11.4728 15.1207 12.0591 15.1207H21.4254C22.0117 15.1207 22.4869 14.6455 22.4869 14.0592V14.0158C22.4869 13.4296 22.0117 12.9543 21.4254 12.9543Z" fill="#4B41D9"/>
<path id="Vector_6" d="M27.9159 26.8952V27.1122C27.8168 27.6658 27.4908 27.9904 26.9379 28.0858H26.7182C26.4543 28.0468 26.2292 27.9339 26.0429 27.7474C25.4474 27.15 24.8482 26.5517 24.2454 25.9525C24.232 25.9391 24.217 25.9371 24.2004 25.9465C23.0244 26.6184 21.7995 26.7938 20.5255 26.4727C18.441 25.9471 16.8995 24.0405 16.8518 21.8611C16.7948 19.2483 18.7925 17.0602 21.3804 16.872C23.9519 16.6849 26.2561 18.5567 26.5712 21.1207C26.7152 22.2938 26.4637 23.3911 25.8167 24.4126C25.807 24.4285 25.8086 24.443 25.8216 24.456C26.4418 25.0754 27.0581 25.6929 27.6707 26.3083C27.7965 26.4342 27.8783 26.6298 27.9159 26.8952ZM24.4417 21.7391C24.4417 21.0205 24.1563 20.3314 23.6482 19.8233C23.1401 19.3152 22.4509 19.0297 21.7324 19.0297C21.0138 19.0297 20.3247 19.3152 19.8166 19.8233C19.3085 20.3314 19.023 21.0205 19.023 21.7391C19.023 22.4576 19.3085 23.1468 19.8166 23.6549C20.3247 24.163 21.0138 24.4484 21.7324 24.4484C22.4509 24.4484 23.1401 24.163 23.6482 23.6549C24.1563 23.1468 24.4417 22.4576 24.4417 21.7391Z" fill="#4B41D9"/>
<path id="Vector_7" d="M8.10864 19.907C9.0443 20.2324 9.05786 21.582 8.12817 21.9362C7.8076 22.0582 7.29557 22.0083 6.89907 22.0126C6.6492 22.0152 6.45989 21.9962 6.33116 21.9557C5.33692 21.6433 5.3098 20.2417 6.30024 19.9065C6.43802 19.8598 6.64811 19.8377 6.93053 19.8403C7.3075 19.8435 7.79187 19.7963 8.10864 19.907Z" fill="#4B41D9"/>
<path id="Vector_8" d="M14.0057 19.9203C14.8985 20.2599 14.8953 21.5904 14.0068 21.9316C13.8734 21.9829 13.6671 22.009 13.3879 22.0097C13.0339 22.0104 12.6797 22.0111 12.3253 22.0119C12.0473 22.0126 11.8393 21.988 11.7016 21.9381C10.7437 21.5893 10.7713 20.2507 11.7151 19.9084C11.8417 19.8625 12.0134 19.8399 12.2304 19.8406C12.5551 19.8417 12.8795 19.8419 13.2035 19.8411C13.5958 19.8397 13.8632 19.8661 14.0057 19.9203Z" fill="#4B41D9"/>
</g>
<defs>
<clipPath id="clip0_4523_106052">
<rect width="27.7714" height="27.7714" fill="white" transform="translate(0.144531 0.314453)"/>
</clipPath>
</defs>
</svg>
