<svg id="Groupe_19338" data-name="Groupe 19338" xmlns="http://www.w3.org/2000/svg" width="28.984" height="28.984" viewBox="0 0 28.984 28.984">
  <path id="Tracé_18542" data-name="Tracé 18542" d="M-386.433,216h3.849a1.079,1.079,0,0,0,.131.049,2.109,2.109,0,0,1,1.685,2.092c.005.415,0,.83,0,1.244,0,.55,0,.549.5.753a3.191,3.191,0,0,1,.36.162.26.26,0,0,0,.367-.062c.351-.369.715-.725,1.077-1.082a2.114,2.114,0,0,1,3.083-.028q1.136,1.1,2.24,2.24a2.115,2.115,0,0,1-.009,3.064q-.543.556-1.1,1.1a.251.251,0,0,0-.075.341,6.242,6.242,0,0,1,.291.7.237.237,0,0,0,.268.181q.834-.012,1.668,0a2.1,2.1,0,0,1,1.938,1.359c.057.148.1.3.146.454v3.849c-.018.053-.04.1-.054.158a2.114,2.114,0,0,1-2.115,1.657c-.4,0-.792,0-1.188,0-.576,0-.575,0-.791.522a2.473,2.473,0,0,1-.141.308.29.29,0,0,0,.07.414c.378.355.742.725,1.1,1.1a2.1,2.1,0,0,1,.027,3q-1.135,1.183-2.32,2.319a2.1,2.1,0,0,1-3-.026c-.318-.308-.627-.626-.941-.939-.329-.329-.328-.328-.748-.148-.156.066-.312.134-.473.184a.231.231,0,0,0-.182.266c.008.556.006,1.112,0,1.669a2.072,2.072,0,0,1-.532,1.366,2.392,2.392,0,0,1-1.283.719h-3.849a1.06,1.06,0,0,0-.13-.049,2.113,2.113,0,0,1-1.685-2.092c0-.405,0-.811,0-1.216,0-.576,0-.576-.522-.791a2.814,2.814,0,0,1-.334-.151.259.259,0,0,0-.367.063c-.357.375-.726.74-1.1,1.1a2.114,2.114,0,0,1-3.063.007q-1.132-1.108-2.24-2.24a2.114,2.114,0,0,1,.01-3.063q.544-.556,1.1-1.1a.251.251,0,0,0,.074-.341,6.247,6.247,0,0,1-.291-.7.237.237,0,0,0-.268-.181c-.556.008-1.113.018-1.669,0a2.058,2.058,0,0,1-1.916-1.306,4.878,4.878,0,0,1-.168-.505v-3.849c.018-.052.04-.1.054-.157a2.112,2.112,0,0,1,2.142-1.658c.377,0,.754,0,1.131,0,.6,0,.6,0,.832-.547a1.727,1.727,0,0,1,.115-.258.314.314,0,0,0-.075-.46c-.379-.354-.743-.724-1.1-1.1a2.1,2.1,0,0,1-.028-2.959q1.152-1.207,2.36-2.36a2.1,2.1,0,0,1,2.959.024c.32.306.628.625.942.938.352.352.352.351.821.151a2.661,2.661,0,0,0,.416-.173.393.393,0,0,0,.175-.258c.016-.556,0-1.112.011-1.669a1.9,1.9,0,0,1,.762-1.571A6.2,6.2,0,0,1-386.433,216Zm-10.756,14.493c0,.491,0,.981,0,1.472,0,.364.089.455.447.456.745,0,1.491,0,2.236,0a.959.959,0,0,1,1.011.732q.345.909.746,1.8a.955.955,0,0,1-.207,1.252c-.519.522-1.041,1.04-1.56,1.562-.26.261-.263.385-.009.639q1.048,1.053,2.1,2.1c.255.254.382.254.64,0,.522-.519,1.04-1.041,1.562-1.56a.957.957,0,0,1,1.275-.2c.573.261,1.156.5,1.746.722a.974.974,0,0,1,.761,1.048c0,.745,0,1.491,0,2.236,0,.32.1.422.423.422q1.5,0,3,0c.338,0,.434-.1.435-.44,0-.755,0-1.509,0-2.264a.955.955,0,0,1,.724-.987c.607-.229,1.208-.476,1.8-.745a.955.955,0,0,1,1.253.2c.529.525,1.054,1.054,1.583,1.579.243.241.377.242.62,0q1.053-1.048,2.1-2.1c.263-.264.259-.388-.013-.661-.519-.521-1.042-1.039-1.561-1.561a.947.947,0,0,1-.2-1.229c.267-.591.518-1.19.748-1.8a.966.966,0,0,1,1.031-.743c.736,0,1.472,0,2.208,0,.363,0,.458-.091.458-.444q0-1.486,0-2.972c0-.343-.1-.44-.433-.441-.755,0-1.51,0-2.264,0a.957.957,0,0,1-.993-.718c-.231-.606-.475-1.208-.744-1.8a.959.959,0,0,1,.211-1.274c.519-.521,1.042-1.04,1.56-1.562.245-.246.247-.381.009-.62q-1.058-1.063-2.121-2.121c-.242-.241-.375-.239-.62,0-.529.525-1.054,1.054-1.582,1.58a.955.955,0,0,1-1.253.2c-.581-.266-1.172-.513-1.77-.738a.96.96,0,0,1-.749-1.024c0-.755,0-1.509,0-2.264,0-.3-.106-.407-.409-.408q-1.514,0-3.028,0c-.32,0-.42.1-.421.425,0,.745,0,1.491,0,2.236a.964.964,0,0,1-.738,1.035q-.909.346-1.8.747a.946.946,0,0,1-1.23-.2c-.529-.525-1.053-1.055-1.582-1.58-.256-.255-.384-.255-.64,0q-1.043,1.039-2.082,2.081c-.278.278-.274.392.013.68q.77.771,1.54,1.542a.954.954,0,0,1,.2,1.252c-.265.582-.512,1.173-.737,1.771a.972.972,0,0,1-1.05.756c-.708,0-1.415,0-2.123,0-.463,0-.529.064-.529.515Q-397.189,229.786-397.189,230.493Z" transform="translate(399 -216)" fill="#4b41d9"/>
  <path id="Tracé_18543" data-name="Tracé 18543" d="M-284.063,324.643a6.285,6.285,0,0,1,6.285,6.335,6.285,6.285,0,0,1-6.257,6.247,6.276,6.276,0,0,1-6.327-6.32A6.283,6.283,0,0,1-284.063,324.643Zm4.473,6.3a4.468,4.468,0,0,0-4.489-4.491,4.466,4.466,0,0,0-4.47,4.48,4.469,4.469,0,0,0,4.5,4.478A4.475,4.475,0,0,0-279.59,330.946Z" transform="translate(298.562 -316.442)" fill="#92c73e"/>
</svg>
