<svg width="24" height="24" viewBox="0 0 24 24" fill="none" xmlns="http://www.w3.org/2000/svg">
<g id="success">
<path id="Vector" d="M12 22C6.486 22 2 17.514 2 12C2 6.486 6.486 2 12 2C17.514 2 22 6.486 22 12C22 17.514 17.514 22 12 22ZM12 4C7.589 4 4 7.589 4 12C4 16.411 7.589 20 12 20C16.411 20 20 16.411 20 12C20 7.589 16.411 4 12 4Z" fill="#71D593"/>
<path id="Vector_2" d="M10.4006 16.3581C10.1186 16.3581 9.83764 16.2511 9.62264 16.0361L6.69364 13.1071C6.30264 12.7161 6.30264 12.0831 6.69364 11.6931C7.08464 11.3031 7.71764 11.3021 8.10764 11.6931L10.4006 13.9861L15.7556 8.63114C16.1466 8.24014 16.7796 8.24014 17.1696 8.63114C17.5606 9.02214 17.5606 9.65514 17.1696 10.0451L11.1776 16.0371C10.9636 16.2511 10.6826 16.3581 10.4006 16.3581Z" fill="#71D593"/>
</g>
</svg>
