<svg xmlns="http://www.w3.org/2000/svg" width="137.286" height="197.693" viewBox="0 0 137.286 197.693">
  <g id="Group_63" data-name="Group 63" transform="translate(-1381 -133.139)">
    <g id="Group_56" data-name="Group 56" transform="translate(1416 133.139)">
      <g id="Group_14" data-name="Group 14" transform="translate(0 0)">
        <path id="Path_1" data-name="Path 1" d="M100.39,134.772c.041,10.675-10.537,18.422-20.556,14.737A59.138,59.138,0,0,1,78.766,38.915a15.558,15.558,0,0,1,21.31,14.348Z" transform="translate(-31.764 -37.821)" fill="#135ddf"/>
        <path id="Path_2" data-name="Path 2" d="M32.743,166.731a13.437,13.437,0,0,0,17.349,12.826,59.135,59.135,0,0,0-.436-113.082,13.437,13.437,0,0,0-17.25,12.96Z" transform="translate(-32.406 -35.753)" fill="#02b2b2"/>
        <path id="Path_3" data-name="Path 3" d="M49.1,66.511A59.144,59.144,0,0,0,82.087,147.4a14.941,14.941,0,0,0,3.2.771A59.148,59.148,0,0,0,49.1,66.511Z" transform="translate(-31.598 -35.708)" fill="#ffce00"/>
      </g>
    </g>
    <g id="Group_55" data-name="Group 55" transform="translate(1381 297.52)">
      <path id="Path_24" data-name="Path 24" d="M120.709,65.543a1.725,1.725,0,0,1-1.266-.528,1.669,1.669,0,0,1-.528-1.248,1.728,1.728,0,0,1,.528-1.267,1.757,1.757,0,0,1,1.266-.51H128.5a4.723,4.723,0,0,0,3.218-1,3.689,3.689,0,0,0,1.214-2.831q.053-2.391-1.126-3.166a10.477,10.477,0,0,0-4.274-.862,14.315,14.315,0,0,1-5.61-1.213q-3.026-1.671-3.008-6.033a7.432,7.432,0,0,1,1.776-4.855,6.05,6.05,0,0,1,4.836-2.251h7.58a1.727,1.727,0,0,1,1.266.528,1.7,1.7,0,0,1,.51,1.249,1.743,1.743,0,0,1-1.777,1.776h-7.58a2.655,2.655,0,0,0-2.339,1.284,3.965,3.965,0,0,0-.7,2.3q-.017,2.163,1.126,2.867a11.3,11.3,0,0,0,4.169.791,14.271,14.271,0,0,1,5.733,1.284q3.077,1.759,2.972,6.384a7.08,7.08,0,0,1-2.269,5.294,8.156,8.156,0,0,1-5.716,2Z" transform="translate(-118.915 -39.777)" fill="#135ddf"/>
      <path id="Path_25" data-name="Path 25" d="M188.062,74.629a9.334,9.334,0,0,1-2.568,6.613A8.266,8.266,0,0,1,175.24,82.9a8.785,8.785,0,0,1-3.13-3.025,1.727,1.727,0,0,1-.229-1.337,1.815,1.815,0,0,1,2.128-1.354,1.747,1.747,0,0,1,1.108.792,4.766,4.766,0,0,0,4.221,2.462,4.7,4.7,0,0,0,3.64-1.706,5.9,5.9,0,0,0,1.513-4.08v-.053a8.254,8.254,0,0,1-11.326-.914,9.369,9.369,0,0,1-2.55-6.613V59.5a1.728,1.728,0,0,1,.528-1.266,1.7,1.7,0,0,1,1.249-.51,1.742,1.742,0,0,1,1.776,1.776v7.563a5.965,5.965,0,0,0,1.513,4.1,4.771,4.771,0,0,0,3.658,1.688,4.717,4.717,0,0,0,3.64-1.688,5.963,5.963,0,0,0,1.513-4.1V59.5a1.726,1.726,0,0,1,.528-1.266,1.757,1.757,0,0,1,1.266-.51,1.7,1.7,0,0,1,1.249.51,1.728,1.728,0,0,1,.528,1.266Z" transform="translate(-150.301 -50.674)" fill="#135ddf"/>
      <path id="Path_26" data-name="Path 26" d="M232.694,57.771A8.127,8.127,0,0,1,238.85,60.5a9.332,9.332,0,0,1,2.568,6.613v7.563a1.727,1.727,0,0,1-.528,1.266,1.669,1.669,0,0,1-1.249.528,1.8,1.8,0,0,1-1.794-1.794V67.11a5.9,5.9,0,0,0-1.512-4.08,4.753,4.753,0,0,0-7.282-.017,5.927,5.927,0,0,0-1.53,4.1v7.563a1.757,1.757,0,0,1-.51,1.266,1.726,1.726,0,0,1-1.266.528,1.668,1.668,0,0,1-1.248-.528,1.725,1.725,0,0,1-.528-1.266V59.548a1.725,1.725,0,0,1,.528-1.266,1.7,1.7,0,0,1,1.248-.51,1.743,1.743,0,0,1,1.776,1.777v.035A8.156,8.156,0,0,1,232.694,57.771Z" transform="translate(-182.692 -50.701)" fill="#135ddf"/>
      <path id="Path_27" data-name="Path 27" d="M284.445,57.771a9.338,9.338,0,0,1,9.339,9.339v7.563a1.725,1.725,0,0,1-.528,1.266,1.668,1.668,0,0,1-1.248.528,1.726,1.726,0,0,1-1.266-.528,1.756,1.756,0,0,1-.51-1.266V67.11a5.8,5.8,0,1,0-5.787,5.786,6.959,6.959,0,0,0,2.216-.422,2.509,2.509,0,0,1,1.372-.14,1.652,1.652,0,0,1,1.038.862,1.773,1.773,0,0,1-.721,2.409,8.012,8.012,0,0,1-3.9.862,9.348,9.348,0,1,1,0-18.7Z" transform="translate(-213.724 -50.701)" fill="#135ddf"/>
      <path id="Path_28" data-name="Path 28" d="M340.979,57.771a9.34,9.34,0,0,1,6.6,15.953,8.993,8.993,0,0,1-6.6,2.743,9.209,9.209,0,0,1-4.08-.932,1.775,1.775,0,0,1-.914-1.02,1.794,1.794,0,0,1,.088-1.372,1.722,1.722,0,0,1,1.02-.9,1.7,1.7,0,0,1,1.354.071,5.732,5.732,0,0,0,2.533.58,5.77,5.77,0,1,0-5.8-5.786V81.743a1.742,1.742,0,0,1-1.776,1.776,1.7,1.7,0,0,1-1.249-.51,1.727,1.727,0,0,1-.528-1.266V67.11a9.338,9.338,0,0,1,9.357-9.339Z" transform="translate(-248.045 -50.701)" fill="#135ddf"/>
      <path id="Path_29" data-name="Path 29" d="M395.7,66.329a6.327,6.327,0,0,1,.018,8.231,5.711,5.711,0,0,1-4.5,1.935H385.9a1.8,1.8,0,0,1-1.776-1.776,1.727,1.727,0,0,1,.528-1.267,1.67,1.67,0,0,1,1.249-.528h5.312a2.358,2.358,0,0,0,1.846-.721,2.552,2.552,0,0,0,.6-1.741,2.759,2.759,0,0,0-.334-1.337q-.6-1.143-4.133-1.143a4.8,4.8,0,0,1-3.764-1.618,5.293,5.293,0,0,1-.035-6.912,4.819,4.819,0,0,1,3.8-1.636h5.17a1.771,1.771,0,0,1,1.776,1.776,1.671,1.671,0,0,1-.527,1.249,1.707,1.707,0,0,1-1.249.528h-5.17a1.421,1.421,0,0,0-1.126.44,1.6,1.6,0,0,0-.37,1.09,1.338,1.338,0,0,0,1.5,1.53Q394.012,64.429,395.7,66.329Z" transform="translate(-279.92 -50.728)" fill="#135ddf"/>
      <path id="Path_30" data-name="Path 30" d="M440.031,63.769v.018a1.779,1.779,0,0,1-.985,2.3l-9.955,3.992a1.781,1.781,0,0,1-.651.123,1.78,1.78,0,0,1-.668-3.43l8.073-3.236a5.783,5.783,0,1,0,.018,7.123,1.727,1.727,0,0,1,1.2-.669,1.7,1.7,0,0,1,1.3.37,1.755,1.755,0,0,1,.317,2.5,8.908,8.908,0,0,1-7.37,3.605,9.348,9.348,0,1,1,0-18.7,9.373,9.373,0,0,1,8.724,5.98Z" transform="translate(-302.882 -50.701)" fill="#135ddf"/>
    </g>
  </g>
</svg>
