<svg width="33" height="32" viewBox="0 0 33 32" fill="none" xmlns="http://www.w3.org/2000/svg">
<g id="Users" clip-path="url(#clip0_1934_77900)">
<path id="Vector" d="M14.9996 19.7401C16.3398 18.8479 17.3574 17.548 17.9017 16.0327C18.446 14.5174 18.4883 12.8671 18.0222 11.326C17.5561 9.78483 16.6064 8.43458 15.3136 7.4749C14.0208 6.51522 12.4534 5.99707 10.8433 5.99707C9.23323 5.99707 7.66587 6.51522 6.37304 7.4749C5.0802 8.43458 4.13052 9.78483 3.66444 11.326C3.19835 12.8671 3.2406 14.5174 3.78495 16.0327C4.32929 17.548 5.34682 18.8479 6.68707 19.7401C4.26269 20.6337 2.19221 22.2872 0.784574 24.4539C0.710593 24.5638 0.659207 24.6874 0.6334 24.8174C0.607594 24.9474 0.607883 25.0812 0.63425 25.2111C0.660618 25.3409 0.712538 25.4643 0.786992 25.5739C0.861446 25.6835 0.95695 25.7773 1.06795 25.8497C1.17895 25.9221 1.30324 25.9717 1.43358 25.9956C1.56393 26.0196 1.69773 26.0174 1.82722 25.9892C1.9567 25.9609 2.07929 25.9073 2.18785 25.8312C2.2964 25.7552 2.38877 25.6584 2.45957 25.5464C3.36756 24.1498 4.61002 23.0023 6.07412 22.2078C7.53822 21.4134 9.17758 20.9973 10.8433 20.9973C12.5091 20.9973 14.1484 21.4134 15.6125 22.2078C17.0766 23.0023 18.3191 24.1498 19.2271 25.5464C19.3737 25.7644 19.6003 25.9159 19.8578 25.9681C20.1153 26.0204 20.383 25.9692 20.6031 25.8257C20.8231 25.6822 20.9779 25.4578 21.0338 25.2011C21.0898 24.9444 21.0424 24.676 20.9021 24.4539C19.4944 22.2872 17.424 20.6337 14.9996 19.7401ZM5.34332 13.5001C5.34332 12.4123 5.66589 11.3489 6.27024 10.4445C6.87459 9.54001 7.73357 8.83506 8.73856 8.41878C9.74356 8.00249 10.8494 7.89358 11.9163 8.10579C12.9832 8.31801 13.9632 8.84184 14.7324 9.61103C15.5016 10.3802 16.0254 11.3602 16.2376 12.4271C16.4499 13.494 16.3409 14.5999 15.9247 15.6049C15.5084 16.6099 14.8034 17.4688 13.899 18.0732C12.9945 18.6775 11.9311 19.0001 10.8433 19.0001C9.38514 18.9985 7.98715 18.4185 6.95606 17.3874C5.92497 16.3563 5.34498 14.9583 5.34332 13.5001ZM31.6108 25.8376C31.3887 25.9825 31.1181 26.0331 30.8586 25.9785C30.5991 25.9239 30.372 25.7685 30.2271 25.5464C29.3202 24.149 28.0779 23.0009 26.6135 22.2068C25.1491 21.4127 23.5092 20.9979 21.8433 21.0001C21.5781 21.0001 21.3238 20.8948 21.1362 20.7072C20.9487 20.5197 20.8433 20.2653 20.8433 20.0001C20.8433 19.7349 20.9487 19.4805 21.1362 19.293C21.3238 19.1055 21.5781 19.0001 21.8433 19.0001C22.6533 18.9993 23.4531 18.8197 24.1856 18.474C24.9181 18.1283 25.5651 17.6251 26.0806 17.0003C26.5961 16.3756 26.9672 15.6447 27.1674 14.8598C27.3677 14.075 27.3921 13.2557 27.239 12.4603C27.0858 11.6649 26.7589 10.9132 26.2816 10.2589C25.8043 9.60449 25.1883 9.06362 24.4777 8.6749C23.7671 8.28619 22.9794 8.05921 22.171 8.0102C21.3625 7.96118 20.5532 8.09134 19.8008 8.39136C19.6782 8.44439 19.5461 8.47229 19.4125 8.47342C19.2788 8.47455 19.1463 8.44889 19.0228 8.39794C18.8992 8.34699 18.7872 8.2718 18.6932 8.1768C18.5992 8.0818 18.5252 7.96893 18.4755 7.84485C18.4259 7.72077 18.4017 7.588 18.4042 7.45439C18.4068 7.32077 18.4361 7.18903 18.4904 7.06693C18.5447 6.94483 18.623 6.83486 18.7205 6.74352C18.8181 6.65218 18.9329 6.58131 19.0583 6.53511C20.7802 5.84843 22.6953 5.82372 24.4342 6.46575C26.1732 7.10778 27.6128 8.37106 28.4753 10.0119C29.3378 11.6527 29.5621 13.5548 29.1049 15.3513C28.6478 17.1477 27.5415 18.7112 25.9996 19.7401C28.424 20.6337 30.4944 22.2872 31.9021 24.4539C32.0469 24.676 32.0976 24.9466 32.043 25.2061C31.9884 25.4655 31.8329 25.6927 31.6108 25.8376Z" fill="white"/>
</g>
<defs>
<clipPath id="clip0_1934_77900">
<rect width="32" height="32" fill="white" transform="translate(0.34375)"/>
</clipPath>
</defs>
</svg>
