<svg width="24" height="24" viewBox="0 0 24 24" fill="none" xmlns="http://www.w3.org/2000/svg">
<g id="RocketLaunch">
<path id="Vector" d="M9.72867 17.4319C9.69211 17.5772 8.77805 21 3.75023 21C3.55132 21 3.36056 20.921 3.2199 20.7804C3.07925 20.6397 3.00023 20.449 3.00023 20.25C3.00023 15.2222 6.42305 14.3082 6.56836 14.2716C6.76143 14.2234 6.96575 14.2538 7.13638 14.3562C7.30701 14.4586 7.42997 14.6246 7.4782 14.8177C7.52644 15.0108 7.496 15.2151 7.39359 15.3857C7.29118 15.5564 7.12518 15.6793 6.93211 15.7275C6.84773 15.751 4.83023 16.3407 4.53586 19.4644C7.65961 19.17 8.25023 17.1563 8.27461 17.0625C8.32434 16.8697 8.44863 16.7046 8.62013 16.6034C8.79164 16.5022 8.99632 16.4733 9.18914 16.523C9.38196 16.5727 9.54713 16.697 9.64831 16.8685C9.74949 17.04 9.7784 17.2447 9.72867 17.4375V17.4319ZM18.4474 11.1132L18.0002 11.5604V17.0288C18.0013 17.2265 17.9631 17.4225 17.8878 17.6054C17.8125 17.7882 17.7016 17.9542 17.5615 18.0938L14.344 21.3094C14.2052 21.4492 14.0402 21.56 13.8584 21.6357C13.6765 21.7113 13.4815 21.7502 13.2846 21.75C13.1221 21.75 12.9606 21.7237 12.8065 21.6722C12.5418 21.5847 12.3069 21.4249 12.1283 21.2108C11.9497 20.9968 11.8346 20.737 11.7959 20.461L11.2924 16.8525L7.14773 12.7079L3.54117 12.2044C3.26474 12.1656 3.00462 12.0505 2.79005 11.872C2.57549 11.6934 2.415 11.4586 2.32664 11.1938C2.23829 10.929 2.22556 10.6448 2.28991 10.3732C2.35425 10.1016 2.49311 9.8533 2.69086 9.65629L5.90648 6.43879C6.04606 6.29872 6.21209 6.18779 6.39492 6.11247C6.57776 6.03715 6.77375 5.99893 6.97148 6.00004H12.4399L12.8871 5.55286C15.3884 3.05254 18.4024 2.94473 19.5818 3.01504C19.9475 3.03727 20.2924 3.19256 20.5515 3.45162C20.8105 3.71068 20.9658 4.0556 20.988 4.42129C21.0565 5.59786 20.9487 8.61192 18.4484 11.1132H18.4474ZM3.75023 10.7194L7.23305 11.205L10.9399 7.50004H6.97148L3.75023 10.7194ZM8.56148 12L12.0002 15.4388L17.3862 10.0529C18.112 9.33192 18.6751 8.46396 19.0377 7.50732C19.4002 6.55068 19.5538 5.52752 19.488 4.50661C18.4677 4.44333 17.4455 4.59851 16.4899 4.96178C15.5343 5.32505 14.6672 5.88805 13.9465 6.61317L8.56148 12ZM16.5002 13.0604L12.7943 16.7663L13.2818 20.25L16.5002 17.0288V13.0604Z" fill="#4B41D9"/>
</g>
</svg>
