<svg width="24" height="25" viewBox="0 0 24 25" fill="none" xmlns="http://www.w3.org/2000/svg">
<g id="Group 19857">
<path id="Path 18904" d="M11.9835 24.4909H6.82045C5.69435 24.4857 4.61591 24.0359 3.81989 23.2394C3.02386 22.4428 2.57472 21.3641 2.57025 20.238C2.57025 18.5256 2.57025 16.8136 2.57025 15.1018C2.56041 14.8893 2.63033 14.6809 2.76628 14.5173C2.90223 14.3537 3.09439 14.2468 3.30508 14.2176C3.51577 14.1883 3.72977 14.2389 3.90511 14.3593C4.08044 14.4797 4.20445 14.6614 4.25281 14.8685C4.27441 14.9728 4.28312 15.0794 4.27874 15.1859C4.27874 16.8547 4.27874 18.5236 4.27874 20.1924C4.27331 20.5344 4.33665 20.874 4.46502 21.191C4.59339 21.508 4.78417 21.796 5.02601 22.0378C5.26785 22.2796 5.55584 22.4704 5.87285 22.5988C6.18986 22.7272 6.52944 22.7905 6.87141 22.7851H17.117C17.4562 22.7888 17.7928 22.7248 18.107 22.5969C18.4213 22.469 18.7069 22.2797 18.9471 22.0401C19.1873 21.8006 19.3774 21.5155 19.5062 21.2016C19.635 20.8877 19.6999 20.5513 19.6971 20.2121C19.6971 18.5087 19.6971 16.8055 19.6971 15.1027C19.6891 14.8904 19.7607 14.6827 19.8977 14.5202C20.0347 14.3578 20.2274 14.2523 20.4381 14.2243C20.6487 14.1964 20.8622 14.248 21.0369 14.3691C21.2115 14.4902 21.3347 14.6721 21.3823 14.8792C21.4015 14.9673 21.4096 15.0574 21.4065 15.1474C21.4065 16.8863 21.4118 18.6252 21.4065 20.3641C21.374 21.3601 20.9943 22.3135 20.3331 23.0591C19.6719 23.8048 18.7707 24.2958 17.7857 24.4471C17.5029 24.4811 17.2184 24.4981 16.9337 24.498C15.2842 24.5025 13.6347 24.498 11.9852 24.498L11.9835 24.4909Z" fill="#919191"/>
<path id="Path 18905" d="M12.0004 2.514C11.8833 2.65794 11.8279 2.74109 11.7591 2.80993C8.3552 6.21736 4.95075 9.62418 1.54571 13.0304C1.47094 13.1251 1.37721 13.2031 1.27054 13.2595C1.16387 13.3159 1.0466 13.3493 0.926249 13.3578C0.805894 13.3662 0.685098 13.3494 0.571618 13.3084C0.458138 13.2674 0.354477 13.2032 0.267257 13.1198C0.106445 12.9686 0.0108899 12.7607 0.0008746 12.5402C-0.00914069 12.3197 0.0671746 12.104 0.213618 11.9388C0.266365 11.878 0.32536 11.8235 0.381684 11.7663L11.2602 0.886878C11.3415 0.766951 11.4511 0.668852 11.5793 0.60122C11.7074 0.533588 11.8503 0.4985 11.9952 0.499029C12.1401 0.499559 12.2826 0.535694 12.4103 0.604262C12.538 0.672829 12.6468 0.77172 12.7273 0.892239L23.6434 11.8092C23.7426 11.8855 23.8241 11.9825 23.8822 12.0934C23.9403 12.2044 23.9736 12.3266 23.9798 12.4517C23.986 12.5767 23.965 12.7017 23.9181 12.8178C23.8713 12.9339 23.7998 13.0385 23.7086 13.1243C23.5562 13.2712 23.3543 13.3555 23.1427 13.3607C22.9312 13.3658 22.7254 13.2913 22.566 13.152C22.4918 13.0885 22.4248 13.0161 22.3551 12.9464C18.9756 9.56518 15.5968 6.18339 12.2186 2.80099C12.1403 2.7097 12.0675 2.61386 12.0004 2.514Z" fill="#919191"/>
</g>
</svg>
