<svg width="24" height="24" viewBox="0 0 24 24" fill="none" xmlns="http://www.w3.org/2000/svg">
<path d="M14.3494 5.64373C10.9458 3.76736 7.75303 4.35645 4.79303 6.72736C4.70091 6.80009 4.61122 6.79524 4.52394 6.71282L4.37122 6.56009C4.18697 6.371 4.19425 6.1916 4.39303 6.02191C7.44273 3.36979 10.8052 2.95524 14.4803 4.77827C14.5687 4.82147 14.6399 4.89383 14.6821 4.9836C14.7243 5.07338 14.7352 5.1753 14.713 5.27282L14.6476 5.50554C14.6039 5.68494 14.5045 5.731 14.3494 5.64373Z" fill="#4B41D9"/>
<path d="M14.1387 8.26908C11.5423 5.92726 8.96048 6.40726 6.25502 8.23272C6.22586 8.25284 6.1926 8.26625 6.15764 8.27199C6.12268 8.27774 6.08688 8.27567 6.05281 8.26593C6.01874 8.2562 5.98725 8.23904 5.9606 8.2157C5.93395 8.19235 5.91279 8.16339 5.89866 8.1309C5.86957 8.06787 5.84533 8.00242 5.82593 7.93454C5.79684 7.85696 5.80654 7.78666 5.85502 7.72363C7.82593 4.99636 12.175 5.55636 14.4296 7.43272C14.5002 7.49014 14.5493 7.57004 14.569 7.65968C14.5888 7.74931 14.5781 7.84351 14.5387 7.92726L14.4078 8.2109C14.3399 8.35151 14.2502 8.3709 14.1387 8.26908Z" fill="#4B41D9"/>
<path d="M3.30801 14.6623C3.30708 14.839 3.27137 15.0138 3.2029 15.1766C3.13443 15.3395 3.03454 15.4873 2.90895 15.6116C2.78336 15.7359 2.63452 15.8342 2.47092 15.901C2.30733 15.9677 2.13219 16.0016 1.9555 16.0007L1.66459 15.9992C1.4879 15.9982 1.31313 15.9625 1.15024 15.8941C0.987357 15.8256 0.839554 15.7257 0.715271 15.6001C0.590989 15.4745 0.492661 15.3257 0.425903 15.1621C0.359144 14.9985 0.325262 14.8233 0.32619 14.6467L0.356736 8.814C0.35766 8.63732 0.393377 8.46254 0.461847 8.29966C0.530318 8.13677 0.630201 7.98897 0.755793 7.86468C0.881386 7.7404 1.03023 7.64208 1.19382 7.57532C1.35742 7.50856 1.53256 7.47468 1.70924 7.4756L2.00015 7.47713C2.17684 7.47806 2.35162 7.51377 2.5145 7.58224C2.67739 7.65071 2.82519 7.7506 2.94947 7.87619C3.07376 8.00178 3.17208 8.15062 3.23884 8.31422C3.3056 8.47781 3.33948 8.65295 3.33855 8.82964L3.30801 14.6623ZM2.46255 8.99771C2.46272 8.90603 2.44482 8.81521 2.40988 8.73044C2.37494 8.64567 2.32365 8.56861 2.25894 8.50366C2.19422 8.43871 2.11734 8.38715 2.0327 8.35191C1.94805 8.31668 1.8573 8.29846 1.76561 8.2983L1.60561 8.298C1.51392 8.29784 1.4231 8.31574 1.33833 8.35068C1.25356 8.38561 1.1765 8.4369 1.11156 8.50162C1.04661 8.56634 0.995046 8.64322 0.959809 8.72786C0.924572 8.81251 0.906353 8.90326 0.906191 8.99495L0.896736 14.4059C0.896573 14.4975 0.914472 14.5884 0.949408 14.6731C0.984345 14.7579 1.03564 14.835 1.10035 14.8999C1.16507 14.9649 1.24195 15.0164 1.32659 15.0517C1.41124 15.0869 1.50199 15.1051 1.59368 15.1053L1.75368 15.1056C1.84537 15.1057 1.93619 15.0878 2.02096 15.0529C2.10573 15.018 2.18279 14.9667 2.24773 14.9019C2.31268 14.8372 2.36424 14.7604 2.39948 14.6757C2.43472 14.5911 2.45294 14.5003 2.4531 14.4086L2.46255 8.99771Z" fill="#4B41D9"/>
<path d="M21.265 10.7272L21.2723 14.5963C21.2771 15.6048 20.7753 16.0751 19.7668 16.0072L19.4105 15.9781C19.1276 15.9579 18.8629 15.8318 18.6699 15.6252C18.4769 15.4187 18.3699 15.1472 18.3705 14.8654L18.3632 10.7127C18.3632 10.4605 18.2371 10.3321 17.985 10.3272C17.282 10.3078 16.7826 9.98782 16.4868 9.36721C16.3963 9.17385 16.3544 8.96127 16.3648 8.74801C16.3753 8.53475 16.4377 8.32729 16.5467 8.14369C16.6558 7.9601 16.808 7.80596 16.9903 7.6947C17.1725 7.58345 17.3792 7.51846 17.5923 7.5054C18.7802 7.43267 20.0359 7.42055 21.3596 7.46903C23.7523 7.54903 23.8832 10.1454 21.6432 10.3199C21.3911 10.3393 21.265 10.4751 21.265 10.7272ZM20.7777 9.43994C21.3353 9.48358 21.7135 9.44479 21.9123 9.32358C23.042 8.63994 22.9499 8.30055 21.6359 8.3054L17.5196 8.32721C17.4816 8.32686 17.4441 8.33476 17.4094 8.35037C17.3747 8.36598 17.3436 8.38896 17.3182 8.41781C17.2928 8.44665 17.2736 8.4807 17.2619 8.51773C17.2503 8.55476 17.2464 8.59393 17.2505 8.63267L17.2868 8.92358C17.3015 9.04457 17.358 9.15687 17.4467 9.24162C17.5355 9.32637 17.6511 9.37842 17.7741 9.38903L18.8359 9.4763C19.1171 9.4957 19.2577 9.646 19.2577 9.92721L19.265 14.9018C19.2648 14.9435 19.2734 14.9848 19.2902 15.023C19.3069 15.0612 19.3315 15.0955 19.3624 15.1236C19.3932 15.1517 19.4296 15.173 19.4692 15.1862C19.5088 15.1993 19.5508 15.204 19.5923 15.1999L19.7814 15.1854C19.9394 15.1692 20.0858 15.0954 20.192 14.9784C20.2981 14.8615 20.3566 14.7097 20.3559 14.5527L20.3705 9.81812C20.3753 9.54661 20.5111 9.42055 20.7777 9.43994Z" fill="#4B41D9"/>
<path d="M14.0438 11.7309C14.0438 12.2304 13.9454 12.725 13.7543 13.1865C13.5631 13.6479 13.2829 14.0673 12.9297 14.4205C12.5765 14.7737 12.1572 15.0538 11.6957 15.245C11.2343 15.4361 10.7397 15.5345 10.2402 15.5345C9.23137 15.5345 8.2639 15.1338 7.55058 14.4205C6.83726 13.7071 6.43652 12.7397 6.43652 11.7309C6.43652 10.7221 6.83726 9.75463 7.55058 9.04131C8.2639 8.32799 9.23137 7.92725 10.2402 7.92725C11.2489 7.92725 12.2164 8.32799 12.9297 9.04131C13.6431 9.75463 14.0438 10.7221 14.0438 11.7309ZM13.1783 11.7236C13.1783 11.3378 13.1023 10.9557 12.9547 10.5992C12.807 10.2427 12.5906 9.91884 12.3178 9.646C12.0449 9.37317 11.721 9.15674 11.3646 9.00908C11.0081 8.86143 10.626 8.78543 10.2402 8.78543C9.46091 8.78543 8.71357 9.09499 8.16255 9.646C7.61154 10.197 7.30198 10.9444 7.30198 11.7236C7.30198 12.5029 7.61154 13.2502 8.16255 13.8012C8.71357 14.3522 9.46091 14.6618 10.2402 14.6618C10.626 14.6618 11.0081 14.5858 11.3646 14.4381C11.721 14.2905 12.0449 14.0741 12.3178 13.8012C12.5906 13.5284 12.807 13.2045 12.9547 12.848C13.1023 12.4915 13.1783 12.1095 13.1783 11.7236Z" fill="#4B41D9"/>
<path d="M11.8617 11.7455C11.8617 11.9595 11.8196 12.1713 11.7377 12.369C11.6558 12.5666 11.5358 12.7462 11.3845 12.8975C11.2333 13.0488 11.0537 13.1688 10.856 13.2506C10.6584 13.3325 10.4465 13.3746 10.2326 13.3746C10.0187 13.3746 9.80683 13.3325 9.60918 13.2506C9.41153 13.1688 9.23194 13.0488 9.08067 12.8975C8.92939 12.7462 8.80939 12.5666 8.72752 12.369C8.64565 12.1713 8.60352 11.9595 8.60352 11.7455C8.60352 11.3135 8.77515 10.8991 9.08067 10.5936C9.38618 10.2881 9.80054 10.1165 10.2326 10.1165C10.6647 10.1165 11.079 10.2881 11.3845 10.5936C11.6901 10.8991 11.8617 11.3135 11.8617 11.7455ZM11.0108 11.7165C11.0108 11.5101 10.9288 11.3121 10.7829 11.1662C10.6369 11.0203 10.439 10.9383 10.2326 10.9383C10.0262 10.9383 9.82829 11.0203 9.68235 11.1662C9.53641 11.3121 9.45442 11.5101 9.45442 11.7165C9.45442 11.9228 9.53641 12.1208 9.68235 12.2667C9.82829 12.4127 10.0262 12.4946 10.2326 12.4946C10.439 12.4946 10.6369 12.4127 10.7829 12.2667C10.9288 12.1208 11.0108 11.9228 11.0108 11.7165Z" fill="#4B41D9"/>
<path d="M6.22515 15.1199C8.47969 17.149 11.8251 17.4254 14.1015 15.1636C14.1262 15.1386 14.156 15.1191 14.1888 15.1065C14.2217 15.0939 14.2568 15.0885 14.2919 15.0906C14.327 15.0926 14.3613 15.1021 14.3924 15.1185C14.4235 15.1349 14.4508 15.1577 14.4724 15.1854L14.6615 15.4254C14.716 15.4921 14.742 15.5777 14.7338 15.6635C14.7257 15.7492 14.684 15.8283 14.6179 15.8836C11.6797 18.269 8.76818 18.2593 5.88333 15.8545C5.8402 15.8178 5.8084 15.7696 5.79165 15.7155C5.77491 15.6614 5.77392 15.6037 5.78879 15.549L5.88333 15.2218C5.94636 15.0084 6.0603 14.9745 6.22515 15.1199Z" fill="#4B41D9"/>
<path d="M4.91637 17.5418C4.54304 17.5321 4.32001 17.3624 4.24728 17.0327C4.23612 16.9769 4.2404 16.9191 4.25966 16.8656C4.27892 16.812 4.31243 16.7647 4.35658 16.7288C4.40073 16.6929 4.45384 16.6697 4.51019 16.6618C4.56655 16.6538 4.624 16.6614 4.67637 16.6837C5.02546 16.834 5.1491 17.0885 5.04728 17.4473C5.04042 17.4761 5.02342 17.5015 4.9994 17.5189C4.97537 17.5362 4.9459 17.5444 4.91637 17.5418Z" fill="#4B41D9"/>
<path d="M6.09496 17.6873C9.1786 19.6292 12.9386 19.2437 15.5713 16.7492C15.6261 16.6962 15.6995 16.6667 15.7766 16.6667C15.8537 16.6667 15.9286 16.6962 15.9859 16.7492L16.1677 16.9092C16.255 16.9916 16.2622 17.0813 16.1895 17.1783C13.855 20.3492 8.7786 20.2183 5.70224 18.4873C5.64389 18.4541 5.59504 18.4065 5.56035 18.349C5.52567 18.2915 5.5063 18.226 5.50411 18.1589C5.50193 18.0918 5.51698 18.0252 5.54785 17.9656C5.57872 17.906 5.62436 17.8552 5.68042 17.8183L5.87678 17.6873C5.90907 17.6658 5.94704 17.6543 5.98587 17.6543C6.02471 17.6543 6.06267 17.6658 6.09496 17.6873Z" fill="#4B41D9"/>
</svg>
