<svg width="24" height="24" viewBox="0 0 24 24" fill="none" xmlns="http://www.w3.org/2000/svg">
<g id="packages" clip-path="url(#clip0_3116_91912)">
<path id="Vector" d="M7.51008 4.73209C7.51008 5.68836 7.1302 6.60547 6.45402 7.28165C5.77783 7.95784 4.86072 8.33772 3.90445 8.33772C2.94818 8.33772 2.03108 7.95784 1.35489 7.28165C0.678705 6.60547 0.298828 5.68836 0.298828 4.73209C0.298828 3.77582 0.678705 2.85871 1.35489 2.18253C2.03108 1.50634 2.94818 1.12646 3.90445 1.12646C4.86072 1.12646 5.77783 1.50634 6.45402 2.18253C7.1302 2.85871 7.51008 3.77582 7.51008 4.73209ZM6.97336 4.73209C6.97336 3.91817 6.65003 3.13758 6.0745 2.56205C5.49897 1.98651 4.71838 1.66318 3.90445 1.66318C3.09053 1.66318 2.30994 1.98651 1.73441 2.56205C1.15888 3.13758 0.835547 3.91817 0.835547 4.73209C0.835547 5.1351 0.914927 5.53417 1.06915 5.90651C1.22338 6.27885 1.44943 6.61716 1.73441 6.90213C2.30994 7.47767 3.09053 7.801 3.90445 7.801C4.30747 7.801 4.70654 7.72162 5.07887 7.56739C5.45121 7.41316 5.78952 7.18711 6.0745 6.90213C6.35947 6.61716 6.58553 6.27885 6.73975 5.90651C6.89398 5.53417 6.97336 5.1351 6.97336 4.73209Z" fill="#4B41D9" stroke="#4B41D9" stroke-width="0.412903"/>
<path id="Vector_2" d="M1.16651 4.82304C1.30479 3.421 2.52401 2.38319 3.90214 2.38038C5.24979 2.3771 6.41135 3.34647 6.62839 4.69319C6.65964 4.88725 6.64932 5.03741 6.59745 5.14366C6.48026 5.38272 6.2651 5.41085 5.99885 5.41085C4.62354 5.41054 3.24823 5.41054 1.87292 5.41085C1.56354 5.41085 1.33714 5.40335 1.20589 5.13054C1.16745 5.04991 1.15432 4.94741 1.16651 4.82304ZM5.24698 3.36522C3.89604 2.34991 1.90667 3.15757 1.70135 4.85116C1.70102 4.854 1.7013 4.85687 1.70216 4.8596C1.70302 4.86232 1.70445 4.86483 1.70636 4.86695C1.70827 4.86908 1.7106 4.87078 1.71321 4.87194C1.71583 4.87309 1.71865 4.87368 1.72151 4.87366H3.7376C3.74598 4.87367 3.75423 4.87162 3.76166 4.8677C3.76909 4.86378 3.77548 4.85811 3.78026 4.85116C4.01776 4.50491 4.25745 4.15788 4.49932 3.81007C4.60385 3.6596 4.75151 3.55225 4.91839 3.67132C5.05932 3.77163 5.07651 3.90116 4.96995 4.05991C4.78995 4.32741 4.6101 4.59257 4.43042 4.85538C4.42922 4.85706 4.42854 4.85904 4.42843 4.8611C4.42833 4.86315 4.42881 4.86521 4.42982 4.86705C4.43084 4.86888 4.43235 4.87042 4.43419 4.87151C4.43603 4.87259 4.43813 4.87317 4.44026 4.87319L6.09167 4.87366C6.09499 4.87364 6.09826 4.87289 6.10127 4.87148C6.10427 4.87007 6.10694 4.86803 6.10908 4.86549C6.11121 4.86295 6.11278 4.85997 6.11366 4.85677C6.11453 4.85357 6.11471 4.85022 6.11417 4.84694C6.00823 4.21413 5.71917 3.72022 5.24698 3.36522Z" fill="#4B41D9" stroke="#4B41D9" stroke-width="0.412903"/>
<path id="Vector_3" d="M18.5465 13.6466C18.54 13.6607 18.5443 13.6677 18.5596 13.6677C19.6456 13.668 20.7278 13.6684 21.8062 13.6687C22.2271 13.6691 22.5853 13.9204 22.7245 14.3146C22.7598 14.4149 22.7776 14.577 22.7779 14.8007C22.7789 16.3335 22.779 17.8662 22.7784 19.3987C22.7781 19.5209 22.7621 19.6087 22.7306 19.6621C22.6036 19.8754 22.2454 19.7765 22.245 19.4882C22.2425 17.9129 22.2409 16.3377 22.2403 14.7627C22.2403 14.3479 22.0968 14.2045 21.6961 14.2049C20.9476 14.2052 20.2 14.2052 19.4531 14.2049C19.4496 14.2049 19.4463 14.2063 19.4438 14.2088C19.4413 14.2112 19.44 14.2146 19.44 14.218C19.4396 15.0087 19.4387 15.8005 19.4371 16.5937C19.4367 16.8824 19.1254 16.956 18.9403 16.7521C18.8631 16.6671 18.68 16.4798 18.3909 16.1901C18.3793 16.1785 18.3678 16.1785 18.3562 16.1901C18.174 16.3748 17.9948 16.5587 17.8186 16.7418C17.5809 16.9884 17.3057 16.8688 17.3067 16.5234C17.3089 15.7593 17.3086 14.9952 17.3057 14.2312C17.3057 14.2143 17.2973 14.2059 17.2804 14.2059C16.5498 14.2043 15.8214 14.2041 15.0951 14.2054C14.6671 14.2063 14.5064 14.324 14.5064 14.7515C14.5064 16.3068 14.5062 17.8621 14.5059 19.4174C14.5059 19.5312 14.4895 19.614 14.4567 19.6659C14.3221 19.8777 13.9762 19.7718 13.9757 19.4882C13.972 17.9113 13.9698 16.3345 13.9692 14.7576C13.9692 14.369 13.8356 14.2059 13.4507 14.2054C12.6967 14.2051 11.9437 14.2051 11.1918 14.2054C11.1756 14.2054 11.1675 14.2135 11.1675 14.2298C11.1681 15.0323 11.1679 15.8359 11.167 16.6405C11.1665 16.7966 10.9617 16.9049 10.8201 16.8585C10.7748 16.8438 10.7148 16.7984 10.6401 16.7221C10.4661 16.544 10.2925 16.3654 10.1193 16.1863C10.1173 16.1842 10.1148 16.1825 10.1121 16.1813C10.1093 16.1801 10.1064 16.1795 10.1034 16.1795C10.1004 16.1795 10.0975 16.1801 10.0947 16.1813C10.092 16.1825 10.0895 16.1842 10.0875 16.1863C9.88684 16.3932 9.68262 16.6021 9.47481 16.813C9.3159 16.9748 9.03653 16.8187 9.03606 16.582C9.03512 15.8007 9.03496 15.0154 9.03559 14.226C9.03559 14.2204 9.03332 14.2151 9.02927 14.2111C9.02523 14.2071 9.01974 14.2049 9.01403 14.2049C8.23746 14.2055 7.45856 14.2054 6.67731 14.2045C6.48856 14.2041 6.35871 14.276 6.28778 14.4201C6.25121 14.4945 6.23293 14.6259 6.23293 14.8143C6.23324 16.3449 6.2334 17.8754 6.2334 19.4057C6.2334 19.522 6.21903 19.6055 6.19028 19.6565C6.06606 19.8768 5.70324 19.7798 5.70278 19.4882C5.69871 17.8788 5.6959 16.2695 5.69434 14.6601C5.6934 14.1187 6.09137 13.6804 6.64215 13.6771C7.7009 13.6709 8.75809 13.6674 9.81371 13.6668C9.81869 13.6668 9.82345 13.6649 9.82697 13.6614C9.83049 13.658 9.83246 13.6534 9.83246 13.6485C9.83371 11.8948 9.8334 10.1402 9.83152 8.38492C9.83121 8.01586 9.8559 7.76461 9.90559 7.63117C10.0659 7.20039 10.4451 7.0293 10.8914 7.0293C13.1186 7.0293 15.3456 7.0293 17.5725 7.0293C18.0286 7.0293 18.4097 7.19477 18.5723 7.6368C18.6198 7.76617 18.6434 7.99008 18.6431 8.30852C18.6418 9.93258 18.6415 11.5568 18.6421 13.1812C18.6421 13.3574 18.6154 13.4976 18.5465 13.6466ZM13.6326 10.1423C13.4587 10.3148 13.1714 10.2004 13.1714 9.97258C13.1707 9.1757 13.1706 8.37883 13.1709 7.58195C13.1709 7.57648 13.1688 7.57124 13.165 7.56737C13.1612 7.5635 13.1561 7.56133 13.1507 7.56133C12.4145 7.56133 11.677 7.56133 10.9382 7.56133C10.7062 7.56133 10.5145 7.58617 10.4165 7.79805C10.385 7.86648 10.3693 7.9982 10.3697 8.1932C10.37 10.0129 10.37 11.8315 10.3697 13.649C10.3697 13.6541 10.3717 13.659 10.3753 13.6626C10.3789 13.6662 10.3838 13.6682 10.3889 13.6682C12.8089 13.6679 15.2279 13.6679 17.6461 13.6682C17.8339 13.6682 17.9659 13.5982 18.0422 13.4582C18.084 13.3807 18.1048 13.2487 18.1045 13.0621C18.1042 11.3759 18.1043 9.68977 18.105 8.00383C18.105 7.62836 17.8279 7.5618 17.4984 7.56133C16.7718 7.56102 16.0476 7.56102 15.3257 7.56133C15.3198 7.56133 15.3141 7.5637 15.3098 7.56792C15.3056 7.57214 15.3032 7.57786 15.3032 7.58383C15.3036 8.35633 15.3034 9.1293 15.3028 9.90273C15.3028 10.1938 15.0407 10.3541 14.8204 10.1263C14.6304 9.93008 14.4407 9.73508 14.2514 9.54133C14.2497 9.53961 14.2478 9.53825 14.2456 9.53732C14.2434 9.53639 14.241 9.53591 14.2386 9.53591C14.2362 9.53591 14.2338 9.53639 14.2316 9.53732C14.2294 9.53825 14.2273 9.53961 14.2256 9.54133C14.03 9.74352 13.8323 9.94383 13.6326 10.1423ZM14.024 8.97602C14.2917 8.68117 14.5856 9.11289 14.745 9.27977C14.7596 9.29477 14.767 9.2918 14.767 9.27086L14.7665 7.59602C14.7665 7.57945 14.7584 7.57117 14.7421 7.57117H13.7315C13.7162 7.57117 13.7086 7.57883 13.7086 7.59414V9.26898C13.7086 9.28805 13.7154 9.29101 13.7292 9.27789C13.8323 9.17976 13.9306 9.07914 14.024 8.97602ZM10.1156 15.517C10.2797 15.5324 10.5 15.7968 10.5965 15.9159C10.6197 15.944 10.6312 15.9399 10.6312 15.9037L10.6307 14.2349C10.6307 14.2297 10.6287 14.2247 10.6251 14.221C10.6215 14.2173 10.6166 14.2152 10.6115 14.2152H9.59528C9.58918 14.2152 9.58334 14.2177 9.57903 14.222C9.57473 14.2263 9.57231 14.2321 9.57231 14.2382V15.9032C9.57231 15.932 9.58231 15.936 9.60231 15.9154C9.71574 15.7987 9.94168 15.501 10.1156 15.517ZM18.3904 15.5165C18.5531 15.5357 18.7626 15.7865 18.8597 15.9055C18.8881 15.9405 18.9023 15.9355 18.9023 15.8905V14.2335C18.9023 14.2287 18.9003 14.224 18.8968 14.2206C18.8933 14.2172 18.8885 14.2152 18.8836 14.2152H17.8565C17.8487 14.2152 17.8448 14.2191 17.8448 14.227V15.914C17.8449 15.9163 17.8456 15.9186 17.847 15.9206C17.8483 15.9225 17.8502 15.924 17.8524 15.9249C17.8546 15.9258 17.857 15.926 17.8593 15.9256C17.8616 15.9252 17.8637 15.9241 17.8654 15.9224C17.9803 15.8076 18.217 15.4959 18.3904 15.5165Z" fill="#4B41D9" stroke="#4B41D9" stroke-width="0.412903"/>
<path id="Vector_4" d="M4.9257 20.2931C4.9257 20.3053 4.93195 20.3114 4.94445 20.3114C10.8444 20.3117 16.7444 20.3117 22.6444 20.3114C22.8941 20.3114 23.0763 20.3339 23.191 20.3789C23.8187 20.6259 23.7165 21.2592 23.7198 21.8048C23.721 22.0264 23.704 22.1906 23.6687 22.2975C23.5868 22.5444 23.4285 22.7134 23.1938 22.8047C23.0723 22.8519 22.8646 22.8755 22.5709 22.8755C15.4893 22.8748 8.40773 22.8747 1.32617 22.875C1.0971 22.875 0.926791 22.8531 0.815229 22.8094C0.178666 22.56 0.285073 21.9295 0.280385 21.3741C0.278823 21.1575 0.295541 20.9963 0.330541 20.8903C0.414916 20.6359 0.57976 20.4634 0.825073 20.3728C0.942885 20.3294 1.13757 20.3086 1.40914 20.3105C1.89289 20.3139 2.37648 20.3136 2.85992 20.3095C2.87617 20.3095 2.88429 20.3013 2.88429 20.2847C2.88492 16.6097 2.88507 12.935 2.88476 9.26063C2.88476 9.04875 2.88429 8.84297 3.11632 8.81016C3.33945 8.77875 3.42195 8.9625 3.42195 9.16172C3.42195 12.8733 3.42195 16.5844 3.42195 20.295C3.42195 20.2995 3.42373 20.3038 3.42689 20.3069C3.43005 20.3101 3.43435 20.3119 3.43882 20.3119H4.37164C4.37624 20.3119 4.38065 20.3101 4.3839 20.3068C4.38715 20.3035 4.38898 20.2991 4.38898 20.2945C4.38898 16.558 4.38882 12.8205 4.38851 9.08204C4.38851 8.72813 4.9257 8.70375 4.92523 9.11719C4.92242 12.8453 4.92257 16.5706 4.9257 20.2931ZM23.1812 21.1622C23.1812 21.0788 23.148 20.9988 23.089 20.9398C23.0301 20.8808 22.9501 20.8477 22.8666 20.8477H1.13351C1.05009 20.8477 0.970089 20.8808 0.911103 20.9398C0.852117 20.9988 0.818979 21.0788 0.818979 21.1622V22.0219C0.818979 22.1053 0.852117 22.1853 0.911103 22.2443C0.970089 22.3033 1.05009 22.3364 1.13351 22.3364H22.8666C22.9501 22.3364 23.0301 22.3033 23.089 22.2443C23.148 22.1853 23.1812 22.1053 23.1812 22.0219V21.1622Z" fill="#4B41D9" stroke="#4B41D9" stroke-width="0.412903"/>
</g>
<defs>
<clipPath id="clip0_3116_91912">
<rect width="24" height="24" fill="white"/>
</clipPath>
</defs>
</svg>
