<svg width="32" height="31" viewBox="0 0 32 31" fill="none" xmlns="http://www.w3.org/2000/svg">
<g id="User">
<path id="Vector" d="M28.4634 25.6713C26.6191 22.4829 23.7771 20.1966 20.4603 19.1128C22.1009 18.1362 23.3756 16.6479 24.0885 14.8767C24.8015 13.1055 24.9133 11.1492 24.4068 9.3083C23.9004 7.46738 22.8036 5.84361 21.2849 4.68635C19.7663 3.5291 17.9098 2.90234 16.0004 2.90234C14.0911 2.90234 12.2346 3.5291 10.7159 4.68635C9.19729 5.84361 8.10051 7.46738 7.59403 9.3083C7.08755 11.1492 7.19937 13.1055 7.91232 14.8767C8.62528 16.6479 9.89993 18.1362 11.5406 19.1128C8.22379 20.1954 5.38172 22.4817 3.53747 25.6713C3.46983 25.7815 3.42497 25.9042 3.40553 26.0321C3.38609 26.16 3.39246 26.2905 3.42427 26.4159C3.45608 26.5413 3.51268 26.6591 3.59074 26.7622C3.66879 26.8654 3.76672 26.9519 3.87874 27.0166C3.99076 27.0813 4.1146 27.1229 4.24297 27.139C4.37133 27.155 4.50161 27.1452 4.62612 27.1101C4.75064 27.075 4.86686 27.0154 4.96793 26.9346C5.069 26.8539 5.15288 26.7537 5.21461 26.64C7.49602 22.6972 11.5284 20.3431 16.0004 20.3431C20.4724 20.3431 24.5048 22.6972 26.7863 26.64C26.848 26.7537 26.9319 26.8539 27.0329 26.9346C27.134 27.0154 27.2502 27.075 27.3747 27.1101C27.4993 27.1452 27.6295 27.155 27.7579 27.139C27.8863 27.1229 28.0101 27.0813 28.1221 27.0166C28.2341 26.9519 28.3321 26.8654 28.4101 26.7622C28.4882 26.6591 28.5448 26.5413 28.5766 26.4159C28.6084 26.2905 28.6148 26.16 28.5953 26.0321C28.5759 25.9042 28.531 25.7815 28.4634 25.6713ZM9.21918 11.6244C9.21918 10.2832 9.6169 8.9721 10.362 7.85693C11.1072 6.74176 12.1663 5.87259 13.4054 5.35933C14.6445 4.84607 16.008 4.71178 17.3234 4.97344C18.6388 5.23509 19.8471 5.88094 20.7955 6.82932C21.7439 7.77769 22.3897 8.986 22.6514 10.3014C22.913 11.6169 22.7787 12.9803 22.2655 14.2195C21.7522 15.4586 20.8831 16.5177 19.7679 17.2628C18.6527 18.0079 17.3416 18.4056 16.0004 18.4056C14.2025 18.4037 12.4788 17.6886 11.2075 16.4173C9.93618 15.146 9.22111 13.4223 9.21918 11.6244Z" fill="#4B41D9"/>
</g>
</svg>
