<svg width="14" height="14" viewBox="0 0 14 14" fill="none" xmlns="http://www.w3.org/2000/svg">
<g id="Pasted-20231019-104315 1" clip-path="url(#clip0_1786_1411)">
<path id="Vector" d="M2.61954 0.353027H12.0024C13.0768 0.440633 13.8926 1.2465 13.9646 2.3248V7.63313C13.9165 7.95417 13.6097 8.17566 13.3014 8.08051C13.1339 8.02887 13.0217 7.92904 12.9651 7.78104C12.938 7.71051 12.9245 7.58339 12.9245 7.39968C12.9248 5.80563 12.9249 4.21148 12.9248 2.61725C12.9248 2.40773 12.912 2.25557 12.8865 2.16077C12.7615 1.69493 12.3443 1.39286 11.8654 1.39286C8.87593 1.39286 5.88642 1.39286 2.89691 1.39286C2.71876 1.39286 2.59355 1.40022 2.52128 1.41495C2.1433 1.4919 1.83161 1.78929 1.73257 2.15687C1.70726 2.25132 1.69461 2.40166 1.69461 2.6079C1.69479 5.59532 1.6947 8.58275 1.69435 11.5702C1.69435 12.1582 2.1576 12.6214 2.74094 12.6217C4.49478 12.6227 6.24872 12.6231 8.00273 12.6227C8.11313 12.6226 8.19987 12.6338 8.26295 12.6565C8.7917 12.8455 8.68928 13.5705 8.14077 13.6628H2.6224C1.54774 13.5765 0.730173 12.7756 0.654785 11.697V2.31518C0.740051 1.2439 1.54488 0.429975 2.61954 0.353027Z" fill="#4B41D9"/>
<path id="Vector_2" d="M4.45003 3.31359C4.90859 3.44903 4.9377 4.12258 4.49214 4.29129C4.33149 4.35186 4.07465 4.32873 3.87526 4.32951C3.75377 4.33003 3.66149 4.31893 3.59841 4.29623C3.13516 4.13012 3.14556 3.48517 3.60257 3.32087C3.75516 3.26602 3.97664 3.28994 4.14874 3.28942C4.29327 3.2889 4.3937 3.29696 4.45003 3.31359Z" fill="#4B41D9"/>
<path id="Vector_3" d="M10.8536 3.29053H6.36469C6.08373 3.29053 5.85596 3.5183 5.85596 3.79926V3.82006C5.85596 4.10103 6.08373 4.3288 6.36469 4.3288H10.8536C11.1346 4.3288 11.3624 4.10103 11.3624 3.82006V3.79926C11.3624 3.5183 11.1346 3.29053 10.8536 3.29053Z" fill="#4B41D9"/>
<path id="Vector_4" d="M4.45003 6.43273C4.90859 6.56817 4.9377 7.24172 4.49214 7.41043C4.33149 7.471 4.07465 7.44787 3.87526 7.44865C3.75377 7.44917 3.66149 7.43808 3.59841 7.41537C3.13516 7.24926 3.14556 6.60431 3.60257 6.44001C3.75516 6.38516 3.97664 6.40908 4.14874 6.40856C4.29327 6.40804 4.3937 6.4161 4.45003 6.43273Z" fill="#4B41D9"/>
<path id="Vector_5" d="M10.8536 6.40967H6.36469C6.08373 6.40967 5.85596 6.63744 5.85596 6.9184V6.9392C5.85596 7.22017 6.08373 7.44794 6.36469 7.44794H10.8536C11.1346 7.44794 11.3624 7.22017 11.3624 6.9392V6.9184C11.3624 6.63744 11.1346 6.40967 10.8536 6.40967Z" fill="#4B41D9"/>
<path id="Vector_6" d="M13.9638 13.0907V13.1947C13.9163 13.46 13.7601 13.6155 13.4951 13.6613H13.3898C13.2633 13.6426 13.1554 13.5885 13.0662 13.4991C12.7808 13.2128 12.4936 12.926 12.2047 12.6389C12.1983 12.6325 12.1911 12.6315 12.1831 12.636C11.6195 12.958 11.0325 13.0421 10.4219 12.8882C9.42289 12.6363 8.68409 11.7225 8.66121 10.678C8.63392 9.42581 9.59134 8.37714 10.8316 8.28694C12.0641 8.19725 13.1684 9.09436 13.3194 10.3232C13.3884 10.8854 13.2678 11.4113 12.9578 11.9009C12.9531 11.9085 12.9539 11.9154 12.9601 11.9217C13.2573 12.2185 13.5527 12.5144 13.8463 12.8094C13.9066 12.8697 13.9458 12.9635 13.9638 13.0907ZM12.2988 10.6195C12.2988 10.2752 12.162 9.94488 11.9185 9.70136C11.675 9.45785 11.3447 9.32105 11.0003 9.32105C10.6559 9.32105 10.3257 9.45785 10.0821 9.70136C9.83863 9.94488 9.70182 10.2752 9.70182 10.6195C9.70182 10.9639 9.83863 11.2942 10.0821 11.5377C10.3257 11.7812 10.6559 11.918 11.0003 11.918C11.3447 11.918 11.675 11.7812 11.9185 11.5377C12.162 11.2942 12.2988 10.9639 12.2988 10.6195Z" fill="#4B41D9"/>
<path id="Vector_7" d="M4.47143 9.74005C4.91986 9.89602 4.92635 10.5428 4.48079 10.7125C4.32715 10.771 4.08175 10.7471 3.89172 10.7492C3.77197 10.7504 3.68125 10.7413 3.61955 10.7219C3.14305 10.5722 3.13005 9.90044 3.60473 9.73979C3.67076 9.71743 3.77145 9.70686 3.9068 9.70807C4.08747 9.70963 4.31961 9.68702 4.47143 9.74005Z" fill="#4B41D9"/>
<path id="Vector_8" d="M7.29785 9.74867C7.72574 9.9114 7.72418 10.5491 7.29837 10.7126C7.23442 10.7372 7.13555 10.7497 7.00176 10.75C6.83209 10.7504 6.66234 10.7507 6.4925 10.7511C6.35923 10.7514 6.25958 10.7396 6.19355 10.7157C5.73447 10.5486 5.74772 9.90698 6.20005 9.74295C6.26071 9.72094 6.34303 9.71011 6.44701 9.71046C6.60264 9.71098 6.75809 9.71106 6.91337 9.71072C7.10141 9.71002 7.22957 9.72268 7.29785 9.74867Z" fill="#4B41D9"/>
</g>
<defs>
<clipPath id="clip0_1786_1411">
<rect width="13.3098" height="13.3098" fill="white" transform="translate(0.654785 0.353027)"/>
</clipPath>
</defs>
</svg>
