<svg width="18" height="18" viewBox="0 0 18 18" fill="none" xmlns="http://www.w3.org/2000/svg">
<g id="Pasted-20231028-231521 1" clip-path="url(#clip0_1786_1485)">
<path id="Vector" d="M11.2799 0H11.6578C12.7849 0.0698438 13.7157 0.504844 14.4503 1.305C15.6607 2.62336 15.8938 4.59668 14.9846 6.13055C14.9148 6.24844 14.7823 6.44168 14.587 6.71027C13.7391 7.87629 12.8911 9.0423 12.0431 10.2083C11.867 10.4505 11.7485 10.6256 11.4697 10.6256C9.76746 10.6245 8.06508 10.6245 6.36258 10.6256C6.04758 10.6256 5.78145 10.6812 5.58492 10.9023C5.04844 11.5045 5.45098 12.4246 6.25781 12.4246C9.39844 12.4248 12.5392 12.4248 15.68 12.4246C16.0159 12.4243 16.2495 12.4362 16.3807 12.4601C17.2779 12.6221 17.9248 13.3798 18 14.2921V14.5315C17.9054 15.596 17.0645 16.3997 16.0049 16.3997C12.0723 16.3995 8.13973 16.3995 4.20715 16.3997C4.20176 16.3997 4.1965 16.4014 4.19214 16.4046C4.18777 16.4079 4.18454 16.4124 4.18289 16.4176C3.90059 17.3482 3.19816 17.9163 2.22398 18H1.99441C0.909492 17.9026 0.0871875 17.0898 0 16.0014V15.7324C0.0684375 15.0251 0.381797 14.4826 0.940078 14.105C1.59258 13.6638 2.4402 13.6248 3.13383 13.9996C3.65672 14.2825 4.00734 14.7251 4.1857 15.3274C4.18898 15.3387 4.19648 15.3443 4.2082 15.3443C8.14641 15.345 12.0845 15.345 16.0225 15.3443C16.4577 15.3443 16.8427 15.0184 16.9242 14.5976C17.016 14.1244 16.7583 13.6775 16.2963 13.5243C16.2063 13.4945 16.0864 13.4796 15.9367 13.4796C12.7192 13.4796 9.50168 13.4795 6.28418 13.4793C5.74488 13.4793 5.26254 13.2933 4.87441 12.9217C3.74273 11.8389 4.32914 9.91898 5.84754 9.61207C5.98559 9.58418 6.21902 9.57023 6.54785 9.57023C7.85285 9.57023 9.15445 9.57023 10.4527 9.57023C10.4679 9.57023 10.4711 9.56414 10.4621 9.55195C9.77332 8.62313 9.08438 7.69441 8.39531 6.76582C8.20406 6.50801 8.07035 6.3157 7.99418 6.18891C6.40477 3.54059 8.18508 0.172266 11.2799 0ZM11.1125 1.07543C9.04078 1.31133 7.86129 3.56168 8.76375 5.40949C8.83875 5.56301 8.96262 5.75672 9.13535 5.99062C9.9177 7.04836 10.701 8.10457 11.4852 9.15926C11.4862 9.16064 11.4875 9.16176 11.489 9.16254C11.4905 9.16331 11.4921 9.16372 11.4938 9.16372C11.4955 9.16372 11.4972 9.16331 11.4987 9.16254C11.5002 9.16176 11.5014 9.16064 11.5024 9.15926C12.2407 8.14277 12.98 7.12582 13.7204 6.1084C13.9154 5.84051 14.0464 5.64633 14.1135 5.52586C14.8454 4.21172 14.4563 2.52738 13.2486 1.63266C12.6341 1.17703 11.8709 0.988945 11.1125 1.07543ZM3.19922 15.8713C3.19922 15.5869 3.08625 15.3142 2.88516 15.1131C2.68407 14.912 2.41134 14.799 2.12695 14.799C1.84257 14.799 1.56984 14.912 1.36875 15.1131C1.16766 15.3142 1.05469 15.5869 1.05469 15.8713C1.05469 16.1557 1.16766 16.4284 1.36875 16.6295C1.56984 16.8306 1.84257 16.9436 2.12695 16.9436C2.41134 16.9436 2.68407 16.8306 2.88516 16.6295C3.08625 16.4284 3.19922 16.1557 3.19922 15.8713Z" fill="#4B41D9"/>
<path id="Vector_2" d="M13.0501 4.02434C13.0501 4.44364 12.8836 4.84576 12.5871 5.14225C12.2906 5.43875 11.8885 5.60531 11.4692 5.60531C11.2615 5.60531 11.056 5.56442 10.8641 5.48497C10.6723 5.40552 10.498 5.28906 10.3512 5.14225C10.2044 4.99545 10.088 4.82116 10.0085 4.62935C9.92908 4.43754 9.88818 4.23195 9.88818 4.02434C9.88818 3.81672 9.92908 3.61114 10.0085 3.41932C10.088 3.22751 10.2044 3.05322 10.3512 2.90642C10.498 2.75961 10.6723 2.64316 10.8641 2.5637C11.056 2.48425 11.2615 2.44336 11.4692 2.44336C11.8885 2.44336 12.2906 2.60993 12.5871 2.90642C12.8836 3.20291 13.0501 3.60503 13.0501 4.02434ZM11.9958 4.02469C11.9958 3.95553 11.9822 3.88705 11.9557 3.82315C11.9292 3.75926 11.8905 3.7012 11.8416 3.6523C11.7926 3.60339 11.7346 3.5646 11.6707 3.53813C11.6068 3.51167 11.5383 3.49805 11.4692 3.49805C11.4 3.49805 11.3315 3.51167 11.2676 3.53813C11.2037 3.5646 11.1457 3.60339 11.0968 3.6523C11.0479 3.7012 11.0091 3.75926 10.9826 3.82315C10.9561 3.88705 10.9425 3.95553 10.9425 4.02469C10.9425 4.16436 10.998 4.29831 11.0968 4.39708C11.1955 4.49584 11.3295 4.55133 11.4692 4.55133C11.5383 4.55133 11.6068 4.53771 11.6707 4.51124C11.7346 4.48477 11.7926 4.44598 11.8416 4.39708C11.8905 4.34818 11.9292 4.29012 11.9557 4.22622C11.9822 4.16233 11.9958 4.09385 11.9958 4.02469Z" fill="#4B41D9"/>
</g>
<defs>
<clipPath id="clip0_1786_1485">
<rect width="18" height="18" fill="white"/>
</clipPath>
</defs>
</svg>
