<svg width="14" height="14" viewBox="0 0 14 14" fill="none" xmlns="http://www.w3.org/2000/svg">
<path d="M9.63049 5.76544C9.66828 5.80319 9.69826 5.84802 9.71872 5.89737C9.73917 5.94671 9.7497 5.99961 9.7497 6.05302C9.7497 6.10644 9.73917 6.15933 9.71872 6.20868C9.69826 6.25802 9.66828 6.30285 9.63049 6.3406L6.78517 9.18592C6.74742 9.22371 6.70259 9.2537 6.65324 9.27415C6.6039 9.29461 6.551 9.30514 6.49759 9.30514C6.44417 9.30514 6.39128 9.29461 6.34193 9.27415C6.29259 9.2537 6.24776 9.22371 6.21001 9.18592L4.99058 7.9665C4.91431 7.89023 4.87146 7.78678 4.87146 7.67892C4.87146 7.57106 4.91431 7.46761 4.99058 7.39134C5.06685 7.31507 5.1703 7.27222 5.27816 7.27222C5.38603 7.27222 5.48947 7.31507 5.56574 7.39134L6.49759 8.32369L9.05532 5.76544C9.09307 5.72765 9.1379 5.69767 9.18725 5.67721C9.2366 5.65676 9.28949 5.64623 9.34291 5.64623C9.39632 5.64623 9.44922 5.65676 9.49856 5.67721C9.54791 5.69767 9.59274 5.72765 9.63049 5.76544ZM12.5947 7.27245C12.5947 8.31755 12.2848 9.33919 11.7042 10.2082C11.1235 11.0771 10.2983 11.7544 9.3327 12.1544C8.36714 12.5543 7.30467 12.659 6.27964 12.4551C5.25462 12.2512 4.31307 11.7479 3.57407 11.0089C2.83506 10.2699 2.33179 9.32836 2.1279 8.30333C1.92401 7.27831 2.02866 6.21584 2.4286 5.25028C2.82855 4.28473 3.50583 3.45945 4.37481 2.87882C5.24379 2.29819 6.26543 1.98828 7.31053 1.98828C8.71153 1.98976 10.0547 2.54696 11.0454 3.53761C12.036 4.52826 12.5932 5.87145 12.5947 7.27245ZM11.7818 7.27245C11.7818 6.38812 11.5195 5.52366 11.0282 4.78837C10.5369 4.05308 9.8386 3.48 9.0216 3.14158C8.20459 2.80316 7.30557 2.71462 6.43824 2.88714C5.57091 3.05967 4.77422 3.48551 4.14891 4.11082C3.5236 4.73613 3.09775 5.53282 2.92523 6.40015C2.75271 7.26749 2.84125 8.1665 3.17967 8.98351C3.51808 9.80051 4.09117 10.4988 4.82646 10.9901C5.56175 11.4814 6.42621 11.7437 7.31053 11.7437C8.49596 11.7423 9.63245 11.2708 10.4707 10.4326C11.3089 9.59436 11.7804 8.45787 11.7818 7.27245Z" fill="#4B41D9"/>
</svg>
