<svg width="11" height="12" viewBox="0 0 11 12" fill="none" xmlns="http://www.w3.org/2000/svg">
<path d="M7.42225 4.93413L6.08343 6.27245L7.42225 7.61076C7.46002 7.64853 7.48998 7.69336 7.51042 7.7427C7.53085 7.79205 7.54137 7.84493 7.54137 7.89834C7.54137 7.95175 7.53085 8.00464 7.51042 8.05398C7.48998 8.10332 7.46002 8.14816 7.42225 8.18592C7.38449 8.22369 7.33965 8.25364 7.29031 8.27408C7.24097 8.29452 7.18808 8.30504 7.13467 8.30504C7.08126 8.30504 7.02838 8.29452 6.97904 8.27408C6.92969 8.25364 6.88486 8.22369 6.84709 8.18592L5.50878 6.8471L4.17046 8.18592C4.13269 8.22369 4.08786 8.25364 4.03852 8.27408C3.98917 8.29452 3.93629 8.30504 3.88288 8.30504C3.82947 8.30504 3.77659 8.29452 3.72724 8.27408C3.6779 8.25364 3.63306 8.22369 3.5953 8.18592C3.55753 8.14816 3.52758 8.10332 3.50714 8.05398C3.4867 8.00464 3.47618 7.95175 3.47618 7.89834C3.47618 7.84493 3.4867 7.79205 3.50714 7.7427C3.52758 7.69336 3.55753 7.64853 3.5953 7.61076L4.93412 6.27245L3.5953 4.93413C3.51903 4.85786 3.47618 4.75441 3.47618 4.64655C3.47618 4.53868 3.51903 4.43524 3.5953 4.35897C3.67157 4.2827 3.77502 4.23985 3.88288 4.23985C3.99074 4.23985 4.09419 4.2827 4.17046 4.35897L5.50878 5.69779L6.84709 4.35897C6.88486 4.3212 6.92969 4.29124 6.97904 4.27081C7.02838 4.25037 7.08126 4.23985 7.13467 4.23985C7.18808 4.23985 7.24097 4.25037 7.29031 4.27081C7.33965 4.29124 7.38449 4.3212 7.42225 4.35897C7.46002 4.39673 7.48998 4.44157 7.51042 4.49091C7.53085 4.54025 7.54137 4.59314 7.54137 4.64655C7.54137 4.69996 7.53085 4.75284 7.51042 4.80219C7.48998 4.85153 7.46002 4.89636 7.42225 4.93413ZM10.7929 6.27245C10.7929 7.31755 10.483 8.33919 9.9024 9.20817C9.32177 10.0771 8.49649 10.7544 7.53094 11.1544C6.56538 11.5543 5.50291 11.659 4.47789 11.4551C3.45286 11.2512 2.51131 10.7479 1.77231 10.0089C1.0333 9.26991 0.530036 8.32836 0.326145 7.30333C0.122255 6.27831 0.226899 5.21584 0.626845 4.25028C1.02679 3.28473 1.70408 2.45945 2.57305 1.87882C3.44203 1.29819 4.46367 0.988281 5.50878 0.988281C6.90977 0.989761 8.25296 1.54696 9.24361 2.53761C10.2343 3.52826 10.7915 4.87145 10.7929 6.27245ZM9.97999 6.27245C9.97999 5.38812 9.71776 4.52366 9.22646 3.78837C8.73515 3.05308 8.03684 2.48 7.21984 2.14158C6.40283 1.80316 5.50382 1.71462 4.63649 1.88714C3.76915 2.05967 2.97246 2.48551 2.34715 3.11082C1.72184 3.73613 1.296 4.53282 1.12347 5.40015C0.95095 6.26749 1.0395 7.1665 1.37791 7.98351C1.71633 8.80051 2.28941 9.49882 3.0247 9.99012C3.75999 10.4814 4.62445 10.7437 5.50878 10.7437C6.6942 10.7423 7.83069 10.2708 8.66892 9.43259C9.50714 8.59436 9.97865 7.45787 9.97999 6.27245Z" fill="#4B41D9"/>
</svg>
