<svg width="36" height="36" viewBox="0 0 36 36" fill="none" xmlns="http://www.w3.org/2000/svg">
<g id="Group 427319326">
<g id="Group 427319542">
<circle id="Ellipse 443" cx="18.2815" cy="18.2815" r="17.2815" fill="white" stroke="#4B41D9" stroke-width="0.735384"/>
</g>
<g id="Group 427319576">
<g id="Group">
<path id="Vector" d="M22.8865 17.2388C22.876 17.0324 22.8873 16.8784 22.6603 16.7984C22.4297 16.7177 22.2237 16.924 22.2431 17.1588C22.2883 17.7016 22.3193 18.1134 22.3362 18.3943C22.3504 18.6306 22.5987 18.761 22.8095 18.65C23.1472 18.4726 23.4986 18.2915 23.8637 18.1068C23.9213 18.0777 23.9679 18.0442 24.0035 18.0063C24.125 17.8766 24.1097 17.656 23.9732 17.5495C23.8073 17.4201 23.6764 17.4881 23.5145 17.5648C23.4899 17.5765 23.483 17.5698 23.494 17.5446C23.9383 16.536 24.09 15.4768 23.9489 14.367C23.7826 13.0597 23.1508 11.841 22.2196 10.9424C21.3932 10.1448 20.4252 9.63344 19.3157 9.40815C17.7243 9.08516 16.0671 9.42273 14.7396 10.3779C14.3904 10.6287 14.7583 11.1371 15.1026 10.8964C16.1511 10.1632 17.3112 9.84541 18.583 9.9431C18.8307 9.96229 19.0765 10.0012 19.3205 10.0597C20.362 10.3105 21.2357 10.8118 21.9415 11.5637C23.359 13.0743 23.7796 15.3057 22.928 17.2463C22.9033 17.3021 22.8895 17.2996 22.8865 17.2388Z" stroke="#8D999F" stroke-width="2"/>
<path id="Vector_2" d="M20.716 13.3097C20.3265 13.4795 19.974 12.9972 20.2738 12.6746C20.3184 12.6267 20.3497 12.571 20.3676 12.5075C20.4465 12.2297 20.3142 12.0469 20.0682 11.9094C19.7841 11.7506 19.5221 11.6337 19.2824 11.5587C19.0551 11.4877 18.8739 11.5461 18.7388 11.734C18.6999 11.7879 18.6801 11.86 18.6614 11.9232C18.5485 12.3082 17.9983 12.3079 17.9044 11.918C17.8831 11.829 17.8682 11.746 17.8188 11.666C17.7011 11.475 17.491 11.4271 17.2727 11.4813C17.0411 11.5386 16.7955 11.6244 16.5358 11.7385C16.4008 11.7978 16.3067 11.8669 16.2536 11.9456C16.1676 12.0731 16.1512 12.2649 16.2282 12.4148C16.2633 12.4828 16.3041 12.5411 16.3112 12.6196C16.3429 12.9647 15.9515 13.1909 15.6667 12.9696C15.5317 12.8645 15.3575 12.8365 15.2005 12.9019C15.0622 12.9595 14.9799 13.0869 14.9067 13.2129C14.7738 13.4405 14.6627 13.6812 14.5732 13.9352C14.4528 14.275 14.6199 14.5408 14.9687 14.6013C15.1366 14.6301 15.2727 14.8013 15.2723 14.9699C15.2715 15.1459 15.1889 15.2724 15.0244 15.3494C14.9672 15.3759 14.9041 15.3804 14.842 15.3856C14.6839 15.3991 14.5482 15.5034 14.4835 15.6451C14.4207 15.7834 14.4521 15.9542 14.4906 16.0963C14.5599 16.3502 14.6536 16.5992 14.7717 16.8432C14.8597 17.0249 14.9961 17.1222 15.1811 17.1352C15.4315 17.1527 15.5418 16.9064 15.8054 16.9651C16.0513 17.02 16.168 17.2518 16.0899 17.4918C16.0685 17.5572 16.0226 17.6077 15.9796 17.66C15.8656 17.7987 15.8674 18.0249 15.9523 18.1651C16.0011 18.2463 16.0885 18.322 16.2143 18.392C16.5358 18.5709 16.8066 18.6898 17.0267 18.7486C17.2482 18.8077 17.4214 18.7439 17.5463 18.5572C17.6132 18.4574 17.6128 18.3318 17.691 18.238C17.8708 18.0211 18.1755 18.0413 18.3284 18.2727C18.3956 18.3752 18.3826 18.5019 18.4457 18.6058C18.5579 18.7905 18.7147 18.867 18.916 18.8353C19.1174 18.8037 19.3786 18.7197 19.6996 18.5834C19.815 18.5345 19.9028 18.4823 19.9631 18.4267C20.1332 18.2701 20.1444 18.0185 20.0158 17.8182C19.925 17.6765 19.965 17.4933 20.0738 17.3733C20.1892 17.2459 20.335 17.2132 20.5112 17.275C20.608 17.309 20.6734 17.392 20.7785 17.4159C20.9983 17.4655 21.1684 17.4003 21.2887 17.2204C21.4649 16.9565 21.6065 16.6636 21.7134 16.3419C21.7914 16.1076 21.735 15.9202 21.5441 15.7796C21.436 15.7004 21.2846 15.7198 21.1781 15.6413C21.0804 15.5691 21.0257 15.4838 21.014 15.3856C20.9898 15.1788 21.0735 15.0337 21.2652 14.9505C21.3676 14.906 21.4861 14.9266 21.5874 14.8727C21.8487 14.7344 21.8704 14.4862 21.7949 14.2211C21.7029 13.8967 21.6018 13.6325 21.4913 13.4286C21.3757 13.2143 21.1984 13.1324 20.9594 13.183C20.8715 13.2017 20.7986 13.2739 20.716 13.3097Z" stroke="#8D999F" stroke-width="2"/>
<path id="Vector_3" d="M12.7835 12.7496C12.3466 13.7656 12.1946 14.8163 12.3274 15.9017C12.508 17.3776 13.2732 18.7301 14.3872 19.6494C15.559 20.6163 16.9121 21.0684 18.4463 21.0056C18.681 20.9962 18.9314 20.9669 19.1973 20.9178C20.0466 20.7615 20.8258 20.4325 21.5349 19.9309C21.7098 19.8071 21.736 19.557 21.567 19.421C21.4231 19.3051 21.2758 19.3361 21.1319 19.4352C20.0498 20.1798 18.8439 20.4813 17.5143 20.3395C17.3394 20.3208 17.146 20.2865 16.9341 20.2367C15.2971 19.8509 13.9012 18.6591 13.2825 17.0808C12.7906 15.8266 12.7951 14.4516 13.2911 13.1982C13.3141 13.1398 13.3394 13.0833 13.367 13.0284C13.3797 13.0035 13.3872 13.0049 13.3894 13.0325C13.407 13.2352 13.3831 13.4281 13.6235 13.5043C13.8511 13.5765 14.0579 13.3832 14.038 13.1496C14.0049 12.7633 13.9755 12.3772 13.9498 11.9914C13.9382 11.8206 13.9139 11.7043 13.7566 11.6385C13.6078 11.5757 13.4818 11.6404 13.3532 11.7092C13.0195 11.8881 12.7082 12.0497 12.4194 12.194C12.262 12.2725 12.1663 12.3929 12.204 12.5806C12.2257 12.6885 12.2949 12.7651 12.4115 12.8105C12.5416 12.861 12.6552 12.7959 12.7651 12.7331C12.7873 12.7204 12.7934 12.7259 12.7835 12.7496Z" stroke="#8D999F" stroke-width="2"/>
<path id="Vector_4" d="M16.8561 24.8545C16.8678 24.8612 16.8725 24.8682 16.8703 24.8754C16.7031 25.4494 16.5352 26.0265 16.3667 26.6066C16.361 26.6268 16.3476 26.6369 16.3264 26.6369C15.9884 26.6374 15.6141 26.637 15.2034 26.6358C14.7544 26.6347 14.7701 27.2736 15.1836 27.2732C17.1791 27.2707 19.1542 27.2703 21.1088 27.2721C21.2875 27.2721 21.4273 27.1016 21.4124 26.9304C21.3978 26.7663 21.2681 26.6354 21.1002 26.6358C20.7206 26.6365 20.3356 26.6364 19.9451 26.6354C19.9301 26.6354 19.9206 26.6283 19.9167 26.6141L19.4116 24.878C19.4107 24.8751 19.4105 24.8719 19.411 24.8688C19.4115 24.8658 19.4128 24.8628 19.4147 24.8603C19.4166 24.8578 19.419 24.8558 19.4219 24.8544C19.4247 24.853 19.4279 24.8522 19.431 24.8522C21.6977 24.8513 23.9272 24.8509 26.1196 24.8511C26.3173 24.8514 26.4958 24.802 26.6553 24.7031C26.9582 24.5157 27.1096 24.2306 27.1096 23.8478C27.1103 20.66 27.1107 17.425 27.1107 14.1427C27.1107 14.0034 27.0995 13.8924 27.077 13.8096C26.9959 13.5121 26.7634 13.2706 26.4752 13.1678C26.3513 13.1237 26.1977 13.1033 26.0142 13.1068C25.7889 13.1113 25.562 13.1117 25.3335 13.108C24.9675 13.102 24.8718 13.5992 25.2026 13.7151C25.2714 13.739 25.3577 13.7494 25.4613 13.7465C25.7016 13.7397 25.9271 13.7401 26.138 13.7476C26.2935 13.7532 26.4688 13.8579 26.4688 14.0283C26.47 17.2535 26.4704 20.5452 26.4699 23.9035C26.4699 24.0893 26.3069 24.2156 26.1264 24.2156C20.8247 24.2166 15.5137 24.2167 10.1933 24.216C10.0221 24.216 9.81011 24.1259 9.81011 23.9188C9.81011 20.4529 9.81036 17.1523 9.81086 14.0171C9.81086 13.8429 10.0191 13.7468 10.1806 13.7453C10.4293 13.7433 10.6738 13.7427 10.914 13.7435C11.0633 13.744 11.1687 13.6942 11.2303 13.5943C11.3522 13.3973 11.2307 13.1132 10.9888 13.1117C10.7094 13.1099 10.4303 13.1089 10.1514 13.1087C9.71441 13.108 9.31179 13.3936 9.20338 13.813C9.17896 13.9077 9.167 14.0932 9.1675 14.3696C9.17323 17.5313 9.17422 20.6881 9.17049 23.8403C9.17011 24.3121 9.40675 24.6508 9.84077 24.8014C9.93647 24.8346 10.0318 24.8511 10.1267 24.8511C12.4238 24.8511 14.6634 24.8514 16.8456 24.8519C16.8493 24.8519 16.8529 24.8528 16.8561 24.8545Z" stroke="#8D999F" stroke-width="2"/>
<path id="Vector_5" d="M25.8948 23.1107C25.8948 23.0268 25.8614 22.9464 25.8021 22.8871C25.7428 22.8278 25.6624 22.7944 25.5785 22.7944H10.703C10.6191 22.7944 10.5387 22.8278 10.4793 22.8871C10.42 22.9464 10.3867 23.0268 10.3867 23.1107V23.1144C10.3867 23.1983 10.42 23.2788 10.4793 23.3381C10.5387 23.3974 10.6191 23.4307 10.703 23.4307H25.5785C25.6624 23.4307 25.7428 23.3974 25.8021 23.3381C25.8614 23.2788 25.8948 23.1983 25.8948 23.1144V23.1107Z" stroke="#8D999F" stroke-width="2"/>
<path id="Vector_6" d="M16.1703 16.4223C16.5818 16.6356 16.7747 16.9792 16.749 17.4529C16.7415 17.593 16.6964 17.7303 16.6137 17.8649C16.6055 17.8781 16.6084 17.8881 16.6226 17.8948L17.0069 18.0754C17.0156 18.0794 17.0255 18.0799 17.0345 18.0767C17.0435 18.0735 17.0509 18.0668 17.0552 18.0582C17.463 17.2081 18.6324 17.2653 18.9744 18.1427C18.9814 18.1601 18.9937 18.1657 19.0114 18.1595L19.3819 18.0305C19.3969 18.0253 19.4018 18.0152 19.3969 18.0002C19.3002 17.7101 19.3132 17.4407 19.4361 17.192C19.6937 16.6709 20.3019 16.45 20.8294 16.7184C20.8335 16.7204 20.8383 16.7208 20.8427 16.7195C20.8472 16.7182 20.851 16.7153 20.8533 16.7113C20.9278 16.5844 20.992 16.4526 21.0458 16.3157C21.0472 16.3123 21.0478 16.3086 21.0478 16.3049C21.0477 16.3013 21.0469 16.2976 21.0455 16.2942C21.044 16.2909 21.0419 16.2878 21.0393 16.2853C21.0366 16.2828 21.0335 16.2808 21.0301 16.2795C20.5412 16.0829 20.2574 15.5557 20.4092 15.0458C20.5186 14.6785 20.7601 14.4361 21.1337 14.3187C21.1466 14.3145 21.152 14.3057 21.1498 14.2922C21.1273 14.1606 21.0585 14.0286 21.0167 13.9049C21.0158 13.9025 21.0145 13.9003 21.0128 13.8984C21.0111 13.8965 21.0091 13.895 21.0068 13.8939C21.0045 13.8928 21.002 13.8922 20.9994 13.8921C20.9969 13.892 20.9944 13.8924 20.992 13.8933C20.4541 14.0982 19.8843 13.9214 19.629 13.404C19.4903 13.1225 19.4862 12.7285 19.66 12.4466C19.6625 12.4427 19.6641 12.4383 19.6647 12.4337C19.6653 12.4292 19.665 12.4245 19.6636 12.4201C19.6623 12.4157 19.6601 12.4116 19.6571 12.4081C19.6541 12.4046 19.6504 12.4018 19.6462 12.3999L19.2701 12.2242C19.2499 12.2149 19.235 12.2203 19.2253 12.2402C18.8727 12.9808 17.9004 13.0615 17.4305 12.4002C17.3782 12.327 17.3408 12.2406 17.3049 12.1572C17.2982 12.1418 17.2867 12.1368 17.2705 12.1423L16.8989 12.269C16.8953 12.2702 16.892 12.2722 16.8892 12.2747C16.8864 12.2772 16.8841 12.2802 16.8825 12.2836C16.8808 12.2869 16.8799 12.2906 16.8797 12.2943C16.8795 12.2981 16.8801 12.3018 16.8813 12.3053C17.201 13.204 16.2884 13.9999 15.438 13.5793C15.4366 13.5786 15.435 13.5782 15.4334 13.5781C15.4318 13.578 15.4303 13.5782 15.4288 13.5787C15.4273 13.5793 15.4259 13.5801 15.4247 13.5811C15.4235 13.5822 15.4226 13.5835 15.4219 13.5849L15.2268 13.9928C15.2258 13.9948 15.2252 13.9969 15.2251 13.9992C15.225 14.0014 15.2254 14.0036 15.2262 14.0057C15.227 14.0077 15.2283 14.0096 15.2298 14.0112C15.2314 14.0128 15.2333 14.014 15.2354 14.0148C16.1741 14.3913 16.1187 15.6974 15.1385 15.9823C15.1263 15.986 15.1221 15.9939 15.1258 16.0058C15.162 16.13 15.2088 16.2588 15.2664 16.3924C15.2714 16.4043 15.28 16.4081 15.2922 16.4036C15.6236 16.2842 15.9164 16.2905 16.1703 16.4223Z" stroke="#8D999F" stroke-width="2"/>
<path id="Vector_7" d="M19.4985 15.1506C19.4985 14.7904 19.3554 14.445 19.1007 14.1903C18.846 13.9356 18.5006 13.7925 18.1404 13.7925C17.7802 13.7925 17.4347 13.9356 17.18 14.1903C16.9253 14.445 16.7822 14.7904 16.7822 15.1506C16.7822 15.329 16.8174 15.5056 16.8856 15.6703C16.9539 15.8351 17.0539 15.9848 17.18 16.111C17.3061 16.2371 17.4558 16.3371 17.6206 16.4054C17.7854 16.4736 17.962 16.5087 18.1404 16.5087C18.3187 16.5087 18.4953 16.4736 18.6601 16.4054C18.8249 16.3371 18.9746 16.2371 19.1007 16.111C19.2268 15.9848 19.3269 15.8351 19.3951 15.6703C19.4634 15.5056 19.4985 15.329 19.4985 15.1506Z" stroke="#8D999F" stroke-width="2"/>
<path id="Vector_8" d="M18.7439 24.8609C18.7432 24.8582 18.7416 24.8558 18.7394 24.8541C18.7371 24.8525 18.7344 24.8515 18.7316 24.8516L17.5492 24.8519C17.5464 24.8519 17.5437 24.8528 17.5414 24.8545C17.5392 24.8562 17.5376 24.8586 17.5368 24.8613L17.0273 26.6202C17.0268 26.622 17.0267 26.624 17.0271 26.6259C17.0274 26.6278 17.0282 26.6296 17.0294 26.6311C17.0305 26.6327 17.032 26.6339 17.0337 26.6348C17.0354 26.6357 17.0373 26.6362 17.0393 26.6362L19.2415 26.637C19.2434 26.6369 19.2453 26.6365 19.2471 26.6356C19.2488 26.6347 19.2503 26.6334 19.2514 26.6319C19.2526 26.6303 19.2534 26.6285 19.2537 26.6266C19.2541 26.6247 19.254 26.6228 19.2535 26.6209L18.7439 24.8609Z" stroke="#8D999F" stroke-width="2"/>
<path id="Vector_9" d="M18.8612 15.1511C18.8612 14.9598 18.7852 14.7764 18.65 14.6411C18.5147 14.5059 18.3313 14.4299 18.1401 14.4299C17.9488 14.4299 17.7654 14.5059 17.6302 14.6411C17.4949 14.7764 17.4189 14.9598 17.4189 15.1511C17.4189 15.3423 17.4949 15.5257 17.6302 15.661C17.7654 15.7962 17.9488 15.8722 18.1401 15.8722C18.3313 15.8722 18.5147 15.7962 18.65 15.661C18.7852 15.5257 18.8612 15.3423 18.8612 15.1511Z" stroke="#8D999F" stroke-width="2"/>
</g>
<path id="Vector_10" d="M7 8H31V28.486H7V8ZM22.8864 17.2389C22.8759 17.0325 22.8871 16.8785 22.6602 16.7985C22.4295 16.7178 22.2236 16.9241 22.243 17.1589C22.2881 17.7017 22.3191 18.1135 22.3361 18.3944C22.3503 18.6307 22.5985 18.7611 22.8093 18.6501C23.147 18.4726 23.4984 18.2916 23.8636 18.1069C23.9211 18.0778 23.9677 18.0442 24.0034 18.0064C24.1249 17.8766 24.1095 17.6561 23.9731 17.5495C23.8071 17.4202 23.6763 17.4882 23.5144 17.5649C23.4897 17.5766 23.4829 17.5698 23.4938 17.5447C23.9382 16.5361 24.0898 15.4769 23.9488 14.3671C23.7824 13.0598 23.1507 11.8411 22.2194 10.9424C21.393 10.1449 20.425 9.63352 19.3155 9.40822C17.7241 9.08523 16.0669 9.4228 14.7394 10.3779C14.3903 10.6288 14.7581 11.1372 15.1024 10.8964C16.1509 10.1632 17.311 9.84548 18.5828 9.94318C18.8305 9.96237 19.0764 10.0012 19.3204 10.0598C20.3619 10.3105 21.2355 10.8118 21.9413 11.5637C23.3589 13.0744 23.7794 15.3058 22.9278 17.2464C22.9032 17.3022 22.8893 17.2997 22.8864 17.2389ZM20.7159 13.3099C20.3264 13.4796 19.9738 12.9974 20.2736 12.6748C20.3183 12.6269 20.3495 12.5712 20.3675 12.5077C20.4464 12.2299 20.314 12.0471 20.068 11.9095C19.7839 11.7508 19.522 11.6339 19.2822 11.5589C19.055 11.4879 18.8738 11.5463 18.7387 11.7342C18.6998 11.788 18.68 11.8602 18.6613 11.9234C18.5484 12.3084 17.9981 12.308 17.9043 11.9181C17.883 11.8292 17.868 11.7462 17.8187 11.6662C17.7009 11.4751 17.4908 11.4273 17.2725 11.4815C17.041 11.5388 16.7954 11.6245 16.5357 11.7387C16.4006 11.798 16.3065 11.867 16.2535 11.9458C16.1675 12.0733 16.151 12.265 16.228 12.415C16.2632 12.483 16.3039 12.5413 16.311 12.6198C16.3428 12.9649 15.9514 13.191 15.6665 12.9697C15.5316 12.8647 15.3574 12.8366 15.2004 12.9021C15.0621 12.9596 14.9798 13.0871 14.9065 13.2131C14.7737 13.4406 14.6626 13.6814 14.5731 13.9353C14.4527 14.2751 14.6198 14.5409 14.9686 14.6015C15.1364 14.6303 15.2725 14.8015 15.2721 14.9701C15.2714 15.146 15.1888 15.2725 15.0243 15.3495C14.9671 15.3761 14.9039 15.3806 14.8419 15.3858C14.6837 15.3993 14.548 15.5036 14.4834 15.6452C14.4206 15.7836 14.452 15.9544 14.4905 16.0964C14.5598 16.3504 14.6535 16.5994 14.7716 16.8434C14.8596 17.025 14.996 17.1224 15.1809 17.1353C15.4314 17.1529 15.5417 16.9065 15.8052 16.9652C16.0512 17.0202 16.1678 17.252 16.0897 17.492C16.0684 17.5574 16.0224 17.6079 15.9794 17.6602C15.8654 17.7989 15.8673 18.025 15.9521 18.1652C16.001 18.2465 16.0883 18.3221 16.2142 18.3921C16.5357 18.5711 16.8065 18.69 17.0265 18.7488C17.2481 18.8078 17.4213 18.7441 17.5462 18.5574C17.6131 18.4576 17.6127 18.332 17.6908 18.2381C17.8707 18.0213 18.1753 18.0415 18.3282 18.2729C18.3955 18.3753 18.3824 18.5021 18.4456 18.606C18.5578 18.7907 18.7145 18.8672 18.9159 18.8355C19.1173 18.8039 19.3784 18.7199 19.6994 18.5836C19.8148 18.5347 19.9027 18.4825 19.963 18.4269C20.1331 18.2703 20.1443 18.0187 20.0157 17.8183C19.9249 17.6766 19.9649 17.4935 20.0736 17.3735C20.189 17.2461 20.3348 17.2133 20.511 17.2751C20.6079 17.3092 20.6733 17.3921 20.7783 17.4161C20.9981 17.4657 21.1682 17.4005 21.2886 17.2206C21.4648 16.9566 21.6064 16.6638 21.7133 16.3421C21.7913 16.1078 21.7348 15.9204 21.5439 15.7798C21.4359 15.7006 21.2845 15.72 21.1779 15.6415C21.0802 15.5692 21.0255 15.484 21.0138 15.3858C20.9897 15.1789 21.0734 15.0339 21.265 14.9507C21.3675 14.9062 21.486 14.9267 21.5873 14.8729C21.8486 14.7346 21.8703 14.4864 21.7948 14.2213C21.7028 13.8968 21.6016 13.6326 21.4912 13.4288C21.3756 13.2145 21.1983 13.1326 20.9593 13.1832C20.8714 13.2019 20.7985 13.274 20.7159 13.3099ZM12.7836 12.7495C12.3467 13.7656 12.1946 14.8163 12.3275 15.9017C12.508 17.3776 13.2733 18.7301 14.3873 19.6493C15.5591 20.6163 16.9121 21.0684 18.4464 21.0056C18.6811 20.9961 18.9315 20.9669 19.1974 20.9178C20.0467 20.7615 20.8259 20.4325 21.535 19.9308C21.7099 19.8071 21.7361 19.557 21.5671 19.4209C21.4232 19.305 21.2759 19.3361 21.132 19.4351C20.0498 20.1798 18.844 20.4812 17.5144 20.3394C17.3394 20.3207 17.146 20.2865 16.9342 20.2366C15.2972 19.8508 13.9013 18.6591 13.2826 17.0807C12.7907 15.8265 12.7951 14.4516 13.2912 13.1981C13.3141 13.1398 13.3394 13.0832 13.3671 13.0284C13.3798 13.0035 13.3873 13.0049 13.3895 13.0325C13.4071 13.2351 13.3832 13.428 13.6236 13.5043C13.8512 13.5764 14.0579 13.3832 14.0381 13.1495C14.005 12.7632 13.9756 12.3772 13.9499 11.9914C13.9383 11.8206 13.914 11.7043 13.7566 11.6385C13.6079 11.5757 13.4819 11.6404 13.3533 11.7092C13.0196 11.8881 12.7083 12.0497 12.4194 12.194C12.2621 12.2725 12.1664 12.3929 12.2041 12.5806C12.2258 12.6885 12.295 12.7651 12.4116 12.8105C12.5417 12.8609 12.6553 12.7959 12.7652 12.7331C12.7874 12.7204 12.7935 12.7259 12.7836 12.7495ZM16.8561 24.8546C16.8678 24.8613 16.8725 24.8683 16.8703 24.8755C16.7031 25.4495 16.5352 26.0265 16.3667 26.6067C16.361 26.6269 16.3475 26.637 16.3264 26.637C15.9884 26.6375 15.6141 26.6371 15.2034 26.6359C14.7544 26.6348 14.7701 27.2736 15.1836 27.2733C17.1791 27.2708 19.1541 27.2704 21.1088 27.2722C21.2875 27.2722 21.4273 27.1017 21.4123 26.9305C21.3978 26.7664 21.268 26.6355 21.1002 26.6359C20.7206 26.6366 20.3356 26.6365 19.945 26.6355C19.9301 26.6355 19.9206 26.6284 19.9166 26.6142L19.4116 24.8781C19.4106 24.8752 19.4104 24.872 19.411 24.8689C19.4115 24.8658 19.4128 24.8629 19.4147 24.8604C19.4166 24.8579 19.419 24.8559 19.4219 24.8545C19.4247 24.8531 19.4279 24.8523 19.431 24.8523C21.6977 24.8513 23.9272 24.851 26.1196 24.8512C26.3173 24.8515 26.4958 24.8021 26.6553 24.7032C26.9581 24.5158 27.1095 24.2307 27.1095 23.8478C27.1103 20.6601 27.1107 17.425 27.1107 14.1428C27.1107 14.0035 27.0994 13.8925 27.077 13.8097C26.9959 13.5121 26.7634 13.2707 26.4751 13.1679C26.3513 13.1237 26.1976 13.1034 26.0142 13.1069C25.7889 13.1114 25.562 13.1118 25.3335 13.108C24.9675 13.1021 24.8718 13.5993 25.2026 13.7151C25.2714 13.7391 25.3576 13.7495 25.4613 13.7465C25.7016 13.7398 25.9271 13.7402 26.1379 13.7477C26.2935 13.7533 26.4688 13.8579 26.4688 14.0284C26.47 17.2536 26.4704 20.5453 26.4699 23.9036C26.4699 24.0893 26.3069 24.2157 26.1264 24.2157C20.8247 24.2167 15.5136 24.2168 10.1933 24.2161C10.0221 24.2161 9.81009 24.126 9.81009 23.9189C9.81009 20.453 9.81034 17.1524 9.81084 14.0172C9.81084 13.843 10.0191 13.7469 10.1806 13.7454C10.4293 13.7434 10.6738 13.7428 10.914 13.7436C11.0633 13.744 11.1687 13.6943 11.2303 13.5944C11.3521 13.3974 11.2307 13.1133 10.9888 13.1118C10.7094 13.11 10.4303 13.109 10.1514 13.1088C9.71439 13.108 9.31178 13.3936 9.20336 13.8131C9.17894 13.9078 9.16698 14.0933 9.16748 14.3697C9.17321 17.5313 9.17421 20.6882 9.17047 23.8404C9.17009 24.3121 9.40673 24.6508 9.84075 24.8015C9.93645 24.8346 10.0318 24.8512 10.1267 24.8512C12.4238 24.8512 14.6634 24.8515 16.8456 24.852C16.8493 24.852 16.8529 24.8529 16.8561 24.8546ZM25.8946 23.1107C25.8946 23.0268 25.8613 22.9463 25.8019 22.887C25.7426 22.8277 25.6622 22.7944 25.5783 22.7944H10.7028C10.6189 22.7944 10.5385 22.8277 10.4792 22.887C10.4199 22.9463 10.3865 23.0268 10.3865 23.1107V23.1144C10.3865 23.1983 10.4199 23.2787 10.4792 23.338C10.5385 23.3973 10.6189 23.4307 10.7028 23.4307H25.5783C25.6622 23.4307 25.7426 23.3973 25.8019 23.338C25.8613 23.2787 25.8946 23.1983 25.8946 23.1144V23.1107Z" fill="white"/>
<path id="Vector_11" d="M19.4985 15.1511C19.4985 15.3295 19.4634 15.5061 19.3951 15.6708C19.3269 15.8356 19.2268 15.9853 19.1007 16.1114C18.9746 16.2376 18.8249 16.3376 18.6601 16.4058C18.4953 16.4741 18.3187 16.5092 18.1404 16.5092C17.962 16.5092 17.7854 16.4741 17.6206 16.4058C17.4558 16.3376 17.3061 16.2376 17.18 16.1114C17.0539 15.9853 16.9539 15.8356 16.8856 15.6708C16.8174 15.5061 16.7822 15.3295 16.7822 15.1511C16.7822 14.7909 16.9253 14.4455 17.18 14.1908C17.4347 13.9361 17.7802 13.793 18.1404 13.793C18.5006 13.793 18.846 13.9361 19.1007 14.1908C19.3554 14.4455 19.4985 14.7909 19.4985 15.1511ZM18.8615 15.1515C18.8615 14.9602 18.7855 14.7768 18.6503 14.6416C18.515 14.5063 18.3316 14.4304 18.1404 14.4304C17.9491 14.4304 17.7657 14.5063 17.6304 14.6416C17.4952 14.7768 17.4192 14.9602 17.4192 15.1515C17.4192 15.3427 17.4952 15.5261 17.6304 15.6614C17.7657 15.7966 17.9491 15.8726 18.1404 15.8726C18.3316 15.8726 18.515 15.7966 18.6503 15.6614C18.7855 15.5261 18.8615 15.3427 18.8615 15.1515Z" fill="#4B41D9"/>
<g id="Group 427319575">
<path id="Vector_12" d="M18.1401 15.8719C18.5383 15.8719 18.8612 15.5491 18.8612 15.1508C18.8612 14.7525 18.5383 14.4297 18.1401 14.4297C17.7418 14.4297 17.4189 14.7525 17.4189 15.1508C17.4189 15.5491 17.7418 15.8719 18.1401 15.8719Z" fill="white"/>
<g id="Group 427319574">
<path id="Vector_13" d="M20.2733 12.6751C19.9735 12.9977 20.326 13.4799 20.7155 13.3102C20.7982 13.2743 20.871 13.2022 20.9589 13.1835C21.1979 13.1329 21.3752 13.2148 21.4909 13.4291C21.6013 13.633 21.7024 13.8971 21.7944 14.2216C21.8699 14.4867 21.8482 14.7349 21.5869 14.8732C21.4856 14.927 21.3671 14.9065 21.2647 14.951C21.073 15.0342 20.9893 15.1793 21.0135 15.3861C21.0252 15.4843 21.0799 15.5695 21.1776 15.6418C21.2841 15.7203 21.4355 15.7009 21.5436 15.7801C21.7345 15.9207 21.7909 16.1081 21.7129 16.3424C21.606 16.6641 21.4644 16.957 21.2882 17.2209C21.1679 17.4008 20.9978 17.466 20.778 17.4164C20.6729 17.3925 20.6075 17.3095 20.5107 17.2755C20.3345 17.2137 20.1887 17.2464 20.0733 17.3738C19.9645 17.4938 19.9245 17.677 20.0153 17.8186C20.1439 18.019 20.1327 18.2706 19.9626 18.4272C19.9023 18.4828 19.8145 18.535 19.6991 18.5839C19.3781 18.7202 19.1169 18.8042 18.9155 18.8358C18.7142 18.8675 18.5574 18.791 18.4453 18.6063C18.3821 18.5024 18.3952 18.3756 18.3279 18.2732C18.175 18.0418 17.8703 18.0216 17.6905 18.2385C17.6124 18.3323 17.6127 18.4579 17.5458 18.5577C17.421 18.7444 17.2477 18.8082 17.0262 18.7491C16.8061 18.6903 16.5353 18.5714 16.2139 18.3925C16.088 18.3224 16.0006 18.2468 15.9518 18.1656C15.8669 18.0254 15.8651 17.7992 15.9791 17.6605C16.0221 17.6082 16.0681 17.5577 16.0894 17.4923C16.1675 17.2523 16.0509 17.0205 15.8049 16.9656C15.5413 16.9069 15.431 17.1532 15.1806 17.1356C14.9957 17.1227 14.8592 17.0254 14.7712 16.8437C14.6531 16.5997 14.5594 16.3507 14.4901 16.0968C14.4516 15.9547 14.4202 15.7839 14.483 15.6456C14.5477 15.5039 14.6834 15.3996 14.8415 15.3861C14.9036 15.3809 14.9667 15.3764 15.0239 15.3499C15.1884 15.2728 15.271 15.1464 15.2718 14.9704C15.2722 14.8018 15.1361 14.6306 14.9682 14.6018C14.6195 14.5413 14.4524 14.2755 14.5727 13.9356C14.6622 13.6817 14.7734 13.4409 14.9062 13.2134C14.9795 13.0874 15.0617 12.9599 15.2 12.9024C15.357 12.837 15.5312 12.865 15.6662 12.97C15.951 13.1913 16.3424 12.9652 16.3107 12.6201C16.3036 12.5416 16.2628 12.4833 16.2277 12.4153C16.1507 12.2654 16.1671 12.0736 16.2531 11.9461C16.3062 11.8674 16.4003 11.7983 16.5353 11.739C16.795 11.6249 17.0406 11.5391 17.2722 11.4818C17.4905 11.4276 17.7006 11.4755 17.8183 11.6665C17.8677 11.7465 17.8826 11.8295 17.9039 11.9185C17.9978 12.3084 18.5481 12.3087 18.661 11.9237C18.6796 11.8605 18.6995 11.7884 18.7383 11.7345C18.8734 11.5466 19.0546 11.4882 19.2819 11.5592C19.5216 11.6342 19.7836 11.7511 20.0677 11.9099C20.3137 12.0474 20.446 12.2302 20.3671 12.508C20.3492 12.5715 20.3179 12.6272 20.2733 12.6751ZM16.1701 16.4228C16.5816 16.6361 16.7745 16.9796 16.7488 17.4534C16.7413 17.5935 16.6962 17.7308 16.6135 17.8654C16.6053 17.8786 16.6082 17.8885 16.6224 17.8953L17.0067 18.0758C17.0154 18.0799 17.0253 18.0804 17.0343 18.0772C17.0433 18.0739 17.0507 18.0673 17.055 18.0586C17.4628 17.2085 18.6322 17.2657 18.9742 18.1431C18.9812 18.1606 18.9935 18.1662 19.0112 18.1599L19.3817 18.031C19.3967 18.0257 19.4016 18.0156 19.3967 18.0007C19.3 17.7106 19.313 17.4412 19.4359 17.1925C19.6935 16.6713 20.3017 16.4504 20.8292 16.7188C20.8333 16.7209 20.8381 16.7213 20.8425 16.72C20.847 16.7187 20.8508 16.7157 20.8531 16.7117C20.9276 16.5849 20.9918 16.453 21.0456 16.3162C21.047 16.3128 21.0476 16.3091 21.0476 16.3054C21.0475 16.3017 21.0467 16.2981 21.0453 16.2947C21.0438 16.2913 21.0417 16.2883 21.0391 16.2858C21.0364 16.2832 21.0333 16.2813 21.0299 16.2799C20.541 16.0833 20.2572 15.5562 20.409 15.0463C20.5184 14.6789 20.7599 14.4366 21.1335 14.3192C21.1464 14.315 21.1518 14.3061 21.1496 14.2927C21.1271 14.1611 21.0583 14.0291 21.0165 13.9054C21.0156 13.903 21.0143 13.9008 21.0126 13.8989C21.0109 13.897 21.0089 13.8955 21.0066 13.8944C21.0043 13.8933 21.0018 13.8927 20.9992 13.8926C20.9967 13.8925 20.9942 13.8929 20.9918 13.8938C20.4539 14.0986 19.8841 13.9218 19.6288 13.4044C19.4901 13.1229 19.486 12.7289 19.6598 12.447C19.6623 12.4431 19.6639 12.4388 19.6645 12.4342C19.6651 12.4296 19.6648 12.425 19.6634 12.4206C19.6621 12.4162 19.6599 12.4121 19.6569 12.4086C19.6539 12.4051 19.6502 12.4023 19.646 12.4003L19.2699 12.2246C19.2497 12.2154 19.2348 12.2208 19.2251 12.2407C18.8725 12.9813 17.9002 13.062 17.4303 12.4007C17.378 12.3274 17.3406 12.2411 17.3047 12.1577C17.298 12.1423 17.2865 12.1373 17.2703 12.1428L16.8987 12.2695C16.8951 12.2707 16.8918 12.2726 16.889 12.2751C16.8862 12.2776 16.8839 12.2806 16.8823 12.284C16.8806 12.2874 16.8797 12.2911 16.8795 12.2948C16.8793 12.2985 16.8799 12.3022 16.8811 12.3057C17.2008 13.2044 16.2882 14.0003 15.4378 13.5798C15.4364 13.5791 15.4348 13.5787 15.4332 13.5786C15.4316 13.5785 15.4301 13.5787 15.4286 13.5792C15.4271 13.5797 15.4257 13.5805 15.4245 13.5816C15.4233 13.5827 15.4224 13.5839 15.4217 13.5854L15.2266 13.9932C15.2256 13.9952 15.225 13.9974 15.2249 13.9996C15.2248 14.0018 15.2252 14.0041 15.226 14.0061C15.2268 14.0082 15.2281 14.0101 15.2296 14.0117C15.2312 14.0132 15.2331 14.0145 15.2352 14.0153C16.1739 14.3917 16.1185 15.6979 15.1383 15.9828C15.1261 15.9865 15.1219 15.9943 15.1256 16.0063C15.1618 16.1304 15.2086 16.2593 15.2662 16.3928C15.2712 16.4048 15.2798 16.4085 15.292 16.4041C15.6234 16.2847 15.9162 16.2909 16.1701 16.4228Z" fill="#4B41D9"/>
<g id="Group 427319573">
<g id="Group 427319572">
<path id="Vector_14" d="M22.8865 17.2388C22.8895 17.2996 22.9033 17.3021 22.928 17.2463C23.7796 15.3057 23.359 13.0743 21.9415 11.5637C21.2357 10.8118 20.362 10.3105 19.3205 10.0597C19.0765 10.0012 18.8307 9.96229 18.583 9.9431C17.3112 9.84541 16.1511 10.1632 15.1026 10.8964C14.7583 11.1371 14.3904 10.6287 14.7396 10.3779C16.0671 9.42273 17.7243 9.08516 19.3157 9.40815C20.4252 9.63344 21.3932 10.1448 22.2196 10.9424C23.1508 11.841 23.7826 13.0597 23.9489 14.367C24.09 15.4768 23.9383 16.536 23.494 17.5446C23.483 17.5698 23.4899 17.5765 23.5145 17.5648C23.6764 17.4881 23.8073 17.4201 23.9732 17.5495C24.1097 17.656 24.125 17.8766 24.0035 18.0063C23.9679 18.0442 23.9213 18.0777 23.8637 18.1068C23.4986 18.2915 23.1472 18.4726 22.8095 18.65C22.5987 18.761 22.3504 18.6306 22.3362 18.3943C22.3193 18.1134 22.2883 17.7016 22.2431 17.1588C22.2237 16.924 22.4297 16.7177 22.6603 16.7984C22.8873 16.8784 22.876 17.0324 22.8865 17.2388Z" fill="#4B41D9"/>
<path id="Vector_15" d="M12.7835 12.7498C12.7934 12.7261 12.7873 12.7206 12.7651 12.7334C12.6552 12.7962 12.5416 12.8612 12.4115 12.8107C12.2949 12.7654 12.2257 12.6887 12.204 12.5808C12.1663 12.3932 12.262 12.2728 12.4194 12.1943C12.7082 12.05 13.0195 11.8884 13.3532 11.7094C13.4818 11.6406 13.6078 11.576 13.7566 11.6388C13.9139 11.7046 13.9382 11.8208 13.9498 11.9917C13.9755 12.3775 14.0049 12.7635 14.038 13.1498C14.0579 13.3834 13.8511 13.5767 13.6235 13.5046C13.3831 13.4283 13.407 13.2354 13.3894 13.0328C13.3872 13.0051 13.3797 13.0038 13.367 13.0287C13.3394 13.0835 13.3141 13.1401 13.2911 13.1984C12.7951 14.4519 12.7906 15.8268 13.2825 17.081C13.9012 18.6593 15.2971 19.8511 16.9341 20.2369C17.146 20.2867 17.3394 20.321 17.5143 20.3397C18.8439 20.4815 20.0498 20.1801 21.1319 19.4354C21.2758 19.3363 21.4231 19.3053 21.567 19.4212C21.736 19.5573 21.7098 19.8074 21.5349 19.9311C20.8258 20.4328 20.0466 20.7618 19.1973 20.918C18.9314 20.9671 18.681 20.9964 18.4463 21.0059C16.9121 21.0687 15.559 20.6166 14.3872 19.6496C13.2732 18.7304 12.508 17.3778 12.3274 15.9019C12.1946 14.8166 12.3466 13.7659 12.7835 12.7498Z" fill="#4B41D9"/>
<path id="Vector_16" d="M16.1708 16.4228C15.9168 16.2909 15.6241 16.2847 15.2927 16.4041C15.2805 16.4086 15.2719 16.4048 15.2669 16.3929C15.2093 16.2593 15.1625 16.1304 15.1263 16.0063C15.1226 15.9944 15.1268 15.9865 15.139 15.9828C16.1192 15.6979 16.1745 14.3918 15.2358 14.0153C15.2338 14.0145 15.2319 14.0133 15.2303 14.0117C15.2287 14.0101 15.2275 14.0082 15.2267 14.0062C15.2259 14.0041 15.2255 14.0019 15.2256 13.9996C15.2257 13.9974 15.2263 13.9952 15.2272 13.9932L15.4224 13.5854C15.4231 13.584 15.424 13.5827 15.4252 13.5816C15.4264 13.5806 15.4278 13.5798 15.4293 13.5792C15.4307 13.5787 15.4323 13.5785 15.4339 13.5786C15.4355 13.5787 15.437 13.5791 15.4385 13.5798C16.2889 14.0003 17.2015 13.2045 16.8818 12.3058C16.8805 12.3023 16.88 12.2985 16.8802 12.2948C16.8804 12.2911 16.8813 12.2874 16.883 12.2841C16.8846 12.2807 16.8869 12.2777 16.8897 12.2752C16.8925 12.2727 16.8958 12.2707 16.8994 12.2695L17.271 12.1428C17.2872 12.1373 17.2987 12.1423 17.3054 12.1577C17.3413 12.2411 17.3787 12.3275 17.431 12.4007C17.9009 13.062 18.8732 12.9813 19.2258 12.2407C19.2355 12.2208 19.2504 12.2154 19.2706 12.2246L19.6467 12.4003C19.6509 12.4023 19.6546 12.4051 19.6576 12.4086C19.6606 12.4121 19.6628 12.4162 19.6641 12.4206C19.6654 12.425 19.6658 12.4297 19.6652 12.4342C19.6645 12.4388 19.663 12.4432 19.6605 12.4471C19.4867 12.7289 19.4908 13.123 19.6295 13.4045C19.8848 13.9218 20.4545 14.0987 20.9925 13.8938C20.9949 13.8929 20.9974 13.8925 20.9999 13.8926C21.0025 13.8927 21.005 13.8933 21.0073 13.8944C21.0096 13.8955 21.0116 13.897 21.0133 13.8989C21.015 13.9008 21.0163 13.903 21.0172 13.9054C21.059 14.0291 21.1278 14.1611 21.1502 14.2927C21.1525 14.3061 21.1471 14.315 21.1342 14.3192C20.7606 14.4366 20.5191 14.679 20.4097 15.0463C20.2579 15.5562 20.5416 16.0833 21.0306 16.28C21.034 16.2813 21.0371 16.2833 21.0398 16.2858C21.0424 16.2883 21.0445 16.2914 21.046 16.2947C21.0474 16.2981 21.0482 16.3017 21.0483 16.3054C21.0483 16.3091 21.0477 16.3128 21.0463 16.3162C20.9925 16.4531 20.9283 16.5849 20.8538 16.7118C20.8514 16.7157 20.8477 16.7187 20.8432 16.72C20.8388 16.7213 20.834 16.7209 20.8299 16.7189C20.3024 16.4504 19.6942 16.6714 19.4366 17.1925C19.3137 17.4412 19.3006 17.7106 19.3973 18.0007C19.4023 18.0157 19.3973 18.0258 19.3824 18.031L19.0119 18.16C18.9942 18.1662 18.9819 18.1606 18.9749 18.1432C18.6329 17.2658 17.4635 17.2086 17.0557 18.0587C17.0514 18.0673 17.044 18.074 17.035 18.0772C17.0259 18.0804 17.0161 18.0799 17.0074 18.0759L16.6231 17.8953C16.6089 17.8886 16.6059 17.8786 16.6142 17.8654C16.6969 17.7308 16.742 17.5935 16.7495 17.4534C16.7752 16.9797 16.5823 16.6361 16.1708 16.4228ZM19.4987 15.151C19.4987 14.7908 19.3556 14.4454 19.1009 14.1907C18.8462 13.936 18.5007 13.7929 18.1405 13.7929C17.7803 13.7929 17.4349 13.936 17.1802 14.1907C16.9255 14.4454 16.7824 14.7908 16.7824 15.151C16.7824 15.3294 16.8175 15.506 16.8858 15.6707C16.954 15.8355 17.0541 15.9852 17.1802 16.1113C17.3063 16.2375 17.456 16.3375 17.6208 16.4058C17.7856 16.474 17.9622 16.5091 18.1405 16.5091C18.3189 16.5091 18.4955 16.474 18.6603 16.4058C18.825 16.3375 18.9747 16.2375 19.1009 16.1113C19.227 15.9852 19.327 15.8355 19.3953 15.6707C19.4635 15.506 19.4987 15.3294 19.4987 15.151Z" fill="white"/>
<path id="Vector_17" d="M16.8561 24.8535C16.8529 24.8518 16.8493 24.8509 16.8456 24.8509C14.6634 24.8504 12.4238 24.8502 10.1267 24.8502C10.0318 24.8502 9.93647 24.8336 9.84077 24.8004C9.40675 24.6498 9.17011 24.3111 9.17049 23.8393C9.17422 20.6872 9.17323 17.5303 9.1675 14.3687C9.167 14.0923 9.17896 13.9067 9.20338 13.812C9.31179 13.3926 9.71441 13.107 10.1514 13.1077C10.4303 13.108 10.7094 13.109 10.9888 13.1107C11.2307 13.1122 11.3522 13.3963 11.2303 13.5933C11.1687 13.6933 11.0633 13.743 10.914 13.7425C10.6738 13.7417 10.4293 13.7424 10.1806 13.7444C10.0191 13.7459 9.81086 13.8419 9.81086 14.0161C9.81036 17.1513 9.81011 20.4519 9.81011 23.9178C9.81011 24.1249 10.0221 24.215 10.1933 24.215C15.5137 24.2158 20.8247 24.2156 26.1264 24.2146C26.3069 24.2146 26.4699 24.0883 26.4699 23.9025C26.4704 20.5442 26.47 17.2525 26.4688 14.0273C26.4688 13.8569 26.2935 13.7522 26.138 13.7466C25.9271 13.7391 25.7016 13.7387 25.4613 13.7455C25.3577 13.7485 25.2714 13.738 25.2026 13.7141C24.8718 13.5982 24.9675 13.101 25.3335 13.107C25.562 13.1107 25.7889 13.1103 26.0142 13.1059C26.1977 13.1024 26.3513 13.1227 26.4752 13.1668C26.7634 13.2696 26.9959 13.5111 27.077 13.8087C27.0995 13.8914 27.1107 14.0024 27.1107 14.1417C27.1107 17.424 27.1103 20.659 27.1096 23.8468C27.1096 24.2296 26.9582 24.5147 26.6553 24.7021C26.4958 24.8011 26.3173 24.8504 26.1196 24.8502C23.9272 24.8499 21.6977 24.8503 19.431 24.8513C19.4279 24.8513 19.4247 24.852 19.4219 24.8534C19.419 24.8548 19.4166 24.8568 19.4147 24.8594C19.4128 24.8619 19.4115 24.8648 19.411 24.8679C19.4105 24.8709 19.4107 24.8741 19.4116 24.8771L19.9167 26.6131C19.9206 26.6273 19.9301 26.6344 19.9451 26.6344C20.3356 26.6354 20.7206 26.6356 21.1002 26.6348C21.2681 26.6345 21.3978 26.7653 21.4124 26.9294C21.4273 27.1006 21.2875 27.2711 21.1088 27.2711C19.1542 27.2693 17.1791 27.2697 15.1836 27.2722C14.7701 27.2726 14.7544 26.6337 15.2034 26.6348C15.6141 26.6361 15.9884 26.6364 16.3264 26.6359C16.3476 26.6359 16.361 26.6259 16.3667 26.6057C16.5352 26.0255 16.7031 25.4484 16.8703 24.8745C16.8725 24.8672 16.8678 24.8602 16.8561 24.8535ZM18.7439 24.8599C18.7432 24.8572 18.7416 24.8548 18.7394 24.8531C18.7371 24.8514 18.7344 24.8505 18.7316 24.8505L17.5492 24.8509C17.5464 24.8509 17.5437 24.8518 17.5414 24.8535C17.5392 24.8552 17.5376 24.8575 17.5368 24.8602L17.0273 26.6191C17.0268 26.621 17.0267 26.6229 17.0271 26.6248C17.0274 26.6267 17.0282 26.6285 17.0294 26.6301C17.0305 26.6316 17.032 26.6329 17.0337 26.6338C17.0354 26.6347 17.0373 26.6352 17.0393 26.6352L19.2415 26.6359C19.2434 26.6359 19.2453 26.6354 19.2471 26.6345C19.2488 26.6336 19.2503 26.6324 19.2514 26.6308C19.2526 26.6293 19.2534 26.6275 19.2537 26.6256C19.2541 26.6237 19.254 26.6217 19.2535 26.6199L18.7439 24.8599Z" fill="#4B41D9"/>
</g>
<path id="Vector_18" d="M25.5785 22.7949H10.703C10.5283 22.7949 10.3867 22.9365 10.3867 23.1112V23.1149C10.3867 23.2896 10.5283 23.4312 10.703 23.4312H25.5785C25.7532 23.4312 25.8948 23.2896 25.8948 23.1149V23.1112C25.8948 22.9365 25.7532 22.7949 25.5785 22.7949Z" fill="#4B41D9"/>
</g>
</g>
</g>
<path id="Vector_19" d="M18.7439 24.8609L19.2535 26.6209C19.254 26.6228 19.2541 26.6247 19.2537 26.6266C19.2534 26.6285 19.2526 26.6303 19.2514 26.6319C19.2503 26.6334 19.2488 26.6347 19.2471 26.6356C19.2453 26.6365 19.2434 26.6369 19.2415 26.637L17.0393 26.6362C17.0373 26.6362 17.0354 26.6357 17.0337 26.6348C17.032 26.6339 17.0305 26.6327 17.0294 26.6311C17.0282 26.6296 17.0274 26.6278 17.0271 26.6259C17.0267 26.624 17.0268 26.622 17.0273 26.6202L17.5368 24.8613C17.5376 24.8586 17.5392 24.8562 17.5414 24.8545C17.5437 24.8528 17.5464 24.8519 17.5492 24.8519L18.7316 24.8516C18.7344 24.8515 18.7371 24.8525 18.7394 24.8541C18.7416 24.8558 18.7432 24.8582 18.7439 24.8609Z" fill="white"/>
</g>
</g>
</svg>
