<svg width="32" height="32" viewBox="0 0 32 32" fill="none" xmlns="http://www.w3.org/2000/svg">
<path d="M30.0805 16C30.0805 19.7345 28.597 23.316 25.9563 25.9566C23.3156 28.5973 19.7341 30.0808 15.9997 30.0808C12.2653 30.0808 8.68376 28.5973 6.0431 25.9566C3.40245 23.316 1.91895 19.7345 1.91895 16C1.91895 12.2656 3.40245 8.68409 6.0431 6.04343C8.68376 3.40278 12.2653 1.91928 15.9997 1.91928C19.7341 1.91928 23.3156 3.40278 25.9563 6.04343C28.597 8.68409 30.0805 12.2656 30.0805 16ZM15.7111 19.8615C14.5172 17.1858 13.3231 14.4991 12.1288 11.8013C11.9402 11.377 11.726 11.0918 11.3036 10.9485C10.7813 10.7714 10.1217 10.9627 9.83042 11.458C9.79392 11.5198 9.75563 11.5801 9.71553 11.6392C9.01631 12.6713 8.32904 13.6877 7.6537 14.6883C7.63928 14.7095 7.61923 14.7201 7.59355 14.7201C6.56095 14.7192 5.53577 14.7194 4.51803 14.7208C4.07156 14.7212 3.7206 14.8902 3.46515 15.2276C2.82315 16.0757 3.41785 17.2813 4.50114 17.2813C5.74369 17.2813 7.00561 17.2813 8.28691 17.2813C8.66873 17.2813 9.16882 17.0921 9.36277 16.7278C9.40197 16.6549 9.44499 16.5839 9.49185 16.515C9.87434 15.9518 10.2564 15.3887 10.638 14.8255C10.6396 14.8231 10.6418 14.8211 10.6444 14.8198C10.647 14.8185 10.6499 14.8179 10.6528 14.8181C10.6557 14.8183 10.6585 14.8193 10.6609 14.821C10.6633 14.8226 10.6652 14.8249 10.6664 14.8275C12.04 17.9163 13.4069 20.9997 14.7671 24.0777C14.8603 24.2881 14.9543 24.4451 15.0489 24.5488C15.4273 24.9644 16.0585 25.0738 16.5545 24.8177C16.8897 24.6443 17.1102 24.369 17.2161 23.9919C18.3582 19.9205 19.4998 15.8511 20.641 11.7838C20.6509 11.7477 20.6627 11.7471 20.6762 11.7817C21.251 13.2613 21.8311 14.7658 22.4163 16.2953C22.6819 16.9894 23.0982 17.2915 23.8551 17.2854C24.9363 17.2773 26.078 17.2768 27.28 17.284C27.5674 17.2858 27.7819 17.2622 27.9233 17.2131C28.6552 16.9583 29.0404 16.1 28.6498 15.3965C28.3998 14.9465 27.9972 14.721 27.4422 14.7201C26.579 14.7187 25.6302 14.719 24.5957 14.7208C24.5732 14.7208 24.5579 14.7104 24.5498 14.6897C23.6131 12.2573 22.6887 9.84313 21.7764 7.44724C21.6804 7.19449 21.5876 7.01158 21.4979 6.8985C20.8269 6.0497 19.5354 6.34097 19.2516 7.35195C18.0892 11.4959 16.919 15.6651 15.7409 19.8595C15.7328 19.8869 15.7229 19.8876 15.7111 19.8615Z" fill="white"/>
<path d="M17.9998 21.9995C19.9776 21.9995 21.911 21.413 23.5555 20.3142C25.2 19.2154 26.4817 17.6536 27.2386 15.8263C27.9955 13.9991 28.1935 11.9884 27.8077 10.0486C27.4218 8.10879 26.4694 6.32696 25.0709 4.92844C23.6723 3.52991 21.8905 2.57751 19.9507 2.19165C18.0109 1.8058 16.0002 2.00384 14.173 2.76071C12.3457 3.51759 10.7839 4.79931 9.6851 6.4438C8.58629 8.0883 7.9998 10.0217 7.9998 11.9995C8.00278 14.6508 9.0573 17.1926 10.932 19.0673C12.8067 20.942 15.3485 21.9965 17.9998 21.9995ZM17.9998 3.99951C19.582 3.99951 21.1288 4.4687 22.4444 5.34775C23.76 6.2268 24.7853 7.47623 25.3908 8.93804C25.9963 10.3998 26.1548 12.0084 25.8461 13.5602C25.5374 15.1121 24.7755 16.5375 23.6567 17.6564C22.5378 18.7752 21.1124 19.5371 19.5605 19.8458C18.0087 20.1545 16.4001 19.996 14.9383 19.3905C13.4765 18.785 12.2271 17.7597 11.348 16.4441C10.469 15.1285 9.9998 13.5818 9.9998 11.9995C10.0021 9.87849 10.8457 7.845 12.3455 6.34521C13.8453 4.84542 15.8788 4.00182 17.9998 3.99951ZM27.721 20.687C27.8122 20.7818 27.8837 20.8935 27.9316 21.016C27.9794 21.1384 28.0027 21.269 28 21.4005C27.9974 21.5319 27.9688 21.6615 27.916 21.7819C27.8632 21.9023 27.7872 22.011 27.6923 22.102C25.339 24.3713 22.2613 25.7389 18.9998 25.9645V27.9995H21.9998C22.265 27.9995 22.5194 28.1049 22.7069 28.2924C22.8944 28.4799 22.9998 28.7343 22.9998 28.9995C22.9998 29.2647 22.8944 29.5191 22.7069 29.7066C22.5194 29.8942 22.265 29.9995 21.9998 29.9995H13.9998C13.7346 29.9995 13.4802 29.8942 13.2927 29.7066C13.1052 29.5191 12.9998 29.2647 12.9998 28.9995C12.9998 28.7343 13.1052 28.4799 13.2927 28.2924C13.4802 28.1049 13.7346 27.9995 13.9998 27.9995H16.9998V25.9633C14.3476 25.7733 11.8043 24.8319 9.66747 23.2493C7.53069 21.6667 5.8888 19.5083 4.9339 17.0266C3.979 14.545 3.75058 11.8427 4.27538 9.23595C4.80018 6.62921 6.05648 4.22583 7.8973 2.30701C7.98766 2.20992 8.09643 2.13177 8.21728 2.07712C8.33812 2.02247 8.46864 1.9924 8.60122 1.98868C8.73379 1.98495 8.86579 2.00763 8.98952 2.0554C9.11325 2.10318 9.22624 2.17509 9.32191 2.26694C9.41758 2.3588 9.49403 2.46877 9.54679 2.59046C9.59955 2.71214 9.62758 2.84311 9.62925 2.97573C9.63091 3.10835 9.60618 3.23998 9.55649 3.36295C9.50679 3.48592 9.43314 3.59778 9.3398 3.69201C7.1599 5.95635 5.95543 8.98557 5.98529 12.1285C6.01515 15.2715 7.27695 18.2773 9.49947 20.4998C11.722 22.7224 14.7278 23.9842 17.8708 24.014C21.0137 24.0439 24.043 22.8394 26.3073 20.6595C26.4984 20.4757 26.7547 20.3754 27.0199 20.3805C27.285 20.3857 27.5372 20.4959 27.721 20.687Z" fill="#4B41D9"/>
<path d="M18 3C16.22 3 14.4799 3.52784 12.9999 4.51677C11.5198 5.50571 10.3663 6.91131 9.68509 8.55585C9.0039 10.2004 8.82567 12.01 9.17294 13.7558C9.5202 15.5016 10.3774 17.1053 11.636 18.364C12.8947 19.6226 14.4984 20.4798 16.2442 20.8271C17.99 21.1743 19.7996 20.9961 21.4442 20.3149C23.0887 19.6337 24.4943 18.4802 25.4832 17.0001C26.4722 15.5201 27 13.78 27 12C26.9975 9.61382 26.0485 7.3261 24.3612 5.63882C22.6739 3.95154 20.3862 3.00252 18 3ZM25.6154 12C25.6161 12.977 25.4281 13.9449 25.0615 14.8506L21.1933 12.4716C21.0288 12.3701 20.8448 12.3044 20.6533 12.2787L18.6785 12.0121C18.4063 11.9766 18.1298 12.0222 17.8835 12.1432C17.6372 12.2642 17.4321 12.4552 17.2938 12.6923H16.5392L16.2104 12.0121C16.1195 11.8227 15.9864 11.6566 15.8214 11.5266C15.6564 11.3965 15.4639 11.306 15.2585 11.2618L14.5662 11.1121L15.2429 9.92308H16.6889C16.9229 9.92262 17.153 9.86308 17.3579 9.75L18.418 9.165C18.5111 9.11308 18.5982 9.05097 18.6776 8.97981L21.0063 6.87346C21.2398 6.66422 21.395 6.38165 21.4463 6.07235C21.4976 5.76305 21.4419 5.44551 21.2885 5.17211L21.2573 5.11586C22.5604 5.73375 23.6615 6.70851 24.4329 7.92703C25.2043 9.14554 25.6143 10.5578 25.6154 12ZM19.3249 4.50058L20.0769 5.84711L17.7482 7.95346L16.6889 8.53846H15.2429C14.9995 8.5381 14.7603 8.60191 14.5494 8.72345C14.3385 8.845 14.1634 9.01998 14.0417 9.23077L13.2863 10.5487L12.4079 8.20875L13.3546 5.97C14.1926 5.32251 15.1566 4.8572 16.1848 4.60386C17.2131 4.35053 18.2829 4.31476 19.3258 4.49885L19.3249 4.50058ZM10.3846 12C10.3835 10.8681 10.636 9.75031 11.1237 8.72884L12.105 11.3484C12.1868 11.5653 12.3217 11.7581 12.4974 11.9093C12.6731 12.0605 12.8839 12.1652 13.1106 12.2137L14.9651 12.6127L15.2948 13.2981C15.4092 13.5312 15.5866 13.7276 15.8068 13.8653C16.027 14.0029 16.2813 14.0762 16.541 14.0769H16.669L16.0434 15.4814C15.9331 15.7287 15.8978 16.003 15.9418 16.2701C15.9858 16.5373 16.1072 16.7857 16.2909 16.9846L16.303 16.9967L18 18.7448L17.8321 19.6102C15.8433 19.5639 13.9514 18.7422 12.56 17.3204C11.1686 15.8986 10.3879 13.9893 10.3846 12ZM19.2617 19.5098L19.3595 19.007C19.3997 18.7934 19.3893 18.5734 19.3292 18.3645C19.2691 18.1556 19.1609 17.9637 19.0134 17.8041C19.0091 17.8003 19.0051 17.7963 19.0013 17.792L17.3077 16.0448L18.4933 13.3846L20.4681 13.6512L24.4246 16.0846C23.8514 16.9848 23.0957 17.7548 22.2064 18.3448C21.3171 18.9348 20.314 19.3316 19.2617 19.5098Z" fill="#4B41D9"/>
</svg>
