<svg width="15" height="20" viewBox="0 0 15 20" fill="none" xmlns="http://www.w3.org/2000/svg">
<g id="Capture d&#226;&#128;&#153;e&#204;&#129;cran 2023-10-19 a&#204;&#128; 4.36.29 PM 1" clip-path="url(#clip0_2190_26453)">
<path id="Vector" d="M9.7404 6.66531L0.338988 4.50773C0.0606212 4.44372 -0.0489798 4.27156 0.0101852 3.99125C0.216778 3.02376 0.353536 1.87295 1.56254 1.74638C1.78271 1.7231 2.16292 1.77499 2.70316 1.90205C3.37338 2.06111 4.04504 2.21436 4.71817 2.36179C4.76957 2.37343 4.80061 2.35306 4.81128 2.30068C5.05133 1.12805 5.8908 0.784702 6.97759 1.03203C7.5382 1.16006 8.09833 1.28663 8.65798 1.41175C9.38541 1.5747 9.86601 1.75365 10.0998 1.9486C10.5576 2.32881 10.7055 2.88748 10.5435 3.62462C10.5328 3.67506 10.5522 3.70609 10.6017 3.71773C11.4193 3.90881 12.236 4.09309 13.0517 4.27059C14.7015 4.62994 14.4775 6.04408 14.1065 7.29237C14.0357 7.53291 13.8664 7.62068 13.5987 7.5557C13.5464 7.54309 13.5177 7.56346 13.5129 7.6168C13.1744 11.158 12.8374 14.6982 12.5018 18.2374C12.4513 18.7718 12.2118 19.1477 11.7831 19.3649C11.5445 19.4862 11.1434 19.5468 10.5799 19.5468C7.96012 19.5458 5.34086 19.5463 2.72208 19.5483C2.18668 19.5483 1.78998 19.348 1.53199 18.9474C1.38747 18.7224 1.28854 18.3305 1.23519 17.7718C0.89281 14.2045 0.555279 10.6633 0.222597 7.14833C0.217532 7.09447 0.223773 7.04015 0.240921 6.98883C0.258069 6.93752 0.285746 6.89036 0.322178 6.85037C0.358611 6.81037 0.402997 6.77843 0.45249 6.75659C0.501984 6.73474 0.555495 6.72347 0.609595 6.72351L9.73458 6.72205C9.74127 6.7214 9.74752 6.71846 9.75228 6.71372C9.75704 6.70898 9.76001 6.70274 9.76069 6.69606C9.76138 6.68938 9.75973 6.68267 9.75603 6.67707C9.75234 6.67146 9.74681 6.66731 9.7404 6.66531ZM5.56345 2.56256L9.74477 3.51987C9.7627 3.52379 9.78146 3.52049 9.79698 3.51069C9.8125 3.50089 9.82353 3.48537 9.8277 3.4675L9.86698 3.29873C9.89184 3.19081 9.89493 3.079 9.87606 2.96968C9.85719 2.86035 9.81673 2.75567 9.757 2.66162C9.69728 2.56757 9.61945 2.486 9.52798 2.42157C9.43651 2.35714 9.33318 2.31111 9.22392 2.28613L6.56877 1.678C6.45954 1.6529 6.34649 1.64933 6.23609 1.66748C6.12569 1.68564 6.02011 1.72518 5.92538 1.78382C5.83066 1.84247 5.74865 1.91908 5.68405 2.00926C5.61945 2.09945 5.57352 2.20144 5.5489 2.30941L5.51108 2.47818C5.50892 2.48716 5.50857 2.49648 5.51004 2.5056C5.51151 2.51472 5.51478 2.52346 5.51965 2.5313C5.52452 2.53915 5.5309 2.54596 5.53842 2.55132C5.54594 2.55669 5.55445 2.56051 5.56345 2.56256ZM0.827826 3.87777L13.4358 6.76425C13.4502 6.76731 13.4653 6.76462 13.4778 6.75674C13.4903 6.74886 13.4992 6.73642 13.5027 6.72205L13.6526 6.07172C13.6788 5.95729 13.6807 5.83847 13.6582 5.72205C13.6357 5.60562 13.5892 5.49388 13.5214 5.39322C13.4535 5.29255 13.3657 5.20494 13.2629 5.13538C13.1601 5.06582 13.0443 5.01569 12.9222 4.98784L2.06302 2.5C1.94101 2.47197 1.81503 2.46674 1.69225 2.48462C1.56948 2.50249 1.45232 2.54313 1.34748 2.6042C1.24263 2.66527 1.15216 2.74557 1.08122 2.84053C1.01028 2.93548 0.960263 3.04323 0.934032 3.15761L0.785635 3.80939C0.783905 3.81665 0.783625 3.82418 0.78481 3.83155C0.785996 3.83892 0.788623 3.84598 0.792542 3.85234C0.796462 3.85869 0.801596 3.8642 0.80765 3.86857C0.813705 3.87293 0.820561 3.87606 0.827826 3.87777ZM11.735 18.3611C11.7553 18.3138 11.768 18.2643 11.7729 18.2141L12.7927 7.4975C12.7956 7.46647 12.7816 7.45095 12.7505 7.45095H1.0446C1.03663 7.45093 1.02875 7.45254 1.02145 7.45568C1.01416 7.45883 1.00762 7.46343 1.00227 7.4692C0.996918 7.47496 0.992868 7.48176 0.990386 7.48914C0.987903 7.49652 0.987044 7.50433 0.987863 7.51205L2.00628 18.201C2.02222 18.371 2.101 18.5288 2.2272 18.6437C2.3534 18.7586 2.51794 18.8223 2.68861 18.8223C5.45288 18.8223 8.25255 18.8126 11.0876 18.7932C11.398 18.7912 11.6138 18.6472 11.735 18.3611Z" fill="#4B41D9"/>
<path id="Vector_2" d="M5.56065 2.56211C5.55165 2.56006 5.54314 2.55624 5.53562 2.55087C5.5281 2.54551 5.52172 2.5387 5.51685 2.53085C5.51198 2.52301 5.50871 2.51427 5.50724 2.50515C5.50577 2.49603 5.50612 2.48671 5.50828 2.47773L5.5461 2.30896C5.57072 2.20099 5.61665 2.099 5.68125 2.00881C5.74585 1.91863 5.82786 1.84202 5.92258 1.78337C6.01731 1.72473 6.12289 1.68519 6.23329 1.66704C6.34369 1.64888 6.45674 1.65245 6.56597 1.67755L9.22112 2.28569C9.33038 2.31067 9.43371 2.35669 9.52518 2.42112C9.61665 2.48555 9.69448 2.56712 9.75421 2.66117C9.81393 2.75522 9.85439 2.8599 9.87326 2.96923C9.89213 3.07855 9.88904 3.19037 9.86418 3.29828L9.8249 3.46705C9.82073 3.48492 9.8097 3.50044 9.79418 3.51024C9.77866 3.52004 9.7599 3.52334 9.74197 3.51942L5.56065 2.56211Z" fill="white"/>
<path id="Vector_3" d="M0.827428 3.87755C0.820163 3.87583 0.813306 3.87271 0.807252 3.86834C0.801197 3.86398 0.796063 3.85846 0.792144 3.85211C0.788224 3.84576 0.785597 3.83869 0.784411 3.83133C0.783226 3.82396 0.783506 3.81643 0.785236 3.80917L0.933633 3.15738C0.959864 3.043 1.00988 2.93526 1.08082 2.8403C1.15176 2.74535 1.24224 2.66504 1.34708 2.60397C1.45192 2.5429 1.56908 2.50227 1.69185 2.48439C1.81463 2.46651 1.94062 2.47174 2.06262 2.49978L12.9218 4.98762C13.0439 5.01546 13.1597 5.0656 13.2625 5.13516C13.3653 5.20471 13.4531 5.29233 13.521 5.39299C13.5888 5.49366 13.6353 5.6054 13.6578 5.72182C13.6803 5.83824 13.6784 5.95707 13.6522 6.0715L13.5023 6.72183C13.4989 6.73619 13.4899 6.74863 13.4774 6.75651C13.4649 6.76439 13.4498 6.76709 13.4354 6.76402L0.827428 3.87755Z" fill="white"/>
<path id="Vector_4" d="M11.7343 18.3626C11.6131 18.6488 11.3972 18.7928 11.0869 18.7947C8.2518 18.8141 5.45213 18.8238 2.68787 18.8238C2.5172 18.8239 2.35266 18.7602 2.22646 18.6453C2.10026 18.5304 2.02147 18.3725 2.00553 18.2026L0.987117 7.51362C0.986298 7.5059 0.987157 7.49809 0.98964 7.49071C0.992122 7.48332 0.996172 7.47653 1.00152 7.47076C1.00688 7.465 1.01341 7.46039 1.02071 7.45725C1.028 7.45411 1.03589 7.45249 1.04386 7.45251H12.7498C12.7808 7.45251 12.7949 7.46803 12.792 7.49907L11.7721 18.2157C11.7673 18.2658 11.7545 18.3154 11.7343 18.3626ZM4.09583 8.57209C4.09117 8.47689 4.04889 8.38745 3.97829 8.32343C3.90768 8.25941 3.81454 8.22606 3.71935 8.23071L3.71063 8.23114C3.61544 8.23579 3.52599 8.27807 3.46197 8.34867C3.39795 8.41928 3.3646 8.51242 3.36926 8.60761L3.81431 17.7072C3.81896 17.8024 3.86124 17.8918 3.93185 17.9558C4.00245 18.0199 4.09559 18.0532 4.19078 18.0485L4.1995 18.0481C4.29469 18.0435 4.38414 18.0012 4.44816 17.9306C4.51218 17.86 4.54553 17.7668 4.54087 17.6716L4.09583 8.57209ZM7.25618 8.58732C7.25618 8.49201 7.21832 8.40061 7.15093 8.33322C7.08354 8.26582 6.99213 8.22796 6.89683 8.22796H6.8881C6.79279 8.22796 6.70139 8.26582 6.634 8.33322C6.5666 8.40061 6.52874 8.49201 6.52874 8.58732V17.6919C6.52874 17.7872 6.5666 17.8787 6.634 17.946C6.70139 18.0134 6.79279 18.0513 6.8881 18.0513H6.89683C6.99213 18.0513 7.08354 18.0134 7.15093 17.946C7.21832 17.8787 7.25618 17.7872 7.25618 17.6919V8.58732ZM10.4085 8.60616C10.4131 8.51097 10.3798 8.41782 10.3157 8.34722C10.2517 8.27662 10.1623 8.23434 10.0671 8.22968L10.0584 8.22926C9.96318 8.2246 9.87004 8.25796 9.79944 8.32197C9.72883 8.38599 9.68655 8.47544 9.6819 8.57063L9.23671 17.6731C9.23205 17.7683 9.2654 17.8614 9.32942 17.932C9.39344 18.0026 9.48288 18.0449 9.57808 18.0496L9.58679 18.05C9.68199 18.0547 9.77513 18.0213 9.84573 17.9573C9.91634 17.8933 9.95862 17.8038 9.96327 17.7086L10.4085 8.60616Z" fill="white"/>
<path id="Vector_5" d="M3.71774 8.22946L3.70902 8.22988C3.51079 8.23958 3.35796 8.40813 3.36765 8.60636L3.81269 17.7059C3.82239 17.9042 3.99095 18.057 4.18917 18.0473L4.19789 18.0469C4.39612 18.0372 4.54896 17.8686 4.53927 17.6704L4.09422 8.57083C4.08453 8.3726 3.91597 8.21976 3.71774 8.22946Z" fill="#4B41D9"/>
<path id="Vector_6" d="M6.89396 8.22791H6.88523C6.68677 8.22791 6.52588 8.38879 6.52588 8.58726V17.6919C6.52588 17.8903 6.68677 18.0512 6.88523 18.0512H6.89396C7.09243 18.0512 7.25332 17.8903 7.25332 17.6919V8.58726C7.25332 8.38879 7.09243 8.22791 6.89396 8.22791Z" fill="#4B41D9"/>
<path id="Vector_7" d="M10.0654 8.22843L10.0567 8.228C9.85845 8.21831 9.68989 8.37115 9.6802 8.56937L9.23501 17.6718C9.22532 17.8701 9.37816 18.0386 9.57639 18.0483L9.5851 18.0488C9.78333 18.0584 9.95189 17.9056 9.96158 17.7074L10.4068 8.60491C10.4165 8.40668 10.2636 8.23813 10.0654 8.22843Z" fill="#4B41D9"/>
</g>
<defs>
<clipPath id="clip0_2190_26453">
<rect width="14.2578" height="18.6224" fill="white" transform="translate(0.0649414 0.925171)"/>
</clipPath>
</defs>
</svg>
