<svg width="16" height="16" viewBox="0 0 16 16" fill="none" xmlns="http://www.w3.org/2000/svg">
<g id="Capture d&#226;&#128;&#153;e&#204;&#129;cran 2023-10-19 a&#204;&#128; 4.34.07 PM 1" clip-path="url(#clip0_2190_26446)">
<path id="Vector" d="M13.5275 1.08149C15.3802 0.319586 16.7397 2.59234 15.3162 4.00293C13.1518 6.14555 11.006 8.27481 8.87878 10.3907C8.8084 10.4607 8.71932 10.5083 8.62276 10.5275L6.38727 10.9722C6.31201 10.987 6.23423 10.9831 6.16082 10.9609C6.08741 10.9387 6.02063 10.8989 5.96637 10.8449C5.91212 10.7909 5.87207 10.7245 5.84976 10.6514C5.82746 10.5784 5.82358 10.501 5.83848 10.4261L6.28652 8.19933C6.30585 8.10239 6.35325 8.01338 6.42283 7.94339C8.53188 5.84795 10.6366 3.75329 12.7369 1.65941C13.0238 1.37321 13.2873 1.18057 13.5275 1.08149ZM13.1091 2.68669L14.1641 3.73638C14.1727 3.74495 14.1844 3.74976 14.1966 3.74976C14.2089 3.74976 14.2206 3.74495 14.2292 3.73638L14.7306 3.23748C14.8847 3.0842 14.9742 2.87929 14.9795 2.66784C14.9849 2.45638 14.9056 2.25571 14.7591 2.10995L14.7437 2.09462C14.5972 1.94886 14.3955 1.86995 14.183 1.87526C13.9705 1.88057 13.7646 1.96966 13.6105 2.12293L13.1091 2.62182C13.1005 2.63044 13.0957 2.6421 13.0957 2.65426C13.0957 2.66641 13.1005 2.67807 13.1091 2.68669ZM7.19565 8.51423C7.19084 8.5191 7.18755 8.52524 7.18617 8.53193L6.92066 9.8576C6.9196 9.86325 6.91994 9.86907 6.92165 9.87457C6.92335 9.88006 6.92638 9.88505 6.93047 9.88912C6.93455 9.89318 6.93957 9.8962 6.94509 9.8979C6.95061 9.8996 6.95647 9.89994 6.96215 9.89888L8.28969 9.63705C8.2964 9.63567 8.30258 9.6324 8.30746 9.62761L13.4967 4.46409C13.5032 4.45747 13.5069 4.44858 13.5069 4.43932C13.5069 4.43006 13.5032 4.42117 13.4967 4.41455L12.4347 3.34953C12.428 3.34305 12.4191 3.33942 12.4098 3.33942C12.4005 3.33942 12.3916 3.34305 12.3849 3.34953L7.19565 8.51423Z" fill="#4B41D9"/>
<path id="Vector_2" d="M13.1087 2.6862C13.1 2.67758 13.0952 2.66592 13.0952 2.65377C13.0952 2.64161 13.1 2.62995 13.1087 2.62133L13.61 2.12243C13.7641 1.96916 13.97 1.88007 14.1825 1.87476C14.395 1.86945 14.5967 1.94836 14.7432 2.09413L14.7586 2.10946C14.9051 2.25521 14.9844 2.45589 14.9791 2.66734C14.9737 2.8788 14.8842 3.0837 14.7302 3.23699L14.2288 3.73589C14.2201 3.74446 14.2084 3.74927 14.1962 3.74927C14.184 3.74927 14.1722 3.74446 14.1636 3.73589L13.1087 2.6862Z" fill="white"/>
<path id="Vector_3" d="M7.19503 8.51417L12.3843 3.34947C12.3909 3.34299 12.3999 3.33936 12.4092 3.33936C12.4185 3.33936 12.4274 3.34299 12.4341 3.34947L13.4961 4.41449C13.5026 4.42111 13.5063 4.43 13.5063 4.43926C13.5063 4.44852 13.5026 4.45741 13.4961 4.46403L8.30684 9.62755C8.30196 9.63234 8.29578 9.63561 8.28907 9.63699L6.96153 9.89882C6.95585 9.89988 6.94999 9.89954 6.94447 9.89784C6.93895 9.89614 6.93393 9.89312 6.92985 9.88906C6.92576 9.88499 6.92273 9.88 6.92102 9.87451C6.91932 9.86901 6.91898 9.86319 6.92004 9.85754L7.18555 8.53187C7.18693 8.52518 7.19022 8.51904 7.19503 8.51417Z" fill="white"/>
<path id="Vector_4" d="M11.7257 15.0547C12.1844 15.0524 12.4452 14.6773 12.4476 14.2563C12.4547 12.5209 12.4594 10.786 12.4618 9.05146C12.4618 8.69881 12.6585 8.40395 13.0367 8.49713C13.3816 8.58322 13.4077 8.84624 13.4077 9.15525C13.4069 10.6515 13.4073 12.1474 13.4088 13.643C13.4096 14.2964 13.3508 14.7556 13.2322 15.0205C12.8541 15.8685 12.1263 16.0266 11.1971 16.0266C8.5649 16.0242 5.93274 16.0246 3.30058 16.0278C2.53882 16.0285 2.02045 15.9668 1.74546 15.8426C0.911004 15.464 0.759285 14.7351 0.76047 13.8246C0.763631 11.1528 0.763236 8.48101 0.759285 5.80922C0.758495 5.16839 0.81697 4.71392 0.93471 4.4458C1.34008 3.52467 2.13661 3.43975 3.13345 3.44093C4.71306 3.4425 6.29307 3.4425 7.87348 3.44093C8.47798 3.44093 8.58466 4.38801 7.69924 4.38683C6.05799 4.38447 4.41674 4.38447 2.77549 4.38683C2.2101 4.38801 1.71108 4.54487 1.7099 5.17469C1.70911 8.18222 1.7095 11.1898 1.71108 14.1973C1.71108 14.7886 2.01689 15.0842 2.62851 15.0842C5.66131 15.0834 8.69371 15.0736 11.7257 15.0547Z" fill="#4B41D9"/>
</g>
<defs>
<clipPath id="clip0_2190_26446">
<rect width="15.1489" height="15.1489" fill="white" transform="translate(0.802246 0.802246)"/>
</clipPath>
</defs>
</svg>
