<svg width="57" height="57" viewBox="0 0 57 57" fill="none" xmlns="http://www.w3.org/2000/svg">
<g id="exel">
<path id="&#240;&#159;&#142;&#168; Color" d="M28.9628 1H28.0373C13.105 1 1 13.105 1 28.0373V28.9628C1 43.8951 13.105 56.0001 28.0373 56.0001H28.9628C43.8951 56.0001 56.0001 43.8951 56.0001 28.9628V28.0373C56.0001 13.105 43.8951 1 28.9628 1Z" fill="white" stroke="#4B41D9" stroke-width="1.22897"/>
<g id="Group 14856">
<path id="Path 1974" d="M37.9163 22.8927L31.8919 17.3697C31.6164 17.1455 31.2759 17.0162 30.921 17.001H20.1368C19.8481 16.9887 19.5663 17.0913 19.3532 17.2865C19.1401 17.4816 19.0131 17.7533 19 18.0419V39.4014C19.0137 39.6899 19.1409 39.9612 19.3539 40.1562C19.5668 40.3512 19.8483 40.454 20.1368 40.4424H37.1826C37.4713 40.4547 37.7531 40.352 37.9662 40.1569C38.1793 39.9618 38.3063 39.6901 38.3194 39.4014V23.78C38.2975 23.445 38.1542 23.1295 37.9163 22.8927ZM37.7848 23.0905H32.354C32.1843 23.0972 32.019 23.0362 31.8943 22.921C31.7696 22.8057 31.6958 22.6457 31.6891 22.4761V17.5024C31.6891 17.35 31.7837 17.3144 31.9017 17.4225L37.8721 22.9001C37.99 23.0033 37.9495 23.0905 37.7848 23.0905Z" fill="white" stroke="#4B41D9" stroke-width="1.22897" stroke-miterlimit="10"/>
<path id="Path 1975" d="M30.9206 32.0714C30.8768 32.069 30.834 32.0573 30.7951 32.0372C30.7561 32.017 30.7218 31.9889 30.6944 31.9547L29.0021 29.5975C28.9854 29.5687 28.9614 29.5448 28.9325 29.5282C28.9036 29.5115 28.8708 29.5028 28.8375 29.5028C28.8041 29.5028 28.7714 29.5115 28.7425 29.5282C28.7136 29.5448 28.6895 29.5687 28.6728 29.5975L27.3037 31.5049H28.2635C28.3071 31.5071 28.3497 31.5185 28.3887 31.5382C28.4276 31.5578 28.462 31.5854 28.4897 31.6192L28.8141 32.0714H25.416L28.0067 28.4435C28.0289 28.4089 28.0407 28.3686 28.0407 28.3274C28.0407 28.2862 28.0289 28.2459 28.0067 28.2112L25.9027 25.2617H27.2472C27.2906 25.2638 27.3331 25.275 27.3719 25.2947C27.4107 25.3144 27.4448 25.3421 27.4721 25.376L28.6716 27.0536C28.6881 27.083 28.7123 27.1074 28.7414 27.1245C28.7706 27.1415 28.8037 27.1505 28.8375 27.1505C28.8712 27.1505 28.9044 27.1415 28.9335 27.1245C28.9627 27.1074 28.9868 27.083 29.0034 27.0536L30.2016 25.376C30.2291 25.3424 30.2633 25.3148 30.302 25.2951C30.3407 25.2755 30.3831 25.2641 30.4265 25.2617H31.7784L29.667 28.2112C29.6445 28.246 29.6326 28.2866 29.6326 28.328C29.6326 28.3694 29.6445 28.41 29.667 28.4448L32.2638 32.0714H30.9206Z" fill="#4B41D9" stroke="#4B41D9" stroke-width="0.245794" stroke-miterlimit="10"/>
</g>
</g>
</svg>
