<svg width="15" height="15" viewBox="0 0 15 15" fill="none" xmlns="http://www.w3.org/2000/svg">
<g id="carbon:view">
<path id="Vector" d="M14.6482 7.41354C14.0913 5.97318 13.1246 4.72755 11.8676 3.83061C10.6105 2.93367 9.11816 2.42473 7.57499 2.3667C6.03183 2.42473 4.5395 2.93367 3.28243 3.83061C2.02537 4.72755 1.05868 5.97318 0.501838 7.41354C0.464231 7.51756 0.464231 7.63146 0.501838 7.73548C1.05868 9.17584 2.02537 10.4215 3.28243 11.3184C4.5395 12.2154 6.03183 12.7243 7.57499 12.7823C9.11816 12.7243 10.6105 12.2154 11.8676 11.3184C13.1246 10.4215 14.0913 9.17584 14.6482 7.73548C14.6858 7.63146 14.6858 7.51756 14.6482 7.41354ZM7.57499 11.8354C5.06577 11.8354 2.41453 9.97484 1.45345 7.57451C2.41453 5.17418 5.06577 3.31357 7.57499 3.31357C10.0842 3.31357 12.7355 5.17418 13.6965 7.57451C12.7355 9.97484 10.0842 11.8354 7.57499 11.8354Z" fill="#4B41D9"/>
<path id="Vector_2" d="M7.575 4.73389C7.01318 4.73389 6.46397 4.90049 5.99683 5.21262C5.5297 5.52475 5.16561 5.9684 4.95061 6.48745C4.73561 7.00651 4.67935 7.57766 4.78896 8.12869C4.89856 8.67972 5.16911 9.18587 5.56638 9.58314C5.96364 9.98041 6.4698 10.2509 7.02082 10.3606C7.57185 10.4702 8.143 10.4139 8.66206 10.1989C9.18112 9.98391 9.62476 9.61982 9.93689 9.15268C10.249 8.68554 10.4156 8.13633 10.4156 7.57451C10.4156 6.82113 10.1163 6.09861 9.58363 5.56589C9.05091 5.03317 8.32838 4.73389 7.575 4.73389ZM7.575 9.46826C7.20045 9.46826 6.83432 9.35719 6.52289 9.14911C6.21146 8.94102 5.96874 8.64526 5.8254 8.29922C5.68207 7.95318 5.64457 7.57241 5.71764 7.20506C5.79071 6.83771 5.97107 6.50027 6.23592 6.23543C6.50076 5.97058 6.8382 5.79022 7.20555 5.71715C7.5729 5.64408 7.95367 5.68158 8.29971 5.82491C8.64574 5.96825 8.94151 6.21098 9.1496 6.5224C9.35768 6.83383 9.46875 7.19996 9.46875 7.57451C9.46875 8.07677 9.26923 8.55845 8.91408 8.91359C8.55894 9.26874 8.07725 9.46826 7.575 9.46826Z" fill="#4B41D9"/>
</g>
</svg>
