<svg width="32" height="28" viewBox="0 0 32 28" fill="none" xmlns="http://www.w3.org/2000/svg">
<path d="M6.71101 1.32032C6.71101 1.19245 6.66021 1.06982 6.5698 0.979406C6.47938 0.888991 6.35675 0.838196 6.22889 0.838196H6.1706C6.04273 0.838196 5.9201 0.888991 5.82969 0.979406C5.73927 1.06982 5.68848 1.19245 5.68848 1.32032V4.72431C5.68848 4.78763 5.70095 4.85032 5.72518 4.90881C5.74941 4.96731 5.78492 5.02046 5.82969 5.06522C5.87446 5.10999 5.9276 5.14551 5.9861 5.16974C6.04459 5.19396 6.10729 5.20644 6.1706 5.20644H6.22889C6.2922 5.20644 6.35489 5.19396 6.41339 5.16974C6.47188 5.14551 6.52503 5.10999 6.5698 5.06522C6.61457 5.02046 6.65008 4.96731 6.67431 4.90881C6.69854 4.85032 6.71101 4.78763 6.71101 4.72431V1.32032Z" stroke="#A7A7A7" stroke-width="0.166536"/>
<path d="M12.5874 5.21724C12.8847 5.13314 13.0196 4.91581 13.0196 4.62104C13.0185 3.56243 13.0176 2.47717 13.0171 1.36526C13.0171 0.899796 12.6382 0.757407 12.2469 0.895632C12.1386 0.933936 12.0781 1.00388 12.0653 1.10547C12.0362 1.35028 11.9946 1.58925 11.9954 1.84489C11.9959 2.81746 11.9946 3.74673 11.9912 4.6327C11.9896 4.94329 12.1303 5.18393 12.4675 5.2264C12.5077 5.23134 12.5484 5.22823 12.5874 5.21724Z" stroke="#A7A7A7" stroke-width="0.166536"/>
<path d="M19.2491 4.82167C19.2646 4.76449 19.2724 4.70621 19.2724 4.64681C19.2715 3.85243 19.2832 3.06888 19.2366 2.27117C19.2166 1.92977 19.2158 1.58532 19.2341 1.23782C19.2424 1.06878 19.1608 0.984683 19.0167 0.918901C18.6395 0.749034 18.2415 0.893088 18.2424 1.33191C18.2429 1.81597 18.2424 2.31669 18.2407 2.83406C18.2399 3.06222 18.2956 3.27872 18.2673 3.50604C18.2199 3.88158 18.2449 4.26294 18.2365 4.64098C18.2324 4.83166 18.2931 4.99903 18.4447 5.11727C18.7453 5.35209 19.1591 5.15225 19.2491 4.82167Z" stroke="#A7A7A7" stroke-width="0.166536"/>
<path d="M25.5651 1.32936C25.5649 1.19796 25.5124 1.07203 25.4194 0.979281C25.3263 0.88653 25.2002 0.834551 25.0688 0.834779L25.0405 0.834828C24.9754 0.834942 24.911 0.847869 24.8509 0.872873C24.7909 0.897876 24.7363 0.934466 24.6904 0.980553C24.6445 1.02664 24.6081 1.08132 24.5833 1.14147C24.5585 1.20163 24.5458 1.26608 24.5459 1.33114L24.5518 4.72348C24.552 4.85488 24.6045 4.9808 24.6975 5.07355C24.7906 5.1663 24.9167 5.21828 25.0481 5.21806L25.0764 5.21801C25.1415 5.21789 25.2059 5.20496 25.266 5.17996C25.326 5.15496 25.3806 5.11837 25.4265 5.07228C25.4724 5.02619 25.5088 4.97151 25.5336 4.91136C25.5584 4.85121 25.5711 4.78676 25.571 4.72169L25.5651 1.32936Z" stroke="#A7A7A7" stroke-width="0.166536"/>
<path d="M1.52891 27.3057C1.555 27.3257 1.58498 27.3357 1.61884 27.3357C8.54119 27.3357 15.6687 27.3357 23.0012 27.3357C23.6691 27.3357 24.2403 27.2391 24.7166 26.7087C24.799 26.6171 24.9514 26.5779 25.0555 26.5013C26.3783 25.5232 27.7114 24.5429 29.0548 23.5603C29.6211 23.1456 30.1923 22.7188 30.7685 22.2797C30.8584 22.2114 30.8959 22.1098 30.9916 22.0407C31.2548 21.8497 31.4196 21.5824 31.4863 21.2388C31.5362 20.9834 31.5606 20.7092 31.5595 20.4161C31.5468 15.9102 31.5457 10.7357 31.5562 4.89246C31.5568 4.63044 31.5321 4.3812 31.4821 4.14472C31.2981 3.27706 30.5253 2.68836 29.651 2.68003C28.6413 2.66948 27.6237 2.6681 26.5984 2.67587C26.5943 2.67587 26.5902 2.67669 26.5864 2.67829C26.5826 2.67989 26.5792 2.68223 26.5763 2.68518C26.5735 2.68813 26.5712 2.69163 26.5697 2.69546C26.5682 2.6993 26.5675 2.70339 26.5676 2.70751C26.5726 3.42028 26.5693 4.12973 26.5576 4.83584C26.5543 5.04956 26.5165 5.22331 26.4444 5.3571C26.1346 5.92887 25.683 6.21698 25.0896 6.22142C24.751 6.22419 24.4751 6.15286 24.2619 6.00742C23.9688 5.80758 23.7709 5.56832 23.6682 5.28965C23.5777 5.04318 23.5408 4.65792 23.5575 4.13389C23.5725 3.64261 23.5708 3.16992 23.5525 2.71584C23.5514 2.68752 23.5364 2.67337 23.5075 2.67337L20.3017 2.67254C20.2907 2.67254 20.2801 2.67692 20.2723 2.68473C20.2644 2.69254 20.2601 2.70313 20.2601 2.71417C20.2634 3.38864 20.2623 4.07144 20.2567 4.76256C20.2534 5.17502 20.093 5.53362 19.7754 5.83839C19.5834 6.02324 19.3902 6.13537 19.1959 6.17479C18.4248 6.333 17.8456 6.10679 17.4581 5.49615C17.3157 5.2705 17.2533 5.02736 17.2491 4.76256C17.2408 4.28349 17.2394 3.80554 17.2449 3.32869C17.2474 3.12052 17.2149 2.91901 17.2008 2.71417C17.1991 2.68641 17.1844 2.67254 17.1567 2.67254H14.0774C14.0627 2.67253 14.0485 2.67827 14.0379 2.68853C14.0274 2.69879 14.0212 2.71277 14.0208 2.72749C14.0091 3.19824 14.0086 3.66176 14.0191 4.11807C14.0319 4.68596 14.0008 5.06177 13.9259 5.24552C13.6777 5.85754 13.144 6.23641 12.4795 6.22225C11.8206 6.20726 11.3548 5.87669 11.0823 5.23053C11.0248 5.0948 11.0065 4.9216 11.0032 4.77256C10.9904 4.14638 10.9901 3.45692 11.0023 2.70418C11.0023 2.68308 10.992 2.67254 10.9715 2.67254H7.7915C7.7643 2.67254 7.74987 2.68641 7.7482 2.71417C7.71045 3.34312 7.69769 3.96208 7.7099 4.57105C7.72211 5.15115 7.52088 5.60218 7.1062 5.92415C6.92357 6.06626 6.72456 6.15536 6.50917 6.19144C5.79862 6.30913 5.26237 6.07875 4.90043 5.50032C4.7611 5.27827 4.69143 5.00154 4.69143 4.67014C4.69032 3.98845 4.68949 3.33868 4.68893 2.72083C4.68893 2.70883 4.68422 2.6973 4.67582 2.68874C4.66741 2.68017 4.65597 2.67525 4.64397 2.67503C3.62643 2.66837 2.64304 2.66921 1.69378 2.67753C1.15032 2.68253 0.690678 2.83879 0.314862 3.14633C-0.219719 3.58349 -0.439546 4.17469 -0.437881 4.85582C-0.423448 11.6133 -0.424281 18.209 -0.440379 24.6428C-0.442044 25.2101 -0.402631 25.6082 -0.322139 25.8369C-0.0795509 26.5285 0.408954 27.0021 1.14338 27.2574C1.2433 27.2918 1.35072 27.3024 1.46563 27.2891C1.48807 27.2864 1.51069 27.2923 1.52891 27.3057Z" stroke="#A7A7A7" stroke-width="0.166536"/>
<path d="M6.83241 26.3124C12.2973 26.3024 17.7355 26.2982 23.2346 26.3016C23.269 26.3016 23.2859 26.2846 23.2853 26.2508C23.2778 25.6171 23.2787 24.9743 23.3028 24.3348C23.3278 23.657 23.2304 22.9209 23.3336 22.2964C23.4477 21.6003 24.0123 21.0574 24.6801 20.8317C24.9582 20.7384 25.258 20.7668 25.5469 20.7534C25.7873 20.7429 26.0174 20.7382 26.2372 20.7393C27.63 20.7443 29.0444 20.7418 30.4805 20.7318C30.5172 20.7312 30.5355 20.7126 30.5355 20.676L30.5338 8.58465C30.5338 8.55078 30.5169 8.53385 30.483 8.53385L0.631437 8.53302C0.605901 8.53302 0.593134 8.54579 0.593134 8.57132C0.580922 14.7265 0.584252 20.2663 0.603126 25.1908C0.603681 25.2552 0.605902 25.3218 0.609788 25.3906C0.627274 25.7054 0.955349 26.0459 1.20599 26.1933C1.31534 26.2583 1.47189 26.2916 1.67562 26.2933C3.34931 26.3094 5.06824 26.3157 6.83241 26.3124Z" stroke="#A7A7A7" stroke-width="0.166536"/>
<path d="M24.3587 25.6687L29.767 21.8317C29.8275 21.7884 29.8211 21.7615 29.7478 21.751C29.6224 21.7321 29.4814 21.7268 29.3248 21.7351C28.9235 21.7568 28.5324 21.7635 28.1516 21.7551C27.1315 21.7335 26.2597 21.761 25.2963 21.7643C24.7817 21.7668 24.3096 22.1365 24.3063 22.6802C24.3013 23.6356 24.3004 24.6223 24.3038 25.6404C24.3038 25.6854 24.3221 25.6948 24.3587 25.6687Z" stroke="#A7A7A7" stroke-width="0.166536"/>
<path d="M16.7925 12.6722C16.8575 12.9547 16.9341 13.1829 17.0223 13.3566C17.1489 13.6056 17.3571 13.7563 17.5378 13.9553C17.656 14.0858 17.8101 14.1979 17.9999 14.2917C18.3585 14.4694 18.6463 14.5671 18.8634 14.5848C19.1027 14.6043 19.381 14.6043 19.6986 14.5848C19.8418 14.5757 19.9684 14.5066 20.1074 14.4799C20.194 14.4633 20.277 14.4344 20.3564 14.3933C21.3523 13.8765 21.8416 13.0652 21.8244 11.9594C21.8222 11.8384 21.8097 11.7224 21.7869 11.6113C21.7658 11.507 21.745 11.4018 21.7245 11.2957C21.7023 11.1814 21.6618 11.0767 21.6029 10.9818C21.5122 10.8361 21.4763 10.6313 21.3564 10.5147C21.1899 10.3531 21.0264 10.1897 20.866 10.0242C20.7686 9.92349 20.6512 9.87685 20.5363 9.79942C20.4519 9.74224 20.3631 9.7006 20.2698 9.67451C20.0408 9.61123 19.8285 9.49466 19.5837 9.49549C19.3527 9.49715 19.1254 9.49882 18.9017 9.50048C18.7202 9.50132 18.5486 9.57376 18.3721 9.61872C18.2666 9.64537 18.1576 9.69061 18.0449 9.75445C17.487 10.0709 17.094 10.5016 16.8658 11.0468C16.8447 11.0967 16.8297 11.1478 16.8208 11.2C16.7975 11.3282 16.7442 11.434 16.7426 11.5647C16.7415 11.6935 16.727 11.817 16.6993 11.9352C16.6401 12.1892 16.7359 12.4257 16.7925 12.6722Z" stroke="#4B41D9" stroke-width="0.166536"/>
<path d="M6.83498 10.5842C6.835 10.5774 6.83367 10.5707 6.83109 10.5644C6.82851 10.5582 6.82471 10.5525 6.81993 10.5477C6.81514 10.5429 6.80946 10.539 6.8032 10.5364C6.79694 10.5338 6.79023 10.5325 6.78345 10.5325L2.65669 10.5253C2.64991 10.5253 2.6432 10.5266 2.63693 10.5292C2.63066 10.5317 2.62496 10.5355 2.62016 10.5403C2.61536 10.5451 2.61154 10.5508 2.60894 10.5571C2.60633 10.5633 2.60499 10.57 2.60497 10.5768L2.60059 13.0915C2.60057 13.0983 2.6019 13.105 2.60448 13.1113C2.60706 13.1175 2.61086 13.1232 2.61564 13.128C2.62043 13.1328 2.62611 13.1366 2.63237 13.1392C2.63863 13.1418 2.64534 13.1432 2.65212 13.1432L6.77888 13.1504C6.78566 13.1504 6.79237 13.1491 6.79864 13.1465C6.80491 13.1439 6.81061 13.1401 6.81541 13.1354C6.82021 13.1306 6.82402 13.1249 6.82663 13.1186C6.82924 13.1124 6.83058 13.1057 6.83059 13.0989L6.83498 10.5842Z" stroke="#A7A7A7" stroke-width="0.166536"/>
<path d="M14.0329 10.5613C14.0329 10.5571 14.032 10.5529 14.0304 10.5489C14.0288 10.545 14.0264 10.5414 14.0234 10.5384C14.0204 10.5354 14.0168 10.533 14.0128 10.5313C14.0089 10.5297 14.0047 10.5289 14.0004 10.5289H9.88697C9.87835 10.5289 9.8701 10.5323 9.864 10.5384C9.85791 10.5445 9.85449 10.5527 9.85449 10.5613V13.1193C9.85449 13.1279 9.85791 13.1362 9.864 13.1423C9.8701 13.1484 9.87835 13.1518 9.88697 13.1518H14.0004C14.0047 13.1518 14.0089 13.151 14.0128 13.1493C14.0168 13.1477 14.0204 13.1453 14.0234 13.1423C14.0264 13.1393 14.0288 13.1357 14.0304 13.1318C14.032 13.1278 14.0329 13.1236 14.0329 13.1193V10.5613Z" stroke="#A7A7A7" stroke-width="0.166536"/>
<path d="M28.54 10.5763C28.54 10.5635 28.535 10.5512 28.5259 10.5422C28.5168 10.5331 28.5046 10.528 28.4917 10.528H24.3383C24.3255 10.528 24.3132 10.5331 24.3042 10.5422C24.2951 10.5512 24.29 10.5635 24.29 10.5763V13.1027C24.29 13.1155 24.2951 13.1278 24.3042 13.1368C24.3132 13.1459 24.3255 13.151 24.3383 13.151H28.4917C28.5046 13.151 28.5168 13.1459 28.5259 13.1368C28.535 13.1278 28.54 13.1155 28.54 13.1027V10.5763Z" stroke="#A7A7A7" stroke-width="0.166536"/>
<path d="M21.281 16.2152C21.281 16.2048 21.2769 16.1949 21.2696 16.1875C21.2622 16.1802 21.2523 16.1761 21.2419 16.1761H17.0802C17.0698 16.1761 17.0598 16.1802 17.0525 16.1875C17.0451 16.1949 17.041 16.2048 17.041 16.2152V18.6816C17.041 18.692 17.0451 18.702 17.0525 18.7093C17.0598 18.7166 17.0698 18.7208 17.0802 18.7208H21.2419C21.2523 18.7208 21.2622 18.7166 21.2696 18.7093C21.2769 18.702 21.281 18.692 21.281 18.6816V16.2152Z" stroke="#A7A7A7" stroke-width="0.166536"/>
<path d="M28.5374 16.2061C28.5374 16.1984 28.5343 16.1909 28.5289 16.1855C28.5234 16.18 28.516 16.1769 28.5083 16.1769H24.3182C24.3105 16.1769 24.3031 16.18 24.2976 16.1855C24.2921 16.1909 24.2891 16.1984 24.2891 16.2061V18.6941C24.2891 18.7019 24.2921 18.7093 24.2976 18.7147C24.3031 18.7202 24.3105 18.7233 24.3182 18.7233H28.5083C28.516 18.7233 28.5234 18.7202 28.5289 18.7147C28.5343 18.7093 28.5374 18.7019 28.5374 18.6941V16.2061Z" stroke="#A7A7A7" stroke-width="0.166536"/>
<path d="M6.83422 16.2086C6.83422 16.2002 6.83089 16.1921 6.82495 16.1862C6.81902 16.1803 6.81097 16.1769 6.80258 16.1769H2.63418C2.62579 16.1769 2.61774 16.1803 2.61181 16.1862C2.60587 16.1921 2.60254 16.2002 2.60254 16.2086V18.6916C2.60254 18.7 2.60587 18.7081 2.61181 18.714C2.61774 18.7199 2.62579 18.7233 2.63418 18.7233H6.80258C6.81097 18.7233 6.81902 18.7199 6.82495 18.714C6.83089 18.7081 6.83422 18.7 6.83422 18.6916V16.2086Z" stroke="#A7A7A7" stroke-width="0.166536"/>
<path d="M14.03 16.2127C14.03 16.2033 14.0263 16.1941 14.0196 16.1874C14.0128 16.1807 14.0037 16.1769 13.9942 16.1769H9.82584C9.81635 16.1769 9.80724 16.1807 9.80053 16.1874C9.79381 16.1941 9.79004 16.2033 9.79004 16.2127V18.6875C9.79004 18.697 9.79381 18.7061 9.80053 18.7128C9.80724 18.7195 9.81635 18.7233 9.82584 18.7233H13.9942C14.0037 18.7233 14.0128 18.7195 14.0196 18.7128C14.0263 18.7061 14.03 18.697 14.03 18.6875V16.2127Z" stroke="#A7A7A7" stroke-width="0.166536"/>
<path d="M11.2541 25.4222C11.55 25.536 11.8495 25.5721 12.1526 25.5305C13.0924 25.4011 13.7675 24.9731 14.1777 24.2465C14.2787 24.0677 14.3553 23.8787 14.4075 23.6794C14.4725 23.4341 14.5066 23.2234 14.5099 23.0474C14.5216 22.4718 14.3786 21.9641 14.0811 21.5245C13.9956 21.3979 13.8768 21.2536 13.7247 21.0915C13.6276 20.9882 13.5043 20.8952 13.355 20.8125C13.219 20.737 13.0844 20.6585 12.9511 20.5769C12.8052 20.4869 12.6009 20.4386 12.3383 20.432C12.1293 20.4262 11.7629 20.3038 11.5747 20.4045C11.4648 20.4628 11.3416 20.4228 11.21 20.4678C10.9119 20.5699 10.6507 20.7101 10.4265 20.8883C10.1883 21.077 9.96294 21.3199 9.75032 21.6169C9.63097 21.784 9.5416 21.9652 9.4822 22.1606C9.39893 22.4315 9.35869 22.6552 9.36146 22.8318C9.36646 23.1382 9.41309 23.4613 9.50135 23.801C9.55548 24.0092 9.68954 24.1765 9.78613 24.3664C9.97598 24.7361 10.3873 25.04 10.7362 25.2357C10.9028 25.3298 11.0768 25.3548 11.2541 25.4222Z" stroke="#4B41D9" stroke-width="0.166536"/>
<path d="M6.83187 21.7658C6.83187 21.76 6.82959 21.7545 6.82553 21.7505C6.82147 21.7464 6.81596 21.7441 6.81022 21.7441H2.62516C2.61942 21.7441 2.61392 21.7464 2.60986 21.7505C2.6058 21.7545 2.60352 21.76 2.60352 21.7658V24.2772C2.60352 24.2829 2.6058 24.2884 2.60986 24.2925C2.61392 24.2965 2.61942 24.2988 2.62516 24.2988H6.81022C6.81596 24.2988 6.82147 24.2965 6.82553 24.2925C6.82959 24.2884 6.83187 24.2829 6.83187 24.2772V21.7658Z" stroke="#A7A7A7" stroke-width="0.166536"/>
<path d="M21.2814 21.8009C21.2814 21.7864 21.2756 21.7724 21.2653 21.7621C21.255 21.7518 21.241 21.746 21.2265 21.746H17.093C17.0785 21.746 17.0645 21.7518 17.0542 21.7621C17.0439 21.7724 17.0381 21.7864 17.0381 21.8009V24.244C17.0381 24.2586 17.0439 24.2726 17.0542 24.2829C17.0645 24.2932 17.0785 24.299 17.093 24.299H21.2265C21.241 24.299 21.255 24.2932 21.2653 24.2829C21.2756 24.2726 21.2814 24.2586 21.2814 24.244V21.8009Z" stroke="#A7A7A7" stroke-width="0.166536"/>
<path d="M18.7672 12.6604C18.7456 12.6099 18.712 12.5722 18.6665 12.5472C18.415 12.4101 18.1602 12.2183 17.9021 11.9718C17.8193 11.893 17.7352 11.8916 17.6498 11.9676L17.5648 12.0434C17.481 12.1184 17.4865 12.1853 17.5815 12.2441C17.8663 12.4212 18.1102 12.6108 18.3134 12.8128C18.3656 12.8644 18.428 12.9019 18.5008 12.9252C18.5307 12.9347 18.556 12.9516 18.5765 12.976C18.6531 13.0698 18.7433 13.1439 18.8472 13.1983C18.9354 13.245 18.9954 13.3307 19.0445 13.4148C19.0523 13.4283 19.0631 13.4399 19.076 13.4485C19.0889 13.4572 19.1036 13.4628 19.119 13.4649C19.1344 13.467 19.15 13.4655 19.1647 13.4606C19.1793 13.4557 19.1926 13.4474 19.2035 13.4365L21.0354 11.6088C21.0452 11.599 21.0526 11.5871 21.0569 11.574C21.0612 11.5609 21.0624 11.5469 21.0603 11.5333C21.0582 11.5196 21.0529 11.5067 21.0448 11.4955C21.0367 11.4843 21.0261 11.4752 21.0138 11.4689C20.9455 11.4339 20.8886 11.3906 20.8431 11.339C20.7987 11.2879 20.7523 11.2862 20.704 11.334L19.1519 12.8878C19.1421 12.8976 19.1302 12.9052 19.1171 12.9099C19.104 12.9146 19.09 12.9163 19.0761 12.915C19.0623 12.9136 19.0489 12.9092 19.0369 12.9021C19.025 12.8949 19.0148 12.8852 19.007 12.8736C18.9609 12.8059 18.9004 12.7548 18.8255 12.7204C18.7983 12.7076 18.7789 12.6876 18.7672 12.6604Z" stroke="#4B41D9" stroke-width="0.166536"/>
<path d="M11.779 23.8434C11.709 23.7777 11.6449 23.6944 11.5641 23.6428C11.3149 23.484 11.092 23.3147 10.8955 23.1348C10.7556 23.0066 10.5924 22.9558 10.4792 22.7943C10.4739 22.787 10.4669 22.7811 10.4589 22.777C10.4508 22.773 10.4419 22.771 10.4329 22.7712C10.4239 22.7713 10.4151 22.7737 10.4072 22.778C10.3993 22.7823 10.3926 22.7884 10.3876 22.7959L10.2369 23.0257C10.2302 23.0357 10.2261 23.0472 10.225 23.0593C10.2238 23.0713 10.2256 23.0835 10.2302 23.0949C10.2513 23.1437 10.2899 23.1745 10.3459 23.1873C10.3759 23.1939 10.3992 23.2106 10.4159 23.2372C10.5175 23.4046 10.679 23.4363 10.8181 23.5545C11.1328 23.821 11.4526 24.1224 11.8073 24.3206C11.8423 24.34 11.8739 24.3355 11.9022 24.3072L13.6575 22.5486C13.7047 22.5014 13.7041 22.4545 13.6558 22.4079L13.5351 22.2922C13.4813 22.2405 13.428 22.2411 13.3752 22.2938L11.8289 23.8418C11.8224 23.8483 11.8136 23.8521 11.8043 23.8524C11.795 23.8528 11.786 23.8495 11.779 23.8434Z" stroke="#4B41D9" stroke-width="0.166536"/>
<path d="M6.22889 0.838196H6.1706C5.90433 0.838196 5.68848 1.05405 5.68848 1.32032V4.72431C5.68848 4.99058 5.90433 5.20644 6.1706 5.20644H6.22889C6.49516 5.20644 6.71101 4.99058 6.71101 4.72431V1.32032C6.71101 1.05405 6.49516 0.838196 6.22889 0.838196Z" fill="#4B41D9"/>
<path d="M12.5874 5.21724C12.5484 5.22823 12.5077 5.23134 12.4675 5.2264C12.1303 5.18393 11.9896 4.94329 11.9912 4.6327C11.9946 3.74673 11.9959 2.81746 11.9954 1.84489C11.9946 1.58925 12.0362 1.35028 12.0653 1.10547C12.0781 1.00388 12.1386 0.933936 12.2469 0.895632C12.6382 0.757407 13.0171 0.899796 13.0171 1.36526C13.0176 2.47717 13.0185 3.56243 13.0196 4.62104C13.0196 4.91581 12.8847 5.13314 12.5874 5.21724Z" fill="#4B41D9"/>
<path d="M19.2491 4.82167C19.1591 5.15225 18.7453 5.35209 18.4447 5.11727C18.2931 4.99903 18.2324 4.83166 18.2365 4.64098C18.2449 4.26294 18.2199 3.88158 18.2673 3.50604C18.2956 3.27872 18.2399 3.06222 18.2407 2.83406C18.2424 2.31669 18.2429 1.81597 18.2424 1.33191C18.2415 0.893088 18.6395 0.749034 19.0167 0.918901C19.1608 0.984683 19.2424 1.06878 19.2341 1.23782C19.2158 1.58532 19.2166 1.92977 19.2366 2.27117C19.2832 3.06888 19.2715 3.85243 19.2724 4.64681C19.2724 4.70621 19.2646 4.76449 19.2491 4.82167Z" fill="#4B41D9"/>
<path d="M25.0687 0.83484L25.0404 0.83489C24.7667 0.835367 24.5453 1.05757 24.5458 1.3312L24.5517 4.72353C24.5522 4.99716 24.7744 5.21859 25.048 5.21811L25.0763 5.21806C25.35 5.21758 25.5714 4.99538 25.5709 4.72175L25.565 1.32942C25.5645 1.05579 25.3423 0.834363 25.0687 0.83484Z" fill="#4B41D9"/>
<path d="M1.46563 27.2891C1.35072 27.3024 1.2433 27.2918 1.14338 27.2574C0.408954 27.0021 -0.0795509 26.5285 -0.322139 25.8369C-0.402631 25.6082 -0.442044 25.2101 -0.440379 24.6428C-0.424281 18.209 -0.423448 11.6133 -0.437881 4.85582C-0.439546 4.17469 -0.219719 3.58349 0.314862 3.14633C0.690678 2.83879 1.15032 2.68253 1.69378 2.67753C2.64304 2.66921 3.62643 2.66837 4.64397 2.67503C4.65597 2.67525 4.66741 2.68017 4.67582 2.68874C4.68422 2.6973 4.68893 2.70883 4.68893 2.72083C4.68949 3.33868 4.69032 3.98845 4.69143 4.67014C4.69143 5.00154 4.7611 5.27827 4.90043 5.50032C5.26237 6.07875 5.79862 6.30913 6.50917 6.19144C6.72456 6.15536 6.92357 6.06626 7.1062 5.92415C7.52088 5.60218 7.72211 5.15115 7.7099 4.57105C7.69769 3.96208 7.71045 3.34312 7.7482 2.71417C7.74987 2.68641 7.7643 2.67254 7.7915 2.67254H10.9715C10.992 2.67254 11.0023 2.68308 11.0023 2.70418C10.9901 3.45692 10.9904 4.14638 11.0031 4.77256C11.0065 4.9216 11.0248 5.0948 11.0823 5.23053C11.3548 5.87669 11.8206 6.20726 12.4795 6.22225C13.144 6.23641 13.6777 5.85754 13.9259 5.24552C14.0008 5.06177 14.0319 4.68596 14.0191 4.11807C14.0086 3.66176 14.0091 3.19824 14.0208 2.72749C14.0212 2.71277 14.0274 2.69879 14.0379 2.68853C14.0485 2.67827 14.0627 2.67253 14.0774 2.67254H17.1567C17.1844 2.67254 17.1991 2.68641 17.2008 2.71417C17.2149 2.91901 17.2474 3.12052 17.2449 3.32869C17.2394 3.80554 17.2408 4.28349 17.2491 4.76256C17.2533 5.02736 17.3157 5.2705 17.4581 5.49615C17.8456 6.10679 18.4248 6.333 19.1959 6.17479C19.3902 6.13537 19.5834 6.02324 19.7754 5.83839C20.093 5.53362 20.2534 5.17502 20.2567 4.76256C20.2623 4.07144 20.2634 3.38864 20.2601 2.71417C20.2601 2.70313 20.2644 2.69254 20.2723 2.68473C20.2801 2.67692 20.2907 2.67254 20.3017 2.67254L23.5075 2.67337C23.5364 2.67337 23.5514 2.68752 23.5525 2.71584C23.5708 3.16992 23.5725 3.64261 23.5575 4.13389C23.5408 4.65792 23.5777 5.04318 23.6682 5.28965C23.7709 5.56832 23.9688 5.80758 24.2619 6.00742C24.4751 6.15286 24.751 6.22419 25.0896 6.22142C25.683 6.21698 26.1346 5.92887 26.4444 5.3571C26.5165 5.22331 26.5543 5.04956 26.5576 4.83584C26.5693 4.12973 26.5726 3.42028 26.5676 2.70751C26.5675 2.70339 26.5682 2.6993 26.5697 2.69546C26.5712 2.69163 26.5735 2.68813 26.5763 2.68518C26.5792 2.68223 26.5826 2.67989 26.5864 2.67829C26.5902 2.67669 26.5943 2.67587 26.5984 2.67587C27.6237 2.6681 28.6413 2.66948 29.651 2.68003C30.5253 2.68836 31.2981 3.27706 31.4821 4.14472C31.5321 4.3812 31.5568 4.63044 31.5562 4.89246C31.5457 10.7357 31.5468 15.9102 31.5595 20.4161C31.5606 20.7092 31.5362 20.9834 31.4863 21.2388C31.4196 21.5824 31.2548 21.8497 30.9916 22.0407C30.8959 22.1098 30.8584 22.2114 30.7685 22.2796C30.1923 22.7188 29.6211 23.1456 29.0548 23.5603C27.7114 24.5429 26.3783 25.5232 25.0555 26.5013C24.9514 26.5779 24.799 26.6171 24.7166 26.7087C24.2403 27.2391 23.6691 27.3357 23.0012 27.3357C15.6687 27.3357 8.54119 27.3357 1.61884 27.3357C1.58498 27.3357 1.555 27.3257 1.52891 27.3057C1.51069 27.2923 1.48807 27.2864 1.46563 27.2891ZM6.83225 26.3123C12.2971 26.3023 17.7354 26.2982 23.2344 26.3015C23.2688 26.3015 23.2857 26.2846 23.2852 26.2507C23.2777 25.617 23.2785 24.9742 23.3027 24.3347C23.3277 23.6569 23.2302 22.9208 23.3335 22.2963C23.4476 21.6002 24.0121 21.0573 24.6799 20.8316C24.958 20.7384 25.2578 20.7667 25.5468 20.7533C25.7871 20.7428 26.0172 20.7381 26.237 20.7392C27.6298 20.7442 29.0443 20.7417 30.4804 20.7317C30.517 20.7311 30.5353 20.7125 30.5353 20.6759L30.5337 8.58456C30.5337 8.5507 30.5167 8.53377 30.4829 8.53377L0.631281 8.53294C0.605745 8.53294 0.592978 8.54571 0.592978 8.57124C0.580765 14.7264 0.584096 20.2662 0.60297 25.1907C0.603525 25.2551 0.605745 25.3217 0.609631 25.3905C0.627118 25.7053 0.955193 26.0459 1.20583 26.1932C1.31519 26.2582 1.47173 26.2915 1.67546 26.2932C3.34915 26.3093 5.06808 26.3157 6.83225 26.3123ZM24.3585 25.6687L29.7668 21.8317C29.8273 21.7884 29.8209 21.7614 29.7476 21.7509C29.6222 21.732 29.4812 21.7268 29.3246 21.7351C28.9233 21.7567 28.5322 21.7634 28.1514 21.7551C27.1313 21.7334 26.2595 21.7609 25.2961 21.7642C24.7815 21.7667 24.3094 22.1364 24.3061 22.6802C24.3011 23.6355 24.3002 24.6223 24.3036 25.6403C24.3036 25.6853 24.3219 25.6948 24.3585 25.6687Z" fill="#4B41D9"/>
<path d="M23.2346 26.3016C17.7355 26.2982 12.2973 26.3024 6.83241 26.3124C5.06824 26.3157 3.34931 26.3094 1.67562 26.2933C1.47189 26.2916 1.31534 26.2583 1.20599 26.1933C0.955349 26.0459 0.627274 25.7054 0.609788 25.3906C0.605902 25.3218 0.603681 25.2552 0.603126 25.1908C0.584252 20.2663 0.580922 14.7265 0.593134 8.57132C0.593134 8.54579 0.605901 8.53302 0.631437 8.53302L30.483 8.53385C30.5169 8.53385 30.5338 8.55078 30.5338 8.58465L30.5355 20.676C30.5355 20.7126 30.5172 20.7312 30.4805 20.7318C29.0444 20.7418 27.63 20.7443 26.2372 20.7393C26.0174 20.7382 25.7873 20.7429 25.5469 20.7534C25.258 20.7668 24.9582 20.7384 24.6801 20.8317C24.0123 21.0574 23.4477 21.6003 23.3336 22.2964C23.2304 22.9209 23.3278 23.657 23.3028 24.3348C23.2787 24.9743 23.2778 25.6171 23.2853 26.2508C23.2859 26.2846 23.269 26.3016 23.2346 26.3016ZM16.7929 12.6723C16.8579 12.9548 16.9345 13.183 17.0228 13.3567C17.1493 13.6057 17.3575 13.7564 17.5382 13.9554C17.6564 14.0859 17.8105 14.198 18.0003 14.2918C18.3589 14.4695 18.6468 14.5672 18.8638 14.5849C19.1031 14.6044 19.3815 14.6044 19.699 14.5849C19.8422 14.5758 19.9688 14.5067 20.1078 14.48C20.1944 14.4634 20.2774 14.4345 20.3568 14.3934C21.3527 13.8766 21.842 13.0653 21.8248 11.9595C21.8226 11.8385 21.8101 11.7225 21.7874 11.6114C21.7663 11.5071 21.7454 11.4019 21.7249 11.2959C21.7027 11.1815 21.6622 11.0769 21.6033 10.9819C21.5126 10.8362 21.4768 10.6314 21.3569 10.5148C21.1903 10.3533 21.0268 10.1898 20.8664 10.0244C20.769 9.9236 20.6516 9.87696 20.5367 9.79953C20.4523 9.74235 20.3635 9.70071 20.2702 9.67462C20.0412 9.61134 19.8289 9.49477 19.5841 9.4956C19.3531 9.49726 19.1258 9.49893 18.9021 9.50059C18.7206 9.50143 18.5491 9.57387 18.3725 9.61883C18.2671 9.64548 18.158 9.69072 18.0453 9.75456C17.4874 10.071 17.0944 10.5018 16.8662 11.0469C16.8451 11.0968 16.8301 11.1479 16.8212 11.2001C16.7979 11.3283 16.7446 11.4341 16.743 11.5648C16.7419 11.6936 16.7274 11.8171 16.6997 11.9354C16.6406 12.1893 16.7363 12.4258 16.7929 12.6723ZM6.83543 10.5843C6.83544 10.5775 6.83412 10.5708 6.83154 10.5645C6.82895 10.5582 6.82516 10.5525 6.82038 10.5477C6.81559 10.5429 6.80991 10.5391 6.80365 10.5365C6.79739 10.5339 6.79068 10.5326 6.7839 10.5326L2.65714 10.5254C2.65036 10.5253 2.64364 10.5267 2.63738 10.5293C2.63111 10.5318 2.62541 10.5356 2.62061 10.5404C2.61581 10.5452 2.61199 10.5509 2.60939 10.5571C2.60678 10.5634 2.60544 10.5701 2.60542 10.5769L2.60103 13.0916C2.60102 13.0984 2.60235 13.1051 2.60493 13.1113C2.60751 13.1176 2.61131 13.1233 2.61609 13.1281C2.62088 13.1329 2.62656 13.1367 2.63282 13.1393C2.63908 13.1419 2.64579 13.1433 2.65257 13.1433L6.77933 13.1505C6.78611 13.1505 6.79282 13.1492 6.79909 13.1466C6.80536 13.144 6.81106 13.1402 6.81586 13.1354C6.82066 13.1307 6.82447 13.125 6.82708 13.1187C6.82968 13.1125 6.83103 13.1057 6.83104 13.099L6.83543 10.5843ZM14.0326 10.5614C14.0326 10.5572 14.0318 10.5529 14.0301 10.549C14.0285 10.5451 14.0261 10.5415 14.0231 10.5385C14.0201 10.5354 14.0165 10.5331 14.0126 10.5314C14.0086 10.5298 14.0044 10.529 14.0001 10.529H9.88668C9.87807 10.529 9.86981 10.5324 9.86372 10.5385C9.85763 10.5446 9.85421 10.5528 9.85421 10.5614V13.1194C9.85421 13.128 9.85763 13.1363 9.86372 13.1424C9.86981 13.1485 9.87807 13.1519 9.88668 13.1519H14.0001C14.0044 13.1519 14.0086 13.1511 14.0126 13.1494C14.0165 13.1478 14.0201 13.1454 14.0231 13.1424C14.0261 13.1394 14.0285 13.1358 14.0301 13.1318C14.0318 13.1279 14.0326 13.1237 14.0326 13.1194V10.5614ZM28.5404 10.5764C28.5404 10.5636 28.5353 10.5513 28.5262 10.5423C28.5172 10.5332 28.5049 10.5281 28.4921 10.5281H24.3387C24.3259 10.5281 24.3136 10.5332 24.3045 10.5423C24.2955 10.5513 24.2904 10.5636 24.2904 10.5764V13.1028C24.2904 13.1156 24.2955 13.1279 24.3045 13.1369C24.3136 13.146 24.3259 13.1511 24.3387 13.1511H28.4921C28.5049 13.1511 28.5172 13.146 28.5262 13.1369C28.5353 13.1279 28.5404 13.1156 28.5404 13.1028V10.5764ZM21.2811 16.2153C21.2811 16.2049 21.277 16.195 21.2696 16.1877C21.2623 16.1803 21.2523 16.1762 21.2419 16.1762H17.0802C17.0698 16.1762 17.0599 16.1803 17.0525 16.1877C17.0452 16.195 17.0411 16.2049 17.0411 16.2153V18.6817C17.0411 18.6921 17.0452 18.7021 17.0525 18.7094C17.0599 18.7167 17.0698 18.7209 17.0802 18.7209H21.2419C21.2523 18.7209 21.2623 18.7167 21.2696 18.7094C21.277 18.7021 21.2811 18.6921 21.2811 18.6817V16.2153ZM28.5379 16.2062C28.5379 16.1984 28.5348 16.191 28.5294 16.1856C28.5239 16.1801 28.5165 16.177 28.5087 16.177H24.3187C24.311 16.177 24.3036 16.1801 24.2981 16.1856C24.2926 16.191 24.2896 16.1984 24.2896 16.2062V18.6942C24.2896 18.7019 24.2926 18.7094 24.2981 18.7148C24.3036 18.7203 24.311 18.7234 24.3187 18.7234H28.5087C28.5165 18.7234 28.5239 18.7203 28.5294 18.7148C28.5348 18.7094 28.5379 18.7019 28.5379 18.6942V16.2062ZM6.83407 16.2087C6.83407 16.2003 6.83074 16.1922 6.82481 16.1863C6.81887 16.1804 6.81082 16.177 6.80243 16.177H2.63403C2.62564 16.177 2.61759 16.1804 2.61166 16.1863C2.60573 16.1922 2.60239 16.2003 2.60239 16.2087V18.6917C2.60239 18.7001 2.60573 18.7082 2.61166 18.7141C2.61759 18.72 2.62564 18.7234 2.63403 18.7234H6.80243C6.81082 18.7234 6.81887 18.72 6.82481 18.7141C6.83074 18.7082 6.83407 18.7001 6.83407 18.6917V16.2087ZM14.0301 16.2128C14.0301 16.2033 14.0263 16.1942 14.0196 16.1875C14.0129 16.1808 14.0038 16.177 13.9943 16.177H9.8259C9.8164 16.177 9.80729 16.1808 9.80058 16.1875C9.79386 16.1942 9.79009 16.2033 9.79009 16.2128V18.6876C9.79009 18.697 9.79386 18.7062 9.80058 18.7129C9.80729 18.7196 9.8164 18.7234 9.8259 18.7234H13.9943C14.0038 18.7234 14.0129 18.7196 14.0196 18.7129C14.0263 18.7062 14.0301 18.697 14.0301 18.6876V16.2128ZM11.2548 25.4223C11.5507 25.5361 11.8501 25.5722 12.1532 25.5305C13.0931 25.4012 13.7681 24.9732 14.1783 24.2465C14.2793 24.0678 14.356 23.8788 14.4081 23.6795C14.4731 23.4341 14.5072 23.2234 14.5106 23.0475C14.5222 22.4718 14.3793 21.9641 14.0817 21.5245C13.9962 21.3979 13.8774 21.2536 13.7253 21.0915C13.6282 20.9882 13.505 20.8953 13.3556 20.8126C13.2196 20.7371 13.085 20.6585 12.9518 20.5769C12.8058 20.487 12.6015 20.4387 12.3389 20.432C12.1299 20.4262 11.7635 20.3038 11.5754 20.4045C11.4654 20.4628 11.3422 20.4229 11.2106 20.4678C10.9125 20.57 10.6514 20.7101 10.4271 20.8883C10.1889 21.0771 9.96357 21.3199 9.75095 21.6169C9.6316 21.784 9.54223 21.9653 9.48283 22.1607C9.39956 22.4316 9.35932 22.6553 9.36209 22.8318C9.36709 23.1382 9.41372 23.4613 9.50198 23.801C9.55611 24.0092 9.69017 24.1766 9.78676 24.3664C9.97661 24.7361 10.388 25.0401 10.7368 25.2357C10.9034 25.3298 11.0774 25.3548 11.2548 25.4223ZM6.83241 21.766C6.83241 21.7602 6.83013 21.7547 6.82607 21.7507C6.82201 21.7466 6.8165 21.7443 6.81076 21.7443H2.62571C2.61996 21.7443 2.61446 21.7466 2.6104 21.7507C2.60634 21.7547 2.60406 21.7602 2.60406 21.766V24.2773C2.60406 24.2831 2.60634 24.2886 2.6104 24.2926C2.61446 24.2967 2.61996 24.299 2.62571 24.299H6.81076C6.8165 24.299 6.82201 24.2967 6.82607 24.2926C6.83013 24.2886 6.83241 24.2831 6.83241 24.2773V21.766ZM21.2819 21.8009C21.2819 21.7864 21.2761 21.7724 21.2658 21.7621C21.2555 21.7518 21.2415 21.746 21.227 21.746H17.0935C17.079 21.746 17.065 21.7518 17.0547 21.7621C17.0444 21.7724 17.0386 21.7864 17.0386 21.8009V24.244C17.0386 24.2586 17.0444 24.2726 17.0547 24.2829C17.065 24.2932 17.079 24.299 17.0935 24.299H21.227C21.2415 24.299 21.2555 24.2932 21.2658 24.2829C21.2761 24.2726 21.2819 24.2586 21.2819 24.244V21.8009Z" fill="white"/>
<path d="M16.7925 12.6723C16.7359 12.4258 16.6401 12.1893 16.6993 11.9354C16.727 11.8171 16.7415 11.6936 16.7426 11.5648C16.7442 11.4341 16.7975 11.3283 16.8208 11.2001C16.8297 11.1479 16.8447 11.0969 16.8658 11.0469C17.094 10.5018 17.487 10.071 18.0449 9.75457C18.1576 9.69073 18.2666 9.64549 18.3721 9.61885C18.5486 9.57388 18.7202 9.50144 18.9017 9.50061C19.1254 9.49894 19.3527 9.49728 19.5837 9.49561C19.8285 9.49478 20.0408 9.61135 20.2698 9.67464C20.3631 9.70073 20.4519 9.74236 20.5363 9.79954C20.6512 9.87698 20.7686 9.92361 20.866 10.0244C21.0264 10.1898 21.1899 10.3533 21.3564 10.5148C21.4763 10.6314 21.5122 10.8362 21.6029 10.9819C21.6618 11.0769 21.7023 11.1815 21.7245 11.2959C21.745 11.4019 21.7658 11.5071 21.7869 11.6115C21.8097 11.7225 21.8222 11.8385 21.8244 11.9595C21.8416 13.0653 21.3523 13.8766 20.3564 14.3934C20.277 14.4345 20.194 14.4634 20.1074 14.48C19.9684 14.5067 19.8418 14.5758 19.6986 14.5849C19.381 14.6044 19.1027 14.6044 18.8634 14.5849C18.6463 14.5672 18.3585 14.4695 17.9999 14.2918C17.8101 14.198 17.656 14.0859 17.5378 13.9554C17.3571 13.7564 17.1489 13.6057 17.0223 13.3567C16.9341 13.183 16.8575 12.9548 16.7925 12.6723ZM18.7668 12.6606C18.7452 12.6101 18.7116 12.5724 18.6661 12.5474C18.4146 12.4103 18.1598 12.2185 17.9017 11.972C17.8189 11.8932 17.7348 11.8918 17.6494 11.9678L17.5644 12.0436C17.4806 12.1186 17.4861 12.1854 17.5811 12.2443C17.8658 12.4214 18.1098 12.6109 18.313 12.813C18.3652 12.8646 18.4276 12.9021 18.5004 12.9254C18.5303 12.9349 18.5556 12.9518 18.5761 12.9762C18.6527 13.07 18.7429 13.1441 18.8467 13.1985C18.935 13.2452 18.995 13.3309 19.0441 13.415C19.0519 13.4285 19.0627 13.44 19.0756 13.4487C19.0885 13.4574 19.1032 13.463 19.1186 13.4651C19.134 13.4672 19.1496 13.4657 19.1642 13.4608C19.1789 13.4559 19.1922 13.4476 19.2031 13.4367L21.035 11.609C21.0448 11.5992 21.0522 11.5873 21.0565 11.5742C21.0608 11.5611 21.062 11.5471 21.0599 11.5335C21.0578 11.5198 21.0525 11.5069 21.0444 11.4957C21.0363 11.4845 21.0257 11.4754 21.0134 11.4691C20.9451 11.4341 20.8882 11.3908 20.8427 11.3392C20.7983 11.2881 20.7519 11.2864 20.7036 11.3342L19.1515 12.8879C19.1417 12.8978 19.1298 12.9054 19.1167 12.9101C19.1036 12.9148 19.0896 12.9165 19.0757 12.9152C19.0619 12.9138 19.0485 12.9094 19.0365 12.9022C19.0246 12.8951 19.0144 12.8854 19.0066 12.8738C18.9605 12.8061 18.9 12.755 18.8251 12.7206C18.7979 12.7078 18.7785 12.6878 18.7668 12.6606Z" fill="#4B41D9"/>
<path d="M6.78385 10.5326L2.65709 10.5254C2.62858 10.5253 2.60543 10.5484 2.60538 10.5769L2.60099 13.0916C2.60094 13.1201 2.62401 13.1433 2.65253 13.1433L6.77928 13.1505C6.8078 13.1506 6.83095 13.1275 6.831 13.099L6.83539 10.5843C6.83544 10.5558 6.81237 10.5326 6.78385 10.5326Z" fill="#4B41D9"/>
<path d="M14.0004 10.529H9.88697C9.86903 10.529 9.85449 10.5435 9.85449 10.5615V13.1195C9.85449 13.1374 9.86903 13.1519 9.88697 13.1519H14.0004C14.0183 13.1519 14.0329 13.1374 14.0329 13.1195V10.5615C14.0329 10.5435 14.0183 10.529 14.0004 10.529Z" fill="#4B41D9"/>
<path d="M28.4917 10.528H24.3383C24.3117 10.528 24.29 10.5496 24.29 10.5763V13.1027C24.29 13.1293 24.3117 13.151 24.3383 13.151H28.4917C28.5184 13.151 28.54 13.1293 28.54 13.1027V10.5763C28.54 10.5496 28.5184 10.528 28.4917 10.528Z" fill="#4B41D9"/>
<path d="M18.8255 12.7206C18.9004 12.755 18.9609 12.8061 19.007 12.8738C19.0148 12.8854 19.025 12.8951 19.0369 12.9022C19.0489 12.9094 19.0623 12.9138 19.0761 12.9152C19.09 12.9165 19.104 12.9148 19.1171 12.9101C19.1302 12.9054 19.1421 12.8978 19.1519 12.8879L20.704 11.3342C20.7523 11.2864 20.7987 11.2881 20.8431 11.3392C20.8886 11.3908 20.9455 11.4341 21.0138 11.4691C21.0261 11.4754 21.0367 11.4845 21.0448 11.4957C21.0529 11.5069 21.0582 11.5198 21.0603 11.5335C21.0624 11.5471 21.0612 11.5611 21.0569 11.5742C21.0526 11.5873 21.0452 11.5992 21.0354 11.6089L19.2035 13.4367C19.1926 13.4476 19.1793 13.4559 19.1647 13.4608C19.15 13.4657 19.1344 13.4672 19.119 13.4651C19.1036 13.463 19.0889 13.4574 19.076 13.4487C19.0631 13.44 19.0523 13.4285 19.0445 13.415C18.9954 13.3309 18.9354 13.2452 18.8472 13.1985C18.7433 13.1441 18.6531 13.07 18.5765 12.9762C18.556 12.9518 18.5307 12.9348 18.5008 12.9254C18.428 12.9021 18.3656 12.8646 18.3134 12.813C18.1102 12.6109 17.8663 12.4214 17.5815 12.2443C17.4865 12.1854 17.481 12.1185 17.5648 12.0436L17.6498 11.9678C17.7352 11.8918 17.8193 11.8932 17.9021 11.972C18.1602 12.2185 18.415 12.4103 18.6665 12.5474C18.712 12.5724 18.7456 12.6101 18.7672 12.6606C18.7789 12.6878 18.7983 12.7078 18.8255 12.7206Z" fill="white"/>
<path d="M21.2419 16.1761H17.0802C17.0585 16.1761 17.041 16.1936 17.041 16.2152V18.6816C17.041 18.7032 17.0585 18.7208 17.0802 18.7208H21.2419C21.2635 18.7208 21.281 18.7032 21.281 18.6816V16.2152C21.281 16.1936 21.2635 16.1761 21.2419 16.1761Z" fill="#4B41D9"/>
<path d="M28.5083 16.1771H24.3182C24.3021 16.1771 24.2891 16.1901 24.2891 16.2062V18.6943C24.2891 18.7104 24.3021 18.7234 24.3182 18.7234H28.5083C28.5244 18.7234 28.5374 18.7104 28.5374 18.6943V16.2062C28.5374 16.1901 28.5244 16.1771 28.5083 16.1771Z" fill="#4B41D9"/>
<path d="M6.80258 16.1771H2.63418C2.61671 16.1771 2.60254 16.1912 2.60254 16.2087V18.6918C2.60254 18.7092 2.61671 18.7234 2.63418 18.7234H6.80258C6.82006 18.7234 6.83422 18.7092 6.83422 18.6918V16.2087C6.83422 16.1912 6.82006 16.1771 6.80258 16.1771Z" fill="#4B41D9"/>
<path d="M13.9942 16.1771H9.82584C9.80607 16.1771 9.79004 16.1931 9.79004 16.2129V18.6876C9.79004 18.7074 9.80607 18.7234 9.82584 18.7234H13.9942C14.014 18.7234 14.03 18.7074 14.03 18.6876V16.2129C14.03 16.1931 14.014 16.1771 13.9942 16.1771Z" fill="#4B41D9"/>
<path d="M11.2541 25.4222C11.0768 25.3548 10.9028 25.3298 10.7362 25.2357C10.3873 25.04 9.97598 24.7361 9.78613 24.3664C9.68954 24.1765 9.55548 24.0092 9.50135 23.801C9.41309 23.4613 9.36646 23.1382 9.36146 22.8318C9.35869 22.6552 9.39893 22.4315 9.4822 22.1606C9.5416 21.9652 9.63097 21.784 9.75032 21.6169C9.96294 21.3199 10.1883 21.077 10.4265 20.8883C10.6507 20.7101 10.9119 20.5699 11.21 20.4678C11.3416 20.4228 11.4648 20.4628 11.5747 20.4045C11.7629 20.3038 12.1293 20.4262 12.3383 20.432C12.6009 20.4386 12.8052 20.4869 12.9511 20.5769C13.0844 20.6585 13.219 20.737 13.355 20.8125C13.5043 20.8952 13.6276 20.9882 13.7247 21.0915C13.8768 21.2536 13.9956 21.3979 14.0811 21.5245C14.3786 21.9641 14.5216 22.4718 14.5099 23.0474C14.5066 23.2234 14.4725 23.4341 14.4075 23.6794C14.3553 23.8787 14.2787 24.0677 14.1777 24.2465C13.7675 24.9731 13.0924 25.4011 12.1526 25.5305C11.8495 25.5721 11.55 25.536 11.2541 25.4222ZM11.7787 23.8435C11.7088 23.7777 11.6447 23.6944 11.5639 23.6428C11.3147 23.484 11.0918 23.3147 10.8953 23.1349C10.7554 23.0066 10.5922 22.9558 10.4789 22.7943C10.4736 22.787 10.4667 22.7811 10.4586 22.7771C10.4506 22.773 10.4417 22.771 10.4327 22.7712C10.4237 22.7714 10.4149 22.7737 10.407 22.778C10.3991 22.7823 10.3923 22.7885 10.3873 22.796L10.2366 23.0258C10.23 23.0358 10.2259 23.0473 10.2247 23.0593C10.2235 23.0714 10.2253 23.0836 10.2299 23.0949C10.251 23.1437 10.2896 23.1746 10.3457 23.1873C10.3757 23.194 10.399 23.2106 10.4156 23.2373C10.5172 23.4047 10.6788 23.4363 10.8178 23.5545C11.1326 23.821 11.4523 24.1224 11.807 24.3206C11.842 24.34 11.8737 24.3356 11.902 24.3073L13.6573 22.5487C13.7044 22.5015 13.7039 22.4546 13.6556 22.4079L13.5349 22.2922C13.481 22.2406 13.4277 22.2411 13.375 22.2939L11.8287 23.8418C11.8221 23.8484 11.8133 23.8522 11.804 23.8525C11.7948 23.8528 11.7857 23.8496 11.7787 23.8435Z" fill="#4B41D9"/>
<path d="M29.767 21.8317L24.3587 25.6687C24.3221 25.6948 24.3038 25.6854 24.3038 25.6404C24.3004 24.6223 24.3013 23.6356 24.3063 22.6802C24.3096 22.1365 24.7817 21.7668 25.2963 21.7643C26.2597 21.761 27.1315 21.7335 28.1516 21.7551C28.5324 21.7635 28.9235 21.7568 29.3248 21.7351C29.4814 21.7268 29.6224 21.7321 29.7478 21.751C29.8211 21.7615 29.8275 21.7884 29.767 21.8317Z" fill="white"/>
<path d="M6.81022 21.7443H2.62516C2.61321 21.7443 2.60352 21.754 2.60352 21.766V24.2773C2.60352 24.2893 2.61321 24.299 2.62516 24.299H6.81022C6.82218 24.299 6.83187 24.2893 6.83187 24.2773V21.766C6.83187 21.754 6.82218 21.7443 6.81022 21.7443Z" fill="#4B41D9"/>
<path d="M21.2265 21.746H17.093C17.0627 21.746 17.0381 21.7706 17.0381 21.8009V24.244C17.0381 24.2744 17.0627 24.299 17.093 24.299H21.2265C21.2568 24.299 21.2814 24.2744 21.2814 24.244V21.8009C21.2814 21.7706 21.2568 21.746 21.2265 21.746Z" fill="#4B41D9"/>
<path d="M11.779 23.8434C11.786 23.8495 11.795 23.8528 11.8043 23.8524C11.8136 23.8521 11.8224 23.8483 11.8289 23.8418L13.3752 22.2938C13.428 22.2411 13.4813 22.2405 13.5351 22.2922L13.6558 22.4079C13.7041 22.4545 13.7047 22.5014 13.6575 22.5486L11.9022 24.3072C11.8739 24.3355 11.8423 24.34 11.8073 24.3206C11.4526 24.1224 11.1328 23.821 10.8181 23.5545C10.679 23.4363 10.5175 23.4046 10.4159 23.2372C10.3992 23.2106 10.3759 23.1939 10.3459 23.1873C10.2899 23.1745 10.2513 23.1437 10.2302 23.0949C10.2256 23.0835 10.2238 23.0713 10.225 23.0593C10.2261 23.0472 10.2302 23.0357 10.2369 23.0257L10.3876 22.7959C10.3926 22.7884 10.3993 22.7823 10.4072 22.778C10.4151 22.7737 10.4239 22.7713 10.4329 22.7712C10.4419 22.771 10.4508 22.773 10.4589 22.777C10.4669 22.7811 10.4739 22.787 10.4792 22.7943C10.5924 22.9558 10.7556 23.0066 10.8955 23.1348C11.092 23.3147 11.3149 23.484 11.5641 23.6428C11.6449 23.6944 11.709 23.7777 11.779 23.8434Z" fill="white"/>
</svg>
