<svg width="24" height="24" viewBox="0 0 24 24" fill="none" xmlns="http://www.w3.org/2000/svg">
<g id="Group 427319480">
<path id="Vector" d="M1.43653 7.81493L0.394098 7.82531C0.29106 7.82599 0.192474 7.86411 0.119747 7.93138C0.0470199 7.99865 0.00602162 8.08964 0.00565494 8.1846L5.84167e-06 11.068C-0.00040534 11.1491 0.020896 11.229 0.0620317 11.3007C0.103167 11.3724 0.162875 11.4337 0.235895 11.4792L1.3659 12.1835C1.40973 12.2109 1.4433 12.2499 1.46201 12.2952C1.48072 12.3405 1.48366 12.3898 1.47043 12.4364C1.10789 13.7067 0.921904 15.0233 0.912487 16.3861C0.897421 18.6023 0.891299 20.8182 0.894124 23.0336C0.894124 23.4214 0.882827 23.9766 1.45772 23.9792C2.59809 23.9844 3.74034 23.9913 4.88447 23.9999C5.88594 24.0077 5.62604 23.2528 5.70797 22.6626C5.71456 22.6134 5.74516 22.5887 5.79978 22.5887L18.196 22.5783C18.2097 22.5781 18.2233 22.5805 18.236 22.5855C18.2486 22.5904 18.26 22.5978 18.2694 22.607C18.2789 22.6163 18.2861 22.6273 18.2908 22.6393C18.2954 22.6514 18.2973 22.6642 18.2963 22.6769C18.2567 23.1516 18.2158 23.9792 18.9715 23.9818C20.2032 23.9861 21.4382 23.9857 22.6765 23.9805C22.724 23.9805 22.7703 23.9654 22.8078 23.9377C23.1313 23.7003 23.0988 23.4396 23.0988 23.0894C23.1026 20.8653 23.0955 18.6417 23.0776 16.4185C23.0654 15.0496 22.8818 13.7227 22.5267 12.4377C22.5131 12.3896 22.5161 12.3387 22.5353 12.292C22.5545 12.2453 22.589 12.2052 22.6341 12.177L23.8178 11.4442C23.8722 11.4106 23.9167 11.3652 23.9475 11.312C23.9783 11.2589 23.9944 11.1996 23.9943 11.1394L24 8.10807C24.0002 8.07094 23.9924 8.03414 23.9771 7.99976C23.9618 7.96539 23.9393 7.93412 23.9108 7.90775C23.8823 7.88137 23.8485 7.8604 23.8112 7.84603C23.7739 7.83166 23.7339 7.82418 23.6935 7.82401L22.5945 7.82271C22.5637 7.82237 22.5342 7.81088 22.5126 7.79073C22.4909 7.77057 22.4787 7.74338 22.4787 7.71505L22.4702 0.525322C22.4702 0.174245 22.2796 -0.000861535 21.8982 3.18693e-06L2.04673 0.00389428C1.91137 0.003895 1.78152 0.0533238 1.68567 0.141343C1.58982 0.229363 1.53578 0.34879 1.53541 0.473439L1.52411 7.73321C1.52411 7.75466 1.51493 7.77526 1.49855 7.79054C1.48216 7.80583 1.45988 7.81459 1.43653 7.81493Z" fill="#4B41D9"/>
<path id="Vector_2" d="M8.05232 2.6694L9.18515 2.62141C9.21675 2.62006 9.24649 2.60732 9.26792 2.58594C9.28934 2.56457 9.30071 2.5363 9.29956 2.50727L9.29815 2.4917C9.29381 2.40371 9.27218 2.31731 9.23448 2.23742C9.19678 2.15754 9.14375 2.08573 9.07843 2.02611C9.01311 1.96649 8.93677 1.92022 8.85377 1.88994C8.77078 1.85966 8.68275 1.84597 8.59472 1.84964L8.56364 1.85094C8.3859 1.85838 8.21893 1.93607 8.09946 2.06694C7.98 2.1978 7.91782 2.37112 7.9266 2.54877L7.92801 2.56434C7.92948 2.59336 7.94336 2.62067 7.96664 2.64034C7.98991 2.66002 8.0207 2.67046 8.05232 2.6694Z" fill="#4B41D9"/>
<path id="Vector_3" d="M11.4225 2.5501L12.561 2.54491C12.5809 2.54491 12.5999 2.53767 12.6139 2.52478C12.628 2.51189 12.6359 2.4944 12.6359 2.47617V2.43207C12.6351 2.27143 12.5665 2.11765 12.4452 2.00454C12.3239 1.89143 12.1598 1.82826 11.9889 1.82892C11.9044 1.82925 11.8207 1.84525 11.7426 1.876C11.6646 1.90675 11.5938 1.95165 11.5343 2.00814C11.4747 2.06463 11.4276 2.1316 11.3956 2.20523C11.3636 2.27886 11.3473 2.3577 11.3477 2.43726V2.48136C11.3477 2.49959 11.3556 2.51708 11.3696 2.52997C11.3836 2.54286 11.4027 2.5501 11.4225 2.5501Z" fill="#4B41D9"/>
<path id="Vector_4" d="M14.8341 2.61496L15.919 2.67592C15.9358 2.67698 15.9528 2.67496 15.9688 2.66999C15.9849 2.66501 15.9997 2.65718 16.0124 2.64693C16.0251 2.63669 16.0355 2.62424 16.043 2.61029C16.0505 2.59635 16.0549 2.58118 16.056 2.56567L16.0574 2.54751C16.0632 2.4599 16.0518 2.37218 16.0237 2.28935C15.9957 2.20653 15.9515 2.13023 15.8938 2.06482C15.8361 1.99941 15.7659 1.94617 15.6873 1.90814C15.6088 1.87012 15.5233 1.84804 15.4359 1.84319L15.4246 1.8419C15.3371 1.83691 15.2492 1.84927 15.1661 1.87827C15.083 1.90726 15.0063 1.95233 14.9403 2.01089C14.8743 2.06944 14.8203 2.14034 14.7815 2.21951C14.7427 2.29868 14.7198 2.38458 14.7141 2.47228V2.49044C14.7121 2.52154 14.7237 2.55209 14.7462 2.57542C14.7687 2.59874 14.8003 2.61296 14.8341 2.61496Z" fill="#4B41D9"/>
<path id="Vector_5" d="M19.6598 6.82267C19.3759 5.17667 18.6979 4.16365 16.7486 3.99762C13.5931 3.72869 10.438 3.73129 7.28337 4.0054C6.39208 4.08193 5.48383 4.32449 5.04596 4.96784C4.67211 5.51953 4.42256 6.17975 4.29732 6.94849C4.06567 8.37614 3.86227 9.82844 3.68712 11.3054C3.68553 11.3192 3.68713 11.3331 3.69181 11.3463C3.69648 11.3595 3.70414 11.3716 3.71427 11.3819C3.7244 11.3922 3.73678 11.4004 3.7506 11.406C3.76442 11.4116 3.77937 11.4144 3.79447 11.4143L20.181 11.3858C20.2705 11.3858 20.3105 11.3452 20.3011 11.2639C20.1259 9.76445 19.9122 8.28405 19.6598 6.82267Z" fill="#4B41D9"/>
<path id="Vector_6" d="M3.66408 15.6739C3.54808 15.6721 3.43288 15.692 3.32558 15.7326C3.21828 15.7731 3.12115 15.8334 3.04017 15.9097C2.9592 15.986 2.89608 16.0767 2.85471 16.1763C2.81334 16.2758 2.7946 16.3821 2.79963 16.4885L2.82929 17.1254C2.83839 17.3125 2.92043 17.4904 3.06045 17.6266C3.20047 17.7628 3.38914 17.8482 3.59204 17.8673L5.29271 18.0282C5.41045 18.0392 5.52941 18.0275 5.64195 17.9939C5.7545 17.9603 5.85817 17.9054 5.94632 17.8329C6.03447 17.7604 6.10516 17.6718 6.15387 17.5727C6.20259 17.4737 6.22824 17.3664 6.22921 17.2577L6.23627 16.4885C6.23816 16.2825 6.15134 16.0842 5.99472 15.9367C5.83809 15.7893 5.62436 15.7046 5.40006 15.7012L3.66408 15.6739Z" fill="#4B41D9"/>
<path id="Vector_7" d="M20.3928 17.8712C20.5996 17.8519 20.792 17.7654 20.9353 17.6271C21.0785 17.4889 21.1632 17.3082 21.1739 17.1176L21.2064 16.5339C21.2126 16.4258 21.1947 16.3176 21.1539 16.216C21.1131 16.1144 21.0502 16.0215 20.9691 15.9428C20.888 15.8642 20.7903 15.8016 20.682 15.7587C20.5737 15.7158 20.4571 15.6936 20.3391 15.6934L18.6357 15.6895C18.4111 15.689 18.195 15.7682 18.0326 15.9106C17.8702 16.053 17.774 16.2475 17.7641 16.4535L17.7274 17.2006C17.7219 17.3153 17.7433 17.4296 17.7903 17.536C17.8372 17.6423 17.9085 17.7381 17.9994 17.8169C18.0903 17.8957 18.1985 17.9555 18.3169 17.9924C18.4352 18.0293 18.5608 18.0424 18.6851 18.0308L20.3928 17.8712Z" fill="#4B41D9"/>
<path id="Vector_8" d="M16.0662 15.9904C16.0662 15.9433 16.0458 15.8981 16.0095 15.8648C15.9732 15.8315 15.924 15.8127 15.8727 15.8127H8.10953C8.05821 15.8127 8.00898 15.8315 7.97269 15.8648C7.9364 15.8981 7.91602 15.9433 7.91602 15.9904V16.1876C7.91602 16.2347 7.9364 16.2799 7.97269 16.3133C8.00898 16.3466 8.05821 16.3653 8.10953 16.3653H15.8727C15.924 16.3653 15.9732 16.3466 16.0095 16.3133C16.0458 16.2799 16.0662 16.2347 16.0662 16.1876V15.9904Z" fill="#4B41D9"/>
<path id="Vector_9" d="M16.0813 17.6455C16.0813 17.5956 16.0598 17.5478 16.0214 17.5125C15.9829 17.4772 15.9309 17.4574 15.8765 17.4574H8.09642C8.0421 17.4574 7.99 17.4772 7.95159 17.5125C7.91318 17.5478 7.8916 17.5956 7.8916 17.6455V17.7985C7.8916 17.8484 7.91318 17.8962 7.95159 17.9315C7.99 17.9668 8.0421 17.9866 8.09642 17.9866H15.8765C15.9309 17.9866 15.9829 17.9668 16.0214 17.9315C16.0598 17.8962 16.0813 17.8484 16.0813 17.7985V17.6455Z" fill="#4B41D9"/>
<path id="Vector_10" d="M21.3399 20.0711C21.3399 20.0054 21.3115 19.9424 21.2609 19.8959C21.2103 19.8495 21.1417 19.8234 21.0701 19.8234H2.89674C2.82519 19.8234 2.75657 19.8495 2.70597 19.8959C2.65538 19.9424 2.62695 20.0054 2.62695 20.0711V20.1282C2.62695 20.1939 2.65538 20.2569 2.70597 20.3034C2.75657 20.3498 2.82519 20.3759 2.89674 20.3759H21.0701C21.1417 20.3759 21.2103 20.3498 21.2609 20.3034C21.3115 20.2569 21.3399 20.1939 21.3399 20.1282V20.0711Z" fill="#4B41D9"/>
<path id="Vector_11" d="M17.5179 7.00425C17.5179 6.49168 17.2961 6.0001 16.9014 5.63766C16.5067 5.27521 15.9714 5.07159 15.4132 5.07159C14.855 5.07159 14.3197 5.27521 13.925 5.63766C13.5303 6.0001 13.3086 6.49168 13.3086 7.00425C13.3086 7.51682 13.5303 8.0084 13.925 8.37084C14.3197 8.73328 14.855 8.9369 15.4132 8.9369C15.9714 8.9369 16.5067 8.73328 16.9014 8.37084C17.2961 8.0084 17.5179 7.51682 17.5179 7.00425Z" fill="#4B41D9"/>
<path id="Vector_12" d="M17.7331 10.2314C16.1284 8.97326 13.8825 9.16783 12.6014 10.7529C12.5933 10.7628 12.5884 10.7746 12.5872 10.787C12.586 10.7994 12.5885 10.8118 12.5945 10.8229C12.6005 10.8341 12.6097 10.8435 12.6212 10.8501C12.6326 10.8567 12.6458 10.8603 12.6593 10.8605L18.0834 10.8683C18.0991 10.8684 18.1145 10.8648 18.1283 10.8578C18.1421 10.8509 18.1538 10.8409 18.1623 10.8288C18.1707 10.8166 18.1757 10.8027 18.1767 10.7883C18.1777 10.7739 18.1748 10.7594 18.1681 10.7464C18.0673 10.5509 17.9223 10.3793 17.7331 10.2314Z" fill="#4B41D9"/>
<path id="Vector_13" d="M1.52411 7.73321L1.53541 0.473439C1.53578 0.34879 1.58982 0.229363 1.68567 0.141343C1.78152 0.0533238 1.91137 0.003895 2.04673 0.00389428L21.8982 3.18693e-06C22.2796 -0.000861535 22.4702 0.174245 22.4702 0.525322L22.4787 7.71505C22.4787 7.74338 22.4909 7.77057 22.5126 7.79073C22.5342 7.81088 22.5637 7.82237 22.5945 7.82271L23.6935 7.82401C23.7339 7.82418 23.7739 7.83166 23.8112 7.84603C23.8485 7.8604 23.8823 7.88137 23.9108 7.90775C23.9393 7.93412 23.9618 7.96539 23.9771 7.99976C23.9924 8.03414 24.0002 8.07094 24 8.10807L23.9943 11.1394C23.9944 11.1996 23.9783 11.2589 23.9475 11.312C23.9167 11.3652 23.8722 11.4106 23.8178 11.4442L22.6341 12.177C22.589 12.2052 22.5546 12.2453 22.5353 12.292C22.5161 12.3387 22.5131 12.3896 22.5267 12.4377C22.8818 13.7227 23.0654 15.0496 23.0776 16.4185C23.0955 18.6417 23.1026 20.8653 23.0988 23.0894C23.0988 23.4396 23.1313 23.7003 22.8078 23.9377C22.7703 23.9654 22.724 23.9805 22.6765 23.9805C21.4382 23.9857 20.2032 23.9861 18.9715 23.9818C18.2158 23.9792 18.2567 23.1516 18.2963 22.6769C18.2973 22.6642 18.2954 22.6514 18.2908 22.6393C18.2861 22.6273 18.2789 22.6163 18.2694 22.607C18.26 22.5978 18.2486 22.5904 18.236 22.5855C18.2233 22.5805 18.2097 22.5781 18.196 22.5783L5.79978 22.5887C5.74516 22.5887 5.71456 22.6134 5.70797 22.6626C5.62604 23.2528 5.88594 24.0077 4.88447 23.9999C3.74034 23.9913 2.59809 23.9844 1.45772 23.9792C0.882827 23.9766 0.894124 23.4214 0.894124 23.0336C0.891299 20.8182 0.897421 18.6023 0.912487 16.3861C0.921904 15.0233 1.10789 13.7067 1.47043 12.4364C1.48366 12.3898 1.48072 12.3405 1.46201 12.2952C1.4433 12.2499 1.40973 12.2109 1.3659 12.1835L0.235895 11.4792C0.162875 11.4337 0.103167 11.3724 0.0620317 11.3007C0.020896 11.229 -0.00040534 11.1491 5.84167e-06 11.068L0.00565494 8.1846C0.00602162 8.08964 0.0470199 7.99865 0.119747 7.93138C0.192474 7.86411 0.29106 7.82599 0.394098 7.82531L1.43653 7.81493C1.45988 7.81459 1.48216 7.80583 1.49855 7.79054C1.51493 7.77526 1.52411 7.75466 1.52411 7.73321ZM8.05274 2.6694L9.18557 2.62141C9.21717 2.62006 9.24691 2.60732 9.26834 2.58594C9.28976 2.56457 9.30113 2.5363 9.29998 2.50727L9.29857 2.4917C9.29423 2.40371 9.2726 2.31731 9.2349 2.23742C9.1972 2.15754 9.14417 2.08573 9.07885 2.02611C9.01353 1.96649 8.93719 1.92022 8.85419 1.88994C8.7712 1.85966 8.68317 1.84597 8.59514 1.84964L8.56407 1.85094C8.38632 1.85838 8.21935 1.93607 8.09989 2.06694C7.98042 2.1978 7.91824 2.37112 7.92702 2.54877L7.92844 2.56434C7.9299 2.59336 7.94378 2.62067 7.96706 2.64034C7.99033 2.66001 8.02112 2.67046 8.05274 2.6694ZM11.423 2.55007L12.5615 2.54488C12.5813 2.54488 12.6004 2.53764 12.6144 2.52475C12.6285 2.51185 12.6363 2.49437 12.6363 2.47614V2.43203C12.6356 2.2714 12.567 2.11761 12.4457 2.0045C12.3243 1.89139 12.1602 1.82822 11.9894 1.82889C11.9048 1.82922 11.8211 1.84522 11.7431 1.87597C11.6651 1.90672 11.5943 1.95162 11.5347 2.00811C11.4752 2.0646 11.4281 2.13157 11.396 2.2052C11.364 2.27883 11.3477 2.35767 11.3481 2.43722V2.48132C11.3481 2.49956 11.356 2.51704 11.3701 2.52993C11.3841 2.54283 11.4031 2.55007 11.423 2.55007ZM14.8342 2.61492L15.919 2.67589C15.9359 2.67694 15.9528 2.67493 15.9689 2.66995C15.9849 2.66498 15.9997 2.65714 16.0125 2.6469C16.0252 2.63665 16.0356 2.6242 16.0431 2.61026C16.0505 2.59631 16.0549 2.58115 16.056 2.56563L16.0574 2.54748C16.0633 2.45986 16.0519 2.37214 16.0238 2.28932C15.9957 2.2065 15.9516 2.1302 15.8938 2.06479C15.8361 1.99938 15.766 1.94614 15.6874 1.90811C15.6088 1.87008 15.5234 1.84801 15.4359 1.84316L15.4246 1.84186C15.3371 1.83687 15.2493 1.84923 15.1662 1.87823C15.0831 1.90723 15.0063 1.95229 14.9403 2.01085C14.8743 2.06941 14.8204 2.1403 14.7816 2.21947C14.7428 2.29865 14.7198 2.38454 14.7141 2.47224V2.4904C14.7122 2.52151 14.7237 2.55205 14.7462 2.57538C14.7687 2.59871 14.8003 2.61292 14.8342 2.61492ZM19.6593 6.82266C19.3754 5.17666 18.6974 4.16364 16.7482 3.99761C13.5926 3.72869 10.4375 3.73128 7.28292 4.0054C6.39162 4.08193 5.48338 4.32448 5.0455 4.96783C4.67165 5.51953 4.42211 6.17974 4.29686 6.94848C4.06521 8.37614 3.86181 9.82844 3.68666 11.3054C3.68507 11.3192 3.68667 11.3331 3.69135 11.3463C3.69603 11.3595 3.70368 11.3716 3.71381 11.3819C3.72394 11.3922 3.73632 11.4004 3.75014 11.406C3.76396 11.4116 3.77891 11.4144 3.79401 11.4143L20.1806 11.3858C20.27 11.3858 20.31 11.3452 20.3006 11.2639C20.1255 9.76445 19.9117 8.28404 19.6593 6.82266ZM3.66406 15.674C3.54805 15.6721 3.43285 15.692 3.32556 15.7326C3.21826 15.7731 3.12113 15.8334 3.04015 15.9097C2.95917 15.986 2.89606 16.0767 2.85469 16.1763C2.81332 16.2758 2.79458 16.3821 2.79961 16.4885L2.82927 17.1254C2.83837 17.3125 2.92041 17.4904 3.06043 17.6266C3.20045 17.7628 3.38912 17.8482 3.59202 17.8673L5.29269 18.0282C5.41043 18.0392 5.52938 18.0275 5.64193 17.9939C5.75448 17.9603 5.85814 17.9054 5.94629 17.8329C6.03444 17.7604 6.10514 17.6718 6.15385 17.5727C6.20256 17.4737 6.22822 17.3664 6.22918 17.2577L6.23625 16.4885C6.23814 16.2825 6.15132 16.0842 5.99469 15.9367C5.83807 15.7893 5.62433 15.7046 5.40004 15.7012L3.66406 15.674ZM20.3924 17.8712C20.5992 17.852 20.7916 17.7654 20.9349 17.6272C21.0781 17.4889 21.1628 17.3082 21.1736 17.1176L21.206 16.5339C21.2122 16.4258 21.1943 16.3176 21.1535 16.216C21.1127 16.1144 21.0498 16.0215 20.9687 15.9429C20.8876 15.8642 20.7899 15.8016 20.6816 15.7587C20.5734 15.7158 20.4567 15.6936 20.3388 15.6934L18.6353 15.6895C18.4107 15.689 18.1946 15.7682 18.0322 15.9106C17.8698 16.053 17.7736 16.2475 17.7638 16.4535L17.727 17.2006C17.7215 17.3153 17.743 17.4296 17.7899 17.536C17.8368 17.6423 17.9081 17.7382 17.999 17.8169C18.0899 17.8957 18.1982 17.9556 18.3165 17.9925C18.4348 18.0294 18.5604 18.0424 18.6847 18.0308L20.3924 17.8712ZM16.0659 15.9904C16.0659 15.9433 16.0455 15.8981 16.0092 15.8648C15.9729 15.8315 15.9237 15.8127 15.8724 15.8127H8.10924C8.05791 15.8127 8.00869 15.8315 7.9724 15.8648C7.93611 15.8981 7.91572 15.9433 7.91572 15.9904V16.1876C7.91572 16.2347 7.93611 16.2799 7.9724 16.3133C8.00869 16.3466 8.05791 16.3653 8.10924 16.3653H15.8724C15.9237 16.3653 15.9729 16.3466 16.0092 16.3133C16.0455 16.2799 16.0659 16.2347 16.0659 16.1876V15.9904ZM16.0815 17.6455C16.0815 17.5956 16.0599 17.5478 16.0215 17.5125C15.9831 17.4773 15.931 17.4575 15.8766 17.4575H8.09653C8.0422 17.4575 7.99011 17.4773 7.9517 17.5125C7.91329 17.5478 7.89171 17.5956 7.89171 17.6455V17.7986C7.89171 17.8485 7.91329 17.8963 7.9517 17.9316C7.99011 17.9668 8.0422 17.9867 8.09653 17.9867H15.8766C15.931 17.9867 15.9831 17.9668 16.0215 17.9316C16.0599 17.8963 16.0815 17.8485 16.0815 17.7986V17.6455ZM21.3402 20.0711C21.3402 20.0054 21.3118 19.9424 21.2612 19.8959C21.2106 19.8494 21.142 19.8233 21.0704 19.8233H2.89707C2.82552 19.8233 2.75689 19.8494 2.7063 19.8959C2.6557 19.9424 2.62728 20.0054 2.62728 20.0711V20.1281C2.62728 20.1939 2.6557 20.2569 2.7063 20.3033C2.75689 20.3498 2.82552 20.3759 2.89707 20.3759H21.0704C21.142 20.3759 21.2106 20.3498 21.2612 20.3033C21.3118 20.2569 21.3402 20.1939 21.3402 20.1281V20.0711Z" fill="#4B41D9"/>
<path id="Vector_14" d="M8.05232 2.6694C8.0207 2.67046 7.98991 2.66002 7.96664 2.64034C7.94336 2.62067 7.92948 2.59336 7.92801 2.56434L7.9266 2.54877C7.91782 2.37112 7.98 2.1978 8.09946 2.06694C8.21893 1.93607 8.3859 1.85838 8.56364 1.85094L8.59472 1.84964C8.68275 1.84597 8.77078 1.85966 8.85377 1.88994C8.93677 1.92022 9.01311 1.96649 9.07843 2.02611C9.14375 2.08573 9.19678 2.15754 9.23448 2.23742C9.27218 2.31731 9.29381 2.40371 9.29815 2.4917L9.29956 2.50727C9.30071 2.5363 9.28934 2.56457 9.26792 2.58594C9.24649 2.60732 9.21675 2.62006 9.18515 2.62141L8.05232 2.6694Z" fill="white"/>
<path id="Vector_15" d="M11.4225 2.5501C11.4027 2.5501 11.3836 2.54286 11.3696 2.52997C11.3556 2.51708 11.3477 2.49959 11.3477 2.48136V2.43726C11.3473 2.3577 11.3636 2.27886 11.3956 2.20523C11.4276 2.1316 11.4747 2.06463 11.5343 2.00814C11.5938 1.95165 11.6646 1.90675 11.7426 1.876C11.8207 1.84525 11.9044 1.82925 11.9889 1.82892C12.1598 1.82826 12.3239 1.89143 12.4452 2.00454C12.5665 2.11765 12.6351 2.27143 12.6359 2.43207V2.47617C12.6359 2.4944 12.628 2.51189 12.6139 2.52478C12.5999 2.53767 12.5809 2.54491 12.561 2.54491L11.4225 2.5501Z" fill="white"/>
<path id="Vector_16" d="M14.8341 2.61496C14.8003 2.61296 14.7687 2.59874 14.7462 2.57542C14.7237 2.55209 14.7121 2.52154 14.7141 2.49044V2.47228C14.7198 2.38458 14.7427 2.29868 14.7815 2.21951C14.8203 2.14034 14.8743 2.06944 14.9403 2.01089C15.0063 1.95233 15.083 1.90726 15.1661 1.87827C15.2492 1.84927 15.3371 1.83691 15.4246 1.8419L15.4359 1.84319C15.5233 1.84804 15.6088 1.87012 15.6873 1.90814C15.7659 1.94617 15.8361 1.99941 15.8938 2.06482C15.9515 2.13023 15.9957 2.20653 16.0237 2.28935C16.0518 2.37218 16.0632 2.4599 16.0574 2.54751L16.056 2.56567C16.0549 2.58118 16.0505 2.59635 16.043 2.61029C16.0355 2.62424 16.0251 2.63669 16.0124 2.64693C15.9997 2.65718 15.9849 2.66501 15.9688 2.66999C15.9528 2.67496 15.9358 2.67698 15.919 2.67592L14.8341 2.61496Z" fill="white"/>
<path id="Vector_17" d="M16.7486 3.99762C18.6979 4.16365 19.3759 5.17667 19.6598 6.82267C19.9122 8.28405 20.1259 9.76445 20.3011 11.2639C20.3105 11.3452 20.2705 11.3858 20.181 11.3858L3.79447 11.4143C3.77937 11.4144 3.76442 11.4116 3.7506 11.406C3.73678 11.4004 3.7244 11.3922 3.71427 11.3819C3.70414 11.3716 3.69648 11.3595 3.69181 11.3463C3.68713 11.3331 3.68553 11.3192 3.68712 11.3054C3.86227 9.82844 4.06567 8.37614 4.29732 6.94849C4.42256 6.17975 4.67211 5.51953 5.04596 4.96784C5.48383 4.32449 6.39208 4.08193 7.28337 4.0054C10.438 3.73129 13.5931 3.72869 16.7486 3.99762ZM17.5184 7.00426C17.5184 6.49169 17.2967 6.00011 16.902 5.63767C16.5073 5.27522 15.972 5.07161 15.4138 5.07161C14.8556 5.07161 14.3203 5.27522 13.9256 5.63767C13.5309 6.00011 13.3092 6.49169 13.3092 7.00426C13.3092 7.51683 13.5309 8.00841 13.9256 8.37085C14.3203 8.7333 14.8556 8.93692 15.4138 8.93692C15.972 8.93692 16.5073 8.7333 16.902 8.37085C17.2967 8.00841 17.5184 7.51683 17.5184 7.00426ZM17.7331 10.2314C16.1285 8.97323 13.8826 9.1678 12.6015 10.7528C12.5934 10.7628 12.5885 10.7746 12.5873 10.787C12.5861 10.7994 12.5886 10.8118 12.5946 10.8229C12.6006 10.8341 12.6098 10.8435 12.6212 10.8501C12.6327 10.8567 12.6459 10.8603 12.6594 10.8605L18.0834 10.8683C18.0992 10.8683 18.1146 10.8647 18.1284 10.8578C18.1422 10.8509 18.1539 10.8409 18.1624 10.8287C18.1708 10.8166 18.1758 10.8026 18.1768 10.7882C18.1778 10.7738 18.1749 10.7594 18.1682 10.7463C18.0674 10.5509 17.9224 10.3793 17.7331 10.2314Z" fill="white"/>
<path id="Vector_18" d="M15.4132 8.9369C16.5756 8.9369 17.5179 8.07162 17.5179 7.00425C17.5179 5.93687 16.5756 5.07159 15.4132 5.07159C14.2509 5.07159 13.3086 5.93687 13.3086 7.00425C13.3086 8.07162 14.2509 8.9369 15.4132 8.9369Z" fill="#4B41D9"/>
<path id="Vector_19" d="M12.6014 10.7529C13.8825 9.16783 16.1284 8.97326 17.7331 10.2314C17.9223 10.3793 18.0673 10.5509 18.1681 10.7464C18.1748 10.7594 18.1777 10.7739 18.1767 10.7883C18.1757 10.8027 18.1707 10.8166 18.1623 10.8288C18.1538 10.8409 18.1421 10.8509 18.1283 10.8578C18.1145 10.8648 18.0991 10.8684 18.0834 10.8683L12.6593 10.8605C12.6458 10.8603 12.6326 10.8567 12.6212 10.8501C12.6097 10.8435 12.6005 10.8341 12.5945 10.8229C12.5885 10.8118 12.586 10.7994 12.5872 10.787C12.5884 10.7746 12.5933 10.7628 12.6014 10.7529Z" fill="#4B41D9"/>
<path id="Vector_20" d="M3.66408 15.674L5.40006 15.7012C5.62436 15.7047 5.83809 15.7893 5.99472 15.9368C6.15134 16.0843 6.23816 16.2826 6.23627 16.4886L6.22921 17.2577C6.22824 17.3664 6.20259 17.4737 6.15387 17.5728C6.10516 17.6718 6.03447 17.7604 5.94632 17.833C5.85817 17.9055 5.7545 17.9603 5.64195 17.9939C5.52941 18.0276 5.41045 18.0392 5.29271 18.0282L3.59204 17.8674C3.38914 17.8483 3.20047 17.7628 3.06045 17.6266C2.92043 17.4904 2.83839 17.3126 2.82929 17.1254L2.79963 16.4886C2.7946 16.3821 2.81334 16.2759 2.85471 16.1763C2.89608 16.0768 2.9592 15.9861 3.04017 15.9098C3.12115 15.8335 3.21828 15.7732 3.32558 15.7326C3.43288 15.6921 3.54808 15.6721 3.66408 15.674Z" fill="white"/>
<path id="Vector_21" d="M20.3928 17.8712L18.6851 18.0308C18.5608 18.0424 18.4352 18.0293 18.3169 17.9924C18.1985 17.9555 18.0903 17.8957 17.9994 17.8169C17.9085 17.7381 17.8372 17.6423 17.7903 17.536C17.7433 17.4296 17.7219 17.3153 17.7274 17.2006L17.7641 16.4535C17.774 16.2475 17.8702 16.053 18.0326 15.9106C18.195 15.7682 18.4111 15.689 18.6357 15.6895L20.3391 15.6934C20.4571 15.6936 20.5737 15.7158 20.682 15.7587C20.7903 15.8016 20.888 15.8642 20.9691 15.9428C21.0502 16.0215 21.1131 16.1144 21.1539 16.216C21.1947 16.3176 21.2126 16.4258 21.2064 16.5339L21.1739 17.1176C21.1632 17.3082 21.0785 17.4889 20.9353 17.6271C20.792 17.7654 20.5996 17.8519 20.3928 17.8712Z" fill="white"/>
<path id="Vector_22" d="M15.8727 15.8127H8.10953C8.00265 15.8127 7.91602 15.8923 7.91602 15.9904V16.1876C7.91602 16.2857 8.00265 16.3653 8.10953 16.3653H15.8727C15.9796 16.3653 16.0662 16.2857 16.0662 16.1876V15.9904C16.0662 15.8923 15.9796 15.8127 15.8727 15.8127Z" fill="white"/>
<path id="Vector_23" d="M15.8765 17.4574H8.09642C7.9833 17.4574 7.8916 17.5416 7.8916 17.6455V17.7985C7.8916 17.9024 7.9833 17.9866 8.09642 17.9866H15.8765C15.9896 17.9866 16.0813 17.9024 16.0813 17.7985V17.6455C16.0813 17.5416 15.9896 17.4574 15.8765 17.4574Z" fill="white"/>
<path id="Vector_24" d="M21.0701 19.8234H2.89674C2.74774 19.8234 2.62695 19.9343 2.62695 20.0711V20.1282C2.62695 20.265 2.74774 20.3759 2.89674 20.3759H21.0701C21.2191 20.3759 21.3399 20.265 21.3399 20.1282V20.0711C21.3399 19.9343 21.2191 19.8234 21.0701 19.8234Z" fill="white"/>
</g>
</svg>
