<svg width="32" height="32" viewBox="0 0 32 32" fill="none" xmlns="http://www.w3.org/2000/svg">
<g clip-path="url(#clip0_5254_27784)">
<path d="M6.71101 3.32032C6.71101 3.19245 6.66021 3.06982 6.5698 2.97941C6.47938 2.88899 6.35675 2.8382 6.22889 2.8382H6.1706C6.04273 2.8382 5.9201 2.88899 5.82969 2.97941C5.73927 3.06982 5.68848 3.19245 5.68848 3.32032V6.72431C5.68848 6.78763 5.70095 6.85032 5.72518 6.90881C5.74941 6.96731 5.78492 7.02046 5.82969 7.06522C5.87446 7.10999 5.9276 7.14551 5.9861 7.16974C6.04459 7.19396 6.10729 7.20644 6.1706 7.20644H6.22889C6.2922 7.20644 6.35489 7.19396 6.41339 7.16974C6.47188 7.14551 6.52503 7.10999 6.5698 7.06522C6.61457 7.02046 6.65008 6.96731 6.67431 6.90881C6.69854 6.85032 6.71101 6.78763 6.71101 6.72431V3.32032Z" stroke="#A7A7A7" stroke-width="0.166536"/>
<path d="M12.5874 7.21724C12.8847 7.13314 13.0196 6.91581 13.0196 6.62104C13.0185 5.56243 13.0176 4.47717 13.0171 3.36526C13.0171 2.8998 12.6382 2.75741 12.2469 2.89563C12.1386 2.93394 12.0781 3.00388 12.0653 3.10547C12.0362 3.35028 11.9946 3.58925 11.9954 3.84489C11.9959 4.81746 11.9946 5.74673 11.9912 6.6327C11.9896 6.94329 12.1303 7.18393 12.4675 7.2264C12.5077 7.23134 12.5484 7.22823 12.5874 7.21724Z" stroke="#A7A7A7" stroke-width="0.166536"/>
<path d="M19.2491 6.82167C19.2646 6.76449 19.2724 6.70621 19.2724 6.64681C19.2715 5.85243 19.2832 5.06888 19.2366 4.27117C19.2166 3.92977 19.2158 3.58532 19.2341 3.23782C19.2424 3.06878 19.1608 2.98468 19.0167 2.9189C18.6395 2.74903 18.2415 2.89309 18.2424 3.33191C18.2429 3.81597 18.2424 4.31669 18.2407 4.83406C18.2399 5.06222 18.2956 5.27872 18.2673 5.50604C18.2199 5.88158 18.2449 6.26294 18.2365 6.64098C18.2324 6.83166 18.2931 6.99903 18.4447 7.11727C18.7453 7.35209 19.1591 7.15225 19.2491 6.82167Z" stroke="#A7A7A7" stroke-width="0.166536"/>
<path d="M25.5651 3.32936C25.5649 3.19796 25.5124 3.07203 25.4194 2.97928C25.3263 2.88653 25.2002 2.83455 25.0688 2.83478L25.0405 2.83483C24.9754 2.83494 24.911 2.84787 24.8509 2.87287C24.7909 2.89788 24.7363 2.93447 24.6904 2.98055C24.6445 3.02664 24.6081 3.08132 24.5833 3.14147C24.5585 3.20163 24.5458 3.26608 24.5459 3.33114L24.5518 6.72348C24.552 6.85488 24.6045 6.9808 24.6975 7.07355C24.7906 7.1663 24.9167 7.21828 25.0481 7.21806L25.0764 7.21801C25.1415 7.21789 25.2059 7.20496 25.266 7.17996C25.326 7.15496 25.3806 7.11837 25.4265 7.07228C25.4724 7.02619 25.5088 6.97151 25.5336 6.91136C25.5584 6.85121 25.5711 6.78676 25.571 6.72169L25.5651 3.32936Z" stroke="#A7A7A7" stroke-width="0.166536"/>
<path d="M1.52891 29.3057C1.555 29.3257 1.58498 29.3357 1.61884 29.3357C8.54119 29.3357 15.6687 29.3357 23.0012 29.3357C23.6691 29.3357 24.2403 29.2391 24.7166 28.7087C24.799 28.6171 24.9514 28.5779 25.0555 28.5013C26.3783 27.5232 27.7114 26.5429 29.0548 25.5603C29.6211 25.1456 30.1923 24.7188 30.7685 24.2797C30.8584 24.2114 30.8959 24.1098 30.9916 24.0407C31.2548 23.8497 31.4196 23.5824 31.4863 23.2388C31.5362 22.9834 31.5606 22.7092 31.5595 22.4161C31.5468 17.9102 31.5457 12.7357 31.5562 6.89246C31.5568 6.63044 31.5321 6.3812 31.4821 6.14472C31.2981 5.27706 30.5253 4.68836 29.651 4.68003C28.6413 4.66948 27.6237 4.6681 26.5984 4.67587C26.5943 4.67587 26.5902 4.67669 26.5864 4.67829C26.5826 4.67989 26.5792 4.68223 26.5763 4.68518C26.5735 4.68813 26.5712 4.69163 26.5697 4.69546C26.5682 4.6993 26.5675 4.70339 26.5676 4.70751C26.5726 5.42028 26.5693 6.12973 26.5576 6.83584C26.5543 7.04956 26.5165 7.22331 26.4444 7.3571C26.1346 7.92887 25.683 8.21698 25.0896 8.22142C24.751 8.22419 24.4751 8.15286 24.2619 8.00742C23.9688 7.80758 23.7709 7.56832 23.6682 7.28965C23.5777 7.04318 23.5408 6.65792 23.5575 6.13389C23.5725 5.64261 23.5708 5.16992 23.5525 4.71584C23.5514 4.68752 23.5364 4.67337 23.5075 4.67337L20.3017 4.67254C20.2907 4.67254 20.2801 4.67692 20.2723 4.68473C20.2644 4.69254 20.2601 4.70313 20.2601 4.71417C20.2634 5.38864 20.2623 6.07144 20.2567 6.76256C20.2534 7.17502 20.093 7.53362 19.7754 7.83839C19.5834 8.02324 19.3902 8.13537 19.1959 8.17479C18.4248 8.333 17.8456 8.10679 17.4581 7.49615C17.3157 7.2705 17.2533 7.02736 17.2491 6.76256C17.2408 6.28349 17.2394 5.80554 17.2449 5.32869C17.2474 5.12052 17.2149 4.91901 17.2008 4.71417C17.1991 4.68641 17.1844 4.67254 17.1567 4.67254H14.0774C14.0627 4.67253 14.0485 4.67827 14.0379 4.68853C14.0274 4.69879 14.0212 4.71277 14.0208 4.72749C14.0091 5.19824 14.0086 5.66176 14.0191 6.11807C14.0319 6.68596 14.0008 7.06177 13.9259 7.24552C13.6777 7.85754 13.144 8.23641 12.4795 8.22225C11.8206 8.20726 11.3548 7.87669 11.0823 7.23053C11.0248 7.0948 11.0065 6.9216 11.0032 6.77256C10.9904 6.14638 10.9901 5.45692 11.0023 4.70418C11.0023 4.68308 10.992 4.67254 10.9715 4.67254H7.7915C7.7643 4.67254 7.74987 4.68641 7.7482 4.71417C7.71045 5.34312 7.69769 5.96208 7.7099 6.57105C7.72211 7.15115 7.52088 7.60218 7.1062 7.92415C6.92357 8.06626 6.72456 8.15536 6.50917 8.19144C5.79862 8.30913 5.26237 8.07875 4.90043 7.50032C4.7611 7.27827 4.69143 7.00154 4.69143 6.67014C4.69032 5.98845 4.68949 5.33868 4.68893 4.72083C4.68893 4.70883 4.68422 4.6973 4.67582 4.68874C4.66741 4.68017 4.65597 4.67525 4.64397 4.67503C3.62643 4.66837 2.64304 4.66921 1.69378 4.67753C1.15032 4.68253 0.690678 4.83879 0.314862 5.14633C-0.219719 5.58349 -0.439546 6.17469 -0.437881 6.85582C-0.423448 13.6133 -0.424281 20.209 -0.440379 26.6428C-0.442044 27.2101 -0.402631 27.6082 -0.322139 27.8369C-0.0795509 28.5285 0.408954 29.0021 1.14338 29.2574C1.2433 29.2918 1.35072 29.3024 1.46563 29.2891C1.48807 29.2864 1.51069 29.2923 1.52891 29.3057Z" stroke="#A7A7A7" stroke-width="0.166536"/>
<path d="M6.83241 28.3124C12.2973 28.3024 17.7355 28.2982 23.2346 28.3016C23.269 28.3016 23.2859 28.2846 23.2853 28.2508C23.2778 27.6171 23.2787 26.9743 23.3028 26.3348C23.3278 25.657 23.2304 24.9209 23.3336 24.2964C23.4477 23.6003 24.0123 23.0574 24.6801 22.8317C24.9582 22.7384 25.258 22.7668 25.5469 22.7534C25.7873 22.7429 26.0174 22.7382 26.2372 22.7393C27.63 22.7443 29.0444 22.7418 30.4805 22.7318C30.5172 22.7312 30.5355 22.7126 30.5355 22.676L30.5338 10.5846C30.5338 10.5508 30.5169 10.5339 30.483 10.5339L0.631437 10.533C0.605901 10.533 0.593134 10.5458 0.593134 10.5713C0.580922 16.7265 0.584252 22.2663 0.603126 27.1908C0.603681 27.2552 0.605902 27.3218 0.609788 27.3906C0.627274 27.7054 0.955349 28.0459 1.20599 28.1933C1.31534 28.2583 1.47189 28.2916 1.67562 28.2933C3.34931 28.3094 5.06824 28.3157 6.83241 28.3124Z" stroke="#A7A7A7" stroke-width="0.166536"/>
<path d="M24.3587 27.6687L29.767 23.8317C29.8275 23.7884 29.8211 23.7615 29.7478 23.751C29.6224 23.7321 29.4814 23.7268 29.3248 23.7351C28.9235 23.7568 28.5324 23.7635 28.1516 23.7551C27.1315 23.7335 26.2597 23.761 25.2963 23.7643C24.7817 23.7668 24.3096 24.1365 24.3063 24.6802C24.3013 25.6356 24.3004 26.6223 24.3038 27.6404C24.3038 27.6854 24.3221 27.6948 24.3587 27.6687Z" stroke="#A7A7A7" stroke-width="0.166536"/>
<path d="M16.7925 14.6722C16.8575 14.9547 16.9341 15.1829 17.0223 15.3566C17.1489 15.6056 17.3571 15.7563 17.5378 15.9553C17.656 16.0858 17.8101 16.1979 17.9999 16.2917C18.3585 16.4694 18.6463 16.5671 18.8634 16.5848C19.1027 16.6043 19.381 16.6043 19.6986 16.5848C19.8418 16.5757 19.9684 16.5066 20.1074 16.4799C20.194 16.4633 20.277 16.4344 20.3564 16.3933C21.3523 15.8765 21.8416 15.0652 21.8244 13.9594C21.8222 13.8384 21.8097 13.7224 21.7869 13.6113C21.7658 13.507 21.745 13.4018 21.7245 13.2957C21.7023 13.1814 21.6618 13.0767 21.6029 12.9818C21.5122 12.8361 21.4763 12.6313 21.3564 12.5147C21.1899 12.3531 21.0264 12.1897 20.866 12.0242C20.7686 11.9235 20.6512 11.8769 20.5363 11.7994C20.4519 11.7422 20.3631 11.7006 20.2698 11.6745C20.0408 11.6112 19.8285 11.4947 19.5837 11.4955C19.3527 11.4972 19.1254 11.4988 18.9017 11.5005C18.7202 11.5013 18.5486 11.5738 18.3721 11.6187C18.2666 11.6454 18.1576 11.6906 18.0449 11.7545C17.487 12.0709 17.094 12.5016 16.8658 13.0468C16.8447 13.0967 16.8297 13.1478 16.8208 13.2C16.7975 13.3282 16.7442 13.434 16.7426 13.5647C16.7415 13.6935 16.727 13.817 16.6993 13.9352C16.6401 14.1892 16.7359 14.4257 16.7925 14.6722Z" stroke="#4B41D9" stroke-width="0.166536"/>
<path d="M6.83498 12.5842C6.835 12.5774 6.83367 12.5707 6.83109 12.5644C6.82851 12.5582 6.82471 12.5525 6.81993 12.5477C6.81514 12.5429 6.80946 12.539 6.8032 12.5364C6.79694 12.5338 6.79023 12.5325 6.78345 12.5325L2.65669 12.5253C2.64991 12.5253 2.6432 12.5266 2.63693 12.5292C2.63066 12.5317 2.62496 12.5355 2.62016 12.5403C2.61536 12.5451 2.61154 12.5508 2.60894 12.5571C2.60633 12.5633 2.60499 12.57 2.60497 12.5768L2.60059 15.0915C2.60057 15.0983 2.6019 15.105 2.60448 15.1113C2.60706 15.1175 2.61086 15.1232 2.61564 15.128C2.62043 15.1328 2.62611 15.1366 2.63237 15.1392C2.63863 15.1418 2.64534 15.1432 2.65212 15.1432L6.77888 15.1504C6.78566 15.1504 6.79237 15.1491 6.79864 15.1465C6.80491 15.1439 6.81061 15.1401 6.81541 15.1354C6.82021 15.1306 6.82402 15.1249 6.82663 15.1186C6.82924 15.1124 6.83058 15.1057 6.83059 15.0989L6.83498 12.5842Z" stroke="#A7A7A7" stroke-width="0.166536"/>
<path d="M14.0329 12.5613C14.0329 12.5571 14.032 12.5529 14.0304 12.5489C14.0288 12.545 14.0264 12.5414 14.0234 12.5384C14.0204 12.5354 14.0168 12.533 14.0128 12.5313C14.0089 12.5297 14.0047 12.5289 14.0004 12.5289H9.88697C9.87835 12.5289 9.8701 12.5323 9.864 12.5384C9.85791 12.5445 9.85449 12.5527 9.85449 12.5613V15.1193C9.85449 15.1279 9.85791 15.1362 9.864 15.1423C9.8701 15.1484 9.87835 15.1518 9.88697 15.1518H14.0004C14.0047 15.1518 14.0089 15.151 14.0128 15.1493C14.0168 15.1477 14.0204 15.1453 14.0234 15.1423C14.0264 15.1393 14.0288 15.1357 14.0304 15.1318C14.032 15.1278 14.0329 15.1236 14.0329 15.1193V12.5613Z" stroke="#A7A7A7" stroke-width="0.166536"/>
<path d="M28.54 12.5763C28.54 12.5635 28.535 12.5512 28.5259 12.5422C28.5168 12.5331 28.5046 12.528 28.4917 12.528H24.3383C24.3255 12.528 24.3132 12.5331 24.3042 12.5422C24.2951 12.5512 24.29 12.5635 24.29 12.5763V15.1027C24.29 15.1155 24.2951 15.1278 24.3042 15.1368C24.3132 15.1459 24.3255 15.151 24.3383 15.151H28.4917C28.5046 15.151 28.5168 15.1459 28.5259 15.1368C28.535 15.1278 28.54 15.1155 28.54 15.1027V12.5763Z" stroke="#A7A7A7" stroke-width="0.166536"/>
<path d="M21.281 18.2152C21.281 18.2048 21.2769 18.1949 21.2696 18.1875C21.2622 18.1802 21.2523 18.1761 21.2419 18.1761H17.0802C17.0698 18.1761 17.0598 18.1802 17.0525 18.1875C17.0451 18.1949 17.041 18.2048 17.041 18.2152V20.6816C17.041 20.692 17.0451 20.702 17.0525 20.7093C17.0598 20.7166 17.0698 20.7208 17.0802 20.7208H21.2419C21.2523 20.7208 21.2622 20.7166 21.2696 20.7093C21.2769 20.702 21.281 20.692 21.281 20.6816V18.2152Z" stroke="#A7A7A7" stroke-width="0.166536"/>
<path d="M28.5374 18.2061C28.5374 18.1984 28.5343 18.1909 28.5289 18.1855C28.5234 18.18 28.516 18.1769 28.5083 18.1769H24.3182C24.3105 18.1769 24.3031 18.18 24.2976 18.1855C24.2921 18.1909 24.2891 18.1984 24.2891 18.2061V20.6941C24.2891 20.7019 24.2921 20.7093 24.2976 20.7147C24.3031 20.7202 24.3105 20.7233 24.3182 20.7233H28.5083C28.516 20.7233 28.5234 20.7202 28.5289 20.7147C28.5343 20.7093 28.5374 20.7019 28.5374 20.6941V18.2061Z" stroke="#A7A7A7" stroke-width="0.166536"/>
<path d="M6.83422 18.2086C6.83422 18.2002 6.83089 18.1921 6.82495 18.1862C6.81902 18.1803 6.81097 18.1769 6.80258 18.1769H2.63418C2.62579 18.1769 2.61774 18.1803 2.61181 18.1862C2.60587 18.1921 2.60254 18.2002 2.60254 18.2086V20.6916C2.60254 20.7 2.60587 20.7081 2.61181 20.714C2.61774 20.7199 2.62579 20.7233 2.63418 20.7233H6.80258C6.81097 20.7233 6.81902 20.7199 6.82495 20.714C6.83089 20.7081 6.83422 20.7 6.83422 20.6916V18.2086Z" stroke="#A7A7A7" stroke-width="0.166536"/>
<path d="M14.03 18.2127C14.03 18.2033 14.0263 18.1941 14.0196 18.1874C14.0128 18.1807 14.0037 18.1769 13.9942 18.1769H9.82584C9.81635 18.1769 9.80724 18.1807 9.80053 18.1874C9.79381 18.1941 9.79004 18.2033 9.79004 18.2127V20.6875C9.79004 20.697 9.79381 20.7061 9.80053 20.7128C9.80724 20.7195 9.81635 20.7233 9.82584 20.7233H13.9942C14.0037 20.7233 14.0128 20.7195 14.0196 20.7128C14.0263 20.7061 14.03 20.697 14.03 20.6875V18.2127Z" stroke="#A7A7A7" stroke-width="0.166536"/>
<path d="M11.2541 27.4222C11.55 27.536 11.8495 27.5721 12.1526 27.5305C13.0924 27.4011 13.7675 26.9731 14.1777 26.2465C14.2787 26.0677 14.3553 25.8787 14.4075 25.6794C14.4725 25.4341 14.5066 25.2234 14.5099 25.0474C14.5216 24.4718 14.3786 23.9641 14.0811 23.5245C13.9956 23.3979 13.8768 23.2536 13.7247 23.0915C13.6276 22.9882 13.5043 22.8952 13.355 22.8125C13.219 22.737 13.0844 22.6585 12.9511 22.5769C12.8052 22.4869 12.6009 22.4386 12.3383 22.432C12.1293 22.4262 11.7629 22.3038 11.5747 22.4045C11.4648 22.4628 11.3416 22.4228 11.21 22.4678C10.9119 22.5699 10.6507 22.7101 10.4265 22.8883C10.1883 23.077 9.96294 23.3199 9.75032 23.6169C9.63097 23.784 9.5416 23.9652 9.4822 24.1606C9.39893 24.4315 9.35869 24.6552 9.36146 24.8318C9.36646 25.1382 9.41309 25.4613 9.50135 25.801C9.55548 26.0092 9.68954 26.1765 9.78613 26.3664C9.97598 26.7361 10.3873 27.04 10.7362 27.2357C10.9028 27.3298 11.0768 27.3548 11.2541 27.4222Z" stroke="#4B41D9" stroke-width="0.166536"/>
<path d="M6.83187 23.7658C6.83187 23.76 6.82959 23.7545 6.82553 23.7505C6.82147 23.7464 6.81596 23.7441 6.81022 23.7441H2.62516C2.61942 23.7441 2.61392 23.7464 2.60986 23.7505C2.6058 23.7545 2.60352 23.76 2.60352 23.7658V26.2772C2.60352 26.2829 2.6058 26.2884 2.60986 26.2925C2.61392 26.2965 2.61942 26.2988 2.62516 26.2988H6.81022C6.81596 26.2988 6.82147 26.2965 6.82553 26.2925C6.82959 26.2884 6.83187 26.2829 6.83187 26.2772V23.7658Z" stroke="#A7A7A7" stroke-width="0.166536"/>
<path d="M21.2814 23.8009C21.2814 23.7864 21.2756 23.7724 21.2653 23.7621C21.255 23.7518 21.241 23.746 21.2265 23.746H17.093C17.0785 23.746 17.0645 23.7518 17.0542 23.7621C17.0439 23.7724 17.0381 23.7864 17.0381 23.8009V26.244C17.0381 26.2586 17.0439 26.2726 17.0542 26.2829C17.0645 26.2932 17.0785 26.299 17.093 26.299H21.2265C21.241 26.299 21.255 26.2932 21.2653 26.2829C21.2756 26.2726 21.2814 26.2586 21.2814 26.244V23.8009Z" stroke="#A7A7A7" stroke-width="0.166536"/>
<path d="M18.7672 14.6604C18.7456 14.6099 18.712 14.5722 18.6665 14.5472C18.415 14.4101 18.1602 14.2183 17.9021 13.9718C17.8193 13.893 17.7352 13.8916 17.6498 13.9676L17.5648 14.0434C17.481 14.1184 17.4865 14.1853 17.5815 14.2441C17.8663 14.4212 18.1102 14.6108 18.3134 14.8128C18.3656 14.8644 18.428 14.9019 18.5008 14.9252C18.5307 14.9347 18.556 14.9516 18.5765 14.976C18.6531 15.0698 18.7433 15.1439 18.8472 15.1983C18.9354 15.245 18.9954 15.3307 19.0445 15.4148C19.0523 15.4283 19.0631 15.4399 19.076 15.4485C19.0889 15.4572 19.1036 15.4628 19.119 15.4649C19.1344 15.467 19.15 15.4655 19.1647 15.4606C19.1793 15.4557 19.1926 15.4474 19.2035 15.4365L21.0354 13.6088C21.0452 13.599 21.0526 13.5871 21.0569 13.574C21.0612 13.5609 21.0624 13.5469 21.0603 13.5333C21.0582 13.5196 21.0529 13.5067 21.0448 13.4955C21.0367 13.4843 21.0261 13.4752 21.0138 13.4689C20.9455 13.4339 20.8886 13.3906 20.8431 13.339C20.7987 13.2879 20.7523 13.2862 20.704 13.334L19.1519 14.8878C19.1421 14.8976 19.1302 14.9052 19.1171 14.9099C19.104 14.9146 19.09 14.9163 19.0761 14.915C19.0623 14.9136 19.0489 14.9092 19.0369 14.9021C19.025 14.8949 19.0148 14.8852 19.007 14.8736C18.9609 14.8059 18.9004 14.7548 18.8255 14.7204C18.7983 14.7076 18.7789 14.6876 18.7672 14.6604Z" stroke="#4B41D9" stroke-width="0.166536"/>
<path d="M11.779 25.8434C11.709 25.7777 11.6449 25.6944 11.5641 25.6428C11.3149 25.484 11.092 25.3147 10.8955 25.1348C10.7556 25.0066 10.5924 24.9558 10.4792 24.7943C10.4739 24.787 10.4669 24.7811 10.4589 24.777C10.4508 24.773 10.4419 24.771 10.4329 24.7712C10.4239 24.7713 10.4151 24.7737 10.4072 24.778C10.3993 24.7823 10.3926 24.7884 10.3876 24.7959L10.2369 25.0257C10.2302 25.0357 10.2261 25.0472 10.225 25.0593C10.2238 25.0713 10.2256 25.0835 10.2302 25.0949C10.2513 25.1437 10.2899 25.1745 10.3459 25.1873C10.3759 25.1939 10.3992 25.2106 10.4159 25.2372C10.5175 25.4046 10.679 25.4363 10.8181 25.5545C11.1328 25.821 11.4526 26.1224 11.8073 26.3206C11.8423 26.34 11.8739 26.3355 11.9022 26.3072L13.6575 24.5486C13.7047 24.5014 13.7041 24.4545 13.6558 24.4079L13.5351 24.2922C13.4813 24.2405 13.428 24.2411 13.3752 24.2938L11.8289 25.8418C11.8224 25.8483 11.8136 25.8521 11.8043 25.8524C11.795 25.8528 11.786 25.8495 11.779 25.8434Z" stroke="#4B41D9" stroke-width="0.166536"/>
<path d="M6.22889 2.8382H6.1706C5.90433 2.8382 5.68848 3.05405 5.68848 3.32032V6.72431C5.68848 6.99058 5.90433 7.20644 6.1706 7.20644H6.22889C6.49516 7.20644 6.71101 6.99058 6.71101 6.72431V3.32032C6.71101 3.05405 6.49516 2.8382 6.22889 2.8382Z" fill="#4B41D9"/>
<path d="M12.5874 7.21724C12.5484 7.22823 12.5077 7.23134 12.4675 7.2264C12.1303 7.18393 11.9896 6.94329 11.9912 6.6327C11.9946 5.74673 11.9959 4.81746 11.9954 3.84489C11.9946 3.58925 12.0362 3.35028 12.0653 3.10547C12.0781 3.00388 12.1386 2.93394 12.2469 2.89563C12.6382 2.75741 13.0171 2.8998 13.0171 3.36526C13.0176 4.47717 13.0185 5.56243 13.0196 6.62104C13.0196 6.91581 12.8847 7.13314 12.5874 7.21724Z" fill="#4B41D9"/>
<path d="M19.2491 6.82167C19.1591 7.15225 18.7453 7.35209 18.4447 7.11727C18.2931 6.99903 18.2324 6.83166 18.2365 6.64098C18.2449 6.26294 18.2199 5.88158 18.2673 5.50604C18.2956 5.27872 18.2399 5.06222 18.2407 4.83406C18.2424 4.31669 18.2429 3.81597 18.2424 3.33191C18.2415 2.89309 18.6395 2.74903 19.0167 2.9189C19.1608 2.98468 19.2424 3.06878 19.2341 3.23782C19.2158 3.58532 19.2166 3.92977 19.2366 4.27117C19.2832 5.06888 19.2715 5.85243 19.2724 6.64681C19.2724 6.70621 19.2646 6.76449 19.2491 6.82167Z" fill="#4B41D9"/>
<path d="M25.0687 2.83484L25.0404 2.83489C24.7667 2.83537 24.5453 3.05757 24.5458 3.3312L24.5517 6.72353C24.5522 6.99716 24.7744 7.21859 25.048 7.21811L25.0763 7.21806C25.35 7.21758 25.5714 6.99538 25.5709 6.72175L25.565 3.32942C25.5645 3.05579 25.3423 2.83436 25.0687 2.83484Z" fill="#4B41D9"/>
<path d="M1.46563 29.2891C1.35072 29.3024 1.2433 29.2918 1.14338 29.2574C0.408954 29.0021 -0.0795509 28.5285 -0.322139 27.8369C-0.402631 27.6082 -0.442044 27.2101 -0.440379 26.6428C-0.424281 20.209 -0.423448 13.6133 -0.437881 6.85582C-0.439546 6.17469 -0.219719 5.58349 0.314862 5.14633C0.690678 4.83879 1.15032 4.68253 1.69378 4.67753C2.64304 4.66921 3.62643 4.66837 4.64397 4.67503C4.65597 4.67525 4.66741 4.68017 4.67582 4.68874C4.68422 4.6973 4.68893 4.70883 4.68893 4.72083C4.68949 5.33868 4.69032 5.98845 4.69143 6.67014C4.69143 7.00154 4.7611 7.27827 4.90043 7.50032C5.26237 8.07875 5.79862 8.30913 6.50917 8.19144C6.72456 8.15536 6.92357 8.06626 7.1062 7.92415C7.52088 7.60218 7.72211 7.15115 7.7099 6.57105C7.69769 5.96208 7.71045 5.34312 7.7482 4.71417C7.74987 4.68641 7.7643 4.67254 7.7915 4.67254H10.9715C10.992 4.67254 11.0023 4.68308 11.0023 4.70418C10.9901 5.45692 10.9904 6.14638 11.0031 6.77256C11.0065 6.9216 11.0248 7.0948 11.0823 7.23053C11.3548 7.87669 11.8206 8.20726 12.4795 8.22225C13.144 8.23641 13.6777 7.85754 13.9259 7.24552C14.0008 7.06177 14.0319 6.68596 14.0191 6.11807C14.0086 5.66176 14.0091 5.19824 14.0208 4.72749C14.0212 4.71277 14.0274 4.69879 14.0379 4.68853C14.0485 4.67827 14.0627 4.67253 14.0774 4.67254H17.1567C17.1844 4.67254 17.1991 4.68641 17.2008 4.71417C17.2149 4.91901 17.2474 5.12052 17.2449 5.32869C17.2394 5.80554 17.2408 6.28349 17.2491 6.76256C17.2533 7.02736 17.3157 7.2705 17.4581 7.49615C17.8456 8.10679 18.4248 8.333 19.1959 8.17479C19.3902 8.13537 19.5834 8.02324 19.7754 7.83839C20.093 7.53362 20.2534 7.17502 20.2567 6.76256C20.2623 6.07144 20.2634 5.38864 20.2601 4.71417C20.2601 4.70313 20.2644 4.69254 20.2723 4.68473C20.2801 4.67692 20.2907 4.67254 20.3017 4.67254L23.5075 4.67337C23.5364 4.67337 23.5514 4.68752 23.5525 4.71584C23.5708 5.16992 23.5725 5.64261 23.5575 6.13389C23.5408 6.65792 23.5777 7.04318 23.6682 7.28965C23.7709 7.56832 23.9688 7.80758 24.2619 8.00742C24.4751 8.15286 24.751 8.22419 25.0896 8.22142C25.683 8.21698 26.1346 7.92887 26.4444 7.3571C26.5165 7.22331 26.5543 7.04956 26.5576 6.83584C26.5693 6.12973 26.5726 5.42028 26.5676 4.70751C26.5675 4.70339 26.5682 4.6993 26.5697 4.69546C26.5712 4.69163 26.5735 4.68813 26.5763 4.68518C26.5792 4.68223 26.5826 4.67989 26.5864 4.67829C26.5902 4.67669 26.5943 4.67587 26.5984 4.67587C27.6237 4.6681 28.6413 4.66948 29.651 4.68003C30.5253 4.68836 31.2981 5.27706 31.4821 6.14472C31.5321 6.3812 31.5568 6.63044 31.5562 6.89246C31.5457 12.7357 31.5468 17.9102 31.5595 22.4161C31.5606 22.7092 31.5362 22.9834 31.4863 23.2388C31.4196 23.5824 31.2548 23.8497 30.9916 24.0407C30.8959 24.1098 30.8584 24.2114 30.7685 24.2796C30.1923 24.7188 29.6211 25.1456 29.0548 25.5603C27.7114 26.5429 26.3783 27.5232 25.0555 28.5013C24.9514 28.5779 24.799 28.6171 24.7166 28.7087C24.2403 29.2391 23.6691 29.3357 23.0012 29.3357C15.6687 29.3357 8.54119 29.3357 1.61884 29.3357C1.58498 29.3357 1.555 29.3257 1.52891 29.3057C1.51069 29.2923 1.48807 29.2864 1.46563 29.2891ZM6.83225 28.3123C12.2971 28.3023 17.7354 28.2982 23.2344 28.3015C23.2688 28.3015 23.2857 28.2846 23.2852 28.2507C23.2777 27.617 23.2785 26.9742 23.3027 26.3347C23.3277 25.6569 23.2302 24.9208 23.3335 24.2963C23.4476 23.6002 24.0121 23.0573 24.6799 22.8316C24.958 22.7384 25.2578 22.7667 25.5468 22.7533C25.7871 22.7428 26.0172 22.7381 26.237 22.7392C27.6298 22.7442 29.0443 22.7417 30.4804 22.7317C30.517 22.7311 30.5353 22.7125 30.5353 22.6759L30.5337 10.5846C30.5337 10.5507 30.5167 10.5338 30.4829 10.5338L0.631281 10.5329C0.605745 10.5329 0.592978 10.5457 0.592978 10.5712C0.580765 16.7264 0.584096 22.2662 0.60297 27.1907C0.603525 27.2551 0.605745 27.3217 0.609631 27.3905C0.627118 27.7053 0.955193 28.0459 1.20583 28.1932C1.31519 28.2582 1.47173 28.2915 1.67546 28.2932C3.34915 28.3093 5.06808 28.3157 6.83225 28.3123ZM24.3585 27.6687L29.7668 23.8317C29.8273 23.7884 29.8209 23.7614 29.7476 23.7509C29.6222 23.732 29.4812 23.7268 29.3246 23.7351C28.9233 23.7567 28.5322 23.7634 28.1514 23.7551C27.1313 23.7334 26.2595 23.7609 25.2961 23.7642C24.7815 23.7667 24.3094 24.1364 24.3061 24.6802C24.3011 25.6355 24.3002 26.6223 24.3036 27.6403C24.3036 27.6853 24.3219 27.6948 24.3585 27.6687Z" fill="#4B41D9"/>
<path d="M23.2346 28.3016C17.7355 28.2982 12.2973 28.3024 6.83241 28.3124C5.06824 28.3157 3.34931 28.3094 1.67562 28.2933C1.47189 28.2916 1.31534 28.2583 1.20599 28.1933C0.955349 28.0459 0.627274 27.7054 0.609788 27.3906C0.605902 27.3218 0.603681 27.2552 0.603126 27.1908C0.584252 22.2663 0.580922 16.7265 0.593134 10.5713C0.593134 10.5458 0.605901 10.533 0.631437 10.533L30.483 10.5339C30.5169 10.5339 30.5338 10.5508 30.5338 10.5846L30.5355 22.676C30.5355 22.7126 30.5172 22.7312 30.4805 22.7318C29.0444 22.7418 27.63 22.7443 26.2372 22.7393C26.0174 22.7382 25.7873 22.7429 25.5469 22.7534C25.258 22.7668 24.9582 22.7384 24.6801 22.8317C24.0123 23.0574 23.4477 23.6003 23.3336 24.2964C23.2304 24.9209 23.3278 25.657 23.3028 26.3348C23.2787 26.9743 23.2778 27.6171 23.2853 28.2508C23.2859 28.2846 23.269 28.3016 23.2346 28.3016ZM16.7929 14.6723C16.8579 14.9548 16.9345 15.183 17.0228 15.3567C17.1493 15.6057 17.3575 15.7564 17.5382 15.9554C17.6564 16.0859 17.8105 16.198 18.0003 16.2918C18.3589 16.4695 18.6468 16.5672 18.8638 16.5849C19.1031 16.6044 19.3815 16.6044 19.699 16.5849C19.8422 16.5758 19.9688 16.5067 20.1078 16.48C20.1944 16.4634 20.2774 16.4345 20.3568 16.3934C21.3527 15.8766 21.842 15.0653 21.8248 13.9595C21.8226 13.8385 21.8101 13.7225 21.7874 13.6114C21.7663 13.5071 21.7454 13.4019 21.7249 13.2959C21.7027 13.1815 21.6622 13.0769 21.6033 12.9819C21.5126 12.8362 21.4768 12.6314 21.3569 12.5148C21.1903 12.3533 21.0268 12.1898 20.8664 12.0244C20.769 11.9236 20.6516 11.877 20.5367 11.7995C20.4523 11.7423 20.3635 11.7007 20.2702 11.6746C20.0412 11.6113 19.8289 11.4948 19.5841 11.4956C19.3531 11.4973 19.1258 11.4989 18.9021 11.5006C18.7206 11.5014 18.5491 11.5739 18.3725 11.6188C18.2671 11.6455 18.158 11.6907 18.0453 11.7546C17.4874 12.071 17.0944 12.5018 16.8662 13.0469C16.8451 13.0968 16.8301 13.1479 16.8212 13.2001C16.7979 13.3283 16.7446 13.4341 16.743 13.5648C16.7419 13.6936 16.7274 13.8171 16.6997 13.9354C16.6406 14.1893 16.7363 14.4258 16.7929 14.6723ZM6.83543 12.5843C6.83544 12.5775 6.83412 12.5708 6.83154 12.5645C6.82895 12.5582 6.82516 12.5525 6.82038 12.5477C6.81559 12.5429 6.80991 12.5391 6.80365 12.5365C6.79739 12.5339 6.79068 12.5326 6.7839 12.5326L2.65714 12.5254C2.65036 12.5253 2.64364 12.5267 2.63738 12.5293C2.63111 12.5318 2.62541 12.5356 2.62061 12.5404C2.61581 12.5452 2.61199 12.5509 2.60939 12.5571C2.60678 12.5634 2.60544 12.5701 2.60542 12.5769L2.60103 15.0916C2.60102 15.0984 2.60235 15.1051 2.60493 15.1113C2.60751 15.1176 2.61131 15.1233 2.61609 15.1281C2.62088 15.1329 2.62656 15.1367 2.63282 15.1393C2.63908 15.1419 2.64579 15.1433 2.65257 15.1433L6.77933 15.1505C6.78611 15.1505 6.79282 15.1492 6.79909 15.1466C6.80536 15.144 6.81106 15.1402 6.81586 15.1354C6.82066 15.1307 6.82447 15.125 6.82708 15.1187C6.82968 15.1125 6.83103 15.1057 6.83104 15.099L6.83543 12.5843ZM14.0326 12.5614C14.0326 12.5572 14.0318 12.5529 14.0301 12.549C14.0285 12.5451 14.0261 12.5415 14.0231 12.5385C14.0201 12.5354 14.0165 12.5331 14.0126 12.5314C14.0086 12.5298 14.0044 12.529 14.0001 12.529H9.88668C9.87807 12.529 9.86981 12.5324 9.86372 12.5385C9.85763 12.5446 9.85421 12.5528 9.85421 12.5614V15.1194C9.85421 15.128 9.85763 15.1363 9.86372 15.1424C9.86981 15.1485 9.87807 15.1519 9.88668 15.1519H14.0001C14.0044 15.1519 14.0086 15.1511 14.0126 15.1494C14.0165 15.1478 14.0201 15.1454 14.0231 15.1424C14.0261 15.1394 14.0285 15.1358 14.0301 15.1318C14.0318 15.1279 14.0326 15.1237 14.0326 15.1194V12.5614ZM28.5404 12.5764C28.5404 12.5636 28.5353 12.5513 28.5262 12.5423C28.5172 12.5332 28.5049 12.5281 28.4921 12.5281H24.3387C24.3259 12.5281 24.3136 12.5332 24.3045 12.5423C24.2955 12.5513 24.2904 12.5636 24.2904 12.5764V15.1028C24.2904 15.1156 24.2955 15.1279 24.3045 15.1369C24.3136 15.146 24.3259 15.1511 24.3387 15.1511H28.4921C28.5049 15.1511 28.5172 15.146 28.5262 15.1369C28.5353 15.1279 28.5404 15.1156 28.5404 15.1028V12.5764ZM21.2811 18.2153C21.2811 18.2049 21.277 18.195 21.2696 18.1877C21.2623 18.1803 21.2523 18.1762 21.2419 18.1762H17.0802C17.0698 18.1762 17.0599 18.1803 17.0525 18.1877C17.0452 18.195 17.0411 18.2049 17.0411 18.2153V20.6817C17.0411 20.6921 17.0452 20.7021 17.0525 20.7094C17.0599 20.7167 17.0698 20.7209 17.0802 20.7209H21.2419C21.2523 20.7209 21.2623 20.7167 21.2696 20.7094C21.277 20.7021 21.2811 20.6921 21.2811 20.6817V18.2153ZM28.5379 18.2062C28.5379 18.1984 28.5348 18.191 28.5294 18.1856C28.5239 18.1801 28.5165 18.177 28.5087 18.177H24.3187C24.311 18.177 24.3036 18.1801 24.2981 18.1856C24.2926 18.191 24.2896 18.1984 24.2896 18.2062V20.6942C24.2896 20.7019 24.2926 20.7094 24.2981 20.7148C24.3036 20.7203 24.311 20.7234 24.3187 20.7234H28.5087C28.5165 20.7234 28.5239 20.7203 28.5294 20.7148C28.5348 20.7094 28.5379 20.7019 28.5379 20.6942V18.2062ZM6.83407 18.2087C6.83407 18.2003 6.83074 18.1922 6.82481 18.1863C6.81887 18.1804 6.81082 18.177 6.80243 18.177H2.63403C2.62564 18.177 2.61759 18.1804 2.61166 18.1863C2.60573 18.1922 2.60239 18.2003 2.60239 18.2087V20.6917C2.60239 20.7001 2.60573 20.7082 2.61166 20.7141C2.61759 20.72 2.62564 20.7234 2.63403 20.7234H6.80243C6.81082 20.7234 6.81887 20.72 6.82481 20.7141C6.83074 20.7082 6.83407 20.7001 6.83407 20.6917V18.2087ZM14.0301 18.2128C14.0301 18.2033 14.0263 18.1942 14.0196 18.1875C14.0129 18.1808 14.0038 18.177 13.9943 18.177H9.8259C9.8164 18.177 9.80729 18.1808 9.80058 18.1875C9.79386 18.1942 9.79009 18.2033 9.79009 18.2128V20.6876C9.79009 20.697 9.79386 20.7062 9.80058 20.7129C9.80729 20.7196 9.8164 20.7234 9.8259 20.7234H13.9943C14.0038 20.7234 14.0129 20.7196 14.0196 20.7129C14.0263 20.7062 14.0301 20.697 14.0301 20.6876V18.2128ZM11.2548 27.4223C11.5507 27.5361 11.8501 27.5722 12.1532 27.5305C13.0931 27.4012 13.7681 26.9732 14.1783 26.2465C14.2793 26.0678 14.356 25.8788 14.4081 25.6795C14.4731 25.4341 14.5072 25.2234 14.5106 25.0475C14.5222 24.4718 14.3793 23.9641 14.0817 23.5245C13.9962 23.3979 13.8774 23.2536 13.7253 23.0915C13.6282 22.9882 13.505 22.8953 13.3556 22.8126C13.2196 22.7371 13.085 22.6585 12.9518 22.5769C12.8058 22.487 12.6015 22.4387 12.3389 22.432C12.1299 22.4262 11.7635 22.3038 11.5754 22.4045C11.4654 22.4628 11.3422 22.4229 11.2106 22.4678C10.9125 22.57 10.6514 22.7101 10.4271 22.8883C10.1889 23.0771 9.96357 23.3199 9.75095 23.6169C9.6316 23.784 9.54223 23.9653 9.48283 24.1607C9.39956 24.4316 9.35932 24.6553 9.36209 24.8318C9.36709 25.1382 9.41372 25.4613 9.50198 25.801C9.55611 26.0092 9.69017 26.1766 9.78676 26.3664C9.97661 26.7361 10.388 27.0401 10.7368 27.2357C10.9034 27.3298 11.0774 27.3548 11.2548 27.4223ZM6.83241 23.766C6.83241 23.7602 6.83013 23.7547 6.82607 23.7507C6.82201 23.7466 6.8165 23.7443 6.81076 23.7443H2.62571C2.61996 23.7443 2.61446 23.7466 2.6104 23.7507C2.60634 23.7547 2.60406 23.7602 2.60406 23.766V26.2773C2.60406 26.2831 2.60634 26.2886 2.6104 26.2926C2.61446 26.2967 2.61996 26.299 2.62571 26.299H6.81076C6.8165 26.299 6.82201 26.2967 6.82607 26.2926C6.83013 26.2886 6.83241 26.2831 6.83241 26.2773V23.766ZM21.2819 23.8009C21.2819 23.7864 21.2761 23.7724 21.2658 23.7621C21.2555 23.7518 21.2415 23.746 21.227 23.746H17.0935C17.079 23.746 17.065 23.7518 17.0547 23.7621C17.0444 23.7724 17.0386 23.7864 17.0386 23.8009V26.244C17.0386 26.2586 17.0444 26.2726 17.0547 26.2829C17.065 26.2932 17.079 26.299 17.0935 26.299H21.227C21.2415 26.299 21.2555 26.2932 21.2658 26.2829C21.2761 26.2726 21.2819 26.2586 21.2819 26.244V23.8009Z" fill="white"/>
<path d="M16.7925 14.6723C16.7359 14.4258 16.6401 14.1893 16.6993 13.9354C16.727 13.8171 16.7415 13.6936 16.7426 13.5648C16.7442 13.4341 16.7975 13.3283 16.8208 13.2001C16.8297 13.1479 16.8447 13.0969 16.8658 13.0469C17.094 12.5018 17.487 12.071 18.0449 11.7546C18.1576 11.6907 18.2666 11.6455 18.3721 11.6188C18.5486 11.5739 18.7202 11.5014 18.9017 11.5006C19.1254 11.4989 19.3527 11.4973 19.5837 11.4956C19.8285 11.4948 20.0408 11.6114 20.2698 11.6746C20.3631 11.7007 20.4519 11.7424 20.5363 11.7995C20.6512 11.877 20.7686 11.9236 20.866 12.0244C21.0264 12.1898 21.1899 12.3533 21.3564 12.5148C21.4763 12.6314 21.5122 12.8362 21.6029 12.9819C21.6618 13.0769 21.7023 13.1815 21.7245 13.2959C21.745 13.4019 21.7658 13.5071 21.7869 13.6115C21.8097 13.7225 21.8222 13.8385 21.8244 13.9595C21.8416 15.0653 21.3523 15.8766 20.3564 16.3934C20.277 16.4345 20.194 16.4634 20.1074 16.48C19.9684 16.5067 19.8418 16.5758 19.6986 16.5849C19.381 16.6044 19.1027 16.6044 18.8634 16.5849C18.6463 16.5672 18.3585 16.4695 17.9999 16.2918C17.8101 16.198 17.656 16.0859 17.5378 15.9554C17.3571 15.7564 17.1489 15.6057 17.0223 15.3567C16.9341 15.183 16.8575 14.9548 16.7925 14.6723ZM18.7668 14.6606C18.7452 14.6101 18.7116 14.5724 18.6661 14.5474C18.4146 14.4103 18.1598 14.2185 17.9017 13.972C17.8189 13.8932 17.7348 13.8918 17.6494 13.9678L17.5644 14.0436C17.4806 14.1186 17.4861 14.1854 17.5811 14.2443C17.8658 14.4214 18.1098 14.6109 18.313 14.813C18.3652 14.8646 18.4276 14.9021 18.5004 14.9254C18.5303 14.9349 18.5556 14.9518 18.5761 14.9762C18.6527 15.07 18.7429 15.1441 18.8467 15.1985C18.935 15.2452 18.995 15.3309 19.0441 15.415C19.0519 15.4285 19.0627 15.44 19.0756 15.4487C19.0885 15.4574 19.1032 15.463 19.1186 15.4651C19.134 15.4672 19.1496 15.4657 19.1642 15.4608C19.1789 15.4559 19.1922 15.4476 19.2031 15.4367L21.035 13.609C21.0448 13.5992 21.0522 13.5873 21.0565 13.5742C21.0608 13.5611 21.062 13.5471 21.0599 13.5335C21.0578 13.5198 21.0525 13.5069 21.0444 13.4957C21.0363 13.4845 21.0257 13.4754 21.0134 13.4691C20.9451 13.4341 20.8882 13.3908 20.8427 13.3392C20.7983 13.2881 20.7519 13.2864 20.7036 13.3342L19.1515 14.8879C19.1417 14.8978 19.1298 14.9054 19.1167 14.9101C19.1036 14.9148 19.0896 14.9165 19.0757 14.9152C19.0619 14.9138 19.0485 14.9094 19.0365 14.9022C19.0246 14.8951 19.0144 14.8854 19.0066 14.8738C18.9605 14.8061 18.9 14.755 18.8251 14.7206C18.7979 14.7078 18.7785 14.6878 18.7668 14.6606Z" fill="#4B41D9"/>
<path d="M6.78385 12.5326L2.65709 12.5254C2.62858 12.5253 2.60543 12.5484 2.60538 12.5769L2.60099 15.0916C2.60094 15.1201 2.62401 15.1433 2.65253 15.1433L6.77928 15.1505C6.8078 15.1506 6.83095 15.1275 6.831 15.099L6.83539 12.5843C6.83544 12.5558 6.81237 12.5326 6.78385 12.5326Z" fill="#4B41D9"/>
<path d="M14.0004 12.529H9.88697C9.86903 12.529 9.85449 12.5435 9.85449 12.5615V15.1195C9.85449 15.1374 9.86903 15.1519 9.88697 15.1519H14.0004C14.0183 15.1519 14.0329 15.1374 14.0329 15.1195V12.5615C14.0329 12.5435 14.0183 12.529 14.0004 12.529Z" fill="#4B41D9"/>
<path d="M28.4917 12.528H24.3383C24.3117 12.528 24.29 12.5496 24.29 12.5763V15.1027C24.29 15.1293 24.3117 15.151 24.3383 15.151H28.4917C28.5184 15.151 28.54 15.1293 28.54 15.1027V12.5763C28.54 12.5496 28.5184 12.528 28.4917 12.528Z" fill="#4B41D9"/>
<path d="M18.8255 14.7206C18.9004 14.755 18.9609 14.8061 19.007 14.8738C19.0148 14.8854 19.025 14.8951 19.0369 14.9022C19.0489 14.9094 19.0623 14.9138 19.0761 14.9152C19.09 14.9165 19.104 14.9148 19.1171 14.9101C19.1302 14.9054 19.1421 14.8978 19.1519 14.8879L20.704 13.3342C20.7523 13.2864 20.7987 13.2881 20.8431 13.3392C20.8886 13.3908 20.9455 13.4341 21.0138 13.4691C21.0261 13.4754 21.0367 13.4845 21.0448 13.4957C21.0529 13.5069 21.0582 13.5198 21.0603 13.5335C21.0624 13.5471 21.0612 13.5611 21.0569 13.5742C21.0526 13.5873 21.0452 13.5992 21.0354 13.6089L19.2035 15.4367C19.1926 15.4476 19.1793 15.4559 19.1647 15.4608C19.15 15.4657 19.1344 15.4672 19.119 15.4651C19.1036 15.463 19.0889 15.4574 19.076 15.4487C19.0631 15.44 19.0523 15.4285 19.0445 15.415C18.9954 15.3309 18.9354 15.2452 18.8472 15.1985C18.7433 15.1441 18.6531 15.07 18.5765 14.9762C18.556 14.9518 18.5307 14.9348 18.5008 14.9254C18.428 14.9021 18.3656 14.8646 18.3134 14.813C18.1102 14.6109 17.8663 14.4214 17.5815 14.2443C17.4865 14.1854 17.481 14.1185 17.5648 14.0436L17.6498 13.9678C17.7352 13.8918 17.8193 13.8932 17.9021 13.972C18.1602 14.2185 18.415 14.4103 18.6665 14.5474C18.712 14.5724 18.7456 14.6101 18.7672 14.6606C18.7789 14.6878 18.7983 14.7078 18.8255 14.7206Z" fill="white"/>
<path d="M21.2419 18.1761H17.0802C17.0585 18.1761 17.041 18.1936 17.041 18.2152V20.6816C17.041 20.7032 17.0585 20.7208 17.0802 20.7208H21.2419C21.2635 20.7208 21.281 20.7032 21.281 20.6816V18.2152C21.281 18.1936 21.2635 18.1761 21.2419 18.1761Z" fill="#4B41D9"/>
<path d="M28.5083 18.1771H24.3182C24.3021 18.1771 24.2891 18.1901 24.2891 18.2062V20.6943C24.2891 20.7104 24.3021 20.7234 24.3182 20.7234H28.5083C28.5244 20.7234 28.5374 20.7104 28.5374 20.6943V18.2062C28.5374 18.1901 28.5244 18.1771 28.5083 18.1771Z" fill="#4B41D9"/>
<path d="M6.80258 18.1771H2.63418C2.61671 18.1771 2.60254 18.1912 2.60254 18.2087V20.6918C2.60254 20.7092 2.61671 20.7234 2.63418 20.7234H6.80258C6.82006 20.7234 6.83422 20.7092 6.83422 20.6918V18.2087C6.83422 18.1912 6.82006 18.1771 6.80258 18.1771Z" fill="#4B41D9"/>
<path d="M13.9942 18.1771H9.82584C9.80607 18.1771 9.79004 18.1931 9.79004 18.2129V20.6876C9.79004 20.7074 9.80607 20.7234 9.82584 20.7234H13.9942C14.014 20.7234 14.03 20.7074 14.03 20.6876V18.2129C14.03 18.1931 14.014 18.1771 13.9942 18.1771Z" fill="#4B41D9"/>
<path d="M11.2541 27.4222C11.0768 27.3548 10.9028 27.3298 10.7362 27.2357C10.3873 27.04 9.97598 26.7361 9.78613 26.3664C9.68954 26.1765 9.55548 26.0092 9.50135 25.801C9.41309 25.4613 9.36646 25.1382 9.36146 24.8318C9.35869 24.6552 9.39893 24.4315 9.4822 24.1606C9.5416 23.9652 9.63097 23.784 9.75032 23.6169C9.96294 23.3199 10.1883 23.077 10.4265 22.8883C10.6507 22.7101 10.9119 22.5699 11.21 22.4678C11.3416 22.4228 11.4648 22.4628 11.5747 22.4045C11.7629 22.3038 12.1293 22.4262 12.3383 22.432C12.6009 22.4386 12.8052 22.4869 12.9511 22.5769C13.0844 22.6585 13.219 22.737 13.355 22.8125C13.5043 22.8952 13.6276 22.9882 13.7247 23.0915C13.8768 23.2536 13.9956 23.3979 14.0811 23.5245C14.3786 23.9641 14.5216 24.4718 14.5099 25.0474C14.5066 25.2234 14.4725 25.4341 14.4075 25.6794C14.3553 25.8787 14.2787 26.0677 14.1777 26.2465C13.7675 26.9731 13.0924 27.4011 12.1526 27.5305C11.8495 27.5721 11.55 27.536 11.2541 27.4222ZM11.7787 25.8435C11.7088 25.7777 11.6447 25.6944 11.5639 25.6428C11.3147 25.484 11.0918 25.3147 10.8953 25.1349C10.7554 25.0066 10.5922 24.9558 10.4789 24.7943C10.4736 24.787 10.4667 24.7811 10.4586 24.7771C10.4506 24.773 10.4417 24.771 10.4327 24.7712C10.4237 24.7714 10.4149 24.7737 10.407 24.778C10.3991 24.7823 10.3923 24.7885 10.3873 24.796L10.2366 25.0258C10.23 25.0358 10.2259 25.0473 10.2247 25.0593C10.2235 25.0714 10.2253 25.0836 10.2299 25.0949C10.251 25.1437 10.2896 25.1746 10.3457 25.1873C10.3757 25.194 10.399 25.2106 10.4156 25.2373C10.5172 25.4047 10.6788 25.4363 10.8178 25.5545C11.1326 25.821 11.4523 26.1224 11.807 26.3206C11.842 26.34 11.8737 26.3356 11.902 26.3073L13.6573 24.5487C13.7044 24.5015 13.7039 24.4546 13.6556 24.4079L13.5349 24.2922C13.481 24.2406 13.4277 24.2411 13.375 24.2939L11.8287 25.8418C11.8221 25.8484 11.8133 25.8522 11.804 25.8525C11.7948 25.8528 11.7857 25.8496 11.7787 25.8435Z" fill="#4B41D9"/>
<path d="M29.767 23.8317L24.3587 27.6687C24.3221 27.6948 24.3038 27.6854 24.3038 27.6404C24.3004 26.6223 24.3013 25.6356 24.3063 24.6802C24.3096 24.1365 24.7817 23.7668 25.2963 23.7643C26.2597 23.761 27.1315 23.7335 28.1516 23.7551C28.5324 23.7635 28.9235 23.7568 29.3248 23.7351C29.4814 23.7268 29.6224 23.7321 29.7478 23.751C29.8211 23.7615 29.8275 23.7884 29.767 23.8317Z" fill="white"/>
<path d="M6.81022 23.7443H2.62516C2.61321 23.7443 2.60352 23.754 2.60352 23.766V26.2773C2.60352 26.2893 2.61321 26.299 2.62516 26.299H6.81022C6.82218 26.299 6.83187 26.2893 6.83187 26.2773V23.766C6.83187 23.754 6.82218 23.7443 6.81022 23.7443Z" fill="#4B41D9"/>
<path d="M21.2265 23.746H17.093C17.0627 23.746 17.0381 23.7706 17.0381 23.8009V26.244C17.0381 26.2744 17.0627 26.299 17.093 26.299H21.2265C21.2568 26.299 21.2814 26.2744 21.2814 26.244V23.8009C21.2814 23.7706 21.2568 23.746 21.2265 23.746Z" fill="#4B41D9"/>
<path d="M11.779 25.8434C11.786 25.8495 11.795 25.8528 11.8043 25.8524C11.8136 25.8521 11.8224 25.8483 11.8289 25.8418L13.3752 24.2938C13.428 24.2411 13.4813 24.2405 13.5351 24.2922L13.6558 24.4079C13.7041 24.4545 13.7047 24.5014 13.6575 24.5486L11.9022 26.3072C11.8739 26.3355 11.8423 26.34 11.8073 26.3206C11.4526 26.1224 11.1328 25.821 10.8181 25.5545C10.679 25.4363 10.5175 25.4046 10.4159 25.2372C10.3992 25.2106 10.3759 25.1939 10.3459 25.1873C10.2899 25.1745 10.2513 25.1437 10.2302 25.0949C10.2256 25.0835 10.2238 25.0713 10.225 25.0593C10.2261 25.0472 10.2302 25.0357 10.2369 25.0257L10.3876 24.7959C10.3926 24.7884 10.3993 24.7823 10.4072 24.778C10.4151 24.7737 10.4239 24.7713 10.4329 24.7712C10.4419 24.771 10.4508 24.773 10.4589 24.777C10.4669 24.7811 10.4739 24.787 10.4792 24.7943C10.5924 24.9558 10.7556 25.0066 10.8955 25.1348C11.092 25.3147 11.3149 25.484 11.5641 25.6428C11.6449 25.6944 11.709 25.7777 11.779 25.8434Z" fill="white"/>
</g>
<defs>
<clipPath id="clip0_5254_27784">
<rect width="32" height="32" fill="white"/>
</clipPath>
</defs>
</svg>
