<svg width="25" height="24" viewBox="0 0 25 24" fill="none" xmlns="http://www.w3.org/2000/svg">
<g id="LockKey">
<path id="Vector" d="M12.126 10.5C11.4956 10.5002 10.8864 10.7273 10.4096 11.1397C9.93282 11.552 9.62038 12.1222 9.52936 12.746C9.43835 13.3698 9.57485 14.0055 9.91391 14.5369C10.253 15.0683 10.7719 15.46 11.376 15.6403V17.25C11.376 17.4489 11.455 17.6397 11.5956 17.7803C11.7363 17.921 11.9271 18 12.126 18C12.3249 18 12.5157 17.921 12.6563 17.7803C12.797 17.6397 12.876 17.4489 12.876 17.25V15.6403C13.48 15.46 13.999 15.0683 14.338 14.5369C14.6771 14.0055 14.8136 13.3698 14.7226 12.746C14.6316 12.1222 14.3191 11.552 13.8424 11.1397C13.3656 10.7273 12.7564 10.5002 12.126 10.5ZM12.126 14.25C11.9035 14.25 11.686 14.184 11.501 14.0604C11.316 13.9368 11.1718 13.7611 11.0866 13.5555C11.0015 13.35 10.9792 13.1238 11.0226 12.9055C11.066 12.6873 11.1731 12.4868 11.3305 12.3295C11.4878 12.1722 11.6883 12.065 11.9065 12.0216C12.1247 11.9782 12.3509 12.0005 12.5565 12.0856C12.7621 12.1708 12.9378 12.315 13.0614 12.5C13.185 12.685 13.251 12.9025 13.251 13.125C13.251 13.4234 13.1324 13.7095 12.9215 13.9205C12.7105 14.1315 12.4243 14.25 12.126 14.25ZM19.626 7.5H16.626V5.25C16.626 4.05653 16.1519 2.91193 15.308 2.06802C14.464 1.22411 13.3195 0.75 12.126 0.75C10.9325 0.75 9.78791 1.22411 8.944 2.06802C8.10008 2.91193 7.62598 4.05653 7.62598 5.25V7.5H4.62598C4.22815 7.5 3.84662 7.65804 3.56532 7.93934C3.28401 8.22064 3.12598 8.60218 3.12598 9V19.5C3.12598 19.8978 3.28401 20.2794 3.56532 20.5607C3.84662 20.842 4.22815 21 4.62598 21H19.626C20.0238 21 20.4053 20.842 20.6866 20.5607C20.9679 20.2794 21.126 19.8978 21.126 19.5V9C21.126 8.60218 20.9679 8.22064 20.6866 7.93934C20.4053 7.65804 20.0238 7.5 19.626 7.5ZM9.12598 5.25C9.12598 4.45435 9.44205 3.69129 10.0047 3.12868C10.5673 2.56607 11.3303 2.25 12.126 2.25C12.9216 2.25 13.6847 2.56607 14.2473 3.12868C14.8099 3.69129 15.126 4.45435 15.126 5.25V7.5H9.12598V5.25ZM19.626 19.5H4.62598V9H19.626V19.5Z" fill="#4B41D9"/>
</g>
</svg>
