<svg width="25" height="25" viewBox="0 0 25 25" fill="none" xmlns="http://www.w3.org/2000/svg">
<g id="LockKeyOpen">
<path id="Vector" d="M19.626 7.9375H9.12598V5.6875C9.12598 4.89185 9.44205 4.12879 10.0047 3.56618C10.5673 3.00357 11.3303 2.6875 12.126 2.6875C13.5669 2.6875 14.8635 3.71875 15.141 5.08656C15.1822 5.27984 15.298 5.44905 15.4633 5.55741C15.6285 5.66577 15.8299 5.70452 16.0236 5.66524C16.2172 5.62596 16.3876 5.51183 16.4976 5.34764C16.6076 5.18346 16.6483 4.9825 16.611 4.78844C16.1872 2.70156 14.301 1.1875 12.126 1.1875C10.9329 1.18874 9.78901 1.66325 8.94537 2.50689C8.10172 3.35053 7.62722 4.49441 7.62598 5.6875V7.9375H4.62598C4.22815 7.9375 3.84662 8.09554 3.56532 8.37684C3.28401 8.65814 3.12598 9.03968 3.12598 9.4375V19.9375C3.12598 20.3353 3.28401 20.7169 3.56532 20.9982C3.84662 21.2795 4.22815 21.4375 4.62598 21.4375H19.626C20.0238 21.4375 20.4053 21.2795 20.6866 20.9982C20.9679 20.7169 21.126 20.3353 21.126 19.9375V9.4375C21.126 9.03968 20.9679 8.65814 20.6866 8.37684C20.4053 8.09554 20.0238 7.9375 19.626 7.9375ZM19.626 19.9375H4.62598V9.4375H19.626V19.9375ZM12.126 10.9375C11.4956 10.9377 10.8864 11.1648 10.4096 11.5772C9.93282 11.9895 9.62038 12.5597 9.52936 13.1835C9.43835 13.8073 9.57485 14.443 9.91391 14.9744C10.253 15.5058 10.7719 15.8975 11.376 16.0778V17.6875C11.376 17.8864 11.455 18.0772 11.5956 18.2178C11.7363 18.3585 11.9271 18.4375 12.126 18.4375C12.3249 18.4375 12.5157 18.3585 12.6563 18.2178C12.797 18.0772 12.876 17.8864 12.876 17.6875V16.0778C13.48 15.8975 13.999 15.5058 14.338 14.9744C14.6771 14.443 14.8136 13.8073 14.7226 13.1835C14.6316 12.5597 14.3191 11.9895 13.8424 11.5772C13.3656 11.1648 12.7564 10.9377 12.126 10.9375ZM12.126 14.6875C11.9035 14.6875 11.686 14.6215 11.501 14.4979C11.316 14.3743 11.1718 14.1986 11.0866 13.993C11.0015 13.7875 10.9792 13.5613 11.0226 13.343C11.066 13.1248 11.1731 12.9243 11.3305 12.767C11.4878 12.6097 11.6883 12.5025 11.9065 12.4591C12.1247 12.4157 12.3509 12.438 12.5565 12.5231C12.7621 12.6083 12.9378 12.7525 13.0614 12.9375C13.185 13.1225 13.251 13.34 13.251 13.5625C13.251 13.8609 13.1324 14.147 12.9215 14.358C12.7105 14.569 12.4243 14.6875 12.126 14.6875Z" fill="#4B41D9"/>
</g>
</svg>
