<svg width="14" height="14" viewBox="0 0 14 14" fill="none" xmlns="http://www.w3.org/2000/svg">
<g clip-path="url(#clip0_4355_58118)">
<path d="M2.18253 0.353027H11.5654C12.6398 0.440633 13.4556 1.2465 13.5276 2.3248V7.63313C13.4795 7.95417 13.1727 8.17566 12.8644 8.08051C12.6968 8.02887 12.5847 7.92904 12.528 7.78104C12.501 7.71051 12.4875 7.58339 12.4875 7.39968C12.4878 5.80563 12.4879 4.21148 12.4877 2.61725C12.4877 2.40773 12.475 2.25557 12.4495 2.16077C12.3245 1.69493 11.9073 1.39286 11.4284 1.39286C8.43892 1.39286 5.44941 1.39286 2.4599 1.39286C2.28175 1.39286 2.15653 1.40022 2.08427 1.41495C1.70629 1.4919 1.3946 1.78929 1.29556 2.15687C1.27025 2.25132 1.2576 2.40166 1.2576 2.6079C1.25778 5.59532 1.25769 8.58275 1.25734 11.5702C1.25734 12.1582 1.72059 12.6214 2.30393 12.6217C4.05777 12.6227 5.8117 12.6231 7.56572 12.6227C7.67612 12.6226 7.76286 12.6338 7.82594 12.6565C8.35469 12.8455 8.25227 13.5705 7.70376 13.6628H2.18539C1.11073 13.5765 0.293161 12.7756 0.217773 11.697V2.31518C0.303039 1.2439 1.10787 0.429975 2.18253 0.353027Z" fill="#4B41D9"/>
<path d="M4.01008 3.31164C4.46865 3.44708 4.49776 4.12063 4.0522 4.28934C3.89154 4.34991 3.63471 4.32677 3.43532 4.32755C3.31383 4.32807 3.22155 4.31698 3.15846 4.29428C2.69522 4.12817 2.70562 3.48321 3.16262 3.31892C3.31522 3.26407 3.5367 3.28798 3.70879 3.28746C3.85333 3.28694 3.95376 3.295 4.01008 3.31164Z" fill="#4B41D9"/>
<path d="M10.4147 3.29053H5.92573C5.64476 3.29053 5.41699 3.5183 5.41699 3.79926V3.82006C5.41699 4.10103 5.64476 4.3288 5.92573 4.3288H10.4147C10.6956 4.3288 10.9234 4.10103 10.9234 3.82006V3.79926C10.9234 3.5183 10.6956 3.29053 10.4147 3.29053Z" fill="#4B41D9"/>
<path d="M4.01008 6.43273C4.46865 6.56817 4.49776 7.24172 4.0522 7.41043C3.89154 7.471 3.63471 7.44787 3.43532 7.44865C3.31383 7.44917 3.22155 7.43808 3.15846 7.41537C2.69522 7.24926 2.70562 6.60431 3.16262 6.44001C3.31522 6.38516 3.5367 6.40908 3.70879 6.40856C3.85333 6.40804 3.95376 6.4161 4.01008 6.43273Z" fill="#4B41D9"/>
<path d="M10.4186 6.40771H5.92963C5.64867 6.40771 5.4209 6.63548 5.4209 6.91645V6.93725C5.4209 7.21821 5.64867 7.44598 5.92963 7.44598H10.4186C10.6995 7.44598 10.9273 7.21821 10.9273 6.93725V6.91645C10.9273 6.63548 10.6995 6.40771 10.4186 6.40771Z" fill="#4B41D9"/>
<path d="M13.5249 13.0926V13.1966C13.4774 13.462 13.3211 13.6175 13.0562 13.6632H12.9509C12.8244 13.6445 12.7165 13.5905 12.6272 13.501C12.3418 13.2147 12.0546 12.928 11.7657 12.6408C11.7593 12.6344 11.7521 12.6335 11.7441 12.638C11.1806 12.96 10.5935 13.044 9.98294 12.8901C8.98392 12.6382 8.24513 11.7245 8.22225 10.68C8.19495 9.42776 9.15238 8.3791 10.3926 8.28889C11.6251 8.19921 12.7294 9.09632 12.8804 10.3251C12.9494 10.8873 12.8289 11.4132 12.5188 11.9028C12.5141 11.9104 12.5149 11.9174 12.5212 11.9236C12.8184 12.2205 13.1138 12.5164 13.4074 12.8114C13.4677 12.8717 13.5068 12.9654 13.5249 13.0926ZM11.8598 10.6215C11.8598 10.2771 11.723 9.94683 11.4795 9.70332C11.236 9.4598 10.9057 9.323 10.5613 9.323C10.217 9.323 9.88669 9.4598 9.64318 9.70332C9.39966 9.94683 9.26286 10.2771 9.26286 10.6215C9.26286 10.9659 9.39966 11.2961 9.64318 11.5397C9.88669 11.7832 10.217 11.92 10.5613 11.92C10.9057 11.92 11.236 11.7832 11.4795 11.5397C11.723 11.2961 11.8598 10.9659 11.8598 10.6215Z" fill="#4B41D9"/>
<path d="M4.03539 9.74005C4.48382 9.89602 4.49032 10.5428 4.04475 10.7125C3.89112 10.771 3.64572 10.7471 3.45569 10.7492C3.33594 10.7504 3.24521 10.7413 3.18351 10.7219C2.70701 10.5722 2.69402 9.90044 3.1687 9.73979C3.23473 9.71743 3.33542 9.70686 3.47077 9.70807C3.65144 9.70963 3.88358 9.68702 4.03539 9.74005Z" fill="#4B41D9"/>
<path d="M6.85986 9.75062C7.28775 9.91336 7.28619 10.551 6.86038 10.7145C6.79643 10.7392 6.69756 10.7516 6.56377 10.752C6.3941 10.7523 6.22435 10.7527 6.05451 10.753C5.92124 10.7534 5.82159 10.7416 5.75556 10.7177C5.29648 10.5505 5.30974 9.90894 5.76206 9.74491C5.82272 9.7229 5.90504 9.71206 6.00902 9.71241C6.16465 9.71293 6.3201 9.71302 6.47538 9.71267C6.66342 9.71198 6.79158 9.72463 6.85986 9.75062Z" fill="#4B41D9"/>
</g>
<defs>
<clipPath id="clip0_4355_58118">
<rect width="13.3098" height="13.3098" fill="white" transform="translate(0.217773 0.353027)"/>
</clipPath>
</defs>
</svg>
