<svg width="23" height="24" viewBox="0 0 23 24" fill="none" xmlns="http://www.w3.org/2000/svg">
<g id="PauseCircle" clip-path="url(#clip0_3350_39799)">
<path id="Vector" d="M11.3442 1.45898C9.12963 1.45898 6.96476 2.11569 5.12338 3.34606C3.282 4.57644 1.84681 6.32521 0.999319 8.37124C0.151824 10.4173 -0.069919 12.6687 0.36213 14.8407C0.794179 17.0128 1.86062 19.0079 3.42658 20.5739C4.99255 22.1399 6.98771 23.2063 9.15977 23.6384C11.3318 24.0704 13.5832 23.8487 15.6293 23.0012C17.6753 22.1537 19.4241 20.7185 20.6544 18.8771C21.8848 17.0357 22.5415 14.8709 22.5415 12.6563C22.5384 9.68751 21.3577 6.84127 19.2584 4.74205C17.1592 2.64283 14.313 1.46212 11.3442 1.45898ZM11.3442 22.1309C9.47034 22.1309 7.63852 21.5752 6.08043 20.5341C4.52234 19.493 3.30796 18.0133 2.59085 16.282C1.87373 14.5508 1.68611 12.6457 2.05169 10.8078C2.41727 8.96995 3.31964 7.28174 4.64468 5.95669C5.96973 4.63164 7.65795 3.72927 9.49584 3.36369C11.3337 2.99811 13.2388 3.18574 14.97 3.90285C16.7013 4.61996 18.181 5.83435 19.2221 7.39244C20.2632 8.95053 20.8189 10.7823 20.8189 12.6563C20.816 15.1682 19.8169 17.5764 18.0407 19.3527C16.2644 21.1289 13.8562 22.128 11.3442 22.1309ZM9.62159 9.21094V16.1016C9.62159 16.33 9.53084 16.5491 9.36931 16.7106C9.20778 16.8721 8.9887 16.9629 8.76026 16.9629C8.53182 16.9629 8.31274 16.8721 8.15121 16.7106C7.98968 16.5491 7.89893 16.33 7.89893 16.1016V9.21094C7.89893 8.9825 7.98968 8.76342 8.15121 8.60189C8.31274 8.44036 8.53182 8.34961 8.76026 8.34961C8.9887 8.34961 9.20778 8.44036 9.36931 8.60189C9.53084 8.76342 9.62159 8.9825 9.62159 9.21094ZM14.7896 9.21094V16.1016C14.7896 16.33 14.6988 16.5491 14.5373 16.7106C14.3757 16.8721 14.1567 16.9629 13.9282 16.9629C13.6998 16.9629 13.4807 16.8721 13.3192 16.7106C13.1576 16.5491 13.0669 16.33 13.0669 16.1016V9.21094C13.0669 8.9825 13.1576 8.76342 13.3192 8.60189C13.4807 8.44036 13.6998 8.34961 13.9282 8.34961C14.1567 8.34961 14.3757 8.44036 14.5373 8.60189C14.6988 8.76342 14.7896 8.9825 14.7896 9.21094Z" fill="#4B41D9" stroke="white" stroke-width="0.5"/>
</g>
<defs>
<clipPath id="clip0_3350_39799">
<rect width="22" height="23" fill="white" transform="translate(0.562988 0.875)"/>
</clipPath>
</defs>
</svg>
