<svg width="57" height="57" viewBox="0 0 57 57" fill="none" xmlns="http://www.w3.org/2000/svg">
<g id="pdf">
<path id="&#240;&#159;&#142;&#168; Color" d="M28.9628 1H28.0373C13.105 1 1 13.105 1 28.0373V28.9628C1 43.8951 13.105 56.0001 28.0373 56.0001H28.9628C43.8951 56.0001 56.0001 43.8951 56.0001 28.9628V28.0373C56.0001 13.105 43.8951 1 28.9628 1Z" fill="white" stroke="#4B41D9" stroke-width="1.22897"/>
<g id="Group 14859">
<path id="Path 1976" d="M30.6081 29.1209C30.2468 28.8112 29.8855 28.4241 29.4713 28.0149C29.1426 27.6432 28.8566 27.2359 28.6184 26.8006C29.11 25.1219 29.3423 23.5205 28.8249 22.745C28.713 22.569 28.5565 22.4256 28.3713 22.3296C28.1861 22.2335 27.9788 22.1882 27.7704 22.1981C27.5419 22.1816 27.3141 22.2376 27.1192 22.3581C26.9244 22.4785 26.7725 22.6574 26.6852 22.8692C26.2723 23.7995 26.8917 25.5041 27.6414 26.899C27.4349 27.57 27.1768 28.2938 26.8659 29.0939C26.6852 29.5326 26.4788 29.9726 26.2723 30.3855C24.1548 31.2126 22.8631 32.1417 22.6825 33.0205C22.6397 33.2181 22.6561 33.4239 22.7295 33.6123C22.8029 33.8007 22.9302 33.9633 23.0954 34.0798C23.2931 34.2399 23.5379 34.3306 23.7922 34.3379C23.8972 34.3333 24.0012 34.316 24.1019 34.2863C25.0851 34.0282 26.142 32.5817 26.9175 31.1094C27.4398 30.907 27.9732 30.7346 28.5152 30.5932C29.2124 30.3868 29.8322 30.2319 30.3746 30.1287C31.0869 30.8139 32.0026 31.2491 32.9837 31.3687C33.2399 31.383 33.496 31.3393 33.733 31.241C33.97 31.1427 34.1819 30.9923 34.3528 30.8009C34.5312 30.6668 34.6555 30.4729 34.7029 30.2547C34.7502 30.0366 34.7176 29.8086 34.6108 29.6125C34.1475 28.8887 32.7269 28.7326 30.6081 29.1209ZM23.8377 33.383C23.8034 33.3934 23.7673 33.3965 23.7317 33.3921C23.6962 33.3876 23.6619 33.3757 23.6312 33.3572C23.528 33.2798 23.528 33.2281 23.5538 33.1765C23.6054 32.8668 24.199 32.2978 25.4907 31.6784C25.1127 32.392 24.5394 32.9833 23.8377 33.383ZM27.5049 23.2317C27.5308 23.1801 27.5566 23.1027 27.763 23.1027C27.821 23.0996 27.879 23.1096 27.9326 23.1319C27.9862 23.1542 28.0341 23.1883 28.0727 23.2317C28.3103 23.9933 28.283 24.8128 27.9953 25.5569C27.5866 24.8546 27.4159 24.039 27.5086 23.2317H27.5049ZM28.2276 29.6887L27.4521 29.921C27.5295 29.7403 27.6069 29.5597 27.6844 29.4048C27.865 28.9132 28.0715 28.4217 28.2522 27.9067C28.424 28.1608 28.6137 28.4023 28.82 28.6293C29.0522 28.8874 29.2845 29.1209 29.5168 29.352C29.11 29.4564 28.6713 29.5597 28.2325 29.6887H28.2276ZM33.6781 30.1533C33.591 30.2503 33.4831 30.3263 33.3623 30.3754C33.2416 30.4246 33.1113 30.4457 32.9812 30.4372C32.474 30.3936 31.9899 30.2055 31.5864 29.8952C33.0882 29.6887 33.9411 29.8436 33.6818 30.1533H33.6781Z" fill="#4B41D9" stroke="#4B41D9" stroke-width="0.245794" stroke-miterlimit="10"/>
<path id="Path 1977" d="M37.9378 22.738L32.2845 17.5629C31.9162 17.2298 31.4378 17.0447 30.9412 17.043H20.79C20.2926 17.0402 19.8126 17.2259 19.4467 17.5629C19.2704 17.7158 19.1287 17.9045 19.0308 18.1163C18.9329 18.3282 18.8811 18.5585 18.8789 18.7918V37.7499C18.8895 37.9902 18.9473 38.2261 19.0491 38.4441C19.1509 38.6621 19.2946 38.8579 19.4721 39.0203C19.6496 39.1827 19.8573 39.3085 20.0834 39.3906C20.3095 39.4727 20.5496 39.5095 20.79 39.4987H36.5982C36.8385 39.5095 37.0786 39.4727 37.3047 39.3906C37.5309 39.3085 37.7386 39.1827 37.9161 39.0203C38.0935 38.8579 38.2373 38.6621 38.3391 38.4441C38.4408 38.2261 38.4987 37.9902 38.5092 37.7499V23.967C38.5041 23.7338 38.4507 23.5042 38.3523 23.2926C38.254 23.0811 38.1128 22.8923 37.9378 22.738Z" stroke="#4B41D9" stroke-width="1.22897" stroke-miterlimit="10"/>
<path id="Path 1978" d="M37.8932 23.4914H32.6381C32.468 23.4914 32.3047 23.424 32.184 23.3041C32.0634 23.1841 31.9951 23.0212 31.9941 22.8511V17.5936C31.9941 17.4326 32.0863 17.3957 32.2006 17.5088L37.9768 23.2849C38.0947 23.3992 38.0542 23.4914 37.8932 23.4914Z" stroke="#4B41D9" stroke-width="1.22897" stroke-miterlimit="10"/>
</g>
</g>
</svg>
