<svg width="25" height="24" viewBox="0 0 25 24" fill="none" xmlns="http://www.w3.org/2000/svg">
<g id="Power">
<path id="Vector" d="M11.813 12V4.5C11.813 4.30109 11.892 4.11032 12.0327 3.96967C12.1733 3.82902 12.3641 3.75 12.563 3.75C12.7619 3.75 12.9527 3.82902 13.0933 3.96967C13.234 4.11032 13.313 4.30109 13.313 4.5V12C13.313 12.1989 13.234 12.3897 13.0933 12.5303C12.9527 12.671 12.7619 12.75 12.563 12.75C12.3641 12.75 12.1733 12.671 12.0327 12.5303C11.892 12.3897 11.813 12.1989 11.813 12ZM17.4727 4.62187C17.3061 4.5166 17.1048 4.4811 16.9123 4.52307C16.7197 4.56503 16.5514 4.68108 16.4438 4.84613C16.3361 5.01118 16.2978 5.21197 16.337 5.40508C16.3762 5.5982 16.4898 5.76812 16.6533 5.87813C18.8199 7.29094 20.063 9.52219 20.063 12C20.063 13.9891 19.2728 15.8968 17.8663 17.3033C16.4598 18.7098 14.5521 19.5 12.563 19.5C10.5739 19.5 8.66621 18.7098 7.25969 17.3033C5.85316 15.8968 5.06299 13.9891 5.06299 12C5.06299 9.52219 6.30611 7.29094 8.47268 5.87813C8.63617 5.76812 8.7498 5.5982 8.78901 5.40508C8.82821 5.21197 8.78984 5.01118 8.68219 4.84613C8.57454 4.68108 8.40625 4.56503 8.21372 4.52307C8.02119 4.4811 7.81987 4.5166 7.6533 4.62187C5.05361 6.31687 3.56299 9.00562 3.56299 12C3.56299 14.3869 4.5112 16.6761 6.19903 18.364C7.88685 20.0518 10.176 21 12.563 21C14.9499 21 17.2391 20.0518 18.9269 18.364C20.6148 16.6761 21.563 14.3869 21.563 12C21.563 9.00562 20.0724 6.31687 17.4727 4.62187Z" fill="#4B41D9"/>
</g>
</svg>
