<svg width="32" height="33" viewBox="0 0 32 33" fill="none" xmlns="http://www.w3.org/2000/svg">
<g id="Truck">
<path id="Vector" d="M1.09827 15.1274L2.84545 10.7595C2.99367 10.3899 3.24945 10.0734 3.57966 9.85086C3.90986 9.62834 4.29928 9.51012 4.69746 9.51149H9.01299V8.5131C9.01299 8.24831 9.11818 7.99437 9.30541 7.80713C9.49265 7.6199 9.74659 7.51471 10.0114 7.51471H28.9808C29.5103 7.51471 30.0182 7.72508 30.3927 8.09955C30.7672 8.47402 30.9775 8.98191 30.9775 9.51149V23.4889C30.9775 24.0185 30.7672 24.5264 30.3927 24.9009C30.0182 25.2753 29.5103 25.4857 28.9808 25.4857H26.8592C26.6392 26.3447 26.1396 27.1061 25.4392 27.6498C24.7387 28.1936 23.8772 28.4887 22.9904 28.4887C22.1037 28.4887 21.2422 28.1936 20.5417 27.6498C19.8412 27.1061 19.3416 26.3447 19.1217 25.4857H12.8817C12.6618 26.3447 12.1622 27.1061 11.4617 27.6498C10.7612 28.1936 9.89973 28.4887 9.01299 28.4887C8.12625 28.4887 7.26473 28.1936 6.56425 27.6498C5.86378 27.1061 5.36418 26.3447 5.14424 25.4857H3.02266C2.49308 25.4857 1.9852 25.2753 1.61073 24.9009C1.23626 24.5264 1.02588 24.0185 1.02588 23.4889V15.5018C1.02554 15.3735 1.05013 15.2464 1.09827 15.1274ZM9.01299 11.5083H4.69746L3.49939 14.5034H9.01299V11.5083ZM28.9808 9.51149H11.0098V17.4986H28.9808V9.51149ZM22.9904 26.4841C23.3854 26.4841 23.7714 26.367 24.0998 26.1476C24.4281 25.9282 24.6841 25.6163 24.8352 25.2514C24.9863 24.8866 25.0259 24.4851 24.9488 24.0978C24.8718 23.7104 24.6816 23.3546 24.4024 23.0754C24.1231 22.7961 23.7673 22.606 23.38 22.5289C22.9926 22.4519 22.5912 22.4914 22.2263 22.6425C21.8614 22.7937 21.5496 23.0496 21.3302 23.378C21.1108 23.7063 20.9937 24.0924 20.9937 24.4873C20.9937 25.0169 21.204 25.5248 21.5785 25.8992C21.953 26.2737 22.4609 26.4841 22.9904 26.4841ZM12.8817 23.4889H19.1217C19.3416 22.6299 19.8412 21.8685 20.5417 21.3248C21.2422 20.7811 22.1037 20.4859 22.9904 20.4859C23.8772 20.4859 24.7387 20.7811 25.4392 21.3248C26.1396 21.8685 26.6392 22.6299 26.8592 23.4889H28.9808V19.4954H11.0098V21.0316C11.4689 21.297 11.8707 21.6508 12.1921 22.0727C12.5134 22.4945 12.7478 22.9759 12.8817 23.4889ZM9.01299 26.4841C9.40792 26.4841 9.79397 26.367 10.1223 26.1476C10.4507 25.9282 10.7066 25.6163 10.8578 25.2514C11.0089 24.8866 11.0484 24.4851 10.9714 24.0978C10.8944 23.7104 10.7042 23.3546 10.4249 23.0754C10.1457 22.7961 9.78988 22.606 9.40254 22.5289C9.01521 22.4519 8.61372 22.4914 8.24886 22.6425C7.88399 22.7937 7.57214 23.0496 7.35273 23.378C7.13332 23.7063 7.01621 24.0924 7.01621 24.4873C7.01621 25.0169 7.22659 25.5248 7.60106 25.8992C7.97552 26.2737 8.48341 26.4841 9.01299 26.4841ZM3.02266 23.4889H5.14424C5.36682 22.632 5.86736 21.8731 6.56744 21.3311C7.26753 20.7891 8.12762 20.4946 9.01299 20.4938V16.5002H3.02266V23.4889Z" fill="#4B41D9"/>
</g>
</svg>
