<svg width="26" height="29" viewBox="0 0 26 29" fill="none" xmlns="http://www.w3.org/2000/svg">
<path id="Vector" d="M24.96 6.76877L13.96 0.750022C13.6661 0.587625 13.3358 0.502441 13 0.502441C12.6642 0.502441 12.3339 0.587625 12.04 0.750022L1.04 6.77127C0.725861 6.94315 0.463629 7.19622 0.28069 7.50405C0.0977502 7.81188 0.000812822 8.16319 0 8.52127V20.4763C0.000812822 20.8344 0.0977502 21.1857 0.28069 21.4935C0.463629 21.8013 0.725861 22.0544 1.04 22.2263L12.04 28.2475C12.3339 28.4099 12.6642 28.4951 13 28.4951C13.3358 28.4951 13.6661 28.4099 13.96 28.2475L24.96 22.2263C25.2741 22.0544 25.5364 21.8013 25.7193 21.4935C25.9023 21.1857 25.9992 20.8344 26 20.4763V8.52252C25.9999 8.1638 25.9032 7.81172 25.7203 7.50317C25.5373 7.19462 25.2747 6.94096 24.96 6.76877ZM13 2.50002L23.0425 8.00002L19.3213 10.0375L9.2775 4.53752L13 2.50002ZM13 13.5L2.9575 8.00002L7.195 5.68002L17.2375 11.18L13 13.5ZM2 9.75002L12 15.2225V25.9463L2 20.4775V9.75002ZM24 20.4725L14 25.9463V15.2275L18 13.0388V17.5C18 17.7652 18.1054 18.0196 18.2929 18.2071C18.4804 18.3947 18.7348 18.5 19 18.5C19.2652 18.5 19.5196 18.3947 19.7071 18.2071C19.8946 18.0196 20 17.7652 20 17.5V11.9438L24 9.75002V20.4713V20.4725Z" fill="#4B41D9"/>
</svg>
