<svg xmlns="http://www.w3.org/2000/svg" width="32.251" height="32.246" viewBox="0 0 32.251 32.246">
  <g id="Icon_feather-image" data-name="Icon feather-image" transform="translate(-0.079 0.5)">
    <g id="Calque_2" data-name="Calque 2" transform="translate(-117.831 -146.319)">
      <g id="Group_17815" data-name="Group 17815" transform="translate(118.41 146.81)">
        <path id="Path_17901" data-name="Path 17901" d="M133.735,154.347a15.378,15.378,0,1,0,15.325,15.377A15.351,15.351,0,0,0,133.735,154.347Zm0,25.323a9.946,9.946,0,1,1,9.912-9.946A9.928,9.928,0,0,1,133.735,179.67Z" transform="translate(-118.41 -154.347)" fill="none" stroke="#02b2b2" stroke-width="1"/>
        <circle id="Ellipse_1308" data-name="Ellipse 1308" cx="4.81" cy="4.81" r="4.81" transform="translate(8.523 15.378) rotate(-45)" fill="none" stroke="#02b2b2" stroke-width="1"/>
      </g>
      <g id="Group_17816" data-name="Group 17816" transform="translate(131.874 153.648)">
        <path id="Path_17902" data-name="Path 17902" d="M355.852,288.02a.917.917,0,0,1-.648-1.566l7.626-7.62a.917.917,0,0,1,1.3,1.3l-7.626,7.62A.914.914,0,0,1,355.852,288.02Z" transform="translate(-354.385 -278.015)" fill="none" stroke="#02b2b2" stroke-width="1"/>
        <path id="Path_17903" data-name="Path 17903" d="M355.028,270.115a.917.917,0,0,1,.648,1.566l-7.626,7.62a.917.917,0,0,1-1.3-1.3l7.626-7.62a.914.914,0,0,1,.648-.268m0-.55h0a1.458,1.458,0,0,0-1.037.43l-7.626,7.62a1.468,1.468,0,1,0,2.075,2.076l7.626-7.62a1.468,1.468,0,0,0-1.037-2.506Z" transform="translate(-345.935 -269.565)" fill="none" stroke="#02b2b2" stroke-width="1"/>
      </g>
      <g id="Group_17817" data-name="Group 17817" transform="translate(138.203 146.319)">
        <path id="Path_17904" data-name="Path 17904" d="M467.717,165.566l4.863-4.985a.519.519,0,0,0-.171-.84l-2.9-1.215-1.014-2.861a.519.519,0,0,0-.852-.2l-5.113,5.013a.518.518,0,0,0-.147.463l.675,3.7a.519.519,0,0,0,.421.418l3.777.656A.518.518,0,0,0,467.717,165.566Z" transform="translate(-461.824 -154.768)" fill="#02b2b2" stroke="#02b2b2" stroke-width="1"/>
        <path id="Path_17905" data-name="Path 17905" d="M459.553,146.869a.517.517,0,0,1,.49.345l1.014,2.861,2.9,1.215a.519.519,0,0,1,.171.84l-4.863,4.985a.518.518,0,0,1-.46.149l-3.777-.657a.518.518,0,0,1-.421-.418l-.675-3.7a.518.518,0,0,1,.147-.463l5.113-5.013a.512.512,0,0,1,.361-.148m0-.55a1.061,1.061,0,0,0-.747.306l-5.113,5.013a1.068,1.068,0,0,0-.3.955l.675,3.7a1.073,1.073,0,0,0,.868.861l3.777.657a1.069,1.069,0,0,0,.948-.307l4.863-4.985a1.069,1.069,0,0,0-.352-1.732l-2.675-1.121-.933-2.632a1.072,1.072,0,0,0-1.009-.712Z" transform="translate(-453.373 -146.319)" fill="#02b2b2" stroke="#02b2b2" stroke-width="1"/>
      </g>
      <g id="Group_17818" data-name="Group 17818" transform="translate(139.346 149.882)">
        <line id="Line_38" data-name="Line 38" x1="6.347" y2="6.347" transform="translate(0.195 0.195)" fill="#135ddf" stroke="#02b2b2" stroke-width="1"/>
        <rect id="Rectangle_5845" data-name="Rectangle 5845" width="8.976" height="0.55" transform="translate(0 6.347) rotate(-45)" fill="none" stroke="#02b2b2" stroke-width="1"/>
      </g>
    </g>
  </g>
</svg>
