<svg width="35" height="35" viewBox="0 0 35 35" fill="none" xmlns="http://www.w3.org/2000/svg">
<g id="Group 427319399">
<g id="Group 19295">
<g id="Group 40651">
<path id="Vector" d="M2.77287 27.7627V30.8675C2.77287 31.5378 3.00734 32.1376 3.47629 32.6315C3.81126 32.9843 4.21322 33.196 4.68217 33.3019C4.81615 33.3372 4.95014 33.3372 5.08412 33.3372H5.11762H6.2565H6.29H26.7563C27.3593 33.3372 27.9287 33.1255 28.4982 32.6668C29.0341 32.2082 29.4026 31.6789 29.6036 31.0439L33.3887 17.4959C33.5896 16.7903 33.5226 16.1552 33.1542 15.6613C32.8192 15.1321 32.3168 14.8851 31.6468 14.8498H23.0047L21.3299 12.3802C21.2629 12.3096 21.1959 12.239 21.0954 12.1685C20.995 12.0979 20.928 12.0979 20.8275 12.0979H13.5587C12.9558 12.0979 12.3529 12.3096 11.8169 12.7682C11.281 13.2269 10.9125 13.7561 10.745 14.3912L6.18951 30.7264M16.004 6.98214H9.50566M22.8708 26.4221C21.2629 25.6459 20.0236 24.3052 19.1526 22.3647L22.2343 20.8476L14.7646 17.3548L12.4868 25.6106L15.401 24.1641C16.7409 26.3515 18.3487 27.7275 20.258 28.2567C20.392 28.292 20.5595 28.3272 20.6935 28.3625C20.794 28.3978 20.928 28.3978 21.0619 28.4331C22.8373 28.7153 24.8136 28.292 27.0243 27.1982M20.727 9.62823H24.2776C24.914 9.62823 25.4835 9.8752 25.9524 10.3339C26.3879 10.8278 26.6224 11.3923 26.6224 12.0626V12.2038M18.2817 9.55767V1.33716H6.82594M6.82594 1.33716V6.94686H1.5M6.82594 1.33716L1.5 6.94686M1.5 6.94686V25.2578H5.08412M5.01713 14.6382H8.03181M7.32839 17.2137H5.01713M8.76874 12.0979H4.98364M5.01713 19.7539H6.62496M4.95014 9.52238H16.004" stroke="#92C73E" stroke-width="1.5" stroke-miterlimit="3" stroke-linecap="round" stroke-linejoin="round"/>
</g>
</g>
</g>
</svg>
