<svg width="33" height="33" viewBox="0 0 33 33" fill="none" xmlns="http://www.w3.org/2000/svg">
<g id="Users" clip-path="url(#clip0_2102_24879)">
<path id="Vector" d="M15.1563 20.0771C16.4966 19.1848 17.5141 17.885 18.0584 16.3697C18.6028 14.8544 18.645 13.2041 18.1789 11.663C17.7129 10.1218 16.7632 8.77157 15.4703 7.81189C14.1775 6.85221 12.6102 6.33406 11.0001 6.33406C9.38997 6.33406 7.82261 6.85221 6.52978 7.81189C5.23694 8.77157 4.28726 10.1218 3.82118 11.663C3.35509 13.2041 3.39734 14.8544 3.94168 16.3697C4.48603 17.885 5.50356 19.1848 6.84381 20.0771C4.41943 20.9706 2.34894 22.6241 0.941312 24.7909C0.867332 24.9008 0.815945 25.0244 0.790139 25.1544C0.764332 25.2844 0.764621 25.4182 0.790989 25.548C0.817356 25.6779 0.869276 25.8013 0.94373 25.9109C1.01818 26.0205 1.11369 26.1143 1.22469 26.1867C1.33569 26.2591 1.45998 26.3087 1.59032 26.3326C1.72067 26.3566 1.85447 26.3544 1.98396 26.3261C2.11344 26.2979 2.23603 26.2442 2.34458 26.1682C2.45314 26.0922 2.54551 25.9954 2.61631 25.8834C3.5243 24.4868 4.76676 23.3393 6.23086 22.5448C7.69496 21.7504 9.33432 21.3343 11.0001 21.3343C12.6658 21.3343 14.3052 21.7504 15.7693 22.5448C17.2334 23.3393 18.4758 24.4868 19.3838 25.8834C19.5305 26.1013 19.757 26.2529 20.0145 26.3051C20.272 26.3574 20.5397 26.3062 20.7598 26.1627C20.9799 26.0192 21.1346 25.7948 21.1906 25.5381C21.2465 25.2814 21.1992 25.013 21.0588 24.7909C19.6512 22.6241 17.5807 20.9706 15.1563 20.0771ZM5.50006 13.8371C5.50006 12.7493 5.82263 11.6859 6.42698 10.7815C7.03133 9.877 7.89031 9.17205 8.8953 8.75577C9.9003 8.33948 11.0062 8.23057 12.0731 8.44279C13.14 8.655 14.12 9.17883 14.8891 9.94802C15.6583 10.7172 16.1822 11.6972 16.3944 12.7641C16.6066 13.831 16.4977 14.9369 16.0814 15.9419C15.6651 16.9469 14.9602 17.8058 14.0557 18.4102C13.1512 19.0145 12.0879 19.3371 11.0001 19.3371C9.54188 19.3354 8.14389 18.7555 7.1128 17.7244C6.08171 16.6933 5.50172 15.2953 5.50006 13.8371ZM31.7676 26.1746C31.5454 26.3195 31.2749 26.3701 31.0154 26.3155C30.7559 26.2609 30.5287 26.1055 30.3838 25.8834C29.4769 24.486 28.2346 23.3379 26.7702 22.5438C25.3058 21.7497 23.6659 21.3349 22.0001 21.3371C21.7348 21.3371 21.4805 21.2317 21.293 21.0442C21.1054 20.8567 21.0001 20.6023 21.0001 20.3371C21.0001 20.0719 21.1054 19.8175 21.293 19.63C21.4805 19.4425 21.7348 19.3371 22.0001 19.3371C22.81 19.3363 23.6098 19.1567 24.3423 18.811C25.0748 18.4653 25.7219 17.9621 26.2373 17.3373C26.7528 16.7126 27.1239 15.9816 27.3242 15.1968C27.5244 14.412 27.5488 13.5926 27.3957 12.7973C27.2426 12.0019 26.9157 11.2502 26.4383 10.5958C25.961 9.94148 25.345 9.40061 24.6344 9.0119C23.9239 8.62318 23.1362 8.3962 22.3277 8.34719C21.5192 8.29817 20.7099 8.42833 19.9576 8.72835C19.8349 8.78138 19.7028 8.80928 19.5692 8.81041C19.4356 8.81154 19.3031 8.78588 19.1795 8.73493C19.056 8.68398 18.9439 8.60879 18.8499 8.51379C18.7559 8.41879 18.6819 8.30592 18.6323 8.18184C18.5827 8.05776 18.5584 7.92499 18.5609 7.79138C18.5635 7.65776 18.5928 7.52602 18.6471 7.40392C18.7015 7.28182 18.7797 7.17185 18.8772 7.08051C18.9748 6.98917 19.0897 6.9183 19.2151 6.8721C20.9369 6.18542 22.852 6.16071 24.591 6.80274C26.33 7.44477 27.7696 8.70805 28.6321 10.3489C29.4946 11.9897 29.7189 13.8918 29.2617 15.6883C28.8045 17.4847 27.6982 19.0482 26.1563 20.0771C28.5807 20.9706 30.6512 22.6241 32.0588 24.7909C32.2037 25.013 32.2543 25.2835 32.1997 25.543C32.1451 25.8025 31.9897 26.0297 31.7676 26.1746Z" fill="#92C73E"/>
</g>
<defs>
<clipPath id="clip0_2102_24879">
<rect width="32" height="32" fill="white" transform="translate(0.5 0.337097)"/>
</clipPath>
</defs>
</svg>
