<svg width="33" height="33" viewBox="0 0 33 33" fill="none" xmlns="http://www.w3.org/2000/svg">
<path d="M19.1668 3.00378H8.50016C7.79292 3.00378 7.11464 3.28474 6.61454 3.78483C6.11445 4.28493 5.8335 4.96321 5.8335 5.67045V27.0038C5.8335 27.711 6.11445 28.3893 6.61454 28.8894C7.11464 29.3895 7.79292 29.6704 8.50016 29.6704H24.5002C25.2074 29.6704 25.8857 29.3895 26.3858 28.8894C26.8859 28.3893 27.1668 27.711 27.1668 27.0038V11.0038L19.1668 3.00378Z" stroke="#92C73E" stroke-width="2" stroke-linecap="round" stroke-linejoin="round"/>
<path d="M19.1665 3.00378V11.0038H27.1665" stroke="#92C73E" stroke-width="2" stroke-linecap="round" stroke-linejoin="round"/>
<path d="M21.8332 17.6705H11.1665" stroke="#92C73E" stroke-width="2" stroke-linecap="round" stroke-linejoin="round"/>
<path d="M21.8332 23.0038H11.1665" stroke="#92C73E" stroke-width="2" stroke-linecap="round" stroke-linejoin="round"/>
<path d="M13.8332 12.3372H12.4998H11.1665" stroke="#92C73E" stroke-width="2" stroke-linecap="round" stroke-linejoin="round"/>
</svg>
