<svg width="32" height="32" viewBox="0 0 32 32" fill="none" xmlns="http://www.w3.org/2000/svg">
<g id="packages">
<path id="Vector" d="M10.0134 6.30945C10.0134 7.58448 9.50694 8.80729 8.60535 9.70887C7.70377 10.6105 6.48097 11.117 5.20594 11.117C3.93091 11.117 2.7081 10.6105 1.80652 9.70887C0.904941 8.80729 0.398438 7.58448 0.398438 6.30945C0.398438 5.03443 0.904941 3.81162 1.80652 2.91004C2.7081 2.00846 3.93091 1.50195 5.20594 1.50195C6.48097 1.50195 7.70377 2.00846 8.60535 2.91004C9.50694 3.81162 10.0134 5.03443 10.0134 6.30945ZM9.29781 6.30945C9.29781 5.22422 8.86671 4.18344 8.09933 3.41606C7.33196 2.64869 6.29117 2.21758 5.20594 2.21758C4.12071 2.21758 3.07992 2.64869 2.31255 3.41606C1.54517 4.18344 1.11406 5.22422 1.11406 6.30945C1.11406 6.84681 1.2199 7.3789 1.42554 7.87535C1.63117 8.3718 1.93258 8.82288 2.31255 9.20285C3.07992 9.97022 4.12071 10.4013 5.20594 10.4013C5.74329 10.4013 6.27538 10.2955 6.77183 10.0899C7.26828 9.88422 7.71937 9.58281 8.09933 9.20285C8.4793 8.82288 8.7807 8.3718 8.98634 7.87535C9.19197 7.3789 9.29781 6.84681 9.29781 6.30945Z" fill="#92C73E" stroke="#92C73E" stroke-width="0.412903"/>
<path id="Vector_2" d="M1.55567 6.43071C1.74005 4.56134 3.36567 3.17759 5.20317 3.17384C7.00005 3.16946 8.5488 4.46196 8.83817 6.25759C8.87984 6.51634 8.86609 6.71655 8.79692 6.85821C8.64067 7.17696 8.3538 7.21446 7.9988 7.21446C6.16505 7.21405 4.3313 7.21405 2.49755 7.21446C2.08505 7.21446 1.78317 7.20446 1.60817 6.84071C1.55692 6.73321 1.53942 6.59655 1.55567 6.43071ZM6.9963 4.48696C5.19505 3.13321 2.54255 4.21009 2.2688 6.46821C2.26836 6.472 2.26872 6.47583 2.26987 6.47946C2.27102 6.48309 2.27293 6.48644 2.27547 6.48927C2.27801 6.49211 2.28113 6.49437 2.28461 6.49591C2.28809 6.49746 2.29186 6.49824 2.29567 6.49821H4.9838C4.99496 6.49822 5.00597 6.4955 5.01588 6.49027C5.02578 6.48504 5.0343 6.47747 5.04067 6.46821C5.35734 6.00655 5.67692 5.54384 5.99942 5.08009C6.1388 4.87946 6.33567 4.73634 6.55817 4.89509C6.74609 5.02884 6.76901 5.20155 6.62692 5.41321C6.38692 5.76988 6.14713 6.12342 5.90755 6.47384C5.90596 6.47608 5.90504 6.47872 5.9049 6.48146C5.90477 6.4842 5.90541 6.48695 5.90676 6.48939C5.90811 6.49184 5.91012 6.4939 5.91258 6.49534C5.91503 6.49679 5.91783 6.49756 5.92067 6.49759L8.12255 6.49821C8.12698 6.49818 8.13134 6.49719 8.13535 6.49531C8.13936 6.49343 8.14291 6.4907 8.14576 6.48732C8.14861 6.48393 8.15069 6.47997 8.15187 6.4757C8.15304 6.47143 8.15327 6.46696 8.15255 6.46259C8.0113 5.61884 7.62588 4.9603 6.9963 4.48696Z" fill="#92C73E" stroke="#92C73E" stroke-width="0.412903"/>
<path id="Vector_3" d="M24.729 18.1957C24.7203 18.2144 24.7261 18.2238 24.7465 18.2238C26.1944 18.2242 27.6374 18.2246 29.0753 18.2251C29.6365 18.2257 30.114 18.5607 30.2997 19.0863C30.3467 19.2201 30.3705 19.4361 30.3709 19.7344C30.3722 21.7782 30.3724 23.8217 30.3715 25.8651C30.3711 26.028 30.3499 26.1451 30.3078 26.2163C30.1384 26.5007 29.6609 26.3688 29.6603 25.9844C29.6569 23.884 29.6549 21.7838 29.654 19.6838C29.654 19.1307 29.4628 18.9394 28.9284 18.9401C27.9305 18.9405 26.9336 18.9405 25.9378 18.9401C25.9331 18.9401 25.9287 18.9419 25.9254 18.9452C25.9221 18.9485 25.9203 18.9529 25.9203 18.9576C25.9199 20.0117 25.9186 21.0676 25.9165 22.1251C25.9159 22.5101 25.5009 22.6082 25.254 22.3363C25.1511 22.223 24.9069 21.9732 24.5215 21.5869C24.5061 21.5715 24.4907 21.5715 24.4753 21.5869C24.2324 21.8332 23.9934 22.0784 23.7584 22.3226C23.4415 22.6513 23.0747 22.4919 23.0759 22.0313C23.0788 21.0126 23.0784 19.9938 23.0747 18.9751C23.0747 18.9526 23.0634 18.9413 23.0409 18.9413C22.0667 18.9392 21.0955 18.939 20.1272 18.9407C19.5565 18.9419 19.3422 19.0988 19.3422 19.6688C19.3422 21.7426 19.3419 23.8163 19.3415 25.8901C19.3415 26.0417 19.3197 26.1521 19.2759 26.2213C19.0965 26.5038 18.6353 26.3626 18.6347 25.9844C18.6297 23.8819 18.6267 21.7794 18.6259 19.6769C18.6259 19.1588 18.4478 18.9413 17.9347 18.9407C16.9292 18.9403 15.9253 18.9403 14.9228 18.9407C14.9011 18.9407 14.8903 18.9515 14.8903 18.9732C14.8911 20.0432 14.8909 21.1146 14.8897 22.1876C14.889 22.3957 14.6159 22.5401 14.4272 22.4782C14.3667 22.4586 14.2867 22.398 14.1872 22.2963C13.9551 22.0588 13.7236 21.8207 13.4928 21.5819C13.49 21.5791 13.4867 21.5768 13.4831 21.5752C13.4794 21.5736 13.4755 21.5728 13.4715 21.5728C13.4676 21.5728 13.4636 21.5736 13.46 21.5752C13.4563 21.5768 13.453 21.5791 13.4503 21.5819C13.1828 21.8578 12.9105 22.1363 12.6334 22.4176C12.4215 22.6332 12.049 22.4251 12.0484 22.1094C12.0472 21.0678 12.0469 20.0207 12.0478 18.9682C12.0478 18.9607 12.0447 18.9536 12.0394 18.9483C12.034 18.943 12.0267 18.9401 12.019 18.9401C10.9836 18.9409 9.94507 18.9407 8.9034 18.9394C8.65173 18.939 8.47861 19.0349 8.38403 19.2269C8.33528 19.3261 8.3109 19.5013 8.3109 19.7526C8.31132 21.7934 8.31153 23.834 8.31153 25.8744C8.31153 26.0294 8.29236 26.1409 8.25403 26.2088C8.0884 26.5026 7.60465 26.3732 7.60403 25.9844C7.59861 23.8386 7.59486 21.6928 7.59278 19.5469C7.59153 18.8251 8.12215 18.2407 8.85653 18.2363C10.2682 18.228 11.6778 18.2234 13.0853 18.2226C13.0919 18.2226 13.0983 18.22 13.103 18.2154C13.1076 18.2108 13.1103 18.2046 13.1103 18.1982C13.1119 15.8599 13.1115 13.5205 13.109 11.1801C13.1086 10.688 13.1415 10.353 13.2078 10.1751C13.4215 9.60068 13.9272 9.37256 14.5222 9.37256C17.4917 9.37256 20.4611 9.37256 23.4303 9.37256C24.0384 9.37256 24.5465 9.59318 24.7634 10.1826C24.8267 10.3551 24.8582 10.6536 24.8578 11.0782C24.8561 13.2436 24.8557 15.4092 24.8565 17.5751C24.8565 17.8101 24.8209 17.9969 24.729 18.1957ZM18.1772 13.5232C17.9453 13.7532 17.5622 13.6007 17.5622 13.2969C17.5613 12.2344 17.5611 11.1719 17.5615 10.1094C17.5615 10.1021 17.5587 10.0951 17.5537 10.09C17.5486 10.0848 17.5418 10.0819 17.5347 10.0819C16.553 10.0819 15.5697 10.0819 14.5847 10.0819C14.2753 10.0819 14.0197 10.1151 13.889 10.3976C13.8469 10.4888 13.8261 10.6644 13.8265 10.9244C13.8269 13.3507 13.8269 15.7755 13.8265 18.1988C13.8265 18.2056 13.8292 18.2121 13.834 18.2169C13.8388 18.2217 13.8454 18.2244 13.8522 18.2244C17.0788 18.224 20.3042 18.224 23.5284 18.2244C23.7788 18.2244 23.9549 18.1311 24.0565 17.9444C24.1124 17.8411 24.1401 17.6651 24.1397 17.4163C24.1392 15.168 24.1394 12.9199 24.1403 10.6719C24.1403 10.1713 23.7709 10.0826 23.3315 10.0819C22.3628 10.0815 21.3972 10.0815 20.4347 10.0819C20.4267 10.0819 20.4191 10.0851 20.4134 10.0907C20.4078 10.0963 20.4047 10.104 20.4047 10.1119C20.4051 11.1419 20.4049 12.1726 20.404 13.2038C20.404 13.5919 20.0547 13.8057 19.7609 13.5019C19.5076 13.2403 19.2547 12.9803 19.0022 12.7219C19 12.7196 18.9973 12.7178 18.9944 12.7166C18.9915 12.7154 18.9884 12.7147 18.9852 12.7147C18.982 12.7147 18.9788 12.7154 18.9758 12.7166C18.9728 12.7178 18.9701 12.7196 18.9678 12.7219C18.7069 12.9915 18.4434 13.2586 18.1772 13.5232ZM18.699 11.9682C19.0559 11.5751 19.4478 12.1507 19.6603 12.3732C19.6799 12.3932 19.6897 12.3892 19.6897 12.3613L19.689 10.1282C19.689 10.1061 19.6782 10.0951 19.6565 10.0951H18.309C18.2886 10.0951 18.2784 10.1053 18.2784 10.1257V12.3588C18.2784 12.3842 18.2876 12.3882 18.3059 12.3707C18.4434 12.2398 18.5744 12.1057 18.699 11.9682ZM13.4878 20.6894C13.7065 20.7101 14.0003 21.0626 14.129 21.2213C14.1599 21.2588 14.1753 21.2534 14.1753 21.2051L14.1747 18.9801C14.1747 18.9731 14.172 18.9664 14.1671 18.9615C14.1623 18.9566 14.1558 18.9538 14.149 18.9538H12.794C12.7859 18.9538 12.7781 18.957 12.7724 18.9628C12.7666 18.9685 12.7634 18.9763 12.7634 18.9844V21.2044C12.7634 21.2428 12.7767 21.2482 12.8034 21.2207C12.9547 21.0651 13.2559 20.6682 13.4878 20.6894ZM24.5209 20.6888C24.7378 20.7144 25.0172 21.0488 25.1465 21.2076C25.1844 21.2542 25.2034 21.2476 25.2034 21.1876V18.9782C25.2034 18.9717 25.2008 18.9655 25.1961 18.9609C25.1914 18.9564 25.185 18.9538 25.1784 18.9538H23.809C23.7986 18.9538 23.7934 18.959 23.7934 18.9694V21.2188C23.7935 21.222 23.7945 21.225 23.7963 21.2276C23.7981 21.2302 23.8006 21.2322 23.8035 21.2334C23.8064 21.2346 23.8096 21.2349 23.8127 21.2343C23.8158 21.2337 23.8186 21.2322 23.8209 21.2301C23.974 21.0769 24.2897 20.6613 24.5209 20.6888Z" fill="#92C73E" stroke="#92C73E" stroke-width="0.412903"/>
<path id="Vector_4" d="M6.56825 27.0575C6.56825 27.0738 6.57658 27.0819 6.59325 27.0819C14.4599 27.0823 22.3266 27.0823 30.1932 27.0819C30.5262 27.0819 30.7691 27.1119 30.922 27.1719C31.7589 27.5013 31.6226 28.3456 31.627 29.0731C31.6287 29.3685 31.606 29.5875 31.5589 29.73C31.4497 30.0592 31.2387 30.2846 30.9257 30.4063C30.7637 30.4692 30.4868 30.5006 30.0951 30.5006C20.653 30.4998 11.211 30.4996 1.76887 30.5C1.46346 30.5 1.23637 30.4708 1.08762 30.4125C0.238873 30.08 0.380748 29.2394 0.374498 28.4988C0.372415 28.21 0.394706 27.995 0.441373 27.8538C0.553873 27.5146 0.773665 27.2846 1.10075 27.1638C1.25783 27.1058 1.51741 27.0781 1.8795 27.0806C2.5245 27.0852 3.16929 27.0848 3.81387 27.0794C3.83554 27.0794 3.84637 27.0683 3.84637 27.0463C3.84721 22.1463 3.84741 17.2467 3.847 12.3475C3.847 12.065 3.84637 11.7906 4.15575 11.7469C4.45325 11.705 4.56325 11.95 4.56325 12.2156C4.56325 17.1644 4.56325 22.1125 4.56325 27.06C4.56325 27.066 4.56562 27.0717 4.56984 27.0759C4.57406 27.0801 4.57978 27.0825 4.58575 27.0825H5.8295C5.83563 27.0825 5.84151 27.0801 5.84585 27.0757C5.85019 27.0714 5.85262 27.0655 5.85262 27.0594C5.85262 22.0773 5.85241 17.094 5.852 12.1094C5.852 11.6375 6.56825 11.605 6.56762 12.1563C6.56387 17.1271 6.56408 22.0942 6.56825 27.0575ZM30.9089 28.2163C30.9089 28.105 30.8647 27.9984 30.786 27.9197C30.7074 27.8411 30.6007 27.7969 30.4895 27.7969H1.512C1.40077 27.7969 1.2941 27.8411 1.21545 27.9197C1.13681 27.9984 1.09262 28.105 1.09262 28.2163V29.3625C1.09262 29.4737 1.13681 29.5804 1.21545 29.659C1.2941 29.7377 1.40077 29.7819 1.512 29.7819H30.4895C30.6007 29.7819 30.7074 29.7377 30.786 29.659C30.8647 29.5804 30.9089 29.4737 30.9089 29.3625V28.2163Z" fill="#92C73E" stroke="#92C73E" stroke-width="0.412903"/>
</g>
</svg>
