<svg width="33" height="33" viewBox="0 0 33 33" fill="none" xmlns="http://www.w3.org/2000/svg">
<path d="M16.4779 32.3243H9.59393C8.09247 32.3174 6.65455 31.7176 5.59318 30.6556C4.53182 29.5935 3.93296 28.1552 3.927 26.6537C3.927 24.3706 3.927 22.0879 3.927 19.8055C3.91388 19.5222 4.00711 19.2442 4.18837 19.0261C4.36964 18.808 4.62585 18.6655 4.90677 18.6265C5.18769 18.5875 5.47303 18.655 5.70681 18.8155C5.94059 18.9761 6.10594 19.2182 6.17041 19.4944C6.19921 19.6335 6.21083 19.7756 6.20499 19.9176C6.20499 22.1427 6.20499 24.3678 6.20499 26.593C6.19774 27.0489 6.2822 27.5017 6.45336 27.9244C6.62452 28.3471 6.87889 28.731 7.20135 29.0535C7.5238 29.376 7.90778 29.6303 8.33046 29.8015C8.75315 29.9727 9.20591 30.0571 9.66188 30.0499H23.3226C23.7749 30.0548 24.2237 29.9695 24.6427 29.799C25.0617 29.6284 25.4425 29.3761 25.7628 29.0566C26.0831 28.7372 26.3365 28.3571 26.5082 27.9386C26.6799 27.5201 26.7665 27.0715 26.7628 26.6192C26.7628 24.348 26.7628 22.0771 26.7628 19.8067C26.7522 19.5236 26.8475 19.2466 27.0302 19.03C27.2129 18.8135 27.4698 18.6728 27.7507 18.6355C28.0316 18.5983 28.3163 18.6671 28.5492 18.8286C28.782 18.9901 28.9462 19.2326 29.0098 19.5087C29.0353 19.6261 29.0461 19.7462 29.042 19.8663C29.042 22.1848 29.0491 24.5033 29.042 26.8219C28.9987 28.1499 28.4924 29.4211 27.6108 30.4153C26.7291 31.4095 25.5276 32.0641 24.2142 32.2659C23.8373 32.3112 23.4579 32.3339 23.0782 32.3338C20.8789 32.3398 18.6796 32.3338 16.4803 32.3338L16.4779 32.3243Z" fill="#92C73E"/>
<path d="M16.5006 3.02208C16.3444 3.214 16.2705 3.32487 16.1787 3.41666C11.6403 7.9599 7.101 12.5023 2.56094 17.044C2.46125 17.1702 2.33628 17.2743 2.19405 17.3494C2.05182 17.4246 1.89547 17.4692 1.735 17.4804C1.57452 17.4916 1.41346 17.4692 1.26216 17.4146C1.11085 17.36 0.972636 17.2743 0.856343 17.1632C0.641927 16.9616 0.51452 16.6844 0.501166 16.3904C0.487812 16.0964 0.589566 15.8087 0.784824 15.5885C0.855154 15.5075 0.933814 15.4348 1.00891 15.3585L15.5136 0.852589C15.622 0.692686 15.7682 0.561887 15.939 0.471711C16.1099 0.381535 16.3003 0.334751 16.4936 0.335457C16.6868 0.336164 16.8769 0.384344 17.0471 0.475767C17.2173 0.56719 17.3624 0.699045 17.4697 0.859737L32.0245 15.4157C32.1568 15.5174 32.2655 15.6468 32.3429 15.7947C32.4204 15.9426 32.4648 16.1056 32.4731 16.2723C32.4814 16.4391 32.4533 16.6056 32.3909 16.7605C32.3284 16.9153 32.2331 17.0548 32.1115 17.1692C31.9083 17.365 31.6391 17.4775 31.357 17.4843C31.0749 17.4912 30.8005 17.3919 30.5881 17.2061C30.4891 17.1215 30.3997 17.0249 30.3067 16.9319C25.8008 12.4237 21.2958 7.9146 16.7915 3.40474C16.6871 3.28302 16.5899 3.15524 16.5006 3.02208Z" fill="#92C73E"/>
</svg>
