<svg width="33" height="34" viewBox="0 0 33 34" fill="none" xmlns="http://www.w3.org/2000/svg">
<g id="Group 427319523 1">
<path id="Vector" d="M19.7299 8.09719C15.0499 5.51719 10.6599 6.32719 6.58993 9.58719C6.46327 9.68719 6.33993 9.68052 6.21993 9.56719L6.00993 9.35719C5.7566 9.09719 5.7666 8.85052 6.03993 8.61719C10.2333 4.97052 14.8566 4.40052 19.9099 6.90719C20.0315 6.96659 20.1293 7.06608 20.1874 7.18952C20.2455 7.31296 20.2605 7.4531 20.2299 7.58719L20.1399 7.90719C20.0799 8.15386 19.9433 8.21719 19.7299 8.09719Z" fill="#92C73E"/>
<path id="Vector_2" d="M19.4398 11.7071C15.8698 8.48712 12.3198 9.14712 8.5998 11.6571C8.5597 11.6848 8.51397 11.7032 8.4659 11.7111C8.41783 11.719 8.3686 11.7162 8.32176 11.7028C8.27491 11.6894 8.23161 11.6658 8.19497 11.6337C8.15832 11.6016 8.12924 11.5618 8.1098 11.5171C8.0698 11.4305 8.03647 11.3404 8.0098 11.2471C7.9698 11.1405 7.98314 11.0438 8.0498 10.9571C10.7598 7.20712 16.7398 7.97712 19.8398 10.5571C19.9369 10.6361 20.0044 10.7459 20.0316 10.8692C20.0588 10.9924 20.0441 11.122 19.9898 11.2371L19.8098 11.6271C19.7165 11.8205 19.5931 11.8471 19.4398 11.7071Z" fill="#92C73E"/>
<path id="Vector_3" d="M4.54876 20.4978C4.54749 20.7408 4.49837 20.9811 4.40423 21.205C4.31008 21.429 4.17274 21.6322 4.00005 21.8031C3.82736 21.974 3.6227 22.1092 3.39776 22.201C3.17282 22.2928 2.932 22.3394 2.68906 22.3381L2.28906 22.336C2.04611 22.3347 1.80579 22.2856 1.58183 22.1915C1.35786 22.0973 1.15463 21.96 0.983742 21.7873C0.812854 21.6146 0.677653 21.41 0.58586 21.185C0.494067 20.9601 0.447479 20.7193 0.448756 20.4763L0.490756 12.4564C0.492027 12.2135 0.541137 11.9732 0.635284 11.7492C0.729431 11.5252 0.86677 11.322 1.03946 11.1511C1.21215 10.9802 1.41681 10.845 1.64175 10.7532C1.86669 10.6614 2.10751 10.6148 2.35046 10.6161L2.75046 10.6182C2.9934 10.6195 3.23372 10.6686 3.45769 10.7627C3.68165 10.8569 3.88488 10.9942 4.05577 11.1669C4.22666 11.3396 4.36186 11.5443 4.45365 11.7692C4.54544 11.9941 4.59203 12.235 4.59076 12.4779L4.54876 20.4978ZM3.38626 12.709C3.38648 12.5829 3.36187 12.4581 3.31383 12.3415C3.26579 12.225 3.19527 12.119 3.10628 12.0297C3.01729 11.9404 2.91159 11.8695 2.7952 11.821C2.67882 11.7726 2.55402 11.7475 2.42796 11.7473L2.20796 11.7469C2.08189 11.7467 1.95701 11.7713 1.84045 11.8193C1.72389 11.8674 1.61794 11.9379 1.52864 12.0269C1.43933 12.1159 1.36843 12.2216 1.31998 12.338C1.27153 12.4544 1.24648 12.5791 1.24626 12.7052L1.23326 20.1452C1.23303 20.2713 1.25764 20.3962 1.30568 20.5127C1.35372 20.6293 1.42424 20.7352 1.51323 20.8245C1.60222 20.9138 1.70792 20.9847 1.82431 21.0332C1.9407 21.0816 2.06549 21.1067 2.19156 21.1069L2.41156 21.1073C2.53762 21.1075 2.6625 21.0829 2.77906 21.0349C2.89562 20.9869 3.00157 20.9163 3.09088 20.8273C3.18018 20.7384 3.25108 20.6326 3.29953 20.5163C3.34798 20.3999 3.37303 20.2751 3.37326 20.149L3.38626 12.709Z" fill="#92C73E"/>
<path id="Vector_4" d="M29.2399 15.0871L29.2499 20.4071C29.2566 21.7938 28.5666 22.4405 27.1799 22.3471L26.6899 22.3071C26.3009 22.2793 25.937 22.1059 25.6716 21.8219C25.4062 21.5379 25.2591 21.1646 25.2599 20.7771L25.2499 15.0671C25.2499 14.7205 25.0766 14.5438 24.7299 14.5371C23.7632 14.5105 23.0766 14.0705 22.6699 13.2171C22.5454 12.9513 22.4878 12.659 22.5022 12.3657C22.5165 12.0725 22.6024 11.7872 22.7523 11.5348C22.9021 11.2824 23.1115 11.0704 23.3621 10.9174C23.6127 10.7645 23.8969 10.6751 24.1899 10.6571C25.8232 10.5571 27.5499 10.5405 29.3699 10.6071C32.6599 10.7171 32.8399 14.2871 29.7599 14.5271C29.4132 14.5538 29.2399 14.7405 29.2399 15.0871ZM28.5699 13.3171C29.3366 13.3771 29.8566 13.3238 30.1299 13.1571C31.6832 12.2171 31.5566 11.7505 29.7499 11.7571L24.0899 11.7871C24.0377 11.7867 23.9861 11.7975 23.9384 11.819C23.8906 11.8404 23.8479 11.872 23.813 11.9117C23.778 11.9514 23.7517 11.9982 23.7356 12.0491C23.7196 12.1 23.7142 12.1539 23.7199 12.2071L23.7699 12.6071C23.7901 12.7735 23.8677 12.9279 23.9897 13.0444C24.1117 13.161 24.2707 13.2326 24.4399 13.2471L25.8999 13.3671C26.2866 13.3938 26.4799 13.6005 26.4799 13.9871L26.4899 20.8271C26.4896 20.8845 26.5014 20.9413 26.5244 20.9939C26.5475 21.0464 26.5813 21.0935 26.6238 21.1322C26.6662 21.1708 26.7162 21.2001 26.7707 21.2182C26.8251 21.2363 26.8828 21.2427 26.9399 21.2371L27.1999 21.2171C27.4172 21.1948 27.6184 21.0934 27.7644 20.9326C27.9104 20.7718 27.9908 20.5631 27.9899 20.3471L28.0099 13.8371C28.0166 13.4638 28.2032 13.2905 28.5699 13.3171Z" fill="#92C73E"/>
<path id="Vector_5" d="M19.3101 16.4672C19.3101 17.154 19.1748 17.8341 18.912 18.4686C18.6492 19.1031 18.2639 19.6797 17.7783 20.1654C17.2926 20.651 16.7161 21.0362 16.0815 21.2991C15.447 21.5619 14.7669 21.6972 14.0801 21.6972C12.693 21.6972 11.3627 21.1462 10.3819 20.1654C9.40111 19.1845 8.8501 17.8543 8.8501 16.4672C8.8501 15.0801 9.40111 13.7498 10.3819 12.769C11.3627 11.7882 12.693 11.2372 14.0801 11.2372C15.4672 11.2372 16.7974 11.7882 17.7783 12.769C18.7591 13.7498 19.3101 15.0801 19.3101 16.4672ZM18.1201 16.4572C18.1201 15.9266 18.0156 15.4013 17.8126 14.9111C17.6095 14.421 17.312 13.9756 16.9368 13.6005C16.5617 13.2253 16.1163 12.9277 15.6261 12.7247C15.136 12.5217 14.6106 12.4172 14.0801 12.4172C13.0086 12.4172 11.981 12.8428 11.2234 13.6005C10.4657 14.3581 10.0401 15.3857 10.0401 16.4572C10.0401 17.5287 10.4657 18.5562 11.2234 19.3139C11.981 20.0715 13.0086 20.4972 14.0801 20.4972C14.6106 20.4972 15.136 20.3927 15.6261 20.1897C16.1163 19.9866 16.5617 19.689 16.9368 19.3139C17.312 18.9387 17.6095 18.4934 17.8126 18.0032C18.0156 17.5131 18.1201 16.9877 18.1201 16.4572Z" fill="#92C73E"/>
<path id="Vector_6" d="M16.3101 16.4872C16.3101 16.7814 16.2521 17.0726 16.1396 17.3444C16.027 17.6162 15.862 17.8631 15.654 18.0711C15.446 18.2791 15.1991 18.4441 14.9273 18.5567C14.6555 18.6693 14.3642 18.7272 14.0701 18.7272C13.7759 18.7272 13.4846 18.6693 13.2129 18.5567C12.9411 18.4441 12.6942 18.2791 12.4862 18.0711C12.2782 17.8631 12.1132 17.6162 12.0006 17.3444C11.888 17.0726 11.8301 16.7814 11.8301 16.4872C11.8301 15.8931 12.0661 15.3234 12.4862 14.9033C12.9062 14.4832 13.476 14.2472 14.0701 14.2472C14.6642 14.2472 15.2339 14.4832 15.654 14.9033C16.0741 15.3234 16.3101 15.8931 16.3101 16.4872ZM15.1401 16.4472C15.1401 16.1634 15.0273 15.8913 14.8267 15.6906C14.626 15.4899 14.3539 15.3772 14.0701 15.3772C13.7863 15.3772 13.5141 15.4899 13.3135 15.6906C13.1128 15.8913 13.0001 16.1634 13.0001 16.4472C13.0001 16.731 13.1128 17.0031 13.3135 17.2038C13.5141 17.4045 13.7863 17.5172 14.0701 17.5172C14.3539 17.5172 14.626 17.4045 14.8267 17.2038C15.0273 17.0031 15.1401 16.731 15.1401 16.4472Z" fill="#92C73E"/>
<path id="Vector_7" d="M8.56019 21.1271C11.6602 23.9171 16.2602 24.2971 19.3902 21.1871C19.4242 21.1527 19.4651 21.126 19.5103 21.1087C19.5554 21.0913 19.6037 21.0839 19.652 21.0867C19.7002 21.0895 19.7474 21.1026 19.7902 21.1251C19.833 21.1476 19.8705 21.179 19.9002 21.2171L20.1602 21.5471C20.2351 21.6389 20.2709 21.7565 20.2596 21.8744C20.2484 21.9924 20.1911 22.1011 20.1002 22.1771C16.0602 25.4571 12.0569 25.4438 8.09019 22.1371C8.03088 22.0867 7.98716 22.0204 7.96413 21.946C7.94111 21.8716 7.93974 21.7922 7.96019 21.7171L8.09019 21.2671C8.17686 20.9738 8.33352 20.9271 8.56019 21.1271Z" fill="#92C73E"/>
<path id="Vector_8" d="M6.75989 24.4571C6.24656 24.4438 5.93989 24.2105 5.83989 23.7571C5.82455 23.6804 5.83043 23.6009 5.85691 23.5273C5.8834 23.4536 5.92947 23.3886 5.99018 23.3392C6.05088 23.2899 6.12391 23.258 6.20139 23.247C6.27888 23.2361 6.35788 23.2465 6.42989 23.2771C6.90989 23.4838 7.07989 23.8338 6.93989 24.3271C6.93045 24.3668 6.90709 24.4017 6.87405 24.4256C6.84101 24.4494 6.8005 24.4606 6.75989 24.4571Z" fill="#92C73E"/>
<path id="Vector_9" d="M8.38009 24.6571C12.6201 27.3271 17.7901 26.7971 21.4101 23.3671C21.4854 23.2943 21.5864 23.2538 21.6924 23.2538C21.7983 23.2538 21.9013 23.2943 21.9801 23.3671L22.2301 23.5871C22.3501 23.7004 22.3601 23.8238 22.2601 23.9571C19.0501 28.3171 12.0701 28.1371 7.84009 25.7571C7.75986 25.7114 7.69269 25.6459 7.645 25.5668C7.5973 25.4878 7.57068 25.3978 7.56767 25.3055C7.56466 25.2132 7.58537 25.1217 7.62781 25.0397C7.67025 24.9577 7.73301 24.8879 7.81009 24.8371L8.08009 24.6571C8.12449 24.6274 8.17669 24.6116 8.23009 24.6116C8.28349 24.6116 8.33569 24.6274 8.38009 24.6571Z" fill="#92C73E"/>
</g>
</svg>
