<svg xmlns="http://www.w3.org/2000/svg" width="37.69" height="33.614" viewBox="0 0 37.69 33.614">
  <path id="Icon_awesome-hand-holding-heart" data-name="Icon awesome-hand-holding-heart" d="M17.535,15.955a1.11,1.11,0,0,0,1.624,0L26.1,8.681a5.28,5.28,0,0,0-.357-7.567,4.842,4.842,0,0,0-6.681.49l-.713.745-.707-.739a4.836,4.836,0,0,0-6.681-.5A5.285,5.285,0,0,0,10.6,8.681ZM36.006,20.9a2.108,2.108,0,0,0-2.713,0L27.407,25.6a4.055,4.055,0,0,1-2.548.892H17.325a1.019,1.019,0,0,1,0-2.038h4.987a2.121,2.121,0,0,0,2.121-1.694,2.041,2.041,0,0,0-2.013-2.382H12.229a7.5,7.5,0,0,0-4.72,1.675l-2.962,2.4H1.019A1.022,1.022,0,0,0,0,25.477v6.115a1.022,1.022,0,0,0,1.019,1.019H23.745a4.081,4.081,0,0,0,2.548-.892l9.63-7.707A2.037,2.037,0,0,0,36.006,20.9Z" transform="translate(0.5 0.504)" fill="#02b2b2" stroke="#fff" stroke-width="1"/>
</svg>
