<svg xmlns="http://www.w3.org/2000/svg" width="39.246" height="27.772" viewBox="0 0 39.246 27.772">
  <path id="Icon_awesome-user-friends" data-name="Icon awesome-user-friends" d="M11.474,15.636A6.693,6.693,0,1,0,4.781,8.943,6.69,6.69,0,0,0,11.474,15.636Zm4.59,1.912h-.5a9.241,9.241,0,0,1-8.187,0h-.5A6.886,6.886,0,0,0,0,24.433v1.721a2.869,2.869,0,0,0,2.868,2.868H20.079a2.869,2.869,0,0,0,2.868-2.868V24.433A6.886,6.886,0,0,0,16.063,17.548Zm12.621-1.912A5.737,5.737,0,1,0,22.948,9.9,5.738,5.738,0,0,0,28.685,15.636Zm2.868,1.912h-.227a7.536,7.536,0,0,1-5.283,0h-.227a6.637,6.637,0,0,0-3.329.92,8.745,8.745,0,0,1,2.372,5.964v2.295c0,.131-.03.257-.036.382H35.378a2.869,2.869,0,0,0,2.868-2.868,6.69,6.69,0,0,0-6.693-6.693Z" transform="translate(0.5 -1.75)" fill="none" stroke="#000" stroke-width="1"/>
</svg>
