<svg xmlns="http://www.w3.org/2000/svg" width="33.001" height="25.99" viewBox="0 0 33.001 25.99">
  <path id="home" d="M15.575,8.709,5.333,17.145v9.1a.889.889,0,0,0,.889.889l6.225-.016a.889.889,0,0,0,.884-.889V20.916a.889.889,0,0,1,.889-.889h3.555a.889.889,0,0,1,.889.889v5.313a.889.889,0,0,0,.889.892l6.223.017a.889.889,0,0,0,.889-.889v-9.11L16.425,8.709A.677.677,0,0,0,15.575,8.709Zm16.178,5.733-4.644-3.828V2.92a.667.667,0,0,0-.667-.667H23.331a.667.667,0,0,0-.667.667V6.954L17.691,2.862a2.666,2.666,0,0,0-3.389,0L.241,14.443a.667.667,0,0,0-.089.939L1.569,17.1a.667.667,0,0,0,.939.091L15.575,6.432a.677.677,0,0,1,.85,0L29.492,17.194a.667.667,0,0,0,.939-.089l1.417-1.722a.667.667,0,0,0-.094-.94Z" transform="translate(0.502 -1.648)" fill="none" stroke="#fff" stroke-width="1"/>
</svg>
