<svg width="50" height="50" viewBox="0 0 50 50" fill="none" xmlns="http://www.w3.org/2000/svg">
<g id="Icon">
<circle id="Ellipse 3" cx="24.8276" cy="24.8276" r="24.8276" fill="#F7F5FF"/>
<path id="Vector" d="M39.0006 16V24C39.0006 24.2652 38.8952 24.5196 38.7077 24.7071C38.5201 24.8946 38.2658 25 38.0006 25C37.7353 25 37.481 24.8946 37.2934 24.7071C37.1059 24.5196 37.0006 24.2652 37.0006 24V18.4137L26.7081 28.7075C26.6152 28.8005 26.5049 28.8742 26.3835 28.9246C26.2621 28.9749 26.132 29.0008 26.0006 29.0008C25.8691 29.0008 25.739 28.9749 25.6176 28.9246C25.4962 28.8742 25.3859 28.8005 25.2931 28.7075L21.0006 24.4137L12.7081 32.7075C12.5204 32.8951 12.2659 33.0006 12.0006 33.0006C11.7352 33.0006 11.4807 32.8951 11.2931 32.7075C11.1054 32.5199 11 32.2654 11 32C11 31.7346 11.1054 31.4801 11.2931 31.2925L20.2931 22.2925C20.3859 22.1995 20.4962 22.1258 20.6176 22.0754C20.739 22.0251 20.8691 21.9992 21.0006 21.9992C21.132 21.9992 21.2621 22.0251 21.3835 22.0754C21.5049 22.1258 21.6152 22.1995 21.7081 22.2925L26.0006 26.5863L35.5868 17H30.0006C29.7353 17 29.481 16.8946 29.2934 16.7071C29.1059 16.5196 29.0006 16.2652 29.0006 16C29.0006 15.7348 29.1059 15.4804 29.2934 15.2929C29.481 15.1054 29.7353 15 30.0006 15H38.0006C38.2658 15 38.5201 15.1054 38.7077 15.2929C38.8952 15.4804 39.0006 15.7348 39.0006 16Z" fill="#92C73E"/>
</g>
</svg>
