<svg width="33" height="33" viewBox="0 0 33 33" fill="none" xmlns="http://www.w3.org/2000/svg">
<g id="Buildings">
<path id="Vector" d="M30.5 26.3372H28.5V12.3372C28.5 11.8068 28.2893 11.2981 27.9142 10.923C27.5391 10.548 27.0304 10.3372 26.5 10.3372H18.5V4.33724C18.5002 3.97507 18.4021 3.61963 18.2161 3.30886C18.0301 2.9981 17.7633 2.74366 17.444 2.57273C17.1247 2.40179 16.765 2.32075 16.4032 2.33828C16.0415 2.35581 15.6913 2.47123 15.39 2.67224L5.39 9.33724C5.11567 9.52026 4.89086 9.76828 4.73558 10.0592C4.5803 10.3501 4.49937 10.675 4.5 11.0047V26.3372H2.5C2.23478 26.3372 1.98043 26.4426 1.79289 26.6301C1.60536 26.8177 1.5 27.072 1.5 27.3372C1.5 27.6025 1.60536 27.8568 1.79289 28.0443C1.98043 28.2319 2.23478 28.3372 2.5 28.3372H30.5C30.7652 28.3372 31.0196 28.2319 31.2071 28.0443C31.3946 27.8568 31.5 27.6025 31.5 27.3372C31.5 27.072 31.3946 26.8177 31.2071 26.6301C31.0196 26.4426 30.7652 26.3372 30.5 26.3372ZM26.5 12.3372V26.3372H18.5V12.3372H26.5ZM6.5 11.0047L16.5 4.33724V26.3372H6.5V11.0047ZM14.5 14.3372V16.3372C14.5 16.6025 14.3946 16.8568 14.2071 17.0443C14.0196 17.2319 13.7652 17.3372 13.5 17.3372C13.2348 17.3372 12.9804 17.2319 12.7929 17.0443C12.6054 16.8568 12.5 16.6025 12.5 16.3372V14.3372C12.5 14.072 12.6054 13.8177 12.7929 13.6301C12.9804 13.4426 13.2348 13.3372 13.5 13.3372C13.7652 13.3372 14.0196 13.4426 14.2071 13.6301C14.3946 13.8177 14.5 14.072 14.5 14.3372ZM10.5 14.3372V16.3372C10.5 16.6025 10.3946 16.8568 10.2071 17.0443C10.0196 17.2319 9.76522 17.3372 9.5 17.3372C9.23478 17.3372 8.98043 17.2319 8.79289 17.0443C8.60536 16.8568 8.5 16.6025 8.5 16.3372V14.3372C8.5 14.072 8.60536 13.8177 8.79289 13.6301C8.98043 13.4426 9.23478 13.3372 9.5 13.3372C9.76522 13.3372 10.0196 13.4426 10.2071 13.6301C10.3946 13.8177 10.5 14.072 10.5 14.3372ZM10.5 21.3372V23.3372C10.5 23.6025 10.3946 23.8568 10.2071 24.0443C10.0196 24.2319 9.76522 24.3372 9.5 24.3372C9.23478 24.3372 8.98043 24.2319 8.79289 24.0443C8.60536 23.8568 8.5 23.6025 8.5 23.3372V21.3372C8.5 21.072 8.60536 20.8177 8.79289 20.6301C8.98043 20.4426 9.23478 20.3372 9.5 20.3372C9.76522 20.3372 10.0196 20.4426 10.2071 20.6301C10.3946 20.8177 10.5 21.072 10.5 21.3372ZM14.5 21.3372V23.3372C14.5 23.6025 14.3946 23.8568 14.2071 24.0443C14.0196 24.2319 13.7652 24.3372 13.5 24.3372C13.2348 24.3372 12.9804 24.2319 12.7929 24.0443C12.6054 23.8568 12.5 23.6025 12.5 23.3372V21.3372C12.5 21.072 12.6054 20.8177 12.7929 20.6301C12.9804 20.4426 13.2348 20.3372 13.5 20.3372C13.7652 20.3372 14.0196 20.4426 14.2071 20.6301C14.3946 20.8177 14.5 21.072 14.5 21.3372Z" fill="white"/>
</g>
</svg>
