<svg width="33" height="32" viewBox="0 0 33 32" fill="none" xmlns="http://www.w3.org/2000/svg">
<g id="packages" clip-path="url(#clip0_3886_24718)">
<path id="Vector" d="M10.5134 6.30945C10.5134 7.58448 10.0069 8.80729 9.10535 9.70887C8.20377 10.6105 6.98097 11.117 5.70594 11.117C4.43091 11.117 3.2081 10.6105 2.30652 9.70887C1.40494 8.80729 0.898438 7.58448 0.898438 6.30945C0.898438 5.03443 1.40494 3.81162 2.30652 2.91004C3.2081 2.00846 4.43091 1.50195 5.70594 1.50195C6.98097 1.50195 8.20377 2.00846 9.10535 2.91004C10.0069 3.81162 10.5134 5.03443 10.5134 6.30945ZM9.79781 6.30945C9.79781 5.22422 9.36671 4.18344 8.59933 3.41606C7.83196 2.64869 6.79117 2.21758 5.70594 2.21758C4.62071 2.21758 3.57992 2.64869 2.81255 3.41606C2.04517 4.18344 1.61406 5.22422 1.61406 6.30945C1.61406 6.84681 1.7199 7.3789 1.92554 7.87535C2.13117 8.3718 2.43258 8.82288 2.81255 9.20285C3.57992 9.97022 4.62071 10.4013 5.70594 10.4013C6.24329 10.4013 6.77538 10.2955 7.27183 10.0899C7.76828 9.88422 8.21937 9.58281 8.59933 9.20285C8.9793 8.82288 9.2807 8.3718 9.48634 7.87535C9.69197 7.3789 9.79781 6.84681 9.79781 6.30945Z" fill="white" stroke="white" stroke-width="0.412903"/>
<path id="Vector_2" d="M2.05567 6.43071C2.24005 4.56134 3.86567 3.17759 5.70317 3.17384C7.50005 3.16946 9.0488 4.46196 9.33817 6.25759C9.37984 6.51634 9.36609 6.71655 9.29692 6.85821C9.14067 7.17696 8.8538 7.21446 8.4988 7.21446C6.66505 7.21405 4.8313 7.21405 2.99755 7.21446C2.58505 7.21446 2.28317 7.20446 2.10817 6.84071C2.05692 6.73321 2.03942 6.59655 2.05567 6.43071ZM7.4963 4.48696C5.69505 3.13321 3.04255 4.21009 2.7688 6.46821C2.76836 6.472 2.76872 6.47583 2.76987 6.47946C2.77102 6.48309 2.77293 6.48644 2.77547 6.48927C2.77801 6.49211 2.78113 6.49437 2.78461 6.49591C2.78809 6.49746 2.79186 6.49824 2.79567 6.49821H5.4838C5.49496 6.49822 5.50597 6.4955 5.51588 6.49027C5.52578 6.48504 5.5343 6.47747 5.54067 6.46821C5.85734 6.00655 6.17692 5.54384 6.49942 5.08009C6.6388 4.87946 6.83567 4.73634 7.05817 4.89509C7.24609 5.02884 7.26901 5.20155 7.12692 5.41321C6.88692 5.76988 6.64713 6.12342 6.40755 6.47384C6.40596 6.47608 6.40504 6.47872 6.4049 6.48146C6.40477 6.4842 6.40541 6.48695 6.40676 6.48939C6.40811 6.49184 6.41012 6.4939 6.41258 6.49534C6.41503 6.49679 6.41783 6.49756 6.42067 6.49759L8.62255 6.49821C8.62698 6.49818 8.63134 6.49719 8.63535 6.49531C8.63936 6.49343 8.64291 6.4907 8.64576 6.48732C8.64861 6.48393 8.65069 6.47997 8.65187 6.4757C8.65304 6.47143 8.65327 6.46696 8.65255 6.46259C8.5113 5.61884 8.12588 4.9603 7.4963 4.48696Z" fill="white" stroke="white" stroke-width="0.412903"/>
<path id="Vector_3" d="M25.229 18.1957C25.2203 18.2144 25.2261 18.2238 25.2465 18.2238C26.6944 18.2242 28.1374 18.2246 29.5753 18.2251C30.1365 18.2257 30.614 18.5607 30.7997 19.0863C30.8467 19.2201 30.8705 19.4361 30.8709 19.7344C30.8722 21.7782 30.8724 23.8217 30.8715 25.8651C30.8711 26.028 30.8499 26.1451 30.8078 26.2163C30.6384 26.5007 30.1609 26.3688 30.1603 25.9844C30.1569 23.884 30.1549 21.7838 30.154 19.6838C30.154 19.1307 29.9628 18.9394 29.4284 18.9401C28.4305 18.9405 27.4336 18.9405 26.4378 18.9401C26.4331 18.9401 26.4287 18.9419 26.4254 18.9452C26.4221 18.9485 26.4203 18.9529 26.4203 18.9576C26.4199 20.0117 26.4186 21.0676 26.4165 22.1251C26.4159 22.5101 26.0009 22.6082 25.754 22.3363C25.6511 22.223 25.4069 21.9732 25.0215 21.5869C25.0061 21.5715 24.9907 21.5715 24.9753 21.5869C24.7324 21.8332 24.4934 22.0784 24.2584 22.3226C23.9415 22.6513 23.5747 22.4919 23.5759 22.0313C23.5788 21.0126 23.5784 19.9938 23.5747 18.9751C23.5747 18.9526 23.5634 18.9413 23.5409 18.9413C22.5667 18.9392 21.5955 18.939 20.6272 18.9407C20.0565 18.9419 19.8422 19.0988 19.8422 19.6688C19.8422 21.7426 19.8419 23.8163 19.8415 25.8901C19.8415 26.0417 19.8197 26.1521 19.7759 26.2213C19.5965 26.5038 19.1353 26.3626 19.1347 25.9844C19.1297 23.8819 19.1267 21.7794 19.1259 19.6769C19.1259 19.1588 18.9478 18.9413 18.4347 18.9407C17.4292 18.9403 16.4253 18.9403 15.4228 18.9407C15.4011 18.9407 15.3903 18.9515 15.3903 18.9732C15.3911 20.0432 15.3909 21.1146 15.3897 22.1876C15.389 22.3957 15.1159 22.5401 14.9272 22.4782C14.8667 22.4586 14.7867 22.398 14.6872 22.2963C14.4551 22.0588 14.2236 21.8207 13.9928 21.5819C13.99 21.5791 13.9867 21.5768 13.9831 21.5752C13.9794 21.5736 13.9755 21.5728 13.9715 21.5728C13.9676 21.5728 13.9636 21.5736 13.96 21.5752C13.9563 21.5768 13.953 21.5791 13.9503 21.5819C13.6828 21.8578 13.4105 22.1363 13.1334 22.4176C12.9215 22.6332 12.549 22.4251 12.5484 22.1094C12.5472 21.0678 12.5469 20.0207 12.5478 18.9682C12.5478 18.9607 12.5447 18.9536 12.5394 18.9483C12.534 18.943 12.5267 18.9401 12.519 18.9401C11.4836 18.9409 10.4451 18.9407 9.4034 18.9394C9.15173 18.939 8.97861 19.0349 8.88403 19.2269C8.83528 19.3261 8.8109 19.5013 8.8109 19.7526C8.81132 21.7934 8.81153 23.834 8.81153 25.8744C8.81153 26.0294 8.79236 26.1409 8.75403 26.2088C8.5884 26.5026 8.10465 26.3732 8.10403 25.9844C8.09861 23.8386 8.09486 21.6928 8.09278 19.5469C8.09153 18.8251 8.62215 18.2407 9.35653 18.2363C10.7682 18.228 12.1778 18.2234 13.5853 18.2226C13.5919 18.2226 13.5983 18.22 13.603 18.2154C13.6076 18.2108 13.6103 18.2046 13.6103 18.1982C13.6119 15.8599 13.6115 13.5205 13.609 11.1801C13.6086 10.688 13.6415 10.353 13.7078 10.1751C13.9215 9.60068 14.4272 9.37256 15.0222 9.37256C17.9917 9.37256 20.9611 9.37256 23.9303 9.37256C24.5384 9.37256 25.0465 9.59318 25.2634 10.1826C25.3267 10.3551 25.3582 10.6536 25.3578 11.0782C25.3561 13.2436 25.3557 15.4092 25.3565 17.5751C25.3565 17.8101 25.3209 17.9969 25.229 18.1957ZM18.6772 13.5232C18.4453 13.7532 18.0622 13.6007 18.0622 13.2969C18.0613 12.2344 18.0611 11.1719 18.0615 10.1094C18.0615 10.1021 18.0587 10.0951 18.0537 10.09C18.0486 10.0848 18.0418 10.0819 18.0347 10.0819C17.053 10.0819 16.0697 10.0819 15.0847 10.0819C14.7753 10.0819 14.5197 10.1151 14.389 10.3976C14.3469 10.4888 14.3261 10.6644 14.3265 10.9244C14.3269 13.3507 14.3269 15.7755 14.3265 18.1988C14.3265 18.2056 14.3292 18.2121 14.334 18.2169C14.3388 18.2217 14.3454 18.2244 14.3522 18.2244C17.5788 18.224 20.8042 18.224 24.0284 18.2244C24.2788 18.2244 24.4549 18.1311 24.5565 17.9444C24.6124 17.8411 24.6401 17.6651 24.6397 17.4163C24.6392 15.168 24.6394 12.9199 24.6403 10.6719C24.6403 10.1713 24.2709 10.0826 23.8315 10.0819C22.8628 10.0815 21.8972 10.0815 20.9347 10.0819C20.9267 10.0819 20.9191 10.0851 20.9134 10.0907C20.9078 10.0963 20.9047 10.104 20.9047 10.1119C20.9051 11.1419 20.9049 12.1726 20.904 13.2038C20.904 13.5919 20.5547 13.8057 20.2609 13.5019C20.0076 13.2403 19.7547 12.9803 19.5022 12.7219C19.5 12.7196 19.4973 12.7178 19.4944 12.7166C19.4915 12.7154 19.4884 12.7147 19.4852 12.7147C19.482 12.7147 19.4788 12.7154 19.4758 12.7166C19.4728 12.7178 19.4701 12.7196 19.4678 12.7219C19.2069 12.9915 18.9434 13.2586 18.6772 13.5232ZM19.199 11.9682C19.5559 11.5751 19.9478 12.1507 20.1603 12.3732C20.1799 12.3932 20.1897 12.3892 20.1897 12.3613L20.189 10.1282C20.189 10.1061 20.1782 10.0951 20.1565 10.0951H18.809C18.7886 10.0951 18.7784 10.1053 18.7784 10.1257V12.3588C18.7784 12.3842 18.7876 12.3882 18.8059 12.3707C18.9434 12.2398 19.0744 12.1057 19.199 11.9682ZM13.9878 20.6894C14.2065 20.7101 14.5003 21.0626 14.629 21.2213C14.6599 21.2588 14.6753 21.2534 14.6753 21.2051L14.6747 18.9801C14.6747 18.9731 14.672 18.9664 14.6671 18.9615C14.6623 18.9566 14.6558 18.9538 14.649 18.9538H13.294C13.2859 18.9538 13.2781 18.957 13.2724 18.9628C13.2666 18.9685 13.2634 18.9763 13.2634 18.9844V21.2044C13.2634 21.2428 13.2767 21.2482 13.3034 21.2207C13.4547 21.0651 13.7559 20.6682 13.9878 20.6894ZM25.0209 20.6888C25.2378 20.7144 25.5172 21.0488 25.6465 21.2076C25.6844 21.2542 25.7034 21.2476 25.7034 21.1876V18.9782C25.7034 18.9717 25.7008 18.9655 25.6961 18.9609C25.6914 18.9564 25.685 18.9538 25.6784 18.9538H24.309C24.2986 18.9538 24.2934 18.959 24.2934 18.9694V21.2188C24.2935 21.222 24.2945 21.225 24.2963 21.2276C24.2981 21.2302 24.3006 21.2322 24.3035 21.2334C24.3064 21.2346 24.3096 21.2349 24.3127 21.2343C24.3158 21.2337 24.3186 21.2322 24.3209 21.2301C24.474 21.0769 24.7897 20.6613 25.0209 20.6888Z" fill="white" stroke="white" stroke-width="0.412903"/>
<path id="Vector_4" d="M7.06825 27.0575C7.06825 27.0738 7.07658 27.0819 7.09325 27.0819C14.9599 27.0823 22.8266 27.0823 30.6932 27.0819C31.0262 27.0819 31.2691 27.1119 31.422 27.1719C32.2589 27.5013 32.1226 28.3456 32.127 29.0731C32.1287 29.3685 32.106 29.5875 32.0589 29.73C31.9497 30.0592 31.7387 30.2846 31.4257 30.4063C31.2637 30.4692 30.9868 30.5006 30.5951 30.5006C21.153 30.4998 11.711 30.4996 2.26887 30.5C1.96346 30.5 1.73637 30.4708 1.58762 30.4125C0.738873 30.08 0.880748 29.2394 0.874498 28.4988C0.872415 28.21 0.894706 27.995 0.941373 27.8538C1.05387 27.5146 1.27366 27.2846 1.60075 27.1638C1.75783 27.1058 2.01741 27.0781 2.3795 27.0806C3.0245 27.0852 3.66929 27.0848 4.31387 27.0794C4.33554 27.0794 4.34637 27.0683 4.34637 27.0463C4.34721 22.1463 4.34741 17.2467 4.347 12.3475C4.347 12.065 4.34637 11.7906 4.65575 11.7469C4.95325 11.705 5.06325 11.95 5.06325 12.2156C5.06325 17.1644 5.06325 22.1125 5.06325 27.06C5.06325 27.066 5.06562 27.0717 5.06984 27.0759C5.07406 27.0801 5.07978 27.0825 5.08575 27.0825H6.3295C6.33563 27.0825 6.34151 27.0801 6.34585 27.0757C6.35019 27.0714 6.35262 27.0655 6.35262 27.0594C6.35262 22.0773 6.35241 17.094 6.352 12.1094C6.352 11.6375 7.06825 11.605 7.06762 12.1563C7.06387 17.1271 7.06408 22.0942 7.06825 27.0575ZM31.4089 28.2163C31.4089 28.105 31.3647 27.9984 31.286 27.9197C31.2074 27.8411 31.1007 27.7969 30.9895 27.7969H2.012C1.90077 27.7969 1.7941 27.8411 1.71545 27.9197C1.63681 27.9984 1.59262 28.105 1.59262 28.2163V29.3625C1.59262 29.4737 1.63681 29.5804 1.71545 29.659C1.7941 29.7377 1.90077 29.7819 2.012 29.7819H30.9895C31.1007 29.7819 31.2074 29.7377 31.286 29.659C31.3647 29.5804 31.4089 29.4737 31.4089 29.3625V28.2163Z" fill="white" stroke="white" stroke-width="0.412903"/>
</g>
<defs>
<clipPath id="clip0_3886_24718">
<rect width="32" height="32" fill="white" transform="translate(0.5)"/>
</clipPath>
</defs>
</svg>
