<svg width="33" height="33" viewBox="0 0 33 33" fill="none" xmlns="http://www.w3.org/2000/svg">
<g id="file-text">
<path id="Vector" d="M19.1668 3.00391H8.50016C7.79292 3.00391 7.11464 3.28486 6.61454 3.78495C6.11445 4.28505 5.8335 4.96333 5.8335 5.67057V27.0039C5.8335 27.7111 6.11445 28.3894 6.61454 28.8895C7.11464 29.3896 7.79292 29.6706 8.50016 29.6706H24.5002C25.2074 29.6706 25.8857 29.3896 26.3858 28.8895C26.8859 28.3894 27.1668 27.7111 27.1668 27.0039V11.0039L19.1668 3.00391Z" stroke="white" stroke-width="2" stroke-linecap="round" stroke-linejoin="round"/>
<path id="Vector_2" d="M19.1665 3.00391V11.0039H27.1665" stroke="white" stroke-width="2" stroke-linecap="round" stroke-linejoin="round"/>
<path id="Vector_3" d="M21.8332 17.6704H11.1665" stroke="white" stroke-width="2" stroke-linecap="round" stroke-linejoin="round"/>
<path id="Vector_4" d="M21.8332 23.0039H11.1665" stroke="white" stroke-width="2" stroke-linecap="round" stroke-linejoin="round"/>
<path id="Vector_5" d="M13.8332 12.3372H12.4998H11.1665" stroke="white" stroke-width="2" stroke-linecap="round" stroke-linejoin="round"/>
</g>
</svg>
