<svg width="33" height="33" viewBox="0 0 33 33" fill="none" xmlns="http://www.w3.org/2000/svg">
<path d="M13.4722 23.5793C13.4235 23.7731 12.2047 28.3368 5.50096 28.3368C5.23575 28.3368 4.98139 28.2315 4.79386 28.0439C4.60632 27.8564 4.50096 27.602 4.50096 27.3368C4.50096 20.6331 9.06471 19.4143 9.25846 19.3656C9.51589 19.3012 9.78832 19.3418 10.0158 19.4784C10.2433 19.6149 10.4073 19.8363 10.4716 20.0937C10.5359 20.3511 10.4953 20.6235 10.3588 20.851C10.2222 21.0786 10.0009 21.2425 9.74346 21.3068C9.63096 21.3381 6.94096 22.1243 6.54846 26.2893C10.7135 25.8968 11.501 23.2118 11.5335 23.0868C11.5998 22.8297 11.7655 22.6095 11.9942 22.4746C12.2228 22.3397 12.4957 22.3011 12.7528 22.3674C13.0099 22.4337 13.2302 22.5995 13.3651 22.8281C13.5 23.0568 13.5385 23.3297 13.4722 23.5868V23.5793ZM25.0972 15.1543L24.501 15.7506V23.0418C24.5024 23.3055 24.4515 23.5668 24.3511 23.8106C24.2506 24.0543 24.1027 24.2757 23.916 24.4618L19.626 28.7493C19.441 28.9356 19.2209 29.0835 18.9785 29.1843C18.736 29.2851 18.476 29.337 18.2135 29.3368C17.9968 29.3368 17.7815 29.3017 17.576 29.2331C17.2231 29.1163 16.9099 28.9032 16.6718 28.6179C16.4336 28.3325 16.2801 27.9861 16.2285 27.6181L15.5572 22.8068L10.031 17.2806L5.22221 16.6093C4.85364 16.5576 4.50681 16.4041 4.22072 16.166C3.93464 15.928 3.72065 15.6148 3.60284 15.2618C3.48503 14.9087 3.46807 14.5298 3.55386 14.1677C3.63965 13.8055 3.8248 13.4745 4.08846 13.2118L8.37596 8.92181C8.56206 8.73504 8.78344 8.58714 9.02722 8.48671C9.271 8.38628 9.53231 8.33532 9.79596 8.33681H17.0872L17.6835 7.74056C21.0185 4.40681 25.0372 4.26306 26.6097 4.35681C27.0973 4.38644 27.5572 4.5935 27.9026 4.93891C28.248 5.28433 28.4551 5.74422 28.4847 6.23181C28.576 7.80056 28.4322 11.8193 25.0985 15.1543H25.0972ZM5.50096 14.6293L10.1447 15.2768L15.0872 10.3368H9.79596L5.50096 14.6293ZM11.916 16.3368L16.501 20.9218L23.6822 13.7406C24.65 12.7793 25.4008 11.622 25.8842 10.3465C26.3676 9.071 26.5723 7.70678 26.4847 6.34556C25.1242 6.26119 23.7614 6.4681 22.4872 6.95246C21.213 7.43682 20.0569 8.18748 19.096 9.15431L11.916 16.3368ZM22.501 17.7506L17.5597 22.6918L18.2097 27.3368L22.501 23.0418V17.7506Z" fill="white"/>
</svg>
