<svg width="33" height="33" viewBox="0 0 33 33" fill="none" xmlns="http://www.w3.org/2000/svg">
<g id="Users" clip-path="url(#clip0_2102_1847)">
<path id="Vector" d="M15.1563 20.0773C16.4966 19.185 17.5141 17.8851 18.0584 16.3698C18.6028 14.8545 18.645 13.2043 18.1789 11.6631C17.7129 10.122 16.7632 8.77174 15.4703 7.81206C14.1775 6.85238 12.6102 6.33423 11.0001 6.33423C9.38997 6.33423 7.82261 6.85238 6.52978 7.81206C5.23694 8.77174 4.28726 10.122 3.82118 11.6631C3.35509 13.2043 3.39734 14.8545 3.94168 16.3698C4.48603 17.8851 5.50356 19.185 6.84381 20.0773C4.41943 20.9708 2.34894 22.6243 0.941312 24.791C0.867332 24.901 0.815945 25.0245 0.790139 25.1545C0.764332 25.2845 0.764621 25.4183 0.790989 25.5482C0.817356 25.6781 0.869276 25.8014 0.94373 25.9111C1.01818 26.0207 1.11369 26.1144 1.22469 26.1868C1.33569 26.2592 1.45998 26.3089 1.59032 26.3328C1.72067 26.3567 1.85447 26.3545 1.98396 26.3263C2.11344 26.2981 2.23603 26.2444 2.34458 26.1684C2.45314 26.0924 2.54551 25.9955 2.61631 25.8835C3.5243 24.487 4.76676 23.3394 6.23086 22.545C7.69496 21.7506 9.33432 21.3345 11.0001 21.3345C12.6658 21.3345 14.3052 21.7506 15.7693 22.545C17.2334 23.3394 18.4758 24.487 19.3838 25.8835C19.5305 26.1015 19.757 26.253 20.0145 26.3053C20.272 26.3576 20.5397 26.3064 20.7598 26.1629C20.9799 26.0193 21.1346 25.795 21.1906 25.5382C21.2465 25.2815 21.1992 25.0131 21.0588 24.791C19.6512 22.6243 17.5807 20.9708 15.1563 20.0773ZM5.50006 13.8373C5.50006 12.7495 5.82263 11.6861 6.42698 10.7816C7.03133 9.87716 7.89031 9.17222 8.8953 8.75593C9.9003 8.33965 11.0062 8.23073 12.0731 8.44295C13.14 8.65517 14.12 9.179 14.8891 9.94818C15.6583 10.7174 16.1822 11.6974 16.3944 12.7643C16.6066 13.8312 16.4977 14.937 16.0814 15.942C15.6651 16.947 14.9602 17.806 14.0557 18.4104C13.1512 19.0147 12.0879 19.3373 11.0001 19.3373C9.54188 19.3356 8.14389 18.7556 7.1128 17.7245C6.08171 16.6934 5.50172 15.2955 5.50006 13.8373ZM31.7676 26.1748C31.5454 26.3196 31.2749 26.3703 31.0154 26.3157C30.7559 26.2611 30.5287 26.1056 30.3838 25.8835C29.4769 24.4862 28.2346 23.3381 26.7702 22.544C25.3058 21.7499 23.6659 21.335 22.0001 21.3373C21.7348 21.3373 21.4805 21.2319 21.293 21.0444C21.1054 20.8568 21.0001 20.6025 21.0001 20.3373C21.0001 20.0721 21.1054 19.8177 21.293 19.6302C21.4805 19.4426 21.7348 19.3373 22.0001 19.3373C22.81 19.3365 23.6098 19.1569 24.3423 18.8112C25.0748 18.4655 25.7219 17.9623 26.2373 17.3375C26.7528 16.7127 27.1239 15.9818 27.3242 15.197C27.5244 14.4122 27.5488 13.5928 27.3957 12.7975C27.2426 12.0021 26.9157 11.2504 26.4383 10.596C25.961 9.94165 25.345 9.40078 24.6344 9.01206C23.9239 8.62334 23.1362 8.39637 22.3277 8.34735C21.5192 8.29834 20.7099 8.42849 19.9576 8.72852C19.8349 8.78155 19.7028 8.80945 19.5692 8.81058C19.4356 8.81171 19.3031 8.78604 19.1795 8.7351C19.056 8.68415 18.9439 8.60896 18.8499 8.51396C18.7559 8.41896 18.6819 8.30609 18.6323 8.18201C18.5827 8.05793 18.5584 7.92516 18.5609 7.79154C18.5635 7.65793 18.5928 7.52618 18.6471 7.40409C18.7015 7.28199 18.7797 7.17202 18.8772 7.08068C18.9748 6.98933 19.0897 6.91847 19.2151 6.87227C20.9369 6.18559 22.852 6.16087 24.591 6.80291C26.33 7.44494 27.7696 8.70822 28.6321 10.349C29.4946 11.9899 29.7189 13.892 29.2617 15.6884C28.8045 17.4849 27.6982 19.0484 26.1563 20.0773C28.5807 20.9708 30.6512 22.6243 32.0588 24.791C32.2037 25.0131 32.2543 25.2837 32.1997 25.5432C32.1451 25.8027 31.9897 26.0299 31.7676 26.1748Z" fill="white"/>
</g>
<defs>
<clipPath id="clip0_2102_1847">
<rect width="32" height="32" fill="white" transform="translate(0.5 0.337158)"/>
</clipPath>
</defs>
</svg>
