<svg xmlns="http://www.w3.org/2000/svg" width="37.808" height="31.999" viewBox="0 0 37.808 31.999">
  <g id="Icon_ionic-ios-log-out" data-name="Icon ionic-ios-log-out" transform="translate(-3.375 -5.625)">
    <path id="Path_1" data-name="Path 1" d="M27.375,32.17A1.276,1.276,0,0,0,26.1,33.443a1.641,1.641,0,0,1-1.636,1.636H7.557A1.641,1.641,0,0,1,5.92,33.443V9.807A1.641,1.641,0,0,1,7.557,8.17H24.465A1.641,1.641,0,0,1,26.1,9.807a1.273,1.273,0,1,0,2.545,0,4.182,4.182,0,0,0-4.182-4.182H7.557A4.182,4.182,0,0,0,3.375,9.807V33.443a4.182,4.182,0,0,0,4.182,4.182H24.465a4.182,4.182,0,0,0,4.182-4.182A1.276,1.276,0,0,0,27.375,32.17Z" fill="#02b2b2"/>
    <path id="Path_2" data-name="Path 2" d="M30.851,11.2a1.265,1.265,0,0,0-.9-.373,1.243,1.243,0,0,0-.9.373,1.267,1.267,0,0,0,0,1.8l5.927,5.836h-23.3a1.273,1.273,0,0,0,0,2.545H35.006L29.224,27.21a1.284,1.284,0,0,0,0,1.8l.009.009a1.315,1.315,0,0,0,.891.355,1.228,1.228,0,0,0,.9-.373l7.509-7.491a1.786,1.786,0,0,0,0-2.654Z" transform="translate(2.059 1.524)" fill="#02b2b2"/>
  </g>
</svg>
