<svg xmlns="http://www.w3.org/2000/svg" width="61.98" height="89.252" viewBox="0 0 61.98 89.252">
  <g id="Group_16609" data-name="Group 16609" transform="translate(-1381 -133.139)">
    <g id="Group_56" data-name="Group 56" transform="translate(1396.801 133.139)">
      <g id="Group_14" data-name="Group 14" transform="translate(0 0)">
        <path id="Path_1" data-name="Path 1" d="M67.878,81.591a6.975,6.975,0,0,1-9.28,6.653,26.7,26.7,0,0,1-.482-49.93,7.024,7.024,0,0,1,9.621,6.478Z" transform="translate(-36.896 -37.821)" fill="#135ddf"/>
        <path id="Path_2" data-name="Path 2" d="M32.558,111.423a6.066,6.066,0,0,0,7.833,5.79,26.7,26.7,0,0,0-.2-51.053,6.067,6.067,0,0,0-7.788,5.851Z" transform="translate(-32.406 -52.29)" fill="#02b2b2"/>
        <path id="Path_3" data-name="Path 3" d="M45.956,66.511a26.7,26.7,0,0,0,14.895,36.517,6.745,6.745,0,0,0,1.443.348A26.7,26.7,0,0,0,45.956,66.511Z" transform="translate(-38.057 -52.604)" fill="#ffce00"/>
      </g>
    </g>
    <g id="Group_55" data-name="Group 55" transform="translate(1381 207.352)">
      <path id="Path_24" data-name="Path 24" d="M119.725,51.41a.779.779,0,0,1-.572-.238.754.754,0,0,1-.238-.564.78.78,0,0,1,.238-.572.793.793,0,0,1,.572-.23h3.518a2.132,2.132,0,0,0,1.453-.453,1.665,1.665,0,0,0,.548-1.278,1.558,1.558,0,0,0-.508-1.429,4.73,4.73,0,0,0-1.929-.389,6.463,6.463,0,0,1-2.533-.548,2.822,2.822,0,0,1-1.358-2.723,3.355,3.355,0,0,1,.8-2.192,2.731,2.731,0,0,1,2.184-1.016h3.422a.78.78,0,0,1,.572.238.767.767,0,0,1,.23.564.787.787,0,0,1-.8.8H121.9a1.2,1.2,0,0,0-1.056.58,1.79,1.79,0,0,0-.318,1.04,1.391,1.391,0,0,0,.508,1.294,5.1,5.1,0,0,0,1.882.357,6.443,6.443,0,0,1,2.588.58,2.946,2.946,0,0,1,1.342,2.882,3.2,3.2,0,0,1-1.024,2.39,3.682,3.682,0,0,1-2.581.905Z" transform="translate(-118.915 -39.777)" fill="#135ddf"/>
      <path id="Path_25" data-name="Path 25" d="M178.492,65.358a4.214,4.214,0,0,1-1.159,2.986,3.732,3.732,0,0,1-4.629.746,3.966,3.966,0,0,1-1.413-1.366.78.78,0,0,1-.1-.6.819.819,0,0,1,.961-.611.789.789,0,0,1,.5.357,2.152,2.152,0,0,0,1.906,1.112,2.122,2.122,0,0,0,1.644-.77,2.664,2.664,0,0,0,.683-1.842v-.024a3.726,3.726,0,0,1-5.113-.413,4.23,4.23,0,0,1-1.151-2.986V58.529a.78.78,0,0,1,.238-.572.767.767,0,0,1,.564-.23.786.786,0,0,1,.8.8v3.414a2.693,2.693,0,0,0,.683,1.85,2.154,2.154,0,0,0,1.652.762,2.13,2.13,0,0,0,1.644-.762,2.692,2.692,0,0,0,.683-1.85V58.529a.779.779,0,0,1,.238-.572.793.793,0,0,1,.572-.23.767.767,0,0,1,.564.23.78.78,0,0,1,.238.572Z" transform="translate(-161.444 -54.543)" fill="#135ddf"/>
      <path id="Path_26" data-name="Path 26" d="M227.909,57.771A3.669,3.669,0,0,1,230.688,59a4.213,4.213,0,0,1,1.159,2.986V65.4a.78.78,0,0,1-.238.572.753.753,0,0,1-.564.238.813.813,0,0,1-.81-.81V61.987a2.665,2.665,0,0,0-.683-1.842,2.146,2.146,0,0,0-3.287-.008,2.676,2.676,0,0,0-.691,1.85V65.4a.793.793,0,0,1-.23.572.779.779,0,0,1-.572.238.753.753,0,0,1-.564-.238.779.779,0,0,1-.238-.572V58.573a.779.779,0,0,1,.238-.572.767.767,0,0,1,.564-.23.787.787,0,0,1,.8.8v.016A3.682,3.682,0,0,1,227.909,57.771Z" transform="translate(-205.335 -54.579)" fill="#135ddf"/>
      <path id="Path_27" data-name="Path 27" d="M279.312,57.771a4.216,4.216,0,0,1,4.216,4.216V65.4a.779.779,0,0,1-.238.572.753.753,0,0,1-.564.238.779.779,0,0,1-.572-.238.793.793,0,0,1-.23-.572V61.987a2.616,2.616,0,1,0-2.612,2.612,3.142,3.142,0,0,0,1-.191,1.133,1.133,0,0,1,.619-.063.746.746,0,0,1,.469.389.8.8,0,0,1-.326,1.088,3.617,3.617,0,0,1-1.763.389,4.22,4.22,0,1,1,0-8.441Z" transform="translate(-247.384 -54.579)" fill="#135ddf"/>
      <path id="Path_28" data-name="Path 28" d="M335.846,57.771a4.22,4.22,0,0,1,0,8.441A4.158,4.158,0,0,1,334,65.791a.8.8,0,0,1-.413-.461.81.81,0,0,1,.04-.619.777.777,0,0,1,.46-.4.769.769,0,0,1,.611.032,2.588,2.588,0,0,0,1.143.262,2.605,2.605,0,1,0-2.62-2.612v6.606a.787.787,0,0,1-.8.8.766.766,0,0,1-.564-.23.78.78,0,0,1-.238-.572V61.987a4.216,4.216,0,0,1,4.224-4.216Z" transform="translate(-293.889 -54.579)" fill="#135ddf"/>
      <path id="Path_29" data-name="Path 29" d="M389.353,61.659a2.856,2.856,0,0,1,.008,3.716,2.579,2.579,0,0,1-2.033.873h-2.4a.814.814,0,0,1-.8-.8.779.779,0,0,1,.238-.572.754.754,0,0,1,.564-.238h2.4a1.064,1.064,0,0,0,.834-.326,1.152,1.152,0,0,0,.27-.786,1.246,1.246,0,0,0-.151-.6q-.27-.516-1.866-.516a2.168,2.168,0,0,1-1.7-.73,2.39,2.39,0,0,1-.016-3.121,2.176,2.176,0,0,1,1.715-.738h2.334a.8.8,0,0,1,.8.8.754.754,0,0,1-.238.564.77.77,0,0,1-.564.238h-2.334a.641.641,0,0,0-.508.2.72.72,0,0,0-.167.492.6.6,0,0,0,.675.691A3.876,3.876,0,0,1,389.353,61.659Z" transform="translate(-337.081 -54.616)" fill="#135ddf"/>
      <path id="Path_30" data-name="Path 30" d="M430.114,60.479v.008a.8.8,0,0,1-.445,1.04l-4.494,1.8a.8.8,0,0,1-.294.056.8.8,0,0,1-.3-1.548l3.645-1.461a2.611,2.611,0,1,0,.008,3.216.78.78,0,0,1,.54-.3.767.767,0,0,1,.588.167.792.792,0,0,1,.143,1.127,4.022,4.022,0,0,1-3.327,1.628,4.22,4.22,0,1,1,0-8.441,4.232,4.232,0,0,1,3.938,2.7Z" transform="translate(-368.195 -54.579)" fill="#135ddf"/>
    </g>
  </g>
</svg>
