<svg width="31" height="31" viewBox="0 0 31 31" fill="none" xmlns="http://www.w3.org/2000/svg">
<g id="ts-icon-web-server (1) 1">
<g id="Group 427319541">
<path id="Vector" d="M4.29636 5.09416C4.2813 5.11194 4.27304 5.1344 4.27305 5.15752V25.3928C4.27305 25.4603 4.29981 25.5251 4.34746 25.5728C4.3951 25.6206 4.45972 25.6474 4.5271 25.6474C6.50009 25.6482 8.47587 25.6482 10.4544 25.6474C10.7278 25.6474 10.9277 25.6737 11.054 25.7263C11.6488 25.9744 11.8036 26.7443 11.3499 27.2069C11.1574 27.403 10.9157 27.5004 10.6248 27.4993C8.73669 27.4913 6.84878 27.4861 4.96107 27.4837C4.49681 27.4833 4.16107 27.4536 3.95385 27.3946C3.25328 27.1956 2.64775 26.6044 2.48456 25.8757C2.45189 25.7303 2.43555 25.5053 2.43555 25.2009C2.43555 18.5494 2.43575 11.898 2.43614 5.24659C2.43614 4.22024 3.11101 3.38398 4.11106 3.17237C4.26727 3.1393 4.55599 3.12276 4.97721 3.12276C10.0143 3.12236 15.0514 3.12256 20.0885 3.12336C20.5647 3.12336 20.9076 3.15284 21.1172 3.21182C21.9858 3.4575 22.6248 4.24116 22.6289 5.17187C22.6341 6.44708 22.6367 7.72229 22.6367 8.9975C22.6373 10.0173 21.2571 10.3323 20.868 9.37648C20.8237 9.26769 20.8014 9.10151 20.801 8.87795C20.7998 7.6398 20.7996 6.41938 20.8004 5.2167C20.8005 5.18305 20.7939 5.14972 20.7811 5.11861C20.7683 5.0875 20.7495 5.05923 20.7257 5.03541C20.7019 5.01158 20.6737 4.99269 20.6426 4.97979C20.6115 4.9669 20.5782 4.96026 20.5446 4.96026C15.2712 4.95986 9.99198 4.95986 4.70702 4.96026C4.53487 4.96026 4.41472 4.95368 4.29636 5.09416Z" fill="#92C73E" stroke="white" stroke-width="0.27326"/>
<path id="Vector_2" d="M15.611 8.75903H8.23588C7.74101 8.75903 7.33984 9.1602 7.33984 9.65507V9.69213C7.33984 10.187 7.74101 10.5882 8.23588 10.5882H15.611C16.1059 10.5882 16.507 10.187 16.507 9.69213V9.65507C16.507 9.1602 16.1059 8.75903 15.611 8.75903Z" fill="#92C73E" stroke="white" stroke-width="0.27326"/>
<path id="Vector_3" d="M28.1663 19.2211C28.1663 21.4119 27.296 23.5129 25.7469 25.0621C24.1978 26.6112 22.0967 27.4815 19.9059 27.4815C17.7151 27.4815 15.614 26.6112 14.0649 25.0621C12.5158 23.5129 11.6455 21.4119 11.6455 19.2211C11.6455 17.0303 12.5158 14.9292 14.0649 13.3801C15.614 11.831 17.7151 10.9607 19.9059 10.9607C22.0967 10.9607 24.1978 11.831 25.7469 13.3801C27.296 14.9292 28.1663 17.0303 28.1663 19.2211ZM19.1725 13.1826C18.552 13.8365 18.1616 14.7792 17.9219 15.6543C17.921 15.6577 17.9208 15.6614 17.9216 15.6649C17.9223 15.6684 17.9239 15.6717 17.9262 15.6745C17.9285 15.6772 17.9314 15.6794 17.9347 15.6808C17.9381 15.6822 17.9417 15.6827 17.9453 15.6824C19.2512 15.556 20.5571 15.5558 21.863 15.6818C21.8666 15.6822 21.8703 15.6817 21.8737 15.6804C21.8771 15.679 21.8801 15.6768 21.8825 15.674C21.8849 15.6712 21.8866 15.6678 21.8875 15.6642C21.8884 15.6605 21.8883 15.6567 21.8875 15.6531C21.6621 14.8049 20.5377 11.742 19.1725 13.1826ZM16.6427 13.8012C16.6595 13.7638 16.6718 13.7299 16.6798 13.6996C16.6846 13.6797 16.6782 13.6749 16.6607 13.6853C15.505 14.3767 14.6413 15.3323 14.0694 16.5521C14.0571 16.5784 14.0644 16.5862 14.0915 16.5754C14.6857 16.3407 15.2944 16.1538 15.9177 16.0147C15.938 16.0103 15.9505 15.998 15.9553 15.9777C16.14 15.2221 16.3265 14.5155 16.6427 13.8012ZM25.749 16.5413C25.1771 15.3279 24.3165 14.3765 23.1673 13.6871C23.1421 13.6719 23.1354 13.6779 23.1469 13.705C23.4681 14.4354 23.7058 15.1922 23.8601 15.9753C23.8636 15.9936 23.8744 16.0046 23.8923 16.0081C24.5196 16.1389 25.1295 16.3258 25.7221 16.5688C25.7547 16.5824 25.7637 16.5732 25.749 16.5413ZM22.2599 17.5868C22.2587 17.5749 22.2521 17.5681 22.2401 17.5665C20.6904 17.376 19.1406 17.3752 17.5908 17.5641C17.5705 17.5665 17.5593 17.5779 17.5573 17.5982C17.4425 18.6821 17.4402 19.7664 17.5501 20.8512C17.5508 20.8578 17.5537 20.8639 17.5585 20.8687C17.5633 20.8735 17.5696 20.8766 17.5764 20.8775C19.125 21.0676 20.6736 21.0682 22.2222 20.8793C22.2409 20.8773 22.2513 20.8667 22.2533 20.8476C22.3685 19.7609 22.3706 18.6739 22.2599 17.5868ZM25.3485 18.3932C24.8587 18.1844 24.4684 18.0385 24.1775 17.9556C24.1528 17.9485 24.1414 17.9576 24.1434 17.9831C24.2036 18.8124 24.2022 19.6415 24.1392 20.4704C24.139 20.4729 24.1394 20.4754 24.1404 20.4777C24.1414 20.48 24.1429 20.482 24.1449 20.4836C24.1468 20.4852 24.1491 20.4863 24.1515 20.4868C24.154 20.4873 24.1565 20.4872 24.1589 20.4865C24.7519 20.3347 25.3052 20.0956 25.8189 19.7692C25.9743 19.67 26.3724 19.3879 26.3348 19.1709C26.2875 18.8977 25.621 18.5098 25.3485 18.3932ZM13.5607 19.3926C14.0604 19.9503 14.9254 20.2941 15.6559 20.4931C15.6603 20.4944 15.665 20.4946 15.6695 20.4936C15.6741 20.4927 15.6783 20.4906 15.6819 20.4877C15.6855 20.4848 15.6883 20.481 15.6901 20.4767C15.6919 20.4725 15.6927 20.4678 15.6923 20.4632C15.6313 19.6443 15.6323 18.8254 15.6953 18.0064C15.6977 17.9782 15.6851 17.9676 15.6576 17.9748C14.9965 18.1481 14.1722 18.4577 13.6635 18.9407C13.5458 19.0531 13.4179 19.2342 13.5607 19.3926ZM14.0909 21.8668C14.0642 21.8556 14.0571 21.8632 14.0694 21.8895C14.6345 23.1133 15.4961 24.0689 16.6541 24.7563C16.6804 24.7714 16.6874 24.7653 16.675 24.7378C16.3562 24.0129 16.1203 23.2617 15.9673 22.4842C15.9644 22.4702 15.9575 22.4574 15.9474 22.4473C15.9373 22.4372 15.9245 22.4303 15.9105 22.4274C15.2856 22.2991 14.6791 22.1122 14.0909 21.8668ZM25.6856 21.8889C25.101 22.114 24.503 22.2963 23.8917 22.4358C23.8754 22.4394 23.8654 22.4494 23.8618 22.4657C23.7036 23.248 23.4653 24.0049 23.1469 24.7366C23.1354 24.7637 23.1423 24.7699 23.1679 24.7551C24.1739 24.1663 25.0203 23.299 25.5732 22.2726C25.6354 22.1575 25.68 22.0357 25.7071 21.9074C25.7111 21.8879 25.7039 21.8817 25.6856 21.8889ZM19.7965 25.6374C20.8605 25.8036 21.692 23.5429 21.8881 22.7915C21.8936 22.7692 21.8851 22.7592 21.8624 22.7616C20.558 22.8867 19.2539 22.8867 17.95 22.7616C17.9301 22.76 17.9225 22.7688 17.9273 22.7879C18.127 23.5805 18.8556 25.4903 19.7965 25.6374Z" fill="#92C73E" stroke="white" stroke-width="0.27326"/>
</g>
</g>
</svg>
