<svg width="25" height="25" viewBox="0 0 25 25" fill="none" xmlns="http://www.w3.org/2000/svg">
<g clip-path="url(#clip0_2768_106140)">
<path d="M24.7714 13.0527L22.4277 15.3965C22.3551 15.4691 22.269 15.5267 22.1741 15.5661C22.0793 15.6054 21.9776 15.6256 21.8749 15.6256C21.7723 15.6256 21.6706 15.6054 21.5758 15.5661C21.4809 15.5267 21.3948 15.4691 21.3222 15.3965L18.9785 13.0527C18.8319 12.9061 18.7495 12.7073 18.7495 12.5C18.7495 12.2927 18.8319 12.0938 18.9785 11.9473C19.1251 11.8007 19.3239 11.7183 19.5312 11.7183C19.7385 11.7183 19.9373 11.8007 20.0839 11.9473L21.0937 12.958V12.5C21.0946 10.6803 20.5178 8.90728 19.4465 7.43637C18.3752 5.96545 16.8647 4.87256 15.1325 4.31514C13.4002 3.75772 11.5358 3.76453 9.8077 4.33461C8.0796 4.90468 6.57707 6.00859 5.51655 7.48729C5.39559 7.65564 5.21272 7.76905 5.00815 7.80257C4.80358 7.83608 4.59408 7.78696 4.42573 7.66601C4.25738 7.54505 4.14397 7.36218 4.11046 7.15761C4.07694 6.95304 4.12606 6.74354 4.24702 6.57519C5.50042 4.82765 7.2762 3.52308 9.31852 2.84942C11.3609 2.17576 13.5643 2.16779 15.6115 2.82664C17.6586 3.4855 19.4438 4.77717 20.7098 6.51559C21.9758 8.25401 22.6574 10.3494 22.6562 12.5V12.958L23.666 11.9473C23.8126 11.8007 24.0114 11.7183 24.2187 11.7183C24.426 11.7183 24.6248 11.8007 24.7714 11.9473C24.918 12.0939 25.0004 12.2927 25.0004 12.5C25.0004 12.7073 24.918 12.9061 24.7714 13.0527ZM20.7499 18.4238C19.4962 20.17 17.7207 21.4734 15.679 22.1463C13.6373 22.8192 11.4348 22.8269 9.38845 22.1683C7.34212 21.5097 5.55754 20.2188 4.29158 18.4814C3.02563 16.744 2.34361 14.6497 2.3437 12.5V12.042L1.33393 13.0527C1.18734 13.1993 0.988512 13.2817 0.781196 13.2817C0.573881 13.2817 0.375056 13.1993 0.228462 13.0527C0.0818675 12.9061 -0.000488281 12.7073 -0.000488281 12.5C-0.000488281 12.2927 0.0818675 12.0938 0.228462 11.9473L2.57221 9.60351C2.64477 9.53087 2.73093 9.47324 2.82577 9.43393C2.92062 9.39461 3.02228 9.37438 3.12495 9.37438C3.22761 9.37438 3.32928 9.39461 3.42412 9.43393C3.51896 9.47324 3.60512 9.53087 3.67768 9.60351L6.02143 11.9473C6.16802 12.0938 6.25038 12.2927 6.25038 12.5C6.25038 12.7073 6.16802 12.9061 6.02143 13.0527C5.87484 13.1993 5.67601 13.2817 5.4687 13.2817C5.26138 13.2817 5.06256 13.1993 4.91596 13.0527L3.9062 12.042V12.5C3.90434 14.6037 4.67753 16.6344 6.07807 18.2041C6.94939 16.9415 8.17457 15.9647 9.59956 15.3965C8.83411 14.7936 8.27556 13.9672 8.00158 13.0321C7.7276 12.0971 7.7518 11.0999 8.07083 10.1792C8.38986 9.25858 8.98785 8.46023 9.78165 7.8952C10.5754 7.33016 11.5256 7.02653 12.4999 7.02653C13.4743 7.02653 14.4244 7.33016 15.2182 7.8952C16.012 8.46023 16.61 9.25858 16.9291 10.1792C17.2481 11.0999 17.2723 12.0971 16.9983 13.0321C16.7243 13.9672 16.1658 14.7936 15.4003 15.3965C16.8266 15.9648 18.0527 16.9427 18.9238 18.207C19.1213 17.9852 19.3074 17.7534 19.4814 17.5127C19.6023 17.3443 19.7852 17.2309 19.9898 17.1974C20.1944 17.1639 20.4039 17.213 20.5722 17.334C20.7406 17.4549 20.854 17.6378 20.8875 17.8424C20.921 18.0469 20.8719 18.2564 20.7509 18.4248L20.7499 18.4238ZM12.4999 14.8437C13.118 14.8437 13.7222 14.6605 14.2361 14.3171C14.75 13.9737 15.1505 13.4856 15.3871 12.9146C15.6236 12.3436 15.6855 11.7153 15.5649 11.1091C15.4443 10.5029 15.1467 9.94607 14.7097 9.50903C14.2726 9.07199 13.7158 8.77436 13.1096 8.65379C12.5034 8.53321 11.8751 8.59509 11.3041 8.83162C10.733 9.06814 10.245 9.46868 9.9016 9.98258C9.55822 10.4965 9.37495 11.1007 9.37495 11.7187C9.37495 12.5475 9.70419 13.3424 10.2902 13.9284C10.8763 14.5145 11.6711 14.8437 12.4999 14.8437ZM12.4999 21.0937C14.4066 21.0913 16.2586 20.4562 17.7656 19.2881C17.2004 18.4042 16.4218 17.6768 15.5016 17.1729C14.5814 16.669 13.5491 16.4049 12.4999 16.4049C11.4508 16.4049 10.4185 16.669 9.49831 17.1729C8.57808 17.6768 7.79949 18.4042 7.23432 19.2881C8.73903 20.4604 10.5925 21.0959 12.4999 21.0937Z" fill="#92C73E"/>
</g>
<defs>
<clipPath id="clip0_2768_106140">
<rect width="25" height="25" fill="white"/>
</clipPath>
</defs>
</svg>
