<svg width="51" height="51" viewBox="0 0 51 51" fill="none" xmlns="http://www.w3.org/2000/svg">
<g id="x">
<path id="x (Stroke)" d="M14.8105 14.8105C15.4329 14.1882 16.4421 14.1882 17.0645 14.8105L25.5 23.2461L33.9355 14.8105C34.5579 14.1882 35.5671 14.1882 36.1895 14.8105C36.8118 15.4329 36.8118 16.4421 36.1895 17.0645L27.7539 25.5L36.1895 33.9355C36.8118 34.5579 36.8118 35.5671 36.1895 36.1895C35.5671 36.8118 34.5579 36.8118 33.9355 36.1895L25.5 27.7539L17.0645 36.1895C16.4421 36.8118 15.4329 36.8118 14.8105 36.1895C14.1882 35.5671 14.1882 34.5579 14.8105 33.9355L23.2461 25.5L14.8105 17.0645C14.1882 16.4421 14.1882 15.4329 14.8105 14.8105Z" fill="#4B41D9"/>
</g>
</svg>
