<svg width="24" height="24" viewBox="0 0 24 24" fill="none" xmlns="http://www.w3.org/2000/svg">
<path d="M9.84697 18.228C9.80244 18.405 8.68933 22.5732 2.56661 22.5732C2.32438 22.5732 2.09207 22.4769 1.92079 22.3057C1.74951 22.1344 1.65328 21.9021 1.65328 21.6598C1.65328 15.5371 5.82148 14.424 5.99844 14.3795C6.23355 14.3207 6.48237 14.3578 6.69016 14.4825C6.89794 14.6072 7.04768 14.8094 7.10642 15.0445C7.16516 15.2796 7.12809 15.5284 7.00338 15.7362C6.87866 15.944 6.67652 16.0937 6.4414 16.1525C6.33865 16.181 3.8818 16.8991 3.52332 20.7031C7.32733 20.3446 8.04657 17.8924 8.07626 17.7782C8.13681 17.5434 8.28817 17.3422 8.49703 17.219C8.70588 17.0958 8.95513 17.0606 9.18994 17.1212C9.42476 17.1817 9.62589 17.3331 9.74911 17.5419C9.87233 17.7508 9.90753 18.0001 9.84697 18.2349V18.228ZM20.4644 10.5332L19.9198 11.0778V17.7371C19.9212 17.9779 19.8746 18.2166 19.7829 18.4392C19.6912 18.6619 19.5561 18.8641 19.3855 19.034L15.4674 22.9499C15.2984 23.1201 15.0974 23.2551 14.876 23.3472C14.6546 23.4393 14.4171 23.4866 14.1773 23.4865C13.9794 23.4864 13.7828 23.4544 13.595 23.3917C13.2727 23.2851 12.9867 23.0905 12.7692 22.8298C12.5517 22.5692 12.4115 22.2529 12.3643 21.9167L11.7513 17.5225L6.70398 12.4752L2.31202 11.8621C1.97539 11.8149 1.65862 11.6747 1.39733 11.4573C1.13604 11.2398 0.940603 10.9538 0.833004 10.6314C0.725405 10.3089 0.709912 9.96287 0.788268 9.6321C0.866624 9.30134 1.03572 8.999 1.27653 8.75909L5.19243 4.84092C5.36239 4.67033 5.56458 4.53525 5.78723 4.44353C6.00988 4.3518 6.24855 4.30526 6.48935 4.30662H13.1486L13.6932 3.76205C16.7392 0.717243 20.4096 0.585952 21.8458 0.671576C22.2911 0.698639 22.7112 0.88775 23.0266 1.20323C23.3421 1.51871 23.5312 1.93873 23.5583 2.38407C23.6416 3.81685 23.5103 7.48728 20.4655 10.5332H20.4644ZM2.56661 10.0537L6.80787 10.6451L11.322 6.13327H6.48935L2.56661 10.0537ZM8.4256 11.6132L12.6132 15.8008L19.172 9.24201C20.0559 8.36407 20.7417 7.30711 21.1832 6.14214C21.6247 4.97717 21.8117 3.7312 21.7316 2.48796C20.489 2.4109 19.2443 2.59987 18.0806 3.04225C16.9169 3.48463 15.8609 4.17023 14.9833 5.05326L8.4256 11.6132ZM18.0932 12.9045L13.5802 17.4174L14.1739 21.6598L18.0932 17.7371V12.9045Z" fill="#92C73E"/>
</svg>
