<svg width="25" height="25" viewBox="0 0 25 25" fill="none" xmlns="http://www.w3.org/2000/svg">
<path d="M24.415 6.17125L18.8288 0.586253C18.643 0.400488 18.4225 0.253128 18.1798 0.15259C17.9372 0.0520518 17.6771 0.000305176 17.4144 0.000305176C17.1517 0.000305176 16.8916 0.0520518 16.6489 0.15259C16.4062 0.253128 16.1857 0.400488 16 0.586253L0.586252 16C0.399727 16.185 0.251844 16.4053 0.151201 16.648C0.0505584 16.8907 -0.000836928 17.151 2.48929e-06 17.4138V23C2.48929e-06 23.5304 0.210716 24.0391 0.585789 24.4142C0.960862 24.7893 1.46957 25 2 25H23C23.2652 25 23.5196 24.8946 23.7071 24.7071C23.8946 24.5196 24 24.2652 24 24C24 23.7348 23.8946 23.4804 23.7071 23.2929C23.5196 23.1054 23.2652 23 23 23H10.415L24.415 9C24.6008 8.81428 24.7481 8.59378 24.8487 8.3511C24.9492 8.10842 25.0009 7.84831 25.0009 7.58563C25.0009 7.32295 24.9492 7.06284 24.8487 6.82016C24.7481 6.57747 24.6008 6.35698 24.415 6.17125ZM13 6.41375L15.0863 8.5L4.5 19.0863L2.41375 17L13 6.41375ZM2 23V19.4138L5.58625 23H2ZM8 22.5863L5.915 20.5L16.5 9.91375L18.5863 12L8 22.5863ZM20 10.5863L14.415 5L17.415 2L23 7.58625L20 10.5863Z" fill="black"/>
</svg>
