<svg width="30" height="19" viewBox="0 0 30 19" fill="none" xmlns="http://www.w3.org/2000/svg">
<path d="M15 4.22647C14.0111 4.22647 13.0444 4.51972 12.2221 5.06912C11.3999 5.61853 10.759 6.39942 10.3806 7.31305C10.0022 8.22668 9.90315 9.23202 10.0961 10.2019C10.289 11.1718 10.7652 12.0627 11.4645 12.762C12.1637 13.4613 13.0546 13.9375 14.0245 14.1304C14.9945 14.3233 15.9998 14.2243 16.9134 13.8459C17.827 13.4674 18.6079 12.8266 19.1573 12.0043C19.7068 11.1821 20 10.2154 20 9.22647C20 7.90039 19.4732 6.62862 18.5355 5.69094C17.5979 4.75325 16.3261 4.22647 15 4.22647ZM15 12.2265C14.4067 12.2265 13.8266 12.0505 13.3333 11.7209C12.8399 11.3912 12.4554 10.9227 12.2284 10.3745C12.0013 9.82634 11.9419 9.22314 12.0576 8.6412C12.1734 8.05926 12.4591 7.52471 12.8787 7.10515C13.2982 6.68559 13.8328 6.39987 14.4147 6.28411C14.9967 6.16836 15.5999 6.22777 16.1481 6.45483C16.6962 6.68189 17.1648 7.06641 17.4944 7.55976C17.8241 8.05311 18 8.63313 18 9.22647C18 10.0221 17.6839 10.7852 17.1213 11.3478C16.5587 11.9104 15.7956 12.2265 15 12.2265ZM29 0.226471H1C0.734784 0.226471 0.48043 0.331828 0.292893 0.519364C0.105357 0.706901 0 0.961254 0 1.22647V17.2265C0 17.4917 0.105357 17.746 0.292893 17.9336C0.48043 18.1211 0.734784 18.2265 1 18.2265H29C29.2652 18.2265 29.5196 18.1211 29.7071 17.9336C29.8946 17.746 30 17.4917 30 17.2265V1.22647C30 0.961254 29.8946 0.706901 29.7071 0.519364C29.5196 0.331828 29.2652 0.226471 29 0.226471ZM23.2062 16.2265H6.79375C6.45801 15.091 5.84351 14.0575 5.00623 13.2202C4.16895 12.383 3.1355 11.7685 2 11.4327V7.02022C3.1355 6.68448 4.16895 6.06998 5.00623 5.2327C5.84351 4.39542 6.45801 3.36197 6.79375 2.22647H23.2062C23.542 3.36197 24.1565 4.39542 24.9938 5.2327C25.8311 6.06998 26.8645 6.68448 28 7.02022V11.4327C26.8645 11.7685 25.8311 12.383 24.9938 13.2202C24.1565 14.0575 23.542 15.091 23.2062 16.2265ZM28 4.89772C26.8005 4.38196 25.8445 3.42592 25.3288 2.22647H28V4.89772ZM4.67125 2.22647C4.15549 3.42592 3.19945 4.38196 2 4.89772V2.22647H4.67125ZM2 13.5552C3.19945 14.071 4.15549 15.027 4.67125 16.2265H2V13.5552ZM25.3288 16.2265C25.8445 15.027 26.8005 14.071 28 13.5552V16.2265H25.3288Z" fill="#92C73E"/>
</svg>
