<svg id="Layer_1" data-name="Layer 1" xmlns="http://www.w3.org/2000/svg" viewBox="0 0 36 36"><defs><style>.cls-1{fill:#fff;}.cls-2{fill:#4b41d9;stroke:#4b41d9;stroke-miterlimit:10;stroke-width:0.41px;}.cls-3{fill:#92c73e;}</style></defs><rect class="cls-1" x="8.43" y="6.61" width="20.88" height="23.65" rx="4.38"/><path class="cls-2" d="M18.35,35.34a2.75,2.75,0,0,1-1.16-.25,28.14,28.14,0,0,1-8-5.37,19.22,19.22,0,0,1-5-7.9A13.57,13.57,0,0,1,3.6,18V6.18A2.88,2.88,0,0,1,5.42,3.41l.45-.17,25,0,.37.13a2.72,2.72,0,0,1,1.91,2.64v12.4a12.22,12.22,0,0,1-.95,4.26,20.7,20.7,0,0,1-7.69,9.54,31.51,31.51,0,0,1-4.88,2.81A2.84,2.84,0,0,1,18.35,35.34ZM8.43,8.1v10a8.29,8.29,0,0,0,.37,2.27,14,14,0,0,0,3.72,5.87,21.93,21.93,0,0,0,5.83,4.05,20.55,20.55,0,0,0,3.31-2,16.16,16.16,0,0,0,6-7.36,7.58,7.58,0,0,0,.62-2.52V8.06Z"/><path class="cls-3" d="M29.3.66H4A1.13,1.13,0,0,0,2.85,1.77h0V26.37a1.1,1.1,0,0,0,1.08,1.12,1.08,1.08,0,0,0,.78-.3l7.9-7.35A1.23,1.23,0,0,0,13,19V11.2a1.11,1.11,0,0,1,1.11-1.11h8.52a1,1,0,0,0,.82-.38l6.66-7.19A1.11,1.11,0,0,0,30,1,1.12,1.12,0,0,0,29.3.66Z"/><path class="cls-3" d="M17.44,23.53,26,15a1.12,1.12,0,0,0-.79-1.9H16.62a1.11,1.11,0,0,0-1.12,1.11h0v8.56a1.13,1.13,0,0,0,1.17,1.11A1.08,1.08,0,0,0,17.44,23.53Z"/></svg>