<svg width="46" height="79" viewBox="0 0 46 79" fill="none" xmlns="http://www.w3.org/2000/svg">
<g filter="url(#filter0_d_1162_1722)">
<path d="M6.21499 43.5673V46.381C6.21499 46.9885 6.43881 47.532 6.88644 47.9797C7.20617 48.2994 7.58986 48.4912 8.03749 48.5872C8.16538 48.6191 8.29327 48.6191 8.42117 48.6191H8.45314H9.54024H9.57222H29.108C29.6836 48.6191 30.2271 48.4273 30.7707 48.0116C31.2823 47.596 31.634 47.1164 31.8258 46.5409L35.4388 34.263C35.6306 33.6236 35.5667 33.048 35.215 32.6004C34.8953 32.1208 34.4157 31.897 33.7762 31.865H25.527L23.9283 29.6269C23.8644 29.5629 23.8004 29.499 23.7045 29.435C23.6086 29.3711 23.5447 29.3711 23.4487 29.3711H16.5105C15.935 29.3711 15.3594 29.5629 14.8478 29.9786C14.3363 30.3942 13.9846 30.8738 13.8247 31.4493L9.4763 46.2531M18.8445 24.7349H12.6417M25.3991 42.3523C23.8644 41.6489 22.6814 40.4339 21.8501 38.6754L24.7916 37.3005L17.6615 34.1351L15.4873 41.6169L18.269 40.306C19.548 42.2884 21.0827 43.5353 22.9052 44.015C23.0331 44.0469 23.1929 44.0789 23.3208 44.1109C23.4168 44.1428 23.5447 44.1428 23.6725 44.1748C25.3671 44.4306 27.2536 44.0469 29.3638 43.0557M23.3528 27.1329H26.742C27.3495 27.1329 27.8931 27.3567 28.3407 27.7724C28.7563 28.22 28.9802 28.7316 28.9802 29.3391V29.467M21.0187 27.069V19.6191H10.0838M10.0838 19.6191V24.7029H5M10.0838 19.6191L5 24.7029M5 24.7029V41.2972H8.42117M8.35722 31.6732H11.2348M10.5634 34.0072H8.35722M11.9383 29.3711H8.32525M8.35722 36.3093H9.89195M8.29327 27.037H18.8445" stroke="#92C73E" stroke-width="1.5" stroke-miterlimit="3" stroke-linecap="round" stroke-linejoin="round"/>
</g>
<defs>
<filter id="filter0_d_1162_1722" x="0.25" y="0" width="45.75" height="86.8652" filterUnits="userSpaceOnUse" color-interpolation-filters="sRGB">
<feFlood flood-opacity="0" result="BackgroundImageFix"/>
<feColorMatrix in="SourceAlpha" type="matrix" values="0 0 0 0 0 0 0 0 0 0 0 0 0 0 0 0 0 0 127 0" result="hardAlpha"/>
<feOffset dy="4"/>
<feGaussianBlur stdDeviation="2"/>
<feComposite in2="hardAlpha" operator="out"/>
<feColorMatrix type="matrix" values="0 0 0 0 0 0 0 0 0 0 0 0 0 0 0 0 0 0 0.25 0"/>
<feBlend mode="normal" in2="BackgroundImageFix" result="effect1_dropShadow_1162_1722"/>
<feBlend mode="normal" in="SourceGraphic" in2="effect1_dropShadow_1162_1722" result="shape"/>
</filter>
</defs>
</svg>
