<svg width="33" height="31" viewBox="0 0 33 31" fill="none" xmlns="http://www.w3.org/2000/svg">
<path d="M2.21499 25.0528V27.8665C2.21499 28.474 2.43881 29.0175 2.88644 29.4651C3.20617 29.7849 3.58986 29.9767 4.03749 30.0726C4.16538 30.1046 4.29327 30.1046 4.42117 30.1046H4.45314H5.54024H5.57222H25.108C25.6836 30.1046 26.2271 29.9128 26.7707 29.4971C27.2823 29.0815 27.634 28.6019 27.8258 28.0263L31.4388 15.7485C31.6306 15.109 31.5667 14.5335 31.215 14.0859C30.8953 13.6063 30.4157 13.3825 29.7762 13.3505H21.527L19.9283 11.1123C19.8644 11.0484 19.8004 10.9844 19.7045 10.9205C19.6086 10.8565 19.5447 10.8565 19.4487 10.8565H12.5105C11.935 10.8565 11.3594 11.0484 10.8478 11.464C10.3363 11.8797 9.98456 12.3593 9.8247 12.9348L5.4763 27.7386M14.8445 6.22038H8.64168M21.3991 23.8378C19.8644 23.1344 18.6814 21.9194 17.8501 20.1608L20.7916 18.786L13.6615 15.6206L11.4873 23.1024L14.269 21.7915C15.548 23.7739 17.0827 25.0208 18.9052 25.5004C19.0331 25.5324 19.1929 25.5644 19.3208 25.5963C19.4168 25.6283 19.5447 25.6283 19.6725 25.6603C21.3671 25.9161 23.2536 25.5324 25.3638 24.5412M19.3528 8.6184H22.742C23.3495 8.6184 23.8931 8.84221 24.3407 9.25787C24.7563 9.7055 24.9802 10.2171 24.9802 10.8246V10.9525M17.0187 8.55445V1.10461H6.08379M6.08379 1.10461V6.18841H1M6.08379 1.10461L1 6.18841M1 6.18841V22.7827H4.42117M4.35722 13.1586H7.23484M6.5634 15.4927H4.35722M7.93826 10.8565H4.32525M4.35722 17.7948H5.89195M4.29327 8.52248H14.8445" stroke="#92C73E" stroke-width="1.5" stroke-miterlimit="3" stroke-linecap="round" stroke-linejoin="round"/>
</svg>
