<svg width="28" height="25" viewBox="0 0 28 25" fill="none" xmlns="http://www.w3.org/2000/svg">
<path d="M28 11.2265C28.0011 10.0781 27.7196 8.94703 27.1803 7.9331C26.6411 6.91916 25.8607 6.05348 24.9079 5.41236C23.9551 4.77124 22.8592 4.37439 21.7168 4.25679C20.5744 4.13919 19.4207 4.30446 18.3573 4.73803C17.2938 5.1716 16.3534 5.86014 15.6189 6.74295C14.8844 7.62576 14.3784 8.67573 14.1455 9.80027C13.9126 10.9248 13.9599 12.0894 14.2833 13.1913C14.6067 14.2932 15.1963 15.2987 16 16.119V23.2265C15.9999 23.397 16.0434 23.5648 16.1264 23.7138C16.2093 23.8627 16.329 23.988 16.4741 24.0777C16.6192 24.1674 16.7847 24.2185 16.9551 24.2262C17.1255 24.2338 17.295 24.1978 17.4475 24.1215L21 22.344L24.5525 24.1215C24.705 24.1978 24.8745 24.2338 25.0449 24.2262C25.2153 24.2185 25.3808 24.1674 25.5259 24.0777C25.671 23.988 25.7907 23.8627 25.8736 23.7138C25.9566 23.5648 26.0001 23.397 26 23.2265V16.119C27.2826 14.8136 28.0008 13.0565 28 11.2265ZM21 6.22647C21.9889 6.22647 22.9556 6.51972 23.7779 7.06912C24.6001 7.61853 25.241 8.39942 25.6194 9.31305C25.9978 10.2267 26.0969 11.232 25.9039 12.2019C25.711 13.1718 25.2348 14.0627 24.5355 14.762C23.8363 15.4613 22.9454 15.9375 21.9755 16.1304C21.0055 16.3233 20.0002 16.2243 19.0866 15.8459C18.173 15.4674 17.3921 14.8266 16.8427 14.0043C16.2932 13.1821 16 12.2154 16 11.2265C16 9.90039 16.5268 8.62862 17.4645 7.69094C18.4021 6.75325 19.6739 6.22647 21 6.22647ZM21.4475 20.3315C21.3086 20.2619 21.1554 20.2258 21 20.2258C20.8446 20.2258 20.6914 20.2619 20.5525 20.3315L18 21.609V17.5502C18.9374 17.9955 19.9622 18.2265 21 18.2265C22.0378 18.2265 23.0626 17.9955 24 17.5502V21.609L21.4475 20.3315ZM14 19.2265C14 19.4917 13.8946 19.746 13.7071 19.9336C13.5196 20.1211 13.2652 20.2265 13 20.2265H2C1.46957 20.2265 0.960859 20.0158 0.585786 19.6407C0.210714 19.2656 0 18.7569 0 18.2265V2.22647C0 1.69604 0.210714 1.18733 0.585786 0.812257C0.960859 0.437185 1.46957 0.226471 2 0.226471H24C24.5304 0.226471 25.0391 0.437185 25.4142 0.812257C25.7893 1.18733 26 1.69604 26 2.22647C26 2.49169 25.8946 2.74604 25.7071 2.93358C25.5196 3.12111 25.2652 3.22647 25 3.22647C24.7348 3.22647 24.4804 3.12111 24.2929 2.93358C24.1054 2.74604 24 2.49169 24 2.22647H2V18.2265H13C13.2652 18.2265 13.5196 18.3318 13.7071 18.5194C13.8946 18.7069 14 18.9613 14 19.2265ZM12 12.2265C12 12.4917 11.8946 12.746 11.7071 12.9336C11.5196 13.1211 11.2652 13.2265 11 13.2265H6C5.73478 13.2265 5.48043 13.1211 5.29289 12.9336C5.10536 12.746 5 12.4917 5 12.2265C5 11.9613 5.10536 11.7069 5.29289 11.5194C5.48043 11.3318 5.73478 11.2265 6 11.2265H11C11.2652 11.2265 11.5196 11.3318 11.7071 11.5194C11.8946 11.7069 12 11.9613 12 12.2265ZM12 8.22647C12 8.49169 11.8946 8.74604 11.7071 8.93358C11.5196 9.12111 11.2652 9.22647 11 9.22647H6C5.73478 9.22647 5.48043 9.12111 5.29289 8.93358C5.10536 8.74604 5 8.49169 5 8.22647C5 7.96125 5.10536 7.7069 5.29289 7.51936C5.48043 7.33183 5.73478 7.22647 6 7.22647H11C11.2652 7.22647 11.5196 7.33183 11.7071 7.51936C11.8946 7.7069 12 7.96125 12 8.22647Z" fill="#92C73E"/>
</svg>
