<svg id="Layer_1" data-name="Layer 1" xmlns="http://www.w3.org/2000/svg" viewBox="0 0 66.8 63.23"><defs><style>.cls-1{fill:#92c73e;}.cls-2{fill:#fff;}</style></defs><rect class="cls-1" x="10.88" y="7.74" width="47.36" height="47.36" rx="4.13"/><path class="cls-2" d="M49.45,16.69H20.73A1.27,1.27,0,0,0,19.46,18V45.87a1.27,1.27,0,0,0,2.13.93l9-8.34a1.27,1.27,0,0,0,.41-.93V28.65a1.26,1.26,0,0,1,1.26-1.26H41.9a1.27,1.27,0,0,0,.93-.41l7.55-8.16A1.27,1.27,0,0,0,49.45,16.69Z"/><path class="cls-2" d="M36,42.62l9.72-9.72a1.26,1.26,0,0,0-.89-2.16H35.1A1.27,1.27,0,0,0,33.83,32v9.72A1.26,1.26,0,0,0,36,42.62Z"/></svg>