<svg width="25" height="25" viewBox="0 0 25 25" fill="none" xmlns="http://www.w3.org/2000/svg">
<path d="M10.1244 23.7644C10.1244 24.0296 10.019 24.2839 9.83147 24.4715C9.64393 24.659 9.38958 24.7644 9.12436 24.7644H2.12436C1.59393 24.7644 1.08522 24.5536 0.710145 24.1786C0.335073 23.8035 0.124359 23.2948 0.124359 22.7644V2.76436C0.124359 2.23393 0.335073 1.72522 0.710145 1.35014C1.08522 0.975072 1.59393 0.764359 2.12436 0.764359H9.12436C9.38958 0.764359 9.64393 0.869716 9.83147 1.05725C10.019 1.24479 10.1244 1.49914 10.1244 1.76436C10.1244 2.02957 10.019 2.28393 9.83147 2.47147C9.64393 2.659 9.38958 2.76436 9.12436 2.76436H2.12436V22.7644H9.12436C9.38958 22.7644 9.64393 22.8697 9.83147 23.0573C10.019 23.2448 10.1244 23.4991 10.1244 23.7644ZM23.8319 12.0569L18.8319 7.05686C18.6442 6.86922 18.3897 6.7638 18.1244 6.7638C17.859 6.7638 17.6045 6.86922 17.4169 7.05686C17.2292 7.2445 17.1238 7.49899 17.1238 7.76436C17.1238 8.02972 17.2292 8.28422 17.4169 8.47186L20.7106 11.7644H9.12436C8.85914 11.7644 8.60479 11.8697 8.41725 12.0573C8.22972 12.2448 8.12436 12.4991 8.12436 12.7644C8.12436 13.0296 8.22972 13.2839 8.41725 13.4715C8.60479 13.659 8.85914 13.7644 9.12436 13.7644H20.7106L17.4169 17.0569C17.2292 17.2445 17.1238 17.499 17.1238 17.7644C17.1238 18.0297 17.2292 18.2842 17.4169 18.4719C17.6045 18.6595 17.859 18.7649 18.1244 18.7649C18.3897 18.7649 18.6442 18.6595 18.8319 18.4719L23.8319 13.4719C23.9248 13.379 23.9986 13.2687 24.0489 13.1473C24.0992 13.0259 24.1251 12.8958 24.1251 12.7644C24.1251 12.6329 24.0992 12.5028 24.0489 12.3814C23.9986 12.26 23.9248 12.1497 23.8319 12.0569Z" fill="#4B41D9"/>
</svg>
