<svg width="26" height="28" viewBox="0 0 26 28" fill="none" xmlns="http://www.w3.org/2000/svg">
<path d="M25 6.8875C24.7646 7.0094 24.4904 7.03284 24.2378 6.95268C23.9851 6.87252 23.7746 6.69531 23.6525 6.46C22.698 4.57436 21.2532 2.98062 19.47 1.84625C19.3589 1.77616 19.2626 1.68486 19.1868 1.57757C19.1109 1.47029 19.057 1.34911 19.0279 1.22097C18.9989 1.09282 18.9954 0.960219 19.0177 0.830724C19.0399 0.701229 19.0874 0.57738 19.1575 0.466249C19.2276 0.355118 19.3189 0.258881 19.4262 0.183032C19.5335 0.107184 19.6546 0.0532096 19.7828 0.0241913C19.9109 -0.00482697 20.0435 -0.00832114 20.173 0.0139083C20.3025 0.0361378 20.4264 0.0836557 20.5375 0.153749C22.6157 1.48442 24.3033 3.3432 25.4275 5.54C25.5494 5.7754 25.5728 6.04956 25.4927 6.30224C25.4125 6.55492 25.2353 6.76543 25 6.8875ZM1.46375 7C1.64695 6.99992 1.82662 6.94952 1.98313 6.85429C2.13963 6.75906 2.26698 6.62267 2.35125 6.46C3.30575 4.57436 4.75052 2.98062 6.53375 1.84625C6.75819 1.70469 6.9172 1.47977 6.97581 1.22097C7.03441 0.962169 6.98781 0.690688 6.84625 0.466249C6.70469 0.241809 6.47977 0.0827965 6.22097 0.0241913C5.96217 -0.0344138 5.69069 0.0121894 5.46625 0.153749C3.388 1.48442 1.70047 3.3432 0.57625 5.54C0.497297 5.6924 0.458899 5.86255 0.46475 6.03409C0.470601 6.20563 0.520505 6.37277 0.60966 6.51943C0.698814 6.6661 0.824217 6.78735 0.973801 6.87151C1.12338 6.95568 1.29211 6.99993 1.46375 7ZM24.7262 19.9925C24.9034 20.2963 24.9973 20.6414 24.9985 20.9931C24.9997 21.3448 24.9082 21.6906 24.7331 21.9956C24.5581 22.3006 24.3057 22.5541 24.0014 22.7304C23.6971 22.9068 23.3517 22.9997 23 23H17.9C17.6705 24.1303 17.0573 25.1465 16.1643 25.8764C15.2712 26.6063 14.1534 27.005 13 27.005C11.8466 27.005 10.7288 26.6063 9.83574 25.8764C8.94273 25.1465 8.32952 24.1303 8.1 23H3C2.64853 22.9993 2.30344 22.906 1.99951 22.7295C1.69557 22.553 1.44352 22.2995 1.26875 21.9945C1.09397 21.6896 1.00264 21.344 1.00396 20.9925C1.00528 20.641 1.09919 20.2961 1.27625 19.9925C2.4025 18.0487 3 15.285 3 12C3 9.34783 4.05357 6.80429 5.92893 4.92893C7.8043 3.05357 10.3478 2 13 2C15.6522 2 18.1957 3.05357 20.0711 4.92893C21.9464 6.80429 23 9.34783 23 12C23 15.2837 23.5975 18.0475 24.7262 19.9925ZM15.8275 23H10.1725C10.3797 23.5843 10.7628 24.09 11.2691 24.4477C11.7754 24.8053 12.3801 24.9974 13 24.9974C13.6199 24.9974 14.2246 24.8053 14.7309 24.4477C15.2372 24.09 15.6203 23.5843 15.8275 23ZM23 21C21.67 18.7162 21 15.6887 21 12C21 9.87827 20.1571 7.84343 18.6569 6.34314C17.1566 4.84285 15.1217 4 13 4C10.8783 4 8.84344 4.84285 7.34315 6.34314C5.84285 7.84343 5 9.87827 5 12C5 15.69 4.3275 18.7175 3 21H23Z" fill="#4B41D9"/>
</svg>
