<svg width="24" height="26" viewBox="0 0 24 26" fill="none" xmlns="http://www.w3.org/2000/svg">
<path d="M23.725 18.9925C23.0312 17.7975 22 14.4163 22 10C22 7.34784 20.9464 4.8043 19.0711 2.92893C17.1957 1.05357 14.6522 0 12 0C9.34784 0 6.8043 1.05357 4.92893 2.92893C3.05357 4.8043 2 7.34784 2 10C2 14.4175 0.967501 17.7975 0.273751 18.9925C0.0965889 19.2963 0.0026687 19.6415 0.00146137 19.9931C0.000254044 20.3448 0.0918025 20.6906 0.266874 20.9956C0.441946 21.3006 0.69435 21.5541 0.998632 21.7304C1.30291 21.9068 1.64832 21.9997 2 22H7.10125C7.33197 23.1289 7.94553 24.1436 8.83817 24.8722C9.7308 25.6009 10.8477 25.9989 12 25.9989C13.1523 25.9989 14.2692 25.6009 15.1618 24.8722C16.0545 24.1436 16.668 23.1289 16.8988 22H22C22.3516 21.9995 22.6968 21.9064 23.0009 21.73C23.305 21.5535 23.5573 21.3 23.7322 20.9951C23.9071 20.6901 23.9986 20.3444 23.9973 19.9928C23.996 19.6412 23.9021 19.2962 23.725 18.9925ZM12 24C11.3798 23.9998 10.7749 23.8074 10.2685 23.4492C9.76214 23.0911 9.37924 22.5848 9.1725 22H14.8275C14.6208 22.5848 14.2379 23.0911 13.7315 23.4492C13.2251 23.8074 12.6202 23.9998 12 24ZM2 20C2.9625 18.345 4 14.51 4 10C4 7.87827 4.84286 5.84344 6.34315 4.34315C7.84344 2.84285 9.87827 2 12 2C14.1217 2 16.1566 2.84285 17.6569 4.34315C19.1571 5.84344 20 7.87827 20 10C20 14.5063 21.035 18.3412 22 20H2Z" fill="black"/>
</svg>
