<svg width="29" height="27" viewBox="0 0 29 27" fill="none" xmlns="http://www.w3.org/2000/svg">
<path d="M28 18.2265H6.9825C7.315 17.5715 7.64875 16.8977 7.9825 16.2127C9.84875 16.419 12.06 15.1127 14.575 12.3102C14.65 12.5177 14.7337 12.7315 14.825 12.9477C15.6387 14.854 16.6887 15.9402 17.95 16.179C19.2425 16.429 20.5225 15.7752 21.835 14.2015C22.6875 15.2102 24.4375 16.2265 28 16.2265C28.2652 16.2265 28.5196 16.1211 28.7071 15.9336C28.8946 15.746 29 15.4917 29 15.2265C29 14.9613 28.8946 14.7069 28.7071 14.5194C28.5196 14.3318 28.2652 14.2265 28 14.2265C24.1712 14.2265 23.0562 12.9027 23 12.199C22.9939 11.9663 22.9069 11.7431 22.7539 11.5678C22.6009 11.3924 22.3916 11.2759 22.162 11.2383C21.9323 11.2007 21.6967 11.2443 21.4958 11.3617C21.2949 11.4791 21.1412 11.6629 21.0612 11.8815C19.54 14.1627 18.6387 14.274 18.3112 14.214C17.27 14.0177 16.3012 11.5977 15.975 10.0252C15.9323 9.82662 15.8301 9.64574 15.6821 9.50663C15.5341 9.36753 15.3472 9.27681 15.1463 9.24654C14.9455 9.21628 14.7401 9.2479 14.5577 9.33721C14.3752 9.42652 14.2243 9.56927 14.125 9.74647C11.65 12.824 9.99 13.8715 8.94875 14.139C10.01 11.779 10.8025 9.70772 11.31 7.96397C12.1625 5.03397 12.225 2.98522 11.4987 1.70147C11.1237 1.03147 10.3375 0.232721 8.76 0.226471H8.72875C6.72875 0.240221 5.15375 2.13897 4.40125 5.43897C3.9525 7.40272 3.87875 9.58772 4.1975 11.439C4.51625 13.2902 5.18 14.6277 6.14125 15.4252C5.67625 16.3915 5.2 17.3352 4.7375 18.229H2C1.73478 18.229 1.48043 18.3343 1.29289 18.5219C1.10535 18.7094 0.999996 18.9638 0.999996 19.229C0.999996 19.4942 1.10535 19.7485 1.29289 19.9361C1.48043 20.1236 1.73478 20.229 2 20.229H3.67625C2.26125 22.854 1.16125 24.684 1.14375 24.714C1.07245 24.8266 1.02439 24.9523 1.00238 25.0837C0.980368 25.2152 0.984856 25.3497 1.01558 25.4794C1.0463 25.6091 1.10264 25.7313 1.18128 25.8389C1.25992 25.9465 1.35927 26.0373 1.47351 26.106C1.58774 26.1747 1.71455 26.2198 1.84647 26.2387C1.9784 26.2577 2.11278 26.2501 2.24172 26.2163C2.37066 26.1826 2.49155 26.1234 2.5973 26.0423C2.70305 25.9612 2.79151 25.8598 2.8575 25.744C2.87625 25.7115 4.26625 23.3952 5.945 20.229H28C28.2652 20.229 28.5196 20.1236 28.7071 19.9361C28.8946 19.7485 29 19.4942 29 19.229C29 18.9638 28.8946 18.7094 28.7071 18.5219C28.5196 18.3343 28.2652 18.229 28 18.229V18.2265ZM23 12.2265V12.2002C23.0008 12.209 23.0008 12.2177 23 12.2265ZM6.34875 5.88397C6.8475 3.69897 7.81 2.22647 8.75 2.22647C9.40625 2.22647 9.625 2.45897 9.75 2.68522C10.125 3.35147 10.565 5.70897 7.04375 13.4815C6.02 12.0702 5.67125 8.85147 6.34875 5.88397Z" fill="#92C73E"/>
</svg>
