<svg width="25" height="25" viewBox="0 0 25 25" fill="none" xmlns="http://www.w3.org/2000/svg">
<path d="M14.9713 2.22656H6.97131C6.44088 2.22656 5.93217 2.43728 5.5571 2.81235C5.18203 3.18742 4.97131 3.69613 4.97131 4.22656V20.2266C4.97131 20.757 5.18203 21.2657 5.5571 21.6408C5.93217 22.0158 6.44088 22.2266 6.97131 22.2266H18.9713C19.5017 22.2266 20.0105 22.0158 20.3855 21.6408C20.7606 21.2657 20.9713 20.757 20.9713 20.2266V8.22656L14.9713 2.22656Z" stroke="#92C73E" stroke-width="2" stroke-linecap="round" stroke-linejoin="round"/>
<path d="M14.9713 2.22656V8.22656H20.9713" stroke="#92C73E" stroke-width="2" stroke-linecap="round" stroke-linejoin="round"/>
<path d="M16.9713 13.2266H8.97131" stroke="#92C73E" stroke-width="2" stroke-linecap="round" stroke-linejoin="round"/>
<path d="M16.9713 17.2266H8.97131" stroke="#92C73E" stroke-width="2" stroke-linecap="round" stroke-linejoin="round"/>
<path d="M10.9713 9.22656H9.97131H8.97131" stroke="#92C73E" stroke-width="2" stroke-linecap="round" stroke-linejoin="round"/>
</svg>
