<svg width="32" height="33" viewBox="0 0 32 33" fill="none" xmlns="http://www.w3.org/2000/svg">
<path d="M14.6562 19.9667C15.9964 19.0744 17.014 17.7745 17.5583 16.2592C18.1027 14.744 18.1449 13.0937 17.6788 11.5526C17.2127 10.0114 16.2631 8.66114 14.9702 7.70146C13.6774 6.74178 12.11 6.22363 10.4999 6.22363C8.88984 6.22363 7.32249 6.74178 6.02965 7.70146C4.73682 8.66114 3.78714 10.0114 3.32105 11.5526C2.85497 13.0937 2.89722 14.744 3.44156 16.2592C3.9859 17.7745 5.00344 19.0744 6.34369 19.9667C3.9193 20.8602 1.84882 22.5137 0.44119 24.6804C0.36721 24.7904 0.315823 24.9139 0.290017 25.0439C0.26421 25.1739 0.264499 25.3077 0.290866 25.4376C0.317234 25.5675 0.369154 25.6908 0.443608 25.8005C0.518063 25.9101 0.613566 26.0038 0.724568 26.0762C0.83557 26.1486 0.959855 26.1983 1.0902 26.2222C1.22054 26.2461 1.35435 26.2439 1.48383 26.2157C1.61332 26.1875 1.73591 26.1338 1.84446 26.0578C1.95302 25.9818 2.04539 25.885 2.11619 25.7729C3.02418 24.3764 4.26664 23.2288 5.73074 22.4344C7.19484 21.64 8.8342 21.2239 10.4999 21.2239C12.1657 21.2239 13.805 21.64 15.2691 22.4344C16.7332 23.2288 17.9757 24.3764 18.8837 25.7729C19.0304 25.9909 19.2569 26.1424 19.5144 26.1947C19.7719 26.247 20.0396 26.1958 20.2597 26.0523C20.4797 25.9087 20.6345 25.6844 20.6904 25.4277C20.7464 25.1709 20.6991 24.9025 20.5587 24.6804C19.1511 22.5137 17.0806 20.8602 14.6562 19.9667ZM4.99994 13.7267C4.99994 12.6389 5.32251 11.5755 5.92686 10.671C6.5312 9.76657 7.39019 9.06162 8.39518 8.64534C9.40017 8.22906 10.506 8.12014 11.5729 8.33236C12.6398 8.54458 13.6198 9.0684 14.389 9.83759C15.1582 10.6068 15.682 11.5868 15.8943 12.6537C16.1065 13.7206 15.9976 14.8264 15.5813 15.8314C15.165 16.8364 14.46 17.6954 13.5556 18.2998C12.6511 18.9041 11.5877 19.2267 10.4999 19.2267C9.04176 19.225 7.64377 18.645 6.61268 17.6139C5.58159 16.5828 5.00159 15.1849 4.99994 13.7267ZM31.2674 26.0642C31.0453 26.209 30.7747 26.2597 30.5153 26.2051C30.2558 26.1505 30.0286 25.995 29.8837 25.7729C28.9768 24.3756 27.7345 23.2275 26.2701 22.4334C24.8057 21.6393 23.1658 21.2244 21.4999 21.2267C21.2347 21.2267 20.9804 21.1213 20.7928 20.9338C20.6053 20.7462 20.4999 20.4919 20.4999 20.2267C20.4999 19.9615 20.6053 19.7071 20.7928 19.5196C20.9804 19.332 21.2347 19.2267 21.4999 19.2267C22.3099 19.2259 23.1097 19.0463 23.8422 18.7006C24.5747 18.3549 25.2218 17.8517 25.7372 17.2269C26.2527 16.6021 26.6238 15.8712 26.824 15.0864C27.0243 14.3016 27.0487 13.4822 26.8956 12.6869C26.7424 11.8915 26.4155 11.1398 25.9382 10.4854C25.4609 9.83105 24.8449 9.29019 24.1343 8.90147C23.4237 8.51275 22.6361 8.28577 21.8276 8.23676C21.0191 8.18774 20.2098 8.3179 19.4574 8.61793C19.3348 8.67095 19.2027 8.69886 19.0691 8.69999C18.9355 8.70112 18.803 8.67545 18.6794 8.6245C18.5559 8.57355 18.4438 8.49836 18.3498 8.40336C18.2558 8.30837 18.1818 8.19549 18.1322 8.07141C18.0825 7.94733 18.0583 7.81456 18.0608 7.68095C18.0634 7.54734 18.0927 7.41559 18.147 7.29349C18.2013 7.17139 18.2796 7.06143 18.3771 6.97008C18.4747 6.87874 18.5895 6.80787 18.7149 6.76168C20.4368 6.07499 22.3519 6.05028 24.0909 6.69231C25.8298 7.33434 27.2694 8.59762 28.1319 10.2384C28.9944 11.8793 29.2187 13.7814 28.7616 15.5778C28.3044 17.3743 27.1981 18.9378 25.6562 19.9667C28.0806 20.8602 30.1511 22.5137 31.5587 24.6804C31.7035 24.9026 31.7542 25.1731 31.6996 25.4326C31.645 25.6921 31.4895 25.9193 31.2674 26.0642Z" fill="#92C73E"/>
</svg>
